; NON-PLATED HOLES START AT T1
; THROUGH (PLATED) HOLES START AT T100
M48
INCH
T100C0.035000
T101C0.030000
T102C0.038000
T103C0.015748
%
T100
X005925Y008040
X011925Y011040
X011925Y009040
X005925Y004040
X005925Y005040
X011925Y013040
X011925Y006040
X005925Y006040
X005925Y014040
X005925Y003040
X005925Y011040
X005925Y013040
X011925Y007040
X005925Y001040
X005925Y012040
X005925Y002040
X011925Y008040
X005925Y009040
X011925Y012040
X005925Y010040
X011925Y014040
X005925Y007040
X011925Y001040
X011925Y002040
X011925Y005040
X011925Y004040
X011925Y010040
X011925Y003040
T101
X012933Y015066
X012933Y014064
T102
X013011Y003001
X013996Y005009
X014011Y003001
X013996Y008009
X008917Y011009
X002972Y009001
X008917Y010009
X013996Y009009
X002972Y003001
X002972Y012001
X008917Y014009
X002972Y010001
X002972Y007001
X002972Y004001
X008917Y007009
X008917Y008009
X002972Y005001
X008917Y003009
X008917Y004009
X013996Y011009
X008917Y013009
X013996Y004009
X013996Y010009
X013996Y012009
X002972Y008001
X008917Y009009
X013996Y007009
X002972Y006001
X002972Y013001
X002972Y014001
X014011Y002001
X013011Y002001
X008917Y012009
X013996Y013009
X008917Y006009
X002972Y011001
X013996Y014009
X008917Y005009
X013996Y006009
T103
X010492Y007489
X007106Y012016
X009822Y013513
X010488Y008239
X009822Y007843
X007147Y014069
X012694Y006540
X007781Y011040
X011039Y002060
X009821Y010953
X010452Y013040
X008247Y002056
X007106Y011001
X010452Y010954
X007775Y006347
X007813Y013040
X007578Y003001
X009826Y012051
X007813Y012056
X010452Y012017
T00
M30
