G04 MADE WITH FRITZING*
G04 WWW.FRITZING.ORG*
G04 DOUBLE SIDED*
G04 HOLES PLATED*
G04 CONTOUR ON CENTER OF CONTOUR VECTOR*
%ASAXBY*%
%FSLAX23Y23*%
%MOIN*%
%OFA0B0*%
%SFA1.0B1.0*%
%ADD10R,0.001000X0.001000*%
%LNSILK0*%
G90*
G70*
G54D10*
X378Y1614D02*
X1237Y1614D01*
X364Y1613D02*
X1251Y1613D01*
X354Y1612D02*
X1261Y1612D01*
X346Y1611D02*
X1269Y1611D01*
X339Y1610D02*
X1276Y1610D01*
X333Y1609D02*
X1282Y1609D01*
X327Y1608D02*
X1288Y1608D01*
X322Y1607D02*
X1293Y1607D01*
X317Y1606D02*
X378Y1606D01*
X1237Y1606D02*
X1298Y1606D01*
X312Y1605D02*
X363Y1605D01*
X1252Y1605D02*
X1303Y1605D01*
X308Y1604D02*
X353Y1604D01*
X1262Y1604D02*
X1307Y1604D01*
X303Y1603D02*
X345Y1603D01*
X1270Y1603D02*
X1312Y1603D01*
X299Y1602D02*
X338Y1602D01*
X1277Y1602D02*
X1316Y1602D01*
X296Y1601D02*
X332Y1601D01*
X1283Y1601D02*
X1319Y1601D01*
X292Y1600D02*
X326Y1600D01*
X1289Y1600D02*
X1323Y1600D01*
X288Y1599D02*
X321Y1599D01*
X1294Y1599D02*
X1327Y1599D01*
X285Y1598D02*
X316Y1598D01*
X1299Y1598D02*
X1330Y1598D01*
X282Y1597D02*
X311Y1597D01*
X1304Y1597D02*
X1333Y1597D01*
X279Y1596D02*
X307Y1596D01*
X1308Y1596D02*
X1336Y1596D01*
X275Y1595D02*
X303Y1595D01*
X1312Y1595D02*
X1340Y1595D01*
X272Y1594D02*
X299Y1594D01*
X1316Y1594D02*
X1343Y1594D01*
X269Y1593D02*
X295Y1593D01*
X1320Y1593D02*
X1346Y1593D01*
X267Y1592D02*
X292Y1592D01*
X1323Y1592D02*
X1348Y1592D01*
X264Y1591D02*
X288Y1591D01*
X1327Y1591D02*
X1351Y1591D01*
X261Y1590D02*
X285Y1590D01*
X1330Y1590D02*
X1354Y1590D01*
X258Y1589D02*
X281Y1589D01*
X1334Y1589D02*
X1356Y1589D01*
X256Y1588D02*
X278Y1588D01*
X1336Y1588D02*
X1359Y1588D01*
X253Y1587D02*
X276Y1587D01*
X1339Y1587D02*
X1362Y1587D01*
X251Y1586D02*
X273Y1586D01*
X1342Y1586D02*
X1364Y1586D01*
X248Y1585D02*
X270Y1585D01*
X1345Y1585D02*
X1367Y1585D01*
X246Y1584D02*
X267Y1584D01*
X1348Y1584D02*
X1369Y1584D01*
X243Y1583D02*
X264Y1583D01*
X1351Y1583D02*
X1372Y1583D01*
X241Y1582D02*
X261Y1582D01*
X1354Y1582D02*
X1374Y1582D01*
X239Y1581D02*
X259Y1581D01*
X1356Y1581D02*
X1376Y1581D01*
X237Y1580D02*
X256Y1580D01*
X1359Y1580D02*
X1378Y1580D01*
X234Y1579D02*
X254Y1579D01*
X1361Y1579D02*
X1380Y1579D01*
X232Y1578D02*
X251Y1578D01*
X1364Y1578D02*
X1383Y1578D01*
X230Y1577D02*
X248Y1577D01*
X1367Y1577D02*
X1385Y1577D01*
X228Y1576D02*
X246Y1576D01*
X1369Y1576D02*
X1387Y1576D01*
X226Y1575D02*
X244Y1575D01*
X1371Y1575D02*
X1389Y1575D01*
X224Y1574D02*
X242Y1574D01*
X1373Y1574D02*
X1391Y1574D01*
X222Y1573D02*
X239Y1573D01*
X1376Y1573D02*
X1393Y1573D01*
X220Y1572D02*
X237Y1572D01*
X1378Y1572D02*
X1395Y1572D01*
X218Y1571D02*
X235Y1571D01*
X1380Y1571D02*
X1397Y1571D01*
X216Y1570D02*
X233Y1570D01*
X1382Y1570D02*
X1399Y1570D01*
X214Y1569D02*
X230Y1569D01*
X1385Y1569D02*
X1401Y1569D01*
X212Y1568D02*
X228Y1568D01*
X1387Y1568D02*
X1403Y1568D01*
X210Y1567D02*
X226Y1567D01*
X1389Y1567D02*
X1405Y1567D01*
X208Y1566D02*
X224Y1566D01*
X1391Y1566D02*
X1407Y1566D01*
X206Y1565D02*
X222Y1565D01*
X1393Y1565D02*
X1409Y1565D01*
X205Y1564D02*
X220Y1564D01*
X1395Y1564D02*
X1410Y1564D01*
X203Y1563D02*
X219Y1563D01*
X1396Y1563D02*
X1412Y1563D01*
X201Y1562D02*
X217Y1562D01*
X1398Y1562D02*
X1414Y1562D01*
X200Y1561D02*
X215Y1561D01*
X1400Y1561D02*
X1415Y1561D01*
X198Y1560D02*
X213Y1560D01*
X1402Y1560D02*
X1417Y1560D01*
X196Y1559D02*
X211Y1559D01*
X1404Y1559D02*
X1419Y1559D01*
X194Y1558D02*
X209Y1558D01*
X1406Y1558D02*
X1421Y1558D01*
X193Y1557D02*
X207Y1557D01*
X1408Y1557D02*
X1422Y1557D01*
X191Y1556D02*
X206Y1556D01*
X1409Y1556D02*
X1424Y1556D01*
X189Y1555D02*
X204Y1555D01*
X1411Y1555D02*
X1426Y1555D01*
X188Y1554D02*
X202Y1554D01*
X1413Y1554D02*
X1427Y1554D01*
X186Y1553D02*
X200Y1553D01*
X1415Y1553D02*
X1429Y1553D01*
X185Y1552D02*
X199Y1552D01*
X1416Y1552D02*
X1430Y1552D01*
X183Y1551D02*
X197Y1551D01*
X1418Y1551D02*
X1432Y1551D01*
X182Y1550D02*
X195Y1550D01*
X1420Y1550D02*
X1433Y1550D01*
X180Y1549D02*
X194Y1549D01*
X1421Y1549D02*
X1435Y1549D01*
X178Y1548D02*
X192Y1548D01*
X1423Y1548D02*
X1437Y1548D01*
X177Y1547D02*
X191Y1547D01*
X1424Y1547D02*
X1438Y1547D01*
X175Y1546D02*
X189Y1546D01*
X1426Y1546D02*
X1440Y1546D01*
X174Y1545D02*
X187Y1545D01*
X1428Y1545D02*
X1441Y1545D01*
X173Y1544D02*
X186Y1544D01*
X1429Y1544D02*
X1442Y1544D01*
X171Y1543D02*
X184Y1543D01*
X1431Y1543D02*
X1444Y1543D01*
X170Y1542D02*
X183Y1542D01*
X1432Y1542D02*
X1445Y1542D01*
X168Y1541D02*
X181Y1541D01*
X1434Y1541D02*
X1447Y1541D01*
X167Y1540D02*
X180Y1540D01*
X1435Y1540D02*
X1448Y1540D01*
X166Y1539D02*
X178Y1539D01*
X1437Y1539D02*
X1449Y1539D01*
X164Y1538D02*
X177Y1538D01*
X1438Y1538D02*
X1451Y1538D01*
X163Y1537D02*
X175Y1537D01*
X1440Y1537D02*
X1452Y1537D01*
X161Y1536D02*
X174Y1536D01*
X1441Y1536D02*
X1454Y1536D01*
X160Y1535D02*
X173Y1535D01*
X1442Y1535D02*
X1455Y1535D01*
X159Y1534D02*
X171Y1534D01*
X1444Y1534D02*
X1456Y1534D01*
X157Y1533D02*
X170Y1533D01*
X1445Y1533D02*
X1458Y1533D01*
X156Y1532D02*
X168Y1532D01*
X1447Y1532D02*
X1459Y1532D01*
X155Y1531D02*
X167Y1531D01*
X1448Y1531D02*
X1460Y1531D01*
X154Y1530D02*
X166Y1530D01*
X1449Y1530D02*
X1461Y1530D01*
X152Y1529D02*
X164Y1529D01*
X1451Y1529D02*
X1463Y1529D01*
X151Y1528D02*
X163Y1528D01*
X1452Y1528D02*
X1464Y1528D01*
X150Y1527D02*
X162Y1527D01*
X1453Y1527D02*
X1465Y1527D01*
X149Y1526D02*
X160Y1526D01*
X1455Y1526D02*
X1466Y1526D01*
X147Y1525D02*
X159Y1525D01*
X1456Y1525D02*
X1468Y1525D01*
X146Y1524D02*
X158Y1524D01*
X1457Y1524D02*
X1469Y1524D01*
X145Y1523D02*
X157Y1523D01*
X1458Y1523D02*
X1470Y1523D01*
X144Y1522D02*
X155Y1522D01*
X1460Y1522D02*
X1471Y1522D01*
X142Y1521D02*
X154Y1521D01*
X1461Y1521D02*
X1473Y1521D01*
X141Y1520D02*
X153Y1520D01*
X1462Y1520D02*
X1474Y1520D01*
X140Y1519D02*
X152Y1519D01*
X1463Y1519D02*
X1475Y1519D01*
X139Y1518D02*
X150Y1518D01*
X1465Y1518D02*
X1476Y1518D01*
X138Y1517D02*
X149Y1517D01*
X1466Y1517D02*
X1477Y1517D01*
X137Y1516D02*
X148Y1516D01*
X1467Y1516D02*
X1478Y1516D01*
X136Y1515D02*
X147Y1515D01*
X1468Y1515D02*
X1479Y1515D01*
X134Y1514D02*
X146Y1514D01*
X1469Y1514D02*
X1481Y1514D01*
X133Y1513D02*
X144Y1513D01*
X1471Y1513D02*
X1482Y1513D01*
X132Y1512D02*
X143Y1512D01*
X1472Y1512D02*
X1483Y1512D01*
X131Y1511D02*
X142Y1511D01*
X1473Y1511D02*
X1484Y1511D01*
X130Y1510D02*
X141Y1510D01*
X1474Y1510D02*
X1485Y1510D01*
X129Y1509D02*
X140Y1509D01*
X1475Y1509D02*
X1486Y1509D01*
X128Y1508D02*
X139Y1508D01*
X1476Y1508D02*
X1487Y1508D01*
X127Y1507D02*
X138Y1507D01*
X1477Y1507D02*
X1488Y1507D01*
X126Y1506D02*
X136Y1506D01*
X1479Y1506D02*
X1489Y1506D01*
X125Y1505D02*
X135Y1505D01*
X1480Y1505D02*
X1490Y1505D01*
X124Y1504D02*
X134Y1504D01*
X1481Y1504D02*
X1491Y1504D01*
X123Y1503D02*
X133Y1503D01*
X1482Y1503D02*
X1492Y1503D01*
X122Y1502D02*
X132Y1502D01*
X1483Y1502D02*
X1493Y1502D01*
X120Y1501D02*
X131Y1501D01*
X1484Y1501D02*
X1495Y1501D01*
X119Y1500D02*
X130Y1500D01*
X1485Y1500D02*
X1496Y1500D01*
X118Y1499D02*
X129Y1499D01*
X1486Y1499D02*
X1497Y1499D01*
X117Y1498D02*
X128Y1498D01*
X1487Y1498D02*
X1498Y1498D01*
X116Y1497D02*
X127Y1497D01*
X1488Y1497D02*
X1499Y1497D01*
X115Y1496D02*
X126Y1496D01*
X1489Y1496D02*
X1500Y1496D01*
X114Y1495D02*
X125Y1495D01*
X1490Y1495D02*
X1501Y1495D01*
X114Y1494D02*
X124Y1494D01*
X1491Y1494D02*
X1501Y1494D01*
X113Y1493D02*
X123Y1493D01*
X1492Y1493D02*
X1502Y1493D01*
X112Y1492D02*
X122Y1492D01*
X1493Y1492D02*
X1503Y1492D01*
X111Y1491D02*
X121Y1491D01*
X1494Y1491D02*
X1504Y1491D01*
X110Y1490D02*
X120Y1490D01*
X1495Y1490D02*
X1505Y1490D01*
X109Y1489D02*
X119Y1489D01*
X1496Y1489D02*
X1506Y1489D01*
X108Y1488D02*
X118Y1488D01*
X1497Y1488D02*
X1507Y1488D01*
X107Y1487D02*
X117Y1487D01*
X1498Y1487D02*
X1508Y1487D01*
X106Y1486D02*
X116Y1486D01*
X1499Y1486D02*
X1509Y1486D01*
X105Y1485D02*
X115Y1485D01*
X1500Y1485D02*
X1510Y1485D01*
X104Y1484D02*
X114Y1484D01*
X1501Y1484D02*
X1511Y1484D01*
X103Y1483D02*
X113Y1483D01*
X1502Y1483D02*
X1512Y1483D01*
X102Y1482D02*
X112Y1482D01*
X1503Y1482D02*
X1513Y1482D01*
X101Y1481D02*
X111Y1481D01*
X1504Y1481D02*
X1514Y1481D01*
X101Y1480D02*
X110Y1480D01*
X1505Y1480D02*
X1514Y1480D01*
X100Y1479D02*
X109Y1479D01*
X1506Y1479D02*
X1515Y1479D01*
X99Y1478D02*
X108Y1478D01*
X1507Y1478D02*
X1516Y1478D01*
X98Y1477D02*
X108Y1477D01*
X1507Y1477D02*
X1517Y1477D01*
X97Y1476D02*
X107Y1476D01*
X1508Y1476D02*
X1518Y1476D01*
X96Y1475D02*
X106Y1475D01*
X1509Y1475D02*
X1519Y1475D01*
X95Y1474D02*
X105Y1474D01*
X1510Y1474D02*
X1520Y1474D01*
X94Y1473D02*
X104Y1473D01*
X1511Y1473D02*
X1520Y1473D01*
X94Y1472D02*
X103Y1472D01*
X1512Y1472D02*
X1521Y1472D01*
X93Y1471D02*
X102Y1471D01*
X1513Y1471D02*
X1522Y1471D01*
X92Y1470D02*
X101Y1470D01*
X1514Y1470D02*
X1523Y1470D01*
X91Y1469D02*
X101Y1469D01*
X1514Y1469D02*
X1524Y1469D01*
X90Y1468D02*
X100Y1468D01*
X1515Y1468D02*
X1525Y1468D01*
X90Y1467D02*
X99Y1467D01*
X1516Y1467D02*
X1525Y1467D01*
X89Y1466D02*
X98Y1466D01*
X1517Y1466D02*
X1526Y1466D01*
X88Y1465D02*
X97Y1465D01*
X1518Y1465D02*
X1527Y1465D01*
X87Y1464D02*
X96Y1464D01*
X1519Y1464D02*
X1528Y1464D01*
X86Y1463D02*
X96Y1463D01*
X1519Y1463D02*
X1529Y1463D01*
X86Y1462D02*
X95Y1462D01*
X1520Y1462D02*
X1529Y1462D01*
X85Y1461D02*
X94Y1461D01*
X1521Y1461D02*
X1530Y1461D01*
X84Y1460D02*
X93Y1460D01*
X1522Y1460D02*
X1531Y1460D01*
X83Y1459D02*
X92Y1459D01*
X1523Y1459D02*
X1532Y1459D01*
X82Y1458D02*
X92Y1458D01*
X1523Y1458D02*
X1533Y1458D01*
X82Y1457D02*
X91Y1457D01*
X1524Y1457D02*
X1533Y1457D01*
X81Y1456D02*
X90Y1456D01*
X1525Y1456D02*
X1534Y1456D01*
X80Y1455D02*
X89Y1455D01*
X1526Y1455D02*
X1535Y1455D01*
X79Y1454D02*
X88Y1454D01*
X1527Y1454D02*
X1536Y1454D01*
X79Y1453D02*
X88Y1453D01*
X1527Y1453D02*
X1536Y1453D01*
X78Y1452D02*
X87Y1452D01*
X1528Y1452D02*
X1537Y1452D01*
X77Y1451D02*
X86Y1451D01*
X1529Y1451D02*
X1538Y1451D01*
X77Y1450D02*
X85Y1450D01*
X1530Y1450D02*
X1538Y1450D01*
X76Y1449D02*
X85Y1449D01*
X1530Y1449D02*
X1539Y1449D01*
X75Y1448D02*
X84Y1448D01*
X1531Y1448D02*
X1540Y1448D01*
X74Y1447D02*
X83Y1447D01*
X1532Y1447D02*
X1541Y1447D01*
X74Y1446D02*
X82Y1446D01*
X1533Y1446D02*
X1541Y1446D01*
X73Y1445D02*
X82Y1445D01*
X1533Y1445D02*
X1542Y1445D01*
X72Y1444D02*
X81Y1444D01*
X1534Y1444D02*
X1543Y1444D01*
X72Y1443D02*
X80Y1443D01*
X1535Y1443D02*
X1543Y1443D01*
X71Y1442D02*
X80Y1442D01*
X1535Y1442D02*
X1544Y1442D01*
X70Y1441D02*
X79Y1441D01*
X1536Y1441D02*
X1545Y1441D01*
X69Y1440D02*
X78Y1440D01*
X1537Y1440D02*
X1546Y1440D01*
X69Y1439D02*
X77Y1439D01*
X1538Y1439D02*
X1546Y1439D01*
X68Y1438D02*
X77Y1438D01*
X1538Y1438D02*
X1547Y1438D01*
X67Y1437D02*
X76Y1437D01*
X1539Y1437D02*
X1548Y1437D01*
X67Y1436D02*
X75Y1436D01*
X1540Y1436D02*
X1548Y1436D01*
X66Y1435D02*
X75Y1435D01*
X1540Y1435D02*
X1549Y1435D01*
X66Y1434D02*
X74Y1434D01*
X1541Y1434D02*
X1549Y1434D01*
X65Y1433D02*
X73Y1433D01*
X1542Y1433D02*
X1550Y1433D01*
X64Y1432D02*
X73Y1432D01*
X1542Y1432D02*
X1551Y1432D01*
X64Y1431D02*
X72Y1431D01*
X1543Y1431D02*
X1551Y1431D01*
X63Y1430D02*
X71Y1430D01*
X1544Y1430D02*
X1552Y1430D01*
X62Y1429D02*
X71Y1429D01*
X1544Y1429D02*
X1553Y1429D01*
X62Y1428D02*
X70Y1428D01*
X1545Y1428D02*
X1553Y1428D01*
X61Y1427D02*
X69Y1427D01*
X1546Y1427D02*
X1554Y1427D01*
X60Y1426D02*
X69Y1426D01*
X1546Y1426D02*
X1555Y1426D01*
X60Y1425D02*
X68Y1425D01*
X1547Y1425D02*
X1555Y1425D01*
X59Y1424D02*
X68Y1424D01*
X1547Y1424D02*
X1556Y1424D01*
X59Y1423D02*
X67Y1423D01*
X1548Y1423D02*
X1556Y1423D01*
X58Y1422D02*
X66Y1422D01*
X1549Y1422D02*
X1557Y1422D01*
X57Y1421D02*
X66Y1421D01*
X1549Y1421D02*
X1558Y1421D01*
X57Y1420D02*
X65Y1420D01*
X1550Y1420D02*
X1558Y1420D01*
X56Y1419D02*
X64Y1419D01*
X1551Y1419D02*
X1559Y1419D01*
X56Y1418D02*
X64Y1418D01*
X1551Y1418D02*
X1559Y1418D01*
X55Y1417D02*
X63Y1417D01*
X1552Y1417D02*
X1560Y1417D01*
X55Y1416D02*
X63Y1416D01*
X1552Y1416D02*
X1560Y1416D01*
X54Y1415D02*
X62Y1415D01*
X1553Y1415D02*
X1561Y1415D01*
X53Y1414D02*
X61Y1414D01*
X1554Y1414D02*
X1562Y1414D01*
X53Y1413D02*
X61Y1413D01*
X1554Y1413D02*
X1562Y1413D01*
X52Y1412D02*
X60Y1412D01*
X1555Y1412D02*
X1563Y1412D01*
X52Y1411D02*
X60Y1411D01*
X1555Y1411D02*
X1563Y1411D01*
X51Y1410D02*
X59Y1410D01*
X1556Y1410D02*
X1564Y1410D01*
X50Y1409D02*
X59Y1409D01*
X1556Y1409D02*
X1565Y1409D01*
X50Y1408D02*
X58Y1408D01*
X1557Y1408D02*
X1565Y1408D01*
X49Y1407D02*
X57Y1407D01*
X1558Y1407D02*
X1566Y1407D01*
X49Y1406D02*
X57Y1406D01*
X1558Y1406D02*
X1566Y1406D01*
X48Y1405D02*
X56Y1405D01*
X1559Y1405D02*
X1567Y1405D01*
X48Y1404D02*
X56Y1404D01*
X1559Y1404D02*
X1567Y1404D01*
X47Y1403D02*
X55Y1403D01*
X1560Y1403D02*
X1568Y1403D01*
X47Y1402D02*
X55Y1402D01*
X1560Y1402D02*
X1568Y1402D01*
X46Y1401D02*
X54Y1401D01*
X1561Y1401D02*
X1569Y1401D01*
X46Y1400D02*
X54Y1400D01*
X1561Y1400D02*
X1569Y1400D01*
X45Y1399D02*
X53Y1399D01*
X1562Y1399D02*
X1570Y1399D01*
X45Y1398D02*
X53Y1398D01*
X1562Y1398D02*
X1570Y1398D01*
X44Y1397D02*
X52Y1397D01*
X1563Y1397D02*
X1571Y1397D01*
X44Y1396D02*
X52Y1396D01*
X1563Y1396D02*
X1571Y1396D01*
X43Y1395D02*
X51Y1395D01*
X1564Y1395D02*
X1572Y1395D01*
X43Y1394D02*
X50Y1394D01*
X1565Y1394D02*
X1572Y1394D01*
X42Y1393D02*
X50Y1393D01*
X1565Y1393D02*
X1573Y1393D01*
X42Y1392D02*
X49Y1392D01*
X1566Y1392D02*
X1573Y1392D01*
X41Y1391D02*
X49Y1391D01*
X1566Y1391D02*
X1574Y1391D01*
X41Y1390D02*
X48Y1390D01*
X1567Y1390D02*
X1574Y1390D01*
X40Y1389D02*
X48Y1389D01*
X1567Y1389D02*
X1575Y1389D01*
X40Y1388D02*
X47Y1388D01*
X1568Y1388D02*
X1575Y1388D01*
X39Y1387D02*
X47Y1387D01*
X1568Y1387D02*
X1576Y1387D01*
X39Y1386D02*
X46Y1386D01*
X1569Y1386D02*
X1576Y1386D01*
X38Y1385D02*
X46Y1385D01*
X1569Y1385D02*
X1577Y1385D01*
X38Y1384D02*
X45Y1384D01*
X1570Y1384D02*
X1577Y1384D01*
X37Y1383D02*
X45Y1383D01*
X1570Y1383D02*
X1578Y1383D01*
X37Y1382D02*
X45Y1382D01*
X1570Y1382D02*
X1578Y1382D01*
X37Y1381D02*
X44Y1381D01*
X1571Y1381D02*
X1578Y1381D01*
X36Y1380D02*
X44Y1380D01*
X1571Y1380D02*
X1579Y1380D01*
X36Y1379D02*
X43Y1379D01*
X1572Y1379D02*
X1579Y1379D01*
X35Y1378D02*
X43Y1378D01*
X1572Y1378D02*
X1580Y1378D01*
X35Y1377D02*
X42Y1377D01*
X1573Y1377D02*
X1580Y1377D01*
X34Y1376D02*
X42Y1376D01*
X1573Y1376D02*
X1581Y1376D01*
X34Y1375D02*
X41Y1375D01*
X1574Y1375D02*
X1581Y1375D01*
X33Y1374D02*
X41Y1374D01*
X1574Y1374D02*
X1582Y1374D01*
X33Y1373D02*
X41Y1373D01*
X1574Y1373D02*
X1582Y1373D01*
X32Y1372D02*
X40Y1372D01*
X1575Y1372D02*
X1583Y1372D01*
X32Y1371D02*
X40Y1371D01*
X1575Y1371D02*
X1583Y1371D01*
X32Y1370D02*
X39Y1370D01*
X1576Y1370D02*
X1583Y1370D01*
X31Y1369D02*
X39Y1369D01*
X1576Y1369D02*
X1584Y1369D01*
X31Y1368D02*
X38Y1368D01*
X1577Y1368D02*
X1584Y1368D01*
X30Y1367D02*
X38Y1367D01*
X1577Y1367D02*
X1585Y1367D01*
X30Y1366D02*
X37Y1366D01*
X1578Y1366D02*
X1585Y1366D01*
X30Y1365D02*
X37Y1365D01*
X1578Y1365D02*
X1585Y1365D01*
X29Y1364D02*
X37Y1364D01*
X1578Y1364D02*
X1586Y1364D01*
X29Y1363D02*
X36Y1363D01*
X1579Y1363D02*
X1586Y1363D01*
X28Y1362D02*
X36Y1362D01*
X1579Y1362D02*
X1587Y1362D01*
X28Y1361D02*
X36Y1361D01*
X1579Y1361D02*
X1587Y1361D01*
X28Y1360D02*
X35Y1360D01*
X1580Y1360D02*
X1587Y1360D01*
X27Y1359D02*
X35Y1359D01*
X1580Y1359D02*
X1588Y1359D01*
X27Y1358D02*
X34Y1358D01*
X1581Y1358D02*
X1588Y1358D01*
X27Y1357D02*
X34Y1357D01*
X1581Y1357D02*
X1588Y1357D01*
X26Y1356D02*
X34Y1356D01*
X1581Y1356D02*
X1589Y1356D01*
X26Y1355D02*
X33Y1355D01*
X1582Y1355D02*
X1589Y1355D01*
X25Y1354D02*
X33Y1354D01*
X1582Y1354D02*
X1590Y1354D01*
X25Y1353D02*
X32Y1353D01*
X1583Y1353D02*
X1590Y1353D01*
X25Y1352D02*
X32Y1352D01*
X1583Y1352D02*
X1590Y1352D01*
X24Y1351D02*
X32Y1351D01*
X1583Y1351D02*
X1591Y1351D01*
X24Y1350D02*
X31Y1350D01*
X1584Y1350D02*
X1591Y1350D01*
X24Y1349D02*
X31Y1349D01*
X1584Y1349D02*
X1591Y1349D01*
X23Y1348D02*
X31Y1348D01*
X1584Y1348D02*
X1592Y1348D01*
X23Y1347D02*
X30Y1347D01*
X1585Y1347D02*
X1592Y1347D01*
X22Y1346D02*
X30Y1346D01*
X1585Y1346D02*
X1593Y1346D01*
X22Y1345D02*
X30Y1345D01*
X1585Y1345D02*
X1593Y1345D01*
X22Y1344D02*
X29Y1344D01*
X1586Y1344D02*
X1593Y1344D01*
X21Y1343D02*
X29Y1343D01*
X1586Y1343D02*
X1594Y1343D01*
X21Y1342D02*
X29Y1342D01*
X1586Y1342D02*
X1594Y1342D01*
X21Y1341D02*
X28Y1341D01*
X1587Y1341D02*
X1594Y1341D01*
X20Y1340D02*
X28Y1340D01*
X1587Y1340D02*
X1595Y1340D01*
X20Y1339D02*
X28Y1339D01*
X1587Y1339D02*
X1595Y1339D01*
X20Y1338D02*
X27Y1338D01*
X1588Y1338D02*
X1595Y1338D01*
X20Y1337D02*
X27Y1337D01*
X1588Y1337D02*
X1595Y1337D01*
X19Y1336D02*
X26Y1336D01*
X1588Y1336D02*
X1596Y1336D01*
X19Y1335D02*
X26Y1335D01*
X1589Y1335D02*
X1596Y1335D01*
X19Y1334D02*
X26Y1334D01*
X1589Y1334D02*
X1596Y1334D01*
X18Y1333D02*
X25Y1333D01*
X1590Y1333D02*
X1597Y1333D01*
X18Y1332D02*
X25Y1332D01*
X1590Y1332D02*
X1597Y1332D01*
X18Y1331D02*
X25Y1331D01*
X1590Y1331D02*
X1597Y1331D01*
X17Y1330D02*
X25Y1330D01*
X1590Y1330D02*
X1598Y1330D01*
X17Y1329D02*
X24Y1329D01*
X1591Y1329D02*
X1598Y1329D01*
X17Y1328D02*
X24Y1328D01*
X1591Y1328D02*
X1598Y1328D01*
X16Y1327D02*
X24Y1327D01*
X1591Y1327D02*
X1599Y1327D01*
X16Y1326D02*
X23Y1326D01*
X1592Y1326D02*
X1599Y1326D01*
X16Y1325D02*
X23Y1325D01*
X1592Y1325D02*
X1599Y1325D01*
X16Y1324D02*
X23Y1324D01*
X1592Y1324D02*
X1599Y1324D01*
X15Y1323D02*
X23Y1323D01*
X1592Y1323D02*
X1600Y1323D01*
X15Y1322D02*
X22Y1322D01*
X1593Y1322D02*
X1600Y1322D01*
X15Y1321D02*
X22Y1321D01*
X1593Y1321D02*
X1600Y1321D01*
X15Y1320D02*
X22Y1320D01*
X1593Y1320D02*
X1600Y1320D01*
X14Y1319D02*
X21Y1319D01*
X1594Y1319D02*
X1601Y1319D01*
X14Y1318D02*
X21Y1318D01*
X1594Y1318D02*
X1601Y1318D01*
X14Y1317D02*
X21Y1317D01*
X1594Y1317D02*
X1601Y1317D01*
X13Y1316D02*
X21Y1316D01*
X1594Y1316D02*
X1602Y1316D01*
X13Y1315D02*
X20Y1315D01*
X1595Y1315D02*
X1602Y1315D01*
X13Y1314D02*
X20Y1314D01*
X1595Y1314D02*
X1602Y1314D01*
X13Y1313D02*
X20Y1313D01*
X1595Y1313D02*
X1602Y1313D01*
X12Y1312D02*
X20Y1312D01*
X1595Y1312D02*
X1602Y1312D01*
X12Y1311D02*
X19Y1311D01*
X1596Y1311D02*
X1603Y1311D01*
X12Y1310D02*
X19Y1310D01*
X1596Y1310D02*
X1603Y1310D01*
X12Y1309D02*
X19Y1309D01*
X1596Y1309D02*
X1603Y1309D01*
X12Y1308D02*
X19Y1308D01*
X1596Y1308D02*
X1603Y1308D01*
X11Y1307D02*
X18Y1307D01*
X1597Y1307D02*
X1604Y1307D01*
X11Y1306D02*
X18Y1306D01*
X1597Y1306D02*
X1604Y1306D01*
X11Y1305D02*
X18Y1305D01*
X1597Y1305D02*
X1604Y1305D01*
X11Y1304D02*
X18Y1304D01*
X1597Y1304D02*
X1604Y1304D01*
X10Y1303D02*
X17Y1303D01*
X1598Y1303D02*
X1605Y1303D01*
X10Y1302D02*
X17Y1302D01*
X1598Y1302D02*
X1605Y1302D01*
X10Y1301D02*
X17Y1301D01*
X1598Y1301D02*
X1605Y1301D01*
X10Y1300D02*
X17Y1300D01*
X1598Y1300D02*
X1605Y1300D01*
X10Y1299D02*
X17Y1299D01*
X1598Y1299D02*
X1605Y1299D01*
X9Y1298D02*
X16Y1298D01*
X1599Y1298D02*
X1606Y1298D01*
X9Y1297D02*
X16Y1297D01*
X1599Y1297D02*
X1606Y1297D01*
X9Y1296D02*
X16Y1296D01*
X1599Y1296D02*
X1606Y1296D01*
X9Y1295D02*
X16Y1295D01*
X1599Y1295D02*
X1606Y1295D01*
X9Y1294D02*
X16Y1294D01*
X1599Y1294D02*
X1606Y1294D01*
X8Y1293D02*
X15Y1293D01*
X1600Y1293D02*
X1607Y1293D01*
X8Y1292D02*
X15Y1292D01*
X1600Y1292D02*
X1607Y1292D01*
X8Y1291D02*
X15Y1291D01*
X1600Y1291D02*
X1607Y1291D01*
X8Y1290D02*
X15Y1290D01*
X1600Y1290D02*
X1607Y1290D01*
X8Y1289D02*
X15Y1289D01*
X1600Y1289D02*
X1607Y1289D01*
X7Y1288D02*
X14Y1288D01*
X1601Y1288D02*
X1608Y1288D01*
X7Y1287D02*
X14Y1287D01*
X1601Y1287D02*
X1608Y1287D01*
X7Y1286D02*
X14Y1286D01*
X1601Y1286D02*
X1608Y1286D01*
X7Y1285D02*
X14Y1285D01*
X1601Y1285D02*
X1608Y1285D01*
X7Y1284D02*
X14Y1284D01*
X1601Y1284D02*
X1608Y1284D01*
X7Y1283D02*
X14Y1283D01*
X1601Y1283D02*
X1608Y1283D01*
X6Y1282D02*
X13Y1282D01*
X1602Y1282D02*
X1609Y1282D01*
X6Y1281D02*
X13Y1281D01*
X1602Y1281D02*
X1609Y1281D01*
X6Y1280D02*
X13Y1280D01*
X1602Y1280D02*
X1609Y1280D01*
X6Y1279D02*
X13Y1279D01*
X1602Y1279D02*
X1609Y1279D01*
X6Y1278D02*
X13Y1278D01*
X1602Y1278D02*
X1609Y1278D01*
X6Y1277D02*
X13Y1277D01*
X1602Y1277D02*
X1609Y1277D01*
X5Y1276D02*
X12Y1276D01*
X1603Y1276D02*
X1610Y1276D01*
X5Y1275D02*
X12Y1275D01*
X1603Y1275D02*
X1610Y1275D01*
X5Y1274D02*
X12Y1274D01*
X1603Y1274D02*
X1610Y1274D01*
X5Y1273D02*
X12Y1273D01*
X1603Y1273D02*
X1610Y1273D01*
X5Y1272D02*
X12Y1272D01*
X1603Y1272D02*
X1610Y1272D01*
X5Y1271D02*
X12Y1271D01*
X1603Y1271D02*
X1610Y1271D01*
X5Y1270D02*
X12Y1270D01*
X1603Y1270D02*
X1610Y1270D01*
X4Y1269D02*
X11Y1269D01*
X1604Y1269D02*
X1611Y1269D01*
X4Y1268D02*
X11Y1268D01*
X1604Y1268D02*
X1611Y1268D01*
X4Y1267D02*
X11Y1267D01*
X1604Y1267D02*
X1611Y1267D01*
X4Y1266D02*
X11Y1266D01*
X1604Y1266D02*
X1611Y1266D01*
X4Y1265D02*
X11Y1265D01*
X1604Y1265D02*
X1611Y1265D01*
X4Y1264D02*
X11Y1264D01*
X1604Y1264D02*
X1611Y1264D01*
X4Y1263D02*
X11Y1263D01*
X1604Y1263D02*
X1611Y1263D01*
X4Y1262D02*
X11Y1262D01*
X1604Y1262D02*
X1611Y1262D01*
X3Y1261D02*
X10Y1261D01*
X1605Y1261D02*
X1612Y1261D01*
X3Y1260D02*
X10Y1260D01*
X1605Y1260D02*
X1612Y1260D01*
X3Y1259D02*
X10Y1259D01*
X1605Y1259D02*
X1612Y1259D01*
X3Y1258D02*
X10Y1258D01*
X1605Y1258D02*
X1612Y1258D01*
X3Y1257D02*
X10Y1257D01*
X1605Y1257D02*
X1612Y1257D01*
X3Y1256D02*
X10Y1256D01*
X1605Y1256D02*
X1612Y1256D01*
X3Y1255D02*
X10Y1255D01*
X1605Y1255D02*
X1612Y1255D01*
X3Y1254D02*
X10Y1254D01*
X1605Y1254D02*
X1612Y1254D01*
X3Y1253D02*
X10Y1253D01*
X1605Y1253D02*
X1612Y1253D01*
X3Y1252D02*
X10Y1252D01*
X1605Y1252D02*
X1612Y1252D01*
X2Y1251D02*
X9Y1251D01*
X1606Y1251D02*
X1613Y1251D01*
X2Y1250D02*
X9Y1250D01*
X1606Y1250D02*
X1613Y1250D01*
X2Y1249D02*
X9Y1249D01*
X1606Y1249D02*
X1613Y1249D01*
X2Y1248D02*
X9Y1248D01*
X1606Y1248D02*
X1613Y1248D01*
X2Y1247D02*
X9Y1247D01*
X1606Y1247D02*
X1613Y1247D01*
X2Y1246D02*
X9Y1246D01*
X1606Y1246D02*
X1613Y1246D01*
X2Y1245D02*
X9Y1245D01*
X1606Y1245D02*
X1613Y1245D01*
X2Y1244D02*
X9Y1244D01*
X1606Y1244D02*
X1613Y1244D01*
X2Y1243D02*
X9Y1243D01*
X1606Y1243D02*
X1613Y1243D01*
X2Y1242D02*
X9Y1242D01*
X1606Y1242D02*
X1613Y1242D01*
X2Y1241D02*
X9Y1241D01*
X1606Y1241D02*
X1613Y1241D01*
X2Y1240D02*
X9Y1240D01*
X1606Y1240D02*
X1613Y1240D01*
X2Y1239D02*
X9Y1239D01*
X1606Y1239D02*
X1613Y1239D01*
X2Y1238D02*
X9Y1238D01*
X1606Y1238D02*
X1613Y1238D01*
X1Y1237D02*
X9Y1237D01*
X1606Y1237D02*
X1614Y1237D01*
X1Y1236D02*
X8Y1236D01*
X1607Y1236D02*
X1614Y1236D01*
X1Y1235D02*
X8Y1235D01*
X1607Y1235D02*
X1614Y1235D01*
X1Y1234D02*
X8Y1234D01*
X1607Y1234D02*
X1614Y1234D01*
X1Y1233D02*
X8Y1233D01*
X1607Y1233D02*
X1614Y1233D01*
X1Y1232D02*
X8Y1232D01*
X1607Y1232D02*
X1614Y1232D01*
X1Y1231D02*
X8Y1231D01*
X1607Y1231D02*
X1614Y1231D01*
X1Y1230D02*
X8Y1230D01*
X1607Y1230D02*
X1614Y1230D01*
X1Y1229D02*
X8Y1229D01*
X1607Y1229D02*
X1614Y1229D01*
X1Y1228D02*
X8Y1228D01*
X1607Y1228D02*
X1614Y1228D01*
X1Y1227D02*
X8Y1227D01*
X1607Y1227D02*
X1614Y1227D01*
X1Y1226D02*
X8Y1226D01*
X1607Y1226D02*
X1614Y1226D01*
X1Y1225D02*
X8Y1225D01*
X1607Y1225D02*
X1614Y1225D01*
X1Y1224D02*
X8Y1224D01*
X1607Y1224D02*
X1614Y1224D01*
X1Y1223D02*
X8Y1223D01*
X1607Y1223D02*
X1614Y1223D01*
X1Y1222D02*
X8Y1222D01*
X1607Y1222D02*
X1614Y1222D01*
X1Y1221D02*
X8Y1221D01*
X1607Y1221D02*
X1614Y1221D01*
X1Y1220D02*
X8Y1220D01*
X1607Y1220D02*
X1614Y1220D01*
X1Y1219D02*
X8Y1219D01*
X1607Y1219D02*
X1614Y1219D01*
X1Y1218D02*
X8Y1218D01*
X1607Y1218D02*
X1614Y1218D01*
X1Y1217D02*
X8Y1217D01*
X1607Y1217D02*
X1614Y1217D01*
X1Y1216D02*
X8Y1216D01*
X1607Y1216D02*
X1614Y1216D01*
X1Y1215D02*
X8Y1215D01*
X1607Y1215D02*
X1614Y1215D01*
X1Y1214D02*
X8Y1214D01*
X1607Y1214D02*
X1614Y1214D01*
X1Y1213D02*
X8Y1213D01*
X1607Y1213D02*
X1614Y1213D01*
X1Y1212D02*
X8Y1212D01*
X1607Y1212D02*
X1614Y1212D01*
X1Y1211D02*
X8Y1211D01*
X1607Y1211D02*
X1614Y1211D01*
X1Y1210D02*
X8Y1210D01*
X1607Y1210D02*
X1614Y1210D01*
X1Y1209D02*
X8Y1209D01*
X1607Y1209D02*
X1614Y1209D01*
X1Y1208D02*
X8Y1208D01*
X1607Y1208D02*
X1614Y1208D01*
X1Y1207D02*
X8Y1207D01*
X1607Y1207D02*
X1614Y1207D01*
X1Y1206D02*
X8Y1206D01*
X1607Y1206D02*
X1614Y1206D01*
X1Y1205D02*
X8Y1205D01*
X1607Y1205D02*
X1614Y1205D01*
X1Y1204D02*
X8Y1204D01*
X1607Y1204D02*
X1614Y1204D01*
X1Y1203D02*
X8Y1203D01*
X1607Y1203D02*
X1614Y1203D01*
X1Y1202D02*
X8Y1202D01*
X1607Y1202D02*
X1614Y1202D01*
X1Y1201D02*
X8Y1201D01*
X1607Y1201D02*
X1614Y1201D01*
X1Y1200D02*
X8Y1200D01*
X1607Y1200D02*
X1614Y1200D01*
X1Y1199D02*
X8Y1199D01*
X1607Y1199D02*
X1614Y1199D01*
X1Y1198D02*
X8Y1198D01*
X1607Y1198D02*
X1614Y1198D01*
X1Y1197D02*
X8Y1197D01*
X1607Y1197D02*
X1614Y1197D01*
X1Y1196D02*
X8Y1196D01*
X1607Y1196D02*
X1614Y1196D01*
X1Y1195D02*
X8Y1195D01*
X1607Y1195D02*
X1614Y1195D01*
X1Y1194D02*
X8Y1194D01*
X1607Y1194D02*
X1614Y1194D01*
X1Y1193D02*
X8Y1193D01*
X1607Y1193D02*
X1614Y1193D01*
X1Y1192D02*
X8Y1192D01*
X1607Y1192D02*
X1614Y1192D01*
X1Y1191D02*
X8Y1191D01*
X1607Y1191D02*
X1614Y1191D01*
X1Y1190D02*
X8Y1190D01*
X1607Y1190D02*
X1614Y1190D01*
X1Y1189D02*
X8Y1189D01*
X1607Y1189D02*
X1614Y1189D01*
X1Y1188D02*
X8Y1188D01*
X1607Y1188D02*
X1614Y1188D01*
X1Y1187D02*
X8Y1187D01*
X1607Y1187D02*
X1614Y1187D01*
X1Y1186D02*
X8Y1186D01*
X1607Y1186D02*
X1614Y1186D01*
X1Y1185D02*
X8Y1185D01*
X1607Y1185D02*
X1614Y1185D01*
X1Y1184D02*
X8Y1184D01*
X1607Y1184D02*
X1614Y1184D01*
X1Y1183D02*
X8Y1183D01*
X1607Y1183D02*
X1614Y1183D01*
X1Y1182D02*
X8Y1182D01*
X1607Y1182D02*
X1614Y1182D01*
X1Y1181D02*
X8Y1181D01*
X1607Y1181D02*
X1614Y1181D01*
X1Y1180D02*
X8Y1180D01*
X1607Y1180D02*
X1614Y1180D01*
X1Y1179D02*
X8Y1179D01*
X1607Y1179D02*
X1614Y1179D01*
X1Y1178D02*
X8Y1178D01*
X1607Y1178D02*
X1614Y1178D01*
X1Y1177D02*
X8Y1177D01*
X1607Y1177D02*
X1614Y1177D01*
X1Y1176D02*
X8Y1176D01*
X1607Y1176D02*
X1614Y1176D01*
X1Y1175D02*
X8Y1175D01*
X1607Y1175D02*
X1614Y1175D01*
X1Y1174D02*
X8Y1174D01*
X1607Y1174D02*
X1614Y1174D01*
X1Y1173D02*
X8Y1173D01*
X1607Y1173D02*
X1614Y1173D01*
X1Y1172D02*
X8Y1172D01*
X1607Y1172D02*
X1614Y1172D01*
X1Y1171D02*
X8Y1171D01*
X1607Y1171D02*
X1614Y1171D01*
X1Y1170D02*
X8Y1170D01*
X1607Y1170D02*
X1614Y1170D01*
X1Y1169D02*
X8Y1169D01*
X1607Y1169D02*
X1614Y1169D01*
X1Y1168D02*
X8Y1168D01*
X1607Y1168D02*
X1614Y1168D01*
X1Y1167D02*
X8Y1167D01*
X1607Y1167D02*
X1614Y1167D01*
X1Y1166D02*
X8Y1166D01*
X1607Y1166D02*
X1614Y1166D01*
X1Y1165D02*
X8Y1165D01*
X1607Y1165D02*
X1614Y1165D01*
X1Y1164D02*
X8Y1164D01*
X1607Y1164D02*
X1614Y1164D01*
X1Y1163D02*
X8Y1163D01*
X1607Y1163D02*
X1614Y1163D01*
X1Y1162D02*
X8Y1162D01*
X1607Y1162D02*
X1614Y1162D01*
X1Y1161D02*
X8Y1161D01*
X1607Y1161D02*
X1614Y1161D01*
X1Y1160D02*
X8Y1160D01*
X1607Y1160D02*
X1614Y1160D01*
X1Y1159D02*
X8Y1159D01*
X1607Y1159D02*
X1614Y1159D01*
X1Y1158D02*
X8Y1158D01*
X1607Y1158D02*
X1614Y1158D01*
X1Y1157D02*
X8Y1157D01*
X1607Y1157D02*
X1614Y1157D01*
X1Y1156D02*
X8Y1156D01*
X1607Y1156D02*
X1614Y1156D01*
X1Y1155D02*
X8Y1155D01*
X1607Y1155D02*
X1614Y1155D01*
X1Y1154D02*
X8Y1154D01*
X1607Y1154D02*
X1614Y1154D01*
X1Y1153D02*
X8Y1153D01*
X1607Y1153D02*
X1614Y1153D01*
X1Y1152D02*
X8Y1152D01*
X1607Y1152D02*
X1614Y1152D01*
X1Y1151D02*
X8Y1151D01*
X1607Y1151D02*
X1614Y1151D01*
X1Y1150D02*
X8Y1150D01*
X1607Y1150D02*
X1614Y1150D01*
X1Y1149D02*
X8Y1149D01*
X1607Y1149D02*
X1614Y1149D01*
X1Y1148D02*
X8Y1148D01*
X1607Y1148D02*
X1614Y1148D01*
X1Y1147D02*
X8Y1147D01*
X1607Y1147D02*
X1614Y1147D01*
X1Y1146D02*
X8Y1146D01*
X1607Y1146D02*
X1614Y1146D01*
X1Y1145D02*
X8Y1145D01*
X1607Y1145D02*
X1614Y1145D01*
X1Y1144D02*
X8Y1144D01*
X1607Y1144D02*
X1614Y1144D01*
X1Y1143D02*
X8Y1143D01*
X1607Y1143D02*
X1614Y1143D01*
X1Y1142D02*
X8Y1142D01*
X1607Y1142D02*
X1614Y1142D01*
X1Y1141D02*
X8Y1141D01*
X1607Y1141D02*
X1614Y1141D01*
X1Y1140D02*
X8Y1140D01*
X1607Y1140D02*
X1614Y1140D01*
X1Y1139D02*
X8Y1139D01*
X1607Y1139D02*
X1614Y1139D01*
X1Y1138D02*
X8Y1138D01*
X1607Y1138D02*
X1614Y1138D01*
X1Y1137D02*
X8Y1137D01*
X1607Y1137D02*
X1614Y1137D01*
X1Y1136D02*
X8Y1136D01*
X1607Y1136D02*
X1614Y1136D01*
X1Y1135D02*
X8Y1135D01*
X1607Y1135D02*
X1614Y1135D01*
X1Y1134D02*
X8Y1134D01*
X1607Y1134D02*
X1614Y1134D01*
X1Y1133D02*
X8Y1133D01*
X1607Y1133D02*
X1614Y1133D01*
X1Y1132D02*
X8Y1132D01*
X1607Y1132D02*
X1614Y1132D01*
X1Y1131D02*
X8Y1131D01*
X1607Y1131D02*
X1614Y1131D01*
X1Y1130D02*
X8Y1130D01*
X1607Y1130D02*
X1614Y1130D01*
X1Y1129D02*
X8Y1129D01*
X1607Y1129D02*
X1614Y1129D01*
X1Y1128D02*
X8Y1128D01*
X1607Y1128D02*
X1614Y1128D01*
X1Y1127D02*
X8Y1127D01*
X1607Y1127D02*
X1614Y1127D01*
X1Y1126D02*
X8Y1126D01*
X1607Y1126D02*
X1614Y1126D01*
X1Y1125D02*
X8Y1125D01*
X1607Y1125D02*
X1614Y1125D01*
X1Y1124D02*
X8Y1124D01*
X1607Y1124D02*
X1614Y1124D01*
X1Y1123D02*
X8Y1123D01*
X1607Y1123D02*
X1614Y1123D01*
X1Y1122D02*
X8Y1122D01*
X1607Y1122D02*
X1614Y1122D01*
X1Y1121D02*
X8Y1121D01*
X1607Y1121D02*
X1614Y1121D01*
X1Y1120D02*
X8Y1120D01*
X1607Y1120D02*
X1614Y1120D01*
X1Y1119D02*
X8Y1119D01*
X1607Y1119D02*
X1614Y1119D01*
X1Y1118D02*
X8Y1118D01*
X1607Y1118D02*
X1614Y1118D01*
X1Y1117D02*
X8Y1117D01*
X1607Y1117D02*
X1614Y1117D01*
X1Y1116D02*
X8Y1116D01*
X1607Y1116D02*
X1614Y1116D01*
X1Y1115D02*
X8Y1115D01*
X1607Y1115D02*
X1614Y1115D01*
X1Y1114D02*
X8Y1114D01*
X1607Y1114D02*
X1614Y1114D01*
X1Y1113D02*
X8Y1113D01*
X1607Y1113D02*
X1614Y1113D01*
X1Y1112D02*
X8Y1112D01*
X1607Y1112D02*
X1614Y1112D01*
X1Y1111D02*
X8Y1111D01*
X1607Y1111D02*
X1614Y1111D01*
X1Y1110D02*
X8Y1110D01*
X1607Y1110D02*
X1614Y1110D01*
X1Y1109D02*
X8Y1109D01*
X1607Y1109D02*
X1614Y1109D01*
X1Y1108D02*
X8Y1108D01*
X1607Y1108D02*
X1614Y1108D01*
X1Y1107D02*
X8Y1107D01*
X1607Y1107D02*
X1614Y1107D01*
X1Y1106D02*
X8Y1106D01*
X1607Y1106D02*
X1614Y1106D01*
X1Y1105D02*
X8Y1105D01*
X1607Y1105D02*
X1614Y1105D01*
X1Y1104D02*
X8Y1104D01*
X1607Y1104D02*
X1614Y1104D01*
X1Y1103D02*
X8Y1103D01*
X1607Y1103D02*
X1614Y1103D01*
X1Y1102D02*
X8Y1102D01*
X1607Y1102D02*
X1614Y1102D01*
X1Y1101D02*
X8Y1101D01*
X1607Y1101D02*
X1614Y1101D01*
X1Y1100D02*
X8Y1100D01*
X1607Y1100D02*
X1614Y1100D01*
X1Y1099D02*
X8Y1099D01*
X1607Y1099D02*
X1614Y1099D01*
X1Y1098D02*
X8Y1098D01*
X1607Y1098D02*
X1614Y1098D01*
X1Y1097D02*
X8Y1097D01*
X1607Y1097D02*
X1614Y1097D01*
X1Y1096D02*
X8Y1096D01*
X1607Y1096D02*
X1614Y1096D01*
X1Y1095D02*
X8Y1095D01*
X1607Y1095D02*
X1614Y1095D01*
X1Y1094D02*
X8Y1094D01*
X1607Y1094D02*
X1614Y1094D01*
X1Y1093D02*
X8Y1093D01*
X1607Y1093D02*
X1614Y1093D01*
X1Y1092D02*
X8Y1092D01*
X1607Y1092D02*
X1614Y1092D01*
X1Y1091D02*
X8Y1091D01*
X1607Y1091D02*
X1614Y1091D01*
X1Y1090D02*
X8Y1090D01*
X1607Y1090D02*
X1614Y1090D01*
X1Y1089D02*
X8Y1089D01*
X1607Y1089D02*
X1614Y1089D01*
X1Y1088D02*
X8Y1088D01*
X1607Y1088D02*
X1614Y1088D01*
X1Y1087D02*
X8Y1087D01*
X1607Y1087D02*
X1614Y1087D01*
X1Y1086D02*
X8Y1086D01*
X1607Y1086D02*
X1614Y1086D01*
X1Y1085D02*
X8Y1085D01*
X1607Y1085D02*
X1614Y1085D01*
X1Y1084D02*
X8Y1084D01*
X1607Y1084D02*
X1614Y1084D01*
X1Y1083D02*
X8Y1083D01*
X1607Y1083D02*
X1614Y1083D01*
X1Y1082D02*
X8Y1082D01*
X1607Y1082D02*
X1614Y1082D01*
X1Y1081D02*
X8Y1081D01*
X1607Y1081D02*
X1614Y1081D01*
X1Y1080D02*
X8Y1080D01*
X1607Y1080D02*
X1614Y1080D01*
X1Y1079D02*
X8Y1079D01*
X1607Y1079D02*
X1614Y1079D01*
X1Y1078D02*
X8Y1078D01*
X1607Y1078D02*
X1614Y1078D01*
X1Y1077D02*
X8Y1077D01*
X1607Y1077D02*
X1614Y1077D01*
X1Y1076D02*
X8Y1076D01*
X1607Y1076D02*
X1614Y1076D01*
X1Y1075D02*
X8Y1075D01*
X1607Y1075D02*
X1614Y1075D01*
X1Y1074D02*
X8Y1074D01*
X1607Y1074D02*
X1614Y1074D01*
X1Y1073D02*
X8Y1073D01*
X1607Y1073D02*
X1614Y1073D01*
X1Y1072D02*
X8Y1072D01*
X1607Y1072D02*
X1614Y1072D01*
X1Y1071D02*
X8Y1071D01*
X1607Y1071D02*
X1614Y1071D01*
X1Y1070D02*
X8Y1070D01*
X1607Y1070D02*
X1614Y1070D01*
X1Y1069D02*
X8Y1069D01*
X1607Y1069D02*
X1614Y1069D01*
X1Y1068D02*
X8Y1068D01*
X1607Y1068D02*
X1614Y1068D01*
X1Y1067D02*
X8Y1067D01*
X1607Y1067D02*
X1614Y1067D01*
X1Y1066D02*
X8Y1066D01*
X1607Y1066D02*
X1614Y1066D01*
X1Y1065D02*
X8Y1065D01*
X1607Y1065D02*
X1614Y1065D01*
X1Y1064D02*
X8Y1064D01*
X1607Y1064D02*
X1614Y1064D01*
X1Y1063D02*
X8Y1063D01*
X1607Y1063D02*
X1614Y1063D01*
X1Y1062D02*
X8Y1062D01*
X1607Y1062D02*
X1614Y1062D01*
X1Y1061D02*
X8Y1061D01*
X1607Y1061D02*
X1614Y1061D01*
X1Y1060D02*
X8Y1060D01*
X1607Y1060D02*
X1614Y1060D01*
X1Y1059D02*
X8Y1059D01*
X1607Y1059D02*
X1614Y1059D01*
X1Y1058D02*
X8Y1058D01*
X1607Y1058D02*
X1614Y1058D01*
X1Y1057D02*
X8Y1057D01*
X1607Y1057D02*
X1614Y1057D01*
X1Y1056D02*
X8Y1056D01*
X1607Y1056D02*
X1614Y1056D01*
X1Y1055D02*
X8Y1055D01*
X1607Y1055D02*
X1614Y1055D01*
X1Y1054D02*
X8Y1054D01*
X1607Y1054D02*
X1614Y1054D01*
X1Y1053D02*
X8Y1053D01*
X1607Y1053D02*
X1614Y1053D01*
X1Y1052D02*
X8Y1052D01*
X1607Y1052D02*
X1614Y1052D01*
X1Y1051D02*
X8Y1051D01*
X1607Y1051D02*
X1614Y1051D01*
X1Y1050D02*
X8Y1050D01*
X1607Y1050D02*
X1614Y1050D01*
X1Y1049D02*
X8Y1049D01*
X1607Y1049D02*
X1614Y1049D01*
X1Y1048D02*
X8Y1048D01*
X1607Y1048D02*
X1614Y1048D01*
X1Y1047D02*
X8Y1047D01*
X1607Y1047D02*
X1614Y1047D01*
X1Y1046D02*
X8Y1046D01*
X1607Y1046D02*
X1614Y1046D01*
X1Y1045D02*
X8Y1045D01*
X1607Y1045D02*
X1614Y1045D01*
X1Y1044D02*
X8Y1044D01*
X1607Y1044D02*
X1614Y1044D01*
X1Y1043D02*
X8Y1043D01*
X1607Y1043D02*
X1614Y1043D01*
X1Y1042D02*
X8Y1042D01*
X1607Y1042D02*
X1614Y1042D01*
X1Y1041D02*
X8Y1041D01*
X1607Y1041D02*
X1614Y1041D01*
X1Y1040D02*
X8Y1040D01*
X1607Y1040D02*
X1614Y1040D01*
X1Y1039D02*
X8Y1039D01*
X1607Y1039D02*
X1614Y1039D01*
X1Y1038D02*
X8Y1038D01*
X1607Y1038D02*
X1614Y1038D01*
X1Y1037D02*
X8Y1037D01*
X1607Y1037D02*
X1614Y1037D01*
X1Y1036D02*
X8Y1036D01*
X1607Y1036D02*
X1614Y1036D01*
X1Y1035D02*
X8Y1035D01*
X1607Y1035D02*
X1614Y1035D01*
X1Y1034D02*
X8Y1034D01*
X1607Y1034D02*
X1614Y1034D01*
X1Y1033D02*
X8Y1033D01*
X1607Y1033D02*
X1614Y1033D01*
X1Y1032D02*
X8Y1032D01*
X1607Y1032D02*
X1614Y1032D01*
X1Y1031D02*
X8Y1031D01*
X1607Y1031D02*
X1614Y1031D01*
X1Y1030D02*
X8Y1030D01*
X1607Y1030D02*
X1614Y1030D01*
X1Y1029D02*
X8Y1029D01*
X1607Y1029D02*
X1614Y1029D01*
X1Y1028D02*
X8Y1028D01*
X1607Y1028D02*
X1614Y1028D01*
X1Y1027D02*
X8Y1027D01*
X1607Y1027D02*
X1614Y1027D01*
X1Y1026D02*
X8Y1026D01*
X1607Y1026D02*
X1614Y1026D01*
X1Y1025D02*
X8Y1025D01*
X1607Y1025D02*
X1614Y1025D01*
X1Y1024D02*
X8Y1024D01*
X1607Y1024D02*
X1614Y1024D01*
X1Y1023D02*
X8Y1023D01*
X1607Y1023D02*
X1614Y1023D01*
X1Y1022D02*
X8Y1022D01*
X1607Y1022D02*
X1614Y1022D01*
X1Y1021D02*
X8Y1021D01*
X1607Y1021D02*
X1614Y1021D01*
X1Y1020D02*
X8Y1020D01*
X1607Y1020D02*
X1614Y1020D01*
X1Y1019D02*
X8Y1019D01*
X1607Y1019D02*
X1614Y1019D01*
X1Y1018D02*
X8Y1018D01*
X1607Y1018D02*
X1614Y1018D01*
X1Y1017D02*
X8Y1017D01*
X1607Y1017D02*
X1614Y1017D01*
X1Y1016D02*
X8Y1016D01*
X1607Y1016D02*
X1614Y1016D01*
X1Y1015D02*
X8Y1015D01*
X1607Y1015D02*
X1614Y1015D01*
X1Y1014D02*
X8Y1014D01*
X1607Y1014D02*
X1614Y1014D01*
X1Y1013D02*
X8Y1013D01*
X1607Y1013D02*
X1614Y1013D01*
X1Y1012D02*
X8Y1012D01*
X1607Y1012D02*
X1614Y1012D01*
X1Y1011D02*
X8Y1011D01*
X1607Y1011D02*
X1614Y1011D01*
X1Y1010D02*
X8Y1010D01*
X1607Y1010D02*
X1614Y1010D01*
X1Y1009D02*
X8Y1009D01*
X1607Y1009D02*
X1614Y1009D01*
X1Y1008D02*
X8Y1008D01*
X1607Y1008D02*
X1614Y1008D01*
X1Y1007D02*
X8Y1007D01*
X1607Y1007D02*
X1614Y1007D01*
X1Y1006D02*
X8Y1006D01*
X1607Y1006D02*
X1614Y1006D01*
X1Y1005D02*
X8Y1005D01*
X1607Y1005D02*
X1614Y1005D01*
X1Y1004D02*
X8Y1004D01*
X1607Y1004D02*
X1614Y1004D01*
X1Y1003D02*
X8Y1003D01*
X1607Y1003D02*
X1614Y1003D01*
X1Y1002D02*
X8Y1002D01*
X1607Y1002D02*
X1614Y1002D01*
X1Y1001D02*
X8Y1001D01*
X1607Y1001D02*
X1614Y1001D01*
X1Y1000D02*
X8Y1000D01*
X1607Y1000D02*
X1614Y1000D01*
X1Y999D02*
X8Y999D01*
X1607Y999D02*
X1614Y999D01*
X1Y998D02*
X8Y998D01*
X1607Y998D02*
X1614Y998D01*
X1Y997D02*
X8Y997D01*
X1607Y997D02*
X1614Y997D01*
X1Y996D02*
X8Y996D01*
X1607Y996D02*
X1614Y996D01*
X1Y995D02*
X8Y995D01*
X1607Y995D02*
X1614Y995D01*
X1Y994D02*
X8Y994D01*
X1607Y994D02*
X1614Y994D01*
X1Y993D02*
X8Y993D01*
X1607Y993D02*
X1614Y993D01*
X1Y992D02*
X8Y992D01*
X1607Y992D02*
X1614Y992D01*
X1Y991D02*
X8Y991D01*
X1607Y991D02*
X1614Y991D01*
X1Y990D02*
X8Y990D01*
X1607Y990D02*
X1614Y990D01*
X1Y989D02*
X8Y989D01*
X1607Y989D02*
X1614Y989D01*
X1Y988D02*
X8Y988D01*
X1607Y988D02*
X1614Y988D01*
X1Y987D02*
X8Y987D01*
X1607Y987D02*
X1614Y987D01*
X1Y986D02*
X8Y986D01*
X1607Y986D02*
X1614Y986D01*
X1Y985D02*
X8Y985D01*
X1607Y985D02*
X1614Y985D01*
X1Y984D02*
X8Y984D01*
X1607Y984D02*
X1614Y984D01*
X1Y983D02*
X8Y983D01*
X1607Y983D02*
X1614Y983D01*
X1Y982D02*
X8Y982D01*
X1607Y982D02*
X1614Y982D01*
X1Y981D02*
X8Y981D01*
X1607Y981D02*
X1614Y981D01*
X1Y980D02*
X8Y980D01*
X1607Y980D02*
X1614Y980D01*
X1Y979D02*
X8Y979D01*
X1607Y979D02*
X1614Y979D01*
X1Y978D02*
X8Y978D01*
X1607Y978D02*
X1614Y978D01*
X1Y977D02*
X8Y977D01*
X1607Y977D02*
X1614Y977D01*
X1Y976D02*
X8Y976D01*
X1607Y976D02*
X1614Y976D01*
X1Y975D02*
X8Y975D01*
X1607Y975D02*
X1614Y975D01*
X1Y974D02*
X8Y974D01*
X1607Y974D02*
X1614Y974D01*
X1Y973D02*
X8Y973D01*
X1607Y973D02*
X1614Y973D01*
X1Y972D02*
X8Y972D01*
X1607Y972D02*
X1614Y972D01*
X1Y971D02*
X8Y971D01*
X1607Y971D02*
X1614Y971D01*
X1Y970D02*
X8Y970D01*
X1607Y970D02*
X1614Y970D01*
X1Y969D02*
X8Y969D01*
X1607Y969D02*
X1614Y969D01*
X1Y968D02*
X8Y968D01*
X1607Y968D02*
X1614Y968D01*
X1Y967D02*
X8Y967D01*
X1607Y967D02*
X1614Y967D01*
X1Y966D02*
X8Y966D01*
X1607Y966D02*
X1614Y966D01*
X1Y965D02*
X8Y965D01*
X1607Y965D02*
X1614Y965D01*
X1Y964D02*
X8Y964D01*
X1607Y964D02*
X1614Y964D01*
X1Y963D02*
X8Y963D01*
X1607Y963D02*
X1614Y963D01*
X1Y962D02*
X8Y962D01*
X1607Y962D02*
X1614Y962D01*
X1Y961D02*
X8Y961D01*
X1607Y961D02*
X1614Y961D01*
X1Y960D02*
X8Y960D01*
X1607Y960D02*
X1614Y960D01*
X1Y959D02*
X8Y959D01*
X1607Y959D02*
X1614Y959D01*
X1Y958D02*
X8Y958D01*
X1607Y958D02*
X1614Y958D01*
X1Y957D02*
X8Y957D01*
X1607Y957D02*
X1614Y957D01*
X1Y956D02*
X8Y956D01*
X1607Y956D02*
X1614Y956D01*
X1Y955D02*
X8Y955D01*
X1607Y955D02*
X1614Y955D01*
X1Y954D02*
X8Y954D01*
X1607Y954D02*
X1614Y954D01*
X1Y953D02*
X8Y953D01*
X1607Y953D02*
X1614Y953D01*
X1Y952D02*
X8Y952D01*
X1607Y952D02*
X1614Y952D01*
X1Y951D02*
X8Y951D01*
X1607Y951D02*
X1614Y951D01*
X1Y950D02*
X8Y950D01*
X1607Y950D02*
X1614Y950D01*
X1Y949D02*
X8Y949D01*
X1607Y949D02*
X1614Y949D01*
X1Y948D02*
X8Y948D01*
X1607Y948D02*
X1614Y948D01*
X1Y947D02*
X8Y947D01*
X1607Y947D02*
X1614Y947D01*
X1Y946D02*
X8Y946D01*
X1607Y946D02*
X1614Y946D01*
X1Y945D02*
X8Y945D01*
X1607Y945D02*
X1614Y945D01*
X1Y944D02*
X8Y944D01*
X1607Y944D02*
X1614Y944D01*
X1Y943D02*
X8Y943D01*
X1607Y943D02*
X1614Y943D01*
X1Y942D02*
X8Y942D01*
X1607Y942D02*
X1614Y942D01*
X1Y941D02*
X8Y941D01*
X1607Y941D02*
X1614Y941D01*
X1Y940D02*
X8Y940D01*
X1607Y940D02*
X1614Y940D01*
X1Y939D02*
X8Y939D01*
X1607Y939D02*
X1614Y939D01*
X1Y938D02*
X8Y938D01*
X1607Y938D02*
X1614Y938D01*
X1Y937D02*
X8Y937D01*
X1607Y937D02*
X1614Y937D01*
X1Y936D02*
X8Y936D01*
X1607Y936D02*
X1614Y936D01*
X1Y935D02*
X8Y935D01*
X1607Y935D02*
X1614Y935D01*
X1Y934D02*
X8Y934D01*
X1607Y934D02*
X1614Y934D01*
X1Y933D02*
X8Y933D01*
X1607Y933D02*
X1614Y933D01*
X1Y932D02*
X8Y932D01*
X1607Y932D02*
X1614Y932D01*
X1Y931D02*
X8Y931D01*
X1607Y931D02*
X1614Y931D01*
X1Y930D02*
X8Y930D01*
X1607Y930D02*
X1614Y930D01*
X1Y929D02*
X8Y929D01*
X1607Y929D02*
X1614Y929D01*
X1Y928D02*
X8Y928D01*
X1607Y928D02*
X1614Y928D01*
X1Y927D02*
X8Y927D01*
X1607Y927D02*
X1614Y927D01*
X1Y926D02*
X8Y926D01*
X1607Y926D02*
X1614Y926D01*
X1Y925D02*
X8Y925D01*
X1607Y925D02*
X1614Y925D01*
X1Y924D02*
X8Y924D01*
X1607Y924D02*
X1614Y924D01*
X1Y923D02*
X8Y923D01*
X1607Y923D02*
X1614Y923D01*
X1Y922D02*
X8Y922D01*
X1607Y922D02*
X1614Y922D01*
X1Y921D02*
X8Y921D01*
X1607Y921D02*
X1614Y921D01*
X1Y920D02*
X8Y920D01*
X1607Y920D02*
X1614Y920D01*
X1Y919D02*
X8Y919D01*
X1607Y919D02*
X1614Y919D01*
X1Y918D02*
X8Y918D01*
X1607Y918D02*
X1614Y918D01*
X1Y917D02*
X8Y917D01*
X1607Y917D02*
X1614Y917D01*
X1Y916D02*
X8Y916D01*
X1607Y916D02*
X1614Y916D01*
X1Y915D02*
X8Y915D01*
X1607Y915D02*
X1614Y915D01*
X1Y914D02*
X8Y914D01*
X1607Y914D02*
X1614Y914D01*
X1Y913D02*
X8Y913D01*
X1607Y913D02*
X1614Y913D01*
X1Y912D02*
X8Y912D01*
X1607Y912D02*
X1614Y912D01*
X1Y911D02*
X8Y911D01*
X1607Y911D02*
X1614Y911D01*
X1Y910D02*
X8Y910D01*
X1607Y910D02*
X1614Y910D01*
X1Y909D02*
X8Y909D01*
X1607Y909D02*
X1614Y909D01*
X1Y908D02*
X8Y908D01*
X1607Y908D02*
X1614Y908D01*
X1Y907D02*
X8Y907D01*
X1607Y907D02*
X1614Y907D01*
X1Y906D02*
X8Y906D01*
X1607Y906D02*
X1614Y906D01*
X1Y905D02*
X8Y905D01*
X1607Y905D02*
X1614Y905D01*
X1Y904D02*
X8Y904D01*
X1607Y904D02*
X1614Y904D01*
X1Y903D02*
X8Y903D01*
X1607Y903D02*
X1614Y903D01*
X1Y902D02*
X8Y902D01*
X1607Y902D02*
X1614Y902D01*
X1Y901D02*
X8Y901D01*
X1607Y901D02*
X1614Y901D01*
X1Y900D02*
X8Y900D01*
X1607Y900D02*
X1614Y900D01*
X1Y899D02*
X8Y899D01*
X1607Y899D02*
X1614Y899D01*
X1Y898D02*
X8Y898D01*
X1607Y898D02*
X1614Y898D01*
X1Y897D02*
X8Y897D01*
X1607Y897D02*
X1614Y897D01*
X1Y896D02*
X8Y896D01*
X1607Y896D02*
X1614Y896D01*
X1Y895D02*
X8Y895D01*
X1607Y895D02*
X1614Y895D01*
X1Y894D02*
X8Y894D01*
X1607Y894D02*
X1614Y894D01*
X1Y893D02*
X8Y893D01*
X1607Y893D02*
X1614Y893D01*
X1Y892D02*
X8Y892D01*
X1607Y892D02*
X1614Y892D01*
X1Y891D02*
X8Y891D01*
X1607Y891D02*
X1614Y891D01*
X1Y890D02*
X8Y890D01*
X1607Y890D02*
X1614Y890D01*
X1Y889D02*
X8Y889D01*
X1607Y889D02*
X1614Y889D01*
X1Y888D02*
X8Y888D01*
X1607Y888D02*
X1614Y888D01*
X1Y887D02*
X8Y887D01*
X1607Y887D02*
X1614Y887D01*
X1Y886D02*
X8Y886D01*
X1607Y886D02*
X1614Y886D01*
X1Y885D02*
X8Y885D01*
X1607Y885D02*
X1614Y885D01*
X1Y884D02*
X8Y884D01*
X1607Y884D02*
X1614Y884D01*
X1Y883D02*
X8Y883D01*
X1607Y883D02*
X1614Y883D01*
X1Y882D02*
X8Y882D01*
X1607Y882D02*
X1614Y882D01*
X1Y881D02*
X8Y881D01*
X1607Y881D02*
X1614Y881D01*
X1Y880D02*
X8Y880D01*
X1607Y880D02*
X1614Y880D01*
X1Y879D02*
X8Y879D01*
X1607Y879D02*
X1614Y879D01*
X1Y878D02*
X8Y878D01*
X1607Y878D02*
X1614Y878D01*
X1Y877D02*
X8Y877D01*
X1607Y877D02*
X1614Y877D01*
X1Y876D02*
X8Y876D01*
X1607Y876D02*
X1614Y876D01*
X1Y875D02*
X8Y875D01*
X1607Y875D02*
X1614Y875D01*
X1Y874D02*
X8Y874D01*
X1607Y874D02*
X1614Y874D01*
X1Y873D02*
X8Y873D01*
X1607Y873D02*
X1614Y873D01*
X1Y872D02*
X8Y872D01*
X1607Y872D02*
X1614Y872D01*
X1Y871D02*
X8Y871D01*
X1607Y871D02*
X1614Y871D01*
X1Y870D02*
X8Y870D01*
X1607Y870D02*
X1614Y870D01*
X1Y869D02*
X8Y869D01*
X1607Y869D02*
X1614Y869D01*
X1Y868D02*
X8Y868D01*
X1607Y868D02*
X1614Y868D01*
X1Y867D02*
X8Y867D01*
X1607Y867D02*
X1614Y867D01*
X1Y866D02*
X8Y866D01*
X1607Y866D02*
X1614Y866D01*
X1Y865D02*
X8Y865D01*
X1607Y865D02*
X1614Y865D01*
X1Y864D02*
X8Y864D01*
X1607Y864D02*
X1614Y864D01*
X1Y863D02*
X8Y863D01*
X1607Y863D02*
X1614Y863D01*
X1Y862D02*
X8Y862D01*
X1607Y862D02*
X1614Y862D01*
X1Y861D02*
X8Y861D01*
X1607Y861D02*
X1614Y861D01*
X1Y860D02*
X8Y860D01*
X1607Y860D02*
X1614Y860D01*
X1Y859D02*
X8Y859D01*
X1607Y859D02*
X1614Y859D01*
X1Y858D02*
X8Y858D01*
X1607Y858D02*
X1614Y858D01*
X1Y857D02*
X8Y857D01*
X1607Y857D02*
X1614Y857D01*
X1Y856D02*
X8Y856D01*
X1607Y856D02*
X1614Y856D01*
X1Y855D02*
X8Y855D01*
X1607Y855D02*
X1614Y855D01*
X1Y854D02*
X8Y854D01*
X1607Y854D02*
X1614Y854D01*
X1Y853D02*
X8Y853D01*
X1607Y853D02*
X1614Y853D01*
X1Y852D02*
X8Y852D01*
X1607Y852D02*
X1614Y852D01*
X1Y851D02*
X8Y851D01*
X1607Y851D02*
X1614Y851D01*
X1Y850D02*
X8Y850D01*
X1607Y850D02*
X1614Y850D01*
X1Y849D02*
X8Y849D01*
X1607Y849D02*
X1614Y849D01*
X1Y848D02*
X8Y848D01*
X1607Y848D02*
X1614Y848D01*
X1Y847D02*
X8Y847D01*
X1607Y847D02*
X1614Y847D01*
X1Y846D02*
X8Y846D01*
X1607Y846D02*
X1614Y846D01*
X1Y845D02*
X8Y845D01*
X1607Y845D02*
X1614Y845D01*
X1Y844D02*
X8Y844D01*
X1607Y844D02*
X1614Y844D01*
X1Y843D02*
X8Y843D01*
X1607Y843D02*
X1614Y843D01*
X1Y842D02*
X8Y842D01*
X1607Y842D02*
X1614Y842D01*
X1Y841D02*
X8Y841D01*
X1607Y841D02*
X1614Y841D01*
X1Y840D02*
X8Y840D01*
X1607Y840D02*
X1614Y840D01*
X1Y839D02*
X8Y839D01*
X1607Y839D02*
X1614Y839D01*
X1Y838D02*
X8Y838D01*
X1607Y838D02*
X1614Y838D01*
X1Y837D02*
X8Y837D01*
X1607Y837D02*
X1614Y837D01*
X1Y836D02*
X8Y836D01*
X1607Y836D02*
X1614Y836D01*
X1Y835D02*
X8Y835D01*
X1607Y835D02*
X1614Y835D01*
X1Y834D02*
X8Y834D01*
X1607Y834D02*
X1614Y834D01*
X1Y833D02*
X8Y833D01*
X1607Y833D02*
X1614Y833D01*
X1Y832D02*
X8Y832D01*
X1607Y832D02*
X1614Y832D01*
X1Y831D02*
X8Y831D01*
X1607Y831D02*
X1614Y831D01*
X1Y830D02*
X8Y830D01*
X1607Y830D02*
X1614Y830D01*
X1Y829D02*
X8Y829D01*
X1607Y829D02*
X1614Y829D01*
X1Y828D02*
X8Y828D01*
X1607Y828D02*
X1614Y828D01*
X1Y827D02*
X8Y827D01*
X1607Y827D02*
X1614Y827D01*
X1Y826D02*
X8Y826D01*
X1607Y826D02*
X1614Y826D01*
X1Y825D02*
X8Y825D01*
X1607Y825D02*
X1614Y825D01*
X1Y824D02*
X8Y824D01*
X1607Y824D02*
X1614Y824D01*
X1Y823D02*
X8Y823D01*
X1607Y823D02*
X1614Y823D01*
X1Y822D02*
X8Y822D01*
X1607Y822D02*
X1614Y822D01*
X1Y821D02*
X8Y821D01*
X1607Y821D02*
X1614Y821D01*
X1Y820D02*
X8Y820D01*
X1607Y820D02*
X1614Y820D01*
X1Y819D02*
X8Y819D01*
X1607Y819D02*
X1614Y819D01*
X1Y818D02*
X8Y818D01*
X1607Y818D02*
X1614Y818D01*
X1Y817D02*
X8Y817D01*
X1607Y817D02*
X1614Y817D01*
X1Y816D02*
X8Y816D01*
X1607Y816D02*
X1614Y816D01*
X1Y815D02*
X8Y815D01*
X1607Y815D02*
X1614Y815D01*
X1Y814D02*
X8Y814D01*
X1607Y814D02*
X1614Y814D01*
X1Y813D02*
X8Y813D01*
X1607Y813D02*
X1614Y813D01*
X1Y812D02*
X8Y812D01*
X1607Y812D02*
X1614Y812D01*
X1Y811D02*
X8Y811D01*
X1607Y811D02*
X1614Y811D01*
X1Y810D02*
X8Y810D01*
X1607Y810D02*
X1614Y810D01*
X1Y809D02*
X8Y809D01*
X1607Y809D02*
X1614Y809D01*
X1Y808D02*
X8Y808D01*
X1607Y808D02*
X1614Y808D01*
X1Y807D02*
X8Y807D01*
X1607Y807D02*
X1614Y807D01*
X1Y806D02*
X8Y806D01*
X1607Y806D02*
X1614Y806D01*
X1Y805D02*
X8Y805D01*
X1607Y805D02*
X1614Y805D01*
X1Y804D02*
X8Y804D01*
X1607Y804D02*
X1614Y804D01*
X1Y803D02*
X8Y803D01*
X1607Y803D02*
X1614Y803D01*
X1Y802D02*
X8Y802D01*
X1607Y802D02*
X1614Y802D01*
X1Y801D02*
X8Y801D01*
X1607Y801D02*
X1614Y801D01*
X1Y800D02*
X8Y800D01*
X1607Y800D02*
X1614Y800D01*
X1Y799D02*
X8Y799D01*
X1607Y799D02*
X1614Y799D01*
X1Y798D02*
X8Y798D01*
X1607Y798D02*
X1614Y798D01*
X1Y797D02*
X8Y797D01*
X1607Y797D02*
X1614Y797D01*
X1Y796D02*
X8Y796D01*
X1607Y796D02*
X1614Y796D01*
X1Y795D02*
X8Y795D01*
X1607Y795D02*
X1614Y795D01*
X1Y794D02*
X8Y794D01*
X1607Y794D02*
X1614Y794D01*
X1Y793D02*
X8Y793D01*
X1607Y793D02*
X1614Y793D01*
X1Y792D02*
X8Y792D01*
X1607Y792D02*
X1614Y792D01*
X1Y791D02*
X8Y791D01*
X1607Y791D02*
X1614Y791D01*
X1Y790D02*
X8Y790D01*
X1607Y790D02*
X1614Y790D01*
X1Y789D02*
X8Y789D01*
X1607Y789D02*
X1614Y789D01*
X1Y788D02*
X8Y788D01*
X1607Y788D02*
X1614Y788D01*
X1Y787D02*
X8Y787D01*
X1607Y787D02*
X1614Y787D01*
X1Y786D02*
X8Y786D01*
X1607Y786D02*
X1614Y786D01*
X1Y785D02*
X8Y785D01*
X1607Y785D02*
X1614Y785D01*
X1Y784D02*
X8Y784D01*
X1607Y784D02*
X1614Y784D01*
X1Y783D02*
X8Y783D01*
X1607Y783D02*
X1614Y783D01*
X1Y782D02*
X8Y782D01*
X1607Y782D02*
X1614Y782D01*
X1Y781D02*
X8Y781D01*
X1607Y781D02*
X1614Y781D01*
X1Y780D02*
X8Y780D01*
X1607Y780D02*
X1614Y780D01*
X1Y779D02*
X8Y779D01*
X1607Y779D02*
X1614Y779D01*
X1Y778D02*
X8Y778D01*
X1607Y778D02*
X1614Y778D01*
X1Y777D02*
X8Y777D01*
X1607Y777D02*
X1614Y777D01*
X1Y776D02*
X8Y776D01*
X1607Y776D02*
X1614Y776D01*
X1Y775D02*
X8Y775D01*
X1607Y775D02*
X1614Y775D01*
X1Y774D02*
X8Y774D01*
X1607Y774D02*
X1614Y774D01*
X1Y773D02*
X8Y773D01*
X1607Y773D02*
X1614Y773D01*
X1Y772D02*
X8Y772D01*
X1607Y772D02*
X1614Y772D01*
X1Y771D02*
X8Y771D01*
X1607Y771D02*
X1614Y771D01*
X1Y770D02*
X8Y770D01*
X1607Y770D02*
X1614Y770D01*
X1Y769D02*
X8Y769D01*
X1607Y769D02*
X1614Y769D01*
X1Y768D02*
X8Y768D01*
X1607Y768D02*
X1614Y768D01*
X1Y767D02*
X8Y767D01*
X1607Y767D02*
X1614Y767D01*
X1Y766D02*
X8Y766D01*
X1607Y766D02*
X1614Y766D01*
X1Y765D02*
X8Y765D01*
X1607Y765D02*
X1614Y765D01*
X1Y764D02*
X8Y764D01*
X1607Y764D02*
X1614Y764D01*
X1Y763D02*
X8Y763D01*
X1607Y763D02*
X1614Y763D01*
X1Y762D02*
X8Y762D01*
X1607Y762D02*
X1614Y762D01*
X1Y761D02*
X8Y761D01*
X1607Y761D02*
X1614Y761D01*
X1Y760D02*
X8Y760D01*
X1607Y760D02*
X1614Y760D01*
X1Y759D02*
X8Y759D01*
X1607Y759D02*
X1614Y759D01*
X1Y758D02*
X8Y758D01*
X1607Y758D02*
X1614Y758D01*
X1Y757D02*
X8Y757D01*
X1607Y757D02*
X1614Y757D01*
X1Y756D02*
X8Y756D01*
X1607Y756D02*
X1614Y756D01*
X1Y755D02*
X8Y755D01*
X1607Y755D02*
X1614Y755D01*
X1Y754D02*
X8Y754D01*
X1607Y754D02*
X1614Y754D01*
X1Y753D02*
X8Y753D01*
X1607Y753D02*
X1614Y753D01*
X1Y752D02*
X8Y752D01*
X1607Y752D02*
X1614Y752D01*
X1Y751D02*
X8Y751D01*
X1607Y751D02*
X1614Y751D01*
X1Y750D02*
X8Y750D01*
X1607Y750D02*
X1614Y750D01*
X1Y749D02*
X8Y749D01*
X1607Y749D02*
X1614Y749D01*
X1Y748D02*
X8Y748D01*
X1607Y748D02*
X1614Y748D01*
X1Y747D02*
X8Y747D01*
X1607Y747D02*
X1614Y747D01*
X1Y746D02*
X8Y746D01*
X1607Y746D02*
X1614Y746D01*
X1Y745D02*
X8Y745D01*
X1607Y745D02*
X1614Y745D01*
X1Y744D02*
X8Y744D01*
X1607Y744D02*
X1614Y744D01*
X1Y743D02*
X8Y743D01*
X1607Y743D02*
X1614Y743D01*
X1Y742D02*
X8Y742D01*
X1607Y742D02*
X1614Y742D01*
X1Y741D02*
X8Y741D01*
X1607Y741D02*
X1614Y741D01*
X1Y740D02*
X8Y740D01*
X1607Y740D02*
X1614Y740D01*
X1Y739D02*
X8Y739D01*
X1607Y739D02*
X1614Y739D01*
X1Y738D02*
X8Y738D01*
X1607Y738D02*
X1614Y738D01*
X1Y737D02*
X8Y737D01*
X1607Y737D02*
X1614Y737D01*
X1Y736D02*
X8Y736D01*
X1607Y736D02*
X1614Y736D01*
X1Y735D02*
X8Y735D01*
X1607Y735D02*
X1614Y735D01*
X1Y734D02*
X8Y734D01*
X1607Y734D02*
X1614Y734D01*
X1Y733D02*
X8Y733D01*
X1607Y733D02*
X1614Y733D01*
X1Y732D02*
X8Y732D01*
X1607Y732D02*
X1614Y732D01*
X1Y731D02*
X8Y731D01*
X1607Y731D02*
X1614Y731D01*
X1Y730D02*
X8Y730D01*
X1607Y730D02*
X1614Y730D01*
X1Y729D02*
X8Y729D01*
X1607Y729D02*
X1614Y729D01*
X1Y728D02*
X8Y728D01*
X1607Y728D02*
X1614Y728D01*
X1Y727D02*
X8Y727D01*
X1607Y727D02*
X1614Y727D01*
X1Y726D02*
X8Y726D01*
X1607Y726D02*
X1614Y726D01*
X1Y725D02*
X8Y725D01*
X1607Y725D02*
X1614Y725D01*
X1Y724D02*
X8Y724D01*
X1607Y724D02*
X1614Y724D01*
X1Y723D02*
X8Y723D01*
X1607Y723D02*
X1614Y723D01*
X1Y722D02*
X8Y722D01*
X1607Y722D02*
X1614Y722D01*
X1Y721D02*
X8Y721D01*
X1607Y721D02*
X1614Y721D01*
X1Y720D02*
X8Y720D01*
X1607Y720D02*
X1614Y720D01*
X1Y719D02*
X8Y719D01*
X1607Y719D02*
X1614Y719D01*
X1Y718D02*
X8Y718D01*
X1607Y718D02*
X1614Y718D01*
X1Y717D02*
X8Y717D01*
X1607Y717D02*
X1614Y717D01*
X1Y716D02*
X8Y716D01*
X1607Y716D02*
X1614Y716D01*
X1Y715D02*
X8Y715D01*
X1607Y715D02*
X1614Y715D01*
X1Y714D02*
X8Y714D01*
X1607Y714D02*
X1614Y714D01*
X1Y713D02*
X8Y713D01*
X1607Y713D02*
X1614Y713D01*
X1Y712D02*
X8Y712D01*
X1607Y712D02*
X1614Y712D01*
X1Y711D02*
X8Y711D01*
X1607Y711D02*
X1614Y711D01*
X1Y710D02*
X8Y710D01*
X1607Y710D02*
X1614Y710D01*
X1Y709D02*
X8Y709D01*
X1607Y709D02*
X1614Y709D01*
X1Y708D02*
X8Y708D01*
X1607Y708D02*
X1614Y708D01*
X1Y707D02*
X8Y707D01*
X1607Y707D02*
X1614Y707D01*
X1Y706D02*
X8Y706D01*
X1607Y706D02*
X1614Y706D01*
X1Y705D02*
X8Y705D01*
X1607Y705D02*
X1614Y705D01*
X1Y704D02*
X8Y704D01*
X1607Y704D02*
X1614Y704D01*
X1Y703D02*
X8Y703D01*
X1607Y703D02*
X1614Y703D01*
X1Y702D02*
X8Y702D01*
X1607Y702D02*
X1614Y702D01*
X1Y701D02*
X8Y701D01*
X1607Y701D02*
X1614Y701D01*
X1Y700D02*
X8Y700D01*
X1607Y700D02*
X1614Y700D01*
X1Y699D02*
X8Y699D01*
X1607Y699D02*
X1614Y699D01*
X1Y698D02*
X8Y698D01*
X1607Y698D02*
X1614Y698D01*
X1Y697D02*
X8Y697D01*
X1607Y697D02*
X1614Y697D01*
X1Y696D02*
X8Y696D01*
X1607Y696D02*
X1614Y696D01*
X1Y695D02*
X8Y695D01*
X1607Y695D02*
X1614Y695D01*
X1Y694D02*
X8Y694D01*
X1607Y694D02*
X1614Y694D01*
X1Y693D02*
X8Y693D01*
X1607Y693D02*
X1614Y693D01*
X1Y692D02*
X8Y692D01*
X1607Y692D02*
X1614Y692D01*
X1Y691D02*
X8Y691D01*
X1607Y691D02*
X1614Y691D01*
X1Y690D02*
X8Y690D01*
X1607Y690D02*
X1614Y690D01*
X1Y689D02*
X8Y689D01*
X1607Y689D02*
X1614Y689D01*
X1Y688D02*
X8Y688D01*
X1607Y688D02*
X1614Y688D01*
X1Y687D02*
X8Y687D01*
X1607Y687D02*
X1614Y687D01*
X1Y686D02*
X8Y686D01*
X1607Y686D02*
X1614Y686D01*
X1Y685D02*
X8Y685D01*
X1607Y685D02*
X1614Y685D01*
X1Y684D02*
X8Y684D01*
X1607Y684D02*
X1614Y684D01*
X1Y683D02*
X8Y683D01*
X1607Y683D02*
X1614Y683D01*
X1Y682D02*
X8Y682D01*
X1607Y682D02*
X1614Y682D01*
X1Y681D02*
X8Y681D01*
X1607Y681D02*
X1614Y681D01*
X1Y680D02*
X8Y680D01*
X1607Y680D02*
X1614Y680D01*
X1Y679D02*
X8Y679D01*
X1607Y679D02*
X1614Y679D01*
X1Y678D02*
X8Y678D01*
X1607Y678D02*
X1614Y678D01*
X1Y677D02*
X8Y677D01*
X1607Y677D02*
X1614Y677D01*
X1Y676D02*
X8Y676D01*
X1607Y676D02*
X1614Y676D01*
X1Y675D02*
X8Y675D01*
X1607Y675D02*
X1614Y675D01*
X1Y674D02*
X8Y674D01*
X1607Y674D02*
X1614Y674D01*
X1Y673D02*
X8Y673D01*
X1607Y673D02*
X1614Y673D01*
X1Y672D02*
X8Y672D01*
X1607Y672D02*
X1614Y672D01*
X1Y671D02*
X8Y671D01*
X1607Y671D02*
X1614Y671D01*
X1Y670D02*
X8Y670D01*
X1607Y670D02*
X1614Y670D01*
X1Y669D02*
X8Y669D01*
X1607Y669D02*
X1614Y669D01*
X1Y668D02*
X8Y668D01*
X1607Y668D02*
X1614Y668D01*
X1Y667D02*
X8Y667D01*
X1607Y667D02*
X1614Y667D01*
X1Y666D02*
X8Y666D01*
X1607Y666D02*
X1614Y666D01*
X1Y665D02*
X8Y665D01*
X1607Y665D02*
X1614Y665D01*
X1Y664D02*
X8Y664D01*
X1607Y664D02*
X1614Y664D01*
X1Y663D02*
X8Y663D01*
X1607Y663D02*
X1614Y663D01*
X1Y662D02*
X8Y662D01*
X1607Y662D02*
X1614Y662D01*
X1Y661D02*
X8Y661D01*
X1607Y661D02*
X1614Y661D01*
X1Y660D02*
X8Y660D01*
X1607Y660D02*
X1614Y660D01*
X1Y659D02*
X8Y659D01*
X1607Y659D02*
X1614Y659D01*
X1Y658D02*
X8Y658D01*
X1607Y658D02*
X1614Y658D01*
X1Y657D02*
X8Y657D01*
X1607Y657D02*
X1614Y657D01*
X1Y656D02*
X8Y656D01*
X1607Y656D02*
X1614Y656D01*
X1Y655D02*
X8Y655D01*
X1607Y655D02*
X1614Y655D01*
X1Y654D02*
X8Y654D01*
X1607Y654D02*
X1614Y654D01*
X1Y653D02*
X8Y653D01*
X1607Y653D02*
X1614Y653D01*
X1Y652D02*
X8Y652D01*
X1607Y652D02*
X1614Y652D01*
X1Y651D02*
X8Y651D01*
X1607Y651D02*
X1614Y651D01*
X1Y650D02*
X8Y650D01*
X1607Y650D02*
X1614Y650D01*
X1Y649D02*
X8Y649D01*
X1607Y649D02*
X1614Y649D01*
X1Y648D02*
X8Y648D01*
X1607Y648D02*
X1614Y648D01*
X1Y647D02*
X8Y647D01*
X1607Y647D02*
X1614Y647D01*
X1Y646D02*
X8Y646D01*
X1607Y646D02*
X1614Y646D01*
X1Y645D02*
X8Y645D01*
X1607Y645D02*
X1614Y645D01*
X1Y644D02*
X8Y644D01*
X1607Y644D02*
X1614Y644D01*
X1Y643D02*
X8Y643D01*
X1607Y643D02*
X1614Y643D01*
X1Y642D02*
X8Y642D01*
X1607Y642D02*
X1614Y642D01*
X1Y641D02*
X8Y641D01*
X1607Y641D02*
X1614Y641D01*
X1Y640D02*
X8Y640D01*
X1607Y640D02*
X1614Y640D01*
X1Y639D02*
X8Y639D01*
X1607Y639D02*
X1614Y639D01*
X1Y638D02*
X8Y638D01*
X1607Y638D02*
X1614Y638D01*
X1Y637D02*
X8Y637D01*
X1607Y637D02*
X1614Y637D01*
X1Y636D02*
X8Y636D01*
X1607Y636D02*
X1614Y636D01*
X1Y635D02*
X8Y635D01*
X1607Y635D02*
X1614Y635D01*
X1Y634D02*
X8Y634D01*
X1607Y634D02*
X1614Y634D01*
X1Y633D02*
X8Y633D01*
X1607Y633D02*
X1614Y633D01*
X1Y632D02*
X8Y632D01*
X1607Y632D02*
X1614Y632D01*
X1Y631D02*
X8Y631D01*
X1607Y631D02*
X1614Y631D01*
X1Y630D02*
X8Y630D01*
X1607Y630D02*
X1614Y630D01*
X1Y629D02*
X8Y629D01*
X1607Y629D02*
X1614Y629D01*
X1Y628D02*
X8Y628D01*
X1607Y628D02*
X1614Y628D01*
X1Y627D02*
X8Y627D01*
X1607Y627D02*
X1614Y627D01*
X1Y626D02*
X8Y626D01*
X1607Y626D02*
X1614Y626D01*
X1Y625D02*
X8Y625D01*
X1607Y625D02*
X1614Y625D01*
X1Y624D02*
X8Y624D01*
X1607Y624D02*
X1614Y624D01*
X1Y623D02*
X8Y623D01*
X1607Y623D02*
X1614Y623D01*
X1Y622D02*
X8Y622D01*
X1607Y622D02*
X1614Y622D01*
X1Y621D02*
X8Y621D01*
X1607Y621D02*
X1614Y621D01*
X1Y620D02*
X8Y620D01*
X1607Y620D02*
X1614Y620D01*
X1Y619D02*
X8Y619D01*
X1607Y619D02*
X1614Y619D01*
X1Y618D02*
X8Y618D01*
X1607Y618D02*
X1614Y618D01*
X1Y617D02*
X8Y617D01*
X1607Y617D02*
X1614Y617D01*
X1Y616D02*
X8Y616D01*
X1607Y616D02*
X1614Y616D01*
X1Y615D02*
X8Y615D01*
X1607Y615D02*
X1614Y615D01*
X1Y614D02*
X8Y614D01*
X1607Y614D02*
X1614Y614D01*
X1Y613D02*
X8Y613D01*
X1607Y613D02*
X1614Y613D01*
X1Y612D02*
X8Y612D01*
X1607Y612D02*
X1614Y612D01*
X1Y611D02*
X8Y611D01*
X1607Y611D02*
X1614Y611D01*
X1Y610D02*
X8Y610D01*
X1607Y610D02*
X1614Y610D01*
X1Y609D02*
X8Y609D01*
X1607Y609D02*
X1614Y609D01*
X1Y608D02*
X8Y608D01*
X1607Y608D02*
X1614Y608D01*
X1Y607D02*
X8Y607D01*
X1607Y607D02*
X1614Y607D01*
X1Y606D02*
X8Y606D01*
X1607Y606D02*
X1614Y606D01*
X1Y605D02*
X8Y605D01*
X1607Y605D02*
X1614Y605D01*
X1Y604D02*
X8Y604D01*
X1607Y604D02*
X1614Y604D01*
X1Y603D02*
X8Y603D01*
X1607Y603D02*
X1614Y603D01*
X1Y602D02*
X8Y602D01*
X1607Y602D02*
X1614Y602D01*
X1Y601D02*
X8Y601D01*
X1607Y601D02*
X1614Y601D01*
X1Y600D02*
X8Y600D01*
X1607Y600D02*
X1614Y600D01*
X1Y599D02*
X8Y599D01*
X1607Y599D02*
X1614Y599D01*
X1Y598D02*
X8Y598D01*
X1607Y598D02*
X1614Y598D01*
X1Y597D02*
X8Y597D01*
X1607Y597D02*
X1614Y597D01*
X1Y596D02*
X8Y596D01*
X1607Y596D02*
X1614Y596D01*
X1Y595D02*
X8Y595D01*
X1607Y595D02*
X1614Y595D01*
X1Y594D02*
X8Y594D01*
X1607Y594D02*
X1614Y594D01*
X1Y593D02*
X8Y593D01*
X1607Y593D02*
X1614Y593D01*
X1Y592D02*
X8Y592D01*
X1607Y592D02*
X1614Y592D01*
X1Y591D02*
X8Y591D01*
X1607Y591D02*
X1614Y591D01*
X1Y590D02*
X8Y590D01*
X1607Y590D02*
X1614Y590D01*
X1Y589D02*
X8Y589D01*
X1607Y589D02*
X1614Y589D01*
X1Y588D02*
X8Y588D01*
X1607Y588D02*
X1614Y588D01*
X1Y587D02*
X8Y587D01*
X1607Y587D02*
X1614Y587D01*
X1Y586D02*
X8Y586D01*
X1607Y586D02*
X1614Y586D01*
X1Y585D02*
X8Y585D01*
X1607Y585D02*
X1614Y585D01*
X1Y584D02*
X8Y584D01*
X1607Y584D02*
X1614Y584D01*
X1Y583D02*
X8Y583D01*
X1607Y583D02*
X1614Y583D01*
X1Y582D02*
X8Y582D01*
X1607Y582D02*
X1614Y582D01*
X1Y581D02*
X8Y581D01*
X1607Y581D02*
X1614Y581D01*
X1Y580D02*
X8Y580D01*
X1607Y580D02*
X1614Y580D01*
X1Y579D02*
X8Y579D01*
X1607Y579D02*
X1614Y579D01*
X1Y578D02*
X8Y578D01*
X1607Y578D02*
X1614Y578D01*
X1Y577D02*
X8Y577D01*
X1607Y577D02*
X1614Y577D01*
X1Y576D02*
X8Y576D01*
X1607Y576D02*
X1614Y576D01*
X1Y575D02*
X8Y575D01*
X1607Y575D02*
X1614Y575D01*
X1Y574D02*
X8Y574D01*
X1607Y574D02*
X1614Y574D01*
X1Y573D02*
X8Y573D01*
X1607Y573D02*
X1614Y573D01*
X1Y572D02*
X8Y572D01*
X1607Y572D02*
X1614Y572D01*
X1Y571D02*
X8Y571D01*
X1607Y571D02*
X1614Y571D01*
X1Y570D02*
X8Y570D01*
X1607Y570D02*
X1614Y570D01*
X1Y569D02*
X8Y569D01*
X1607Y569D02*
X1614Y569D01*
X1Y568D02*
X8Y568D01*
X1607Y568D02*
X1614Y568D01*
X1Y567D02*
X8Y567D01*
X1607Y567D02*
X1614Y567D01*
X1Y566D02*
X8Y566D01*
X1607Y566D02*
X1614Y566D01*
X1Y565D02*
X8Y565D01*
X1607Y565D02*
X1614Y565D01*
X1Y564D02*
X8Y564D01*
X1607Y564D02*
X1614Y564D01*
X1Y563D02*
X8Y563D01*
X1607Y563D02*
X1614Y563D01*
X1Y562D02*
X8Y562D01*
X1607Y562D02*
X1614Y562D01*
X1Y561D02*
X8Y561D01*
X1607Y561D02*
X1614Y561D01*
X1Y560D02*
X8Y560D01*
X1607Y560D02*
X1614Y560D01*
X1Y559D02*
X8Y559D01*
X1607Y559D02*
X1614Y559D01*
X1Y558D02*
X8Y558D01*
X1607Y558D02*
X1614Y558D01*
X1Y557D02*
X8Y557D01*
X1607Y557D02*
X1614Y557D01*
X1Y556D02*
X8Y556D01*
X1607Y556D02*
X1614Y556D01*
X1Y555D02*
X8Y555D01*
X1607Y555D02*
X1614Y555D01*
X1Y554D02*
X8Y554D01*
X1607Y554D02*
X1614Y554D01*
X1Y553D02*
X8Y553D01*
X1607Y553D02*
X1614Y553D01*
X1Y552D02*
X8Y552D01*
X1607Y552D02*
X1614Y552D01*
X1Y551D02*
X8Y551D01*
X1607Y551D02*
X1614Y551D01*
X1Y550D02*
X8Y550D01*
X1607Y550D02*
X1614Y550D01*
X1Y549D02*
X8Y549D01*
X1607Y549D02*
X1614Y549D01*
X1Y548D02*
X8Y548D01*
X1607Y548D02*
X1614Y548D01*
X1Y547D02*
X8Y547D01*
X1607Y547D02*
X1614Y547D01*
X1Y546D02*
X8Y546D01*
X1607Y546D02*
X1614Y546D01*
X1Y545D02*
X8Y545D01*
X1607Y545D02*
X1614Y545D01*
X1Y544D02*
X8Y544D01*
X1607Y544D02*
X1614Y544D01*
X1Y543D02*
X8Y543D01*
X1607Y543D02*
X1614Y543D01*
X1Y542D02*
X8Y542D01*
X1607Y542D02*
X1614Y542D01*
X1Y541D02*
X8Y541D01*
X1607Y541D02*
X1614Y541D01*
X1Y540D02*
X8Y540D01*
X1607Y540D02*
X1614Y540D01*
X1Y539D02*
X8Y539D01*
X1607Y539D02*
X1614Y539D01*
X1Y538D02*
X8Y538D01*
X1607Y538D02*
X1614Y538D01*
X1Y537D02*
X8Y537D01*
X1607Y537D02*
X1614Y537D01*
X1Y536D02*
X8Y536D01*
X1607Y536D02*
X1614Y536D01*
X1Y535D02*
X8Y535D01*
X1607Y535D02*
X1614Y535D01*
X1Y534D02*
X8Y534D01*
X1607Y534D02*
X1614Y534D01*
X1Y533D02*
X8Y533D01*
X1607Y533D02*
X1614Y533D01*
X1Y532D02*
X8Y532D01*
X1607Y532D02*
X1614Y532D01*
X1Y531D02*
X8Y531D01*
X1607Y531D02*
X1614Y531D01*
X1Y530D02*
X8Y530D01*
X1607Y530D02*
X1614Y530D01*
X1Y529D02*
X8Y529D01*
X1607Y529D02*
X1614Y529D01*
X1Y528D02*
X8Y528D01*
X1607Y528D02*
X1614Y528D01*
X1Y527D02*
X8Y527D01*
X1607Y527D02*
X1614Y527D01*
X1Y526D02*
X8Y526D01*
X1607Y526D02*
X1614Y526D01*
X1Y525D02*
X8Y525D01*
X1607Y525D02*
X1614Y525D01*
X1Y524D02*
X8Y524D01*
X1607Y524D02*
X1614Y524D01*
X1Y523D02*
X8Y523D01*
X1607Y523D02*
X1614Y523D01*
X1Y522D02*
X8Y522D01*
X1607Y522D02*
X1614Y522D01*
X1Y521D02*
X8Y521D01*
X1607Y521D02*
X1614Y521D01*
X1Y520D02*
X8Y520D01*
X1607Y520D02*
X1614Y520D01*
X1Y519D02*
X8Y519D01*
X1607Y519D02*
X1614Y519D01*
X1Y518D02*
X8Y518D01*
X1607Y518D02*
X1614Y518D01*
X1Y517D02*
X8Y517D01*
X1607Y517D02*
X1614Y517D01*
X1Y516D02*
X8Y516D01*
X1607Y516D02*
X1614Y516D01*
X1Y515D02*
X8Y515D01*
X1607Y515D02*
X1614Y515D01*
X1Y514D02*
X8Y514D01*
X1607Y514D02*
X1614Y514D01*
X1Y513D02*
X8Y513D01*
X1607Y513D02*
X1614Y513D01*
X1Y512D02*
X8Y512D01*
X1607Y512D02*
X1614Y512D01*
X1Y511D02*
X8Y511D01*
X1607Y511D02*
X1614Y511D01*
X1Y510D02*
X8Y510D01*
X1607Y510D02*
X1614Y510D01*
X1Y509D02*
X8Y509D01*
X1607Y509D02*
X1614Y509D01*
X1Y508D02*
X8Y508D01*
X1607Y508D02*
X1614Y508D01*
X1Y507D02*
X8Y507D01*
X1607Y507D02*
X1614Y507D01*
X1Y506D02*
X8Y506D01*
X1607Y506D02*
X1614Y506D01*
X1Y505D02*
X8Y505D01*
X1607Y505D02*
X1614Y505D01*
X1Y504D02*
X8Y504D01*
X1607Y504D02*
X1614Y504D01*
X1Y503D02*
X8Y503D01*
X1607Y503D02*
X1614Y503D01*
X1Y502D02*
X8Y502D01*
X1607Y502D02*
X1614Y502D01*
X1Y501D02*
X8Y501D01*
X1607Y501D02*
X1614Y501D01*
X1Y500D02*
X8Y500D01*
X1607Y500D02*
X1614Y500D01*
X1Y499D02*
X8Y499D01*
X1607Y499D02*
X1614Y499D01*
X1Y498D02*
X8Y498D01*
X1607Y498D02*
X1614Y498D01*
X1Y497D02*
X8Y497D01*
X1607Y497D02*
X1614Y497D01*
X1Y496D02*
X8Y496D01*
X1607Y496D02*
X1614Y496D01*
X1Y495D02*
X8Y495D01*
X1607Y495D02*
X1614Y495D01*
X1Y494D02*
X8Y494D01*
X1607Y494D02*
X1614Y494D01*
X1Y493D02*
X8Y493D01*
X1607Y493D02*
X1614Y493D01*
X1Y492D02*
X8Y492D01*
X1607Y492D02*
X1614Y492D01*
X1Y491D02*
X8Y491D01*
X1607Y491D02*
X1614Y491D01*
X1Y490D02*
X8Y490D01*
X1607Y490D02*
X1614Y490D01*
X1Y489D02*
X8Y489D01*
X1607Y489D02*
X1614Y489D01*
X1Y488D02*
X8Y488D01*
X1607Y488D02*
X1614Y488D01*
X1Y487D02*
X8Y487D01*
X1607Y487D02*
X1614Y487D01*
X1Y486D02*
X8Y486D01*
X1607Y486D02*
X1614Y486D01*
X1Y485D02*
X8Y485D01*
X1607Y485D02*
X1614Y485D01*
X1Y484D02*
X8Y484D01*
X1607Y484D02*
X1614Y484D01*
X1Y483D02*
X8Y483D01*
X1607Y483D02*
X1614Y483D01*
X1Y482D02*
X8Y482D01*
X1607Y482D02*
X1614Y482D01*
X1Y481D02*
X8Y481D01*
X1607Y481D02*
X1614Y481D01*
X1Y480D02*
X8Y480D01*
X1607Y480D02*
X1614Y480D01*
X1Y479D02*
X8Y479D01*
X1607Y479D02*
X1614Y479D01*
X1Y478D02*
X8Y478D01*
X1607Y478D02*
X1614Y478D01*
X1Y477D02*
X8Y477D01*
X1607Y477D02*
X1614Y477D01*
X1Y476D02*
X8Y476D01*
X1607Y476D02*
X1614Y476D01*
X1Y475D02*
X8Y475D01*
X1607Y475D02*
X1614Y475D01*
X1Y474D02*
X8Y474D01*
X1607Y474D02*
X1614Y474D01*
X1Y473D02*
X8Y473D01*
X1607Y473D02*
X1614Y473D01*
X1Y472D02*
X8Y472D01*
X1607Y472D02*
X1614Y472D01*
X1Y471D02*
X8Y471D01*
X1607Y471D02*
X1614Y471D01*
X1Y470D02*
X8Y470D01*
X1607Y470D02*
X1614Y470D01*
X1Y469D02*
X8Y469D01*
X1607Y469D02*
X1614Y469D01*
X1Y468D02*
X8Y468D01*
X1607Y468D02*
X1614Y468D01*
X1Y467D02*
X8Y467D01*
X1607Y467D02*
X1614Y467D01*
X1Y466D02*
X8Y466D01*
X1607Y466D02*
X1614Y466D01*
X1Y465D02*
X8Y465D01*
X1607Y465D02*
X1614Y465D01*
X1Y464D02*
X8Y464D01*
X1607Y464D02*
X1614Y464D01*
X1Y463D02*
X8Y463D01*
X1607Y463D02*
X1614Y463D01*
X1Y462D02*
X8Y462D01*
X1607Y462D02*
X1614Y462D01*
X1Y461D02*
X8Y461D01*
X1607Y461D02*
X1614Y461D01*
X1Y460D02*
X8Y460D01*
X1607Y460D02*
X1614Y460D01*
X1Y459D02*
X8Y459D01*
X1607Y459D02*
X1614Y459D01*
X1Y458D02*
X8Y458D01*
X1607Y458D02*
X1614Y458D01*
X1Y457D02*
X8Y457D01*
X1607Y457D02*
X1614Y457D01*
X1Y456D02*
X8Y456D01*
X1607Y456D02*
X1614Y456D01*
X1Y455D02*
X8Y455D01*
X1607Y455D02*
X1614Y455D01*
X1Y454D02*
X8Y454D01*
X1607Y454D02*
X1614Y454D01*
X1Y453D02*
X8Y453D01*
X1607Y453D02*
X1614Y453D01*
X1Y452D02*
X8Y452D01*
X1607Y452D02*
X1614Y452D01*
X1Y451D02*
X8Y451D01*
X1607Y451D02*
X1614Y451D01*
X1Y450D02*
X8Y450D01*
X1607Y450D02*
X1614Y450D01*
X1Y449D02*
X8Y449D01*
X1607Y449D02*
X1614Y449D01*
X1Y448D02*
X8Y448D01*
X1607Y448D02*
X1614Y448D01*
X1Y447D02*
X8Y447D01*
X1607Y447D02*
X1614Y447D01*
X1Y446D02*
X8Y446D01*
X1607Y446D02*
X1614Y446D01*
X1Y445D02*
X8Y445D01*
X1607Y445D02*
X1614Y445D01*
X1Y444D02*
X8Y444D01*
X1607Y444D02*
X1614Y444D01*
X1Y443D02*
X8Y443D01*
X1607Y443D02*
X1614Y443D01*
X1Y442D02*
X8Y442D01*
X1607Y442D02*
X1614Y442D01*
X1Y441D02*
X8Y441D01*
X1607Y441D02*
X1614Y441D01*
X1Y440D02*
X8Y440D01*
X1607Y440D02*
X1614Y440D01*
X1Y439D02*
X8Y439D01*
X1607Y439D02*
X1614Y439D01*
X1Y438D02*
X8Y438D01*
X1607Y438D02*
X1614Y438D01*
X1Y437D02*
X8Y437D01*
X1607Y437D02*
X1614Y437D01*
X1Y436D02*
X8Y436D01*
X1607Y436D02*
X1614Y436D01*
X1Y435D02*
X8Y435D01*
X1607Y435D02*
X1614Y435D01*
X1Y434D02*
X8Y434D01*
X1607Y434D02*
X1614Y434D01*
X1Y433D02*
X8Y433D01*
X1607Y433D02*
X1614Y433D01*
X1Y432D02*
X8Y432D01*
X1607Y432D02*
X1614Y432D01*
X1Y431D02*
X8Y431D01*
X1607Y431D02*
X1614Y431D01*
X1Y430D02*
X8Y430D01*
X1607Y430D02*
X1614Y430D01*
X1Y429D02*
X8Y429D01*
X1607Y429D02*
X1614Y429D01*
X1Y428D02*
X8Y428D01*
X1607Y428D02*
X1614Y428D01*
X1Y427D02*
X8Y427D01*
X1607Y427D02*
X1614Y427D01*
X1Y426D02*
X8Y426D01*
X1607Y426D02*
X1614Y426D01*
X1Y425D02*
X8Y425D01*
X1607Y425D02*
X1614Y425D01*
X1Y424D02*
X8Y424D01*
X1607Y424D02*
X1614Y424D01*
X1Y423D02*
X8Y423D01*
X1607Y423D02*
X1614Y423D01*
X1Y422D02*
X8Y422D01*
X1607Y422D02*
X1614Y422D01*
X1Y421D02*
X8Y421D01*
X1607Y421D02*
X1614Y421D01*
X1Y420D02*
X8Y420D01*
X1607Y420D02*
X1614Y420D01*
X1Y419D02*
X8Y419D01*
X1607Y419D02*
X1614Y419D01*
X1Y418D02*
X8Y418D01*
X1607Y418D02*
X1614Y418D01*
X1Y417D02*
X8Y417D01*
X1607Y417D02*
X1614Y417D01*
X1Y416D02*
X8Y416D01*
X1607Y416D02*
X1614Y416D01*
X1Y415D02*
X8Y415D01*
X1607Y415D02*
X1614Y415D01*
X1Y414D02*
X8Y414D01*
X1607Y414D02*
X1614Y414D01*
X1Y413D02*
X8Y413D01*
X1607Y413D02*
X1614Y413D01*
X1Y412D02*
X8Y412D01*
X1607Y412D02*
X1614Y412D01*
X1Y411D02*
X8Y411D01*
X1607Y411D02*
X1614Y411D01*
X1Y410D02*
X8Y410D01*
X1607Y410D02*
X1614Y410D01*
X1Y409D02*
X8Y409D01*
X1607Y409D02*
X1614Y409D01*
X1Y408D02*
X8Y408D01*
X1607Y408D02*
X1614Y408D01*
X1Y407D02*
X8Y407D01*
X1607Y407D02*
X1614Y407D01*
X1Y406D02*
X8Y406D01*
X1607Y406D02*
X1614Y406D01*
X1Y405D02*
X8Y405D01*
X1607Y405D02*
X1614Y405D01*
X1Y404D02*
X8Y404D01*
X1607Y404D02*
X1614Y404D01*
X1Y403D02*
X8Y403D01*
X1607Y403D02*
X1614Y403D01*
X1Y402D02*
X8Y402D01*
X1607Y402D02*
X1614Y402D01*
X1Y401D02*
X8Y401D01*
X1607Y401D02*
X1614Y401D01*
X1Y400D02*
X8Y400D01*
X1607Y400D02*
X1614Y400D01*
X1Y399D02*
X8Y399D01*
X1607Y399D02*
X1614Y399D01*
X1Y398D02*
X8Y398D01*
X1607Y398D02*
X1614Y398D01*
X1Y397D02*
X8Y397D01*
X1607Y397D02*
X1614Y397D01*
X1Y396D02*
X8Y396D01*
X1607Y396D02*
X1614Y396D01*
X1Y395D02*
X8Y395D01*
X1607Y395D02*
X1614Y395D01*
X1Y394D02*
X8Y394D01*
X1607Y394D02*
X1614Y394D01*
X1Y393D02*
X8Y393D01*
X1607Y393D02*
X1614Y393D01*
X1Y392D02*
X8Y392D01*
X1607Y392D02*
X1614Y392D01*
X1Y391D02*
X8Y391D01*
X1607Y391D02*
X1614Y391D01*
X1Y390D02*
X8Y390D01*
X1607Y390D02*
X1614Y390D01*
X1Y389D02*
X8Y389D01*
X1607Y389D02*
X1614Y389D01*
X1Y388D02*
X8Y388D01*
X1607Y388D02*
X1614Y388D01*
X1Y387D02*
X8Y387D01*
X1607Y387D02*
X1614Y387D01*
X1Y386D02*
X8Y386D01*
X1607Y386D02*
X1614Y386D01*
X1Y385D02*
X8Y385D01*
X1607Y385D02*
X1614Y385D01*
X1Y384D02*
X8Y384D01*
X1607Y384D02*
X1614Y384D01*
X1Y383D02*
X8Y383D01*
X1607Y383D02*
X1614Y383D01*
X1Y382D02*
X8Y382D01*
X1607Y382D02*
X1614Y382D01*
X1Y381D02*
X8Y381D01*
X1607Y381D02*
X1614Y381D01*
X1Y380D02*
X8Y380D01*
X1607Y380D02*
X1614Y380D01*
X1Y379D02*
X8Y379D01*
X1607Y379D02*
X1614Y379D01*
X1Y378D02*
X9Y378D01*
X1606Y378D02*
X1614Y378D01*
X2Y377D02*
X9Y377D01*
X1606Y377D02*
X1613Y377D01*
X2Y376D02*
X9Y376D01*
X1606Y376D02*
X1613Y376D01*
X2Y375D02*
X9Y375D01*
X1606Y375D02*
X1613Y375D01*
X2Y374D02*
X9Y374D01*
X1606Y374D02*
X1613Y374D01*
X2Y373D02*
X9Y373D01*
X1606Y373D02*
X1613Y373D01*
X2Y372D02*
X9Y372D01*
X1606Y372D02*
X1613Y372D01*
X2Y371D02*
X9Y371D01*
X1606Y371D02*
X1613Y371D01*
X2Y370D02*
X9Y370D01*
X1606Y370D02*
X1613Y370D01*
X2Y369D02*
X9Y369D01*
X1606Y369D02*
X1613Y369D01*
X2Y368D02*
X9Y368D01*
X1606Y368D02*
X1613Y368D01*
X2Y367D02*
X9Y367D01*
X1606Y367D02*
X1613Y367D01*
X2Y366D02*
X9Y366D01*
X1606Y366D02*
X1613Y366D01*
X2Y365D02*
X9Y365D01*
X1606Y365D02*
X1613Y365D01*
X2Y364D02*
X9Y364D01*
X1606Y364D02*
X1613Y364D01*
X3Y363D02*
X10Y363D01*
X1605Y363D02*
X1612Y363D01*
X3Y362D02*
X10Y362D01*
X1605Y362D02*
X1612Y362D01*
X3Y361D02*
X10Y361D01*
X1605Y361D02*
X1612Y361D01*
X3Y360D02*
X10Y360D01*
X1605Y360D02*
X1612Y360D01*
X3Y359D02*
X10Y359D01*
X1605Y359D02*
X1612Y359D01*
X3Y358D02*
X10Y358D01*
X1605Y358D02*
X1612Y358D01*
X3Y357D02*
X10Y357D01*
X1605Y357D02*
X1612Y357D01*
X3Y356D02*
X10Y356D01*
X1605Y356D02*
X1612Y356D01*
X3Y355D02*
X10Y355D01*
X1605Y355D02*
X1612Y355D01*
X3Y354D02*
X10Y354D01*
X1605Y354D02*
X1612Y354D01*
X4Y353D02*
X11Y353D01*
X1604Y353D02*
X1611Y353D01*
X4Y352D02*
X11Y352D01*
X1604Y352D02*
X1611Y352D01*
X4Y351D02*
X11Y351D01*
X1604Y351D02*
X1611Y351D01*
X4Y350D02*
X11Y350D01*
X1604Y350D02*
X1611Y350D01*
X4Y349D02*
X11Y349D01*
X1604Y349D02*
X1611Y349D01*
X4Y348D02*
X11Y348D01*
X1604Y348D02*
X1611Y348D01*
X4Y347D02*
X11Y347D01*
X1604Y347D02*
X1611Y347D01*
X4Y346D02*
X11Y346D01*
X1604Y346D02*
X1611Y346D01*
X5Y345D02*
X12Y345D01*
X1603Y345D02*
X1610Y345D01*
X5Y344D02*
X12Y344D01*
X1603Y344D02*
X1610Y344D01*
X5Y343D02*
X12Y343D01*
X1603Y343D02*
X1610Y343D01*
X5Y342D02*
X12Y342D01*
X1603Y342D02*
X1610Y342D01*
X5Y341D02*
X12Y341D01*
X1603Y341D02*
X1610Y341D01*
X5Y340D02*
X12Y340D01*
X1603Y340D02*
X1610Y340D01*
X5Y339D02*
X12Y339D01*
X1603Y339D02*
X1610Y339D01*
X6Y338D02*
X13Y338D01*
X1602Y338D02*
X1609Y338D01*
X6Y337D02*
X13Y337D01*
X1602Y337D02*
X1609Y337D01*
X6Y336D02*
X13Y336D01*
X1602Y336D02*
X1609Y336D01*
X6Y335D02*
X13Y335D01*
X1602Y335D02*
X1609Y335D01*
X6Y334D02*
X13Y334D01*
X1602Y334D02*
X1609Y334D01*
X6Y333D02*
X13Y333D01*
X1602Y333D02*
X1609Y333D01*
X7Y332D02*
X14Y332D01*
X1601Y332D02*
X1608Y332D01*
X7Y331D02*
X14Y331D01*
X1601Y331D02*
X1608Y331D01*
X7Y330D02*
X14Y330D01*
X1601Y330D02*
X1608Y330D01*
X7Y329D02*
X14Y329D01*
X1601Y329D02*
X1608Y329D01*
X7Y328D02*
X14Y328D01*
X1601Y328D02*
X1608Y328D01*
X7Y327D02*
X14Y327D01*
X1601Y327D02*
X1608Y327D01*
X8Y326D02*
X15Y326D01*
X1600Y326D02*
X1607Y326D01*
X8Y325D02*
X15Y325D01*
X1600Y325D02*
X1607Y325D01*
X8Y324D02*
X15Y324D01*
X1600Y324D02*
X1607Y324D01*
X8Y323D02*
X15Y323D01*
X1600Y323D02*
X1607Y323D01*
X8Y322D02*
X15Y322D01*
X1600Y322D02*
X1607Y322D01*
X9Y321D02*
X16Y321D01*
X1599Y321D02*
X1606Y321D01*
X9Y320D02*
X16Y320D01*
X1599Y320D02*
X1606Y320D01*
X9Y319D02*
X16Y319D01*
X1599Y319D02*
X1606Y319D01*
X9Y318D02*
X16Y318D01*
X1599Y318D02*
X1606Y318D01*
X9Y317D02*
X16Y317D01*
X1599Y317D02*
X1606Y317D01*
X10Y316D02*
X17Y316D01*
X1598Y316D02*
X1605Y316D01*
X10Y315D02*
X17Y315D01*
X1598Y315D02*
X1605Y315D01*
X10Y314D02*
X17Y314D01*
X1598Y314D02*
X1605Y314D01*
X10Y313D02*
X17Y313D01*
X1598Y313D02*
X1605Y313D01*
X10Y312D02*
X17Y312D01*
X1598Y312D02*
X1605Y312D01*
X11Y311D02*
X18Y311D01*
X1597Y311D02*
X1604Y311D01*
X11Y310D02*
X18Y310D01*
X1597Y310D02*
X1604Y310D01*
X11Y309D02*
X18Y309D01*
X1597Y309D02*
X1604Y309D01*
X11Y308D02*
X18Y308D01*
X1597Y308D02*
X1604Y308D01*
X12Y307D02*
X19Y307D01*
X1596Y307D02*
X1603Y307D01*
X12Y306D02*
X19Y306D01*
X1596Y306D02*
X1603Y306D01*
X12Y305D02*
X19Y305D01*
X1596Y305D02*
X1603Y305D01*
X12Y304D02*
X19Y304D01*
X1596Y304D02*
X1603Y304D01*
X12Y303D02*
X20Y303D01*
X1595Y303D02*
X1602Y303D01*
X13Y302D02*
X20Y302D01*
X1595Y302D02*
X1602Y302D01*
X13Y301D02*
X20Y301D01*
X1595Y301D02*
X1602Y301D01*
X13Y300D02*
X20Y300D01*
X1595Y300D02*
X1602Y300D01*
X13Y299D02*
X21Y299D01*
X1594Y299D02*
X1602Y299D01*
X14Y298D02*
X21Y298D01*
X1594Y298D02*
X1601Y298D01*
X14Y297D02*
X21Y297D01*
X1594Y297D02*
X1601Y297D01*
X14Y296D02*
X21Y296D01*
X1594Y296D02*
X1601Y296D01*
X15Y295D02*
X22Y295D01*
X1593Y295D02*
X1600Y295D01*
X15Y294D02*
X22Y294D01*
X1593Y294D02*
X1600Y294D01*
X15Y293D02*
X22Y293D01*
X1593Y293D02*
X1600Y293D01*
X15Y292D02*
X23Y292D01*
X1592Y292D02*
X1600Y292D01*
X16Y291D02*
X23Y291D01*
X1592Y291D02*
X1599Y291D01*
X16Y290D02*
X23Y290D01*
X1592Y290D02*
X1599Y290D01*
X16Y289D02*
X23Y289D01*
X1592Y289D02*
X1599Y289D01*
X16Y288D02*
X24Y288D01*
X1591Y288D02*
X1599Y288D01*
X17Y287D02*
X24Y287D01*
X1591Y287D02*
X1598Y287D01*
X17Y286D02*
X24Y286D01*
X1591Y286D02*
X1598Y286D01*
X17Y285D02*
X25Y285D01*
X1590Y285D02*
X1598Y285D01*
X18Y284D02*
X25Y284D01*
X1590Y284D02*
X1597Y284D01*
X18Y283D02*
X25Y283D01*
X1590Y283D02*
X1597Y283D01*
X18Y282D02*
X25Y282D01*
X1590Y282D02*
X1597Y282D01*
X19Y281D02*
X26Y281D01*
X1589Y281D02*
X1596Y281D01*
X19Y280D02*
X26Y280D01*
X1589Y280D02*
X1596Y280D01*
X19Y279D02*
X26Y279D01*
X1588Y279D02*
X1596Y279D01*
X20Y278D02*
X27Y278D01*
X1588Y278D02*
X1595Y278D01*
X20Y277D02*
X27Y277D01*
X1588Y277D02*
X1595Y277D01*
X20Y276D02*
X28Y276D01*
X1587Y276D02*
X1595Y276D01*
X20Y275D02*
X28Y275D01*
X1587Y275D02*
X1595Y275D01*
X21Y274D02*
X28Y274D01*
X1587Y274D02*
X1594Y274D01*
X21Y273D02*
X29Y273D01*
X1586Y273D02*
X1594Y273D01*
X21Y272D02*
X29Y272D01*
X1586Y272D02*
X1594Y272D01*
X22Y271D02*
X29Y271D01*
X1586Y271D02*
X1593Y271D01*
X22Y270D02*
X30Y270D01*
X1585Y270D02*
X1593Y270D01*
X22Y269D02*
X30Y269D01*
X1585Y269D02*
X1593Y269D01*
X23Y268D02*
X30Y268D01*
X1585Y268D02*
X1592Y268D01*
X23Y267D02*
X31Y267D01*
X1584Y267D02*
X1592Y267D01*
X24Y266D02*
X31Y266D01*
X1584Y266D02*
X1591Y266D01*
X24Y265D02*
X31Y265D01*
X1584Y265D02*
X1591Y265D01*
X24Y264D02*
X32Y264D01*
X1583Y264D02*
X1591Y264D01*
X25Y263D02*
X32Y263D01*
X1583Y263D02*
X1590Y263D01*
X25Y262D02*
X32Y262D01*
X1583Y262D02*
X1590Y262D01*
X25Y261D02*
X33Y261D01*
X1582Y261D02*
X1590Y261D01*
X26Y260D02*
X33Y260D01*
X1582Y260D02*
X1589Y260D01*
X26Y259D02*
X34Y259D01*
X1581Y259D02*
X1589Y259D01*
X27Y258D02*
X34Y258D01*
X1581Y258D02*
X1588Y258D01*
X27Y257D02*
X34Y257D01*
X1581Y257D02*
X1588Y257D01*
X27Y256D02*
X35Y256D01*
X1580Y256D02*
X1588Y256D01*
X28Y255D02*
X35Y255D01*
X1580Y255D02*
X1587Y255D01*
X28Y254D02*
X36Y254D01*
X1579Y254D02*
X1587Y254D01*
X28Y253D02*
X36Y253D01*
X1579Y253D02*
X1587Y253D01*
X29Y252D02*
X36Y252D01*
X1579Y252D02*
X1586Y252D01*
X29Y251D02*
X37Y251D01*
X1578Y251D02*
X1586Y251D01*
X30Y250D02*
X37Y250D01*
X1578Y250D02*
X1585Y250D01*
X30Y249D02*
X37Y249D01*
X1578Y249D02*
X1585Y249D01*
X30Y248D02*
X38Y248D01*
X1577Y248D02*
X1585Y248D01*
X31Y247D02*
X38Y247D01*
X1577Y247D02*
X1584Y247D01*
X31Y246D02*
X39Y246D01*
X1576Y246D02*
X1584Y246D01*
X32Y245D02*
X39Y245D01*
X1576Y245D02*
X1583Y245D01*
X32Y244D02*
X40Y244D01*
X1575Y244D02*
X1583Y244D01*
X32Y243D02*
X40Y243D01*
X1575Y243D02*
X1583Y243D01*
X33Y242D02*
X41Y242D01*
X1574Y242D02*
X1582Y242D01*
X33Y241D02*
X41Y241D01*
X1574Y241D02*
X1582Y241D01*
X34Y240D02*
X41Y240D01*
X1574Y240D02*
X1581Y240D01*
X34Y239D02*
X42Y239D01*
X1573Y239D02*
X1581Y239D01*
X35Y238D02*
X42Y238D01*
X1573Y238D02*
X1580Y238D01*
X35Y237D02*
X43Y237D01*
X1572Y237D02*
X1580Y237D01*
X36Y236D02*
X43Y236D01*
X1572Y236D02*
X1579Y236D01*
X36Y235D02*
X44Y235D01*
X1571Y235D02*
X1579Y235D01*
X37Y234D02*
X44Y234D01*
X1571Y234D02*
X1578Y234D01*
X37Y233D02*
X45Y233D01*
X1570Y233D02*
X1578Y233D01*
X37Y232D02*
X45Y232D01*
X1570Y232D02*
X1578Y232D01*
X38Y231D02*
X45Y231D01*
X1570Y231D02*
X1577Y231D01*
X38Y230D02*
X46Y230D01*
X1569Y230D02*
X1577Y230D01*
X39Y229D02*
X46Y229D01*
X1569Y229D02*
X1576Y229D01*
X39Y228D02*
X47Y228D01*
X1568Y228D02*
X1576Y228D01*
X40Y227D02*
X47Y227D01*
X1568Y227D02*
X1575Y227D01*
X40Y226D02*
X48Y226D01*
X1567Y226D02*
X1575Y226D01*
X41Y225D02*
X48Y225D01*
X1567Y225D02*
X1574Y225D01*
X41Y224D02*
X49Y224D01*
X1566Y224D02*
X1574Y224D01*
X42Y223D02*
X49Y223D01*
X1566Y223D02*
X1573Y223D01*
X42Y222D02*
X50Y222D01*
X1565Y222D02*
X1573Y222D01*
X43Y221D02*
X50Y221D01*
X1565Y221D02*
X1572Y221D01*
X43Y220D02*
X51Y220D01*
X1564Y220D02*
X1572Y220D01*
X44Y219D02*
X52Y219D01*
X1563Y219D02*
X1571Y219D01*
X44Y218D02*
X52Y218D01*
X1563Y218D02*
X1571Y218D01*
X45Y217D02*
X53Y217D01*
X1562Y217D02*
X1570Y217D01*
X45Y216D02*
X53Y216D01*
X1562Y216D02*
X1570Y216D01*
X46Y215D02*
X54Y215D01*
X1561Y215D02*
X1569Y215D01*
X46Y214D02*
X54Y214D01*
X1561Y214D02*
X1569Y214D01*
X47Y213D02*
X55Y213D01*
X1560Y213D02*
X1568Y213D01*
X47Y212D02*
X55Y212D01*
X1560Y212D02*
X1568Y212D01*
X48Y211D02*
X56Y211D01*
X1559Y211D02*
X1567Y211D01*
X48Y210D02*
X56Y210D01*
X1559Y210D02*
X1567Y210D01*
X49Y209D02*
X57Y209D01*
X1558Y209D02*
X1566Y209D01*
X49Y208D02*
X57Y208D01*
X1558Y208D02*
X1566Y208D01*
X50Y207D02*
X58Y207D01*
X1557Y207D02*
X1565Y207D01*
X50Y206D02*
X59Y206D01*
X1556Y206D02*
X1565Y206D01*
X51Y205D02*
X59Y205D01*
X1556Y205D02*
X1564Y205D01*
X52Y204D02*
X60Y204D01*
X1555Y204D02*
X1563Y204D01*
X52Y203D02*
X60Y203D01*
X1555Y203D02*
X1563Y203D01*
X53Y202D02*
X61Y202D01*
X1554Y202D02*
X1562Y202D01*
X53Y201D02*
X61Y201D01*
X1554Y201D02*
X1562Y201D01*
X54Y200D02*
X62Y200D01*
X1553Y200D02*
X1561Y200D01*
X55Y199D02*
X63Y199D01*
X1552Y199D02*
X1560Y199D01*
X55Y198D02*
X63Y198D01*
X1552Y198D02*
X1560Y198D01*
X56Y197D02*
X64Y197D01*
X1551Y197D02*
X1559Y197D01*
X56Y196D02*
X64Y196D01*
X1551Y196D02*
X1559Y196D01*
X57Y195D02*
X65Y195D01*
X1550Y195D02*
X1558Y195D01*
X57Y194D02*
X66Y194D01*
X1549Y194D02*
X1558Y194D01*
X58Y193D02*
X66Y193D01*
X1549Y193D02*
X1557Y193D01*
X59Y192D02*
X67Y192D01*
X1548Y192D02*
X1556Y192D01*
X59Y191D02*
X68Y191D01*
X1547Y191D02*
X1556Y191D01*
X60Y190D02*
X68Y190D01*
X1547Y190D02*
X1555Y190D01*
X60Y189D02*
X69Y189D01*
X1546Y189D02*
X1555Y189D01*
X61Y188D02*
X69Y188D01*
X1546Y188D02*
X1554Y188D01*
X62Y187D02*
X70Y187D01*
X1545Y187D02*
X1553Y187D01*
X62Y186D02*
X71Y186D01*
X1544Y186D02*
X1553Y186D01*
X63Y185D02*
X71Y185D01*
X1544Y185D02*
X1552Y185D01*
X64Y184D02*
X72Y184D01*
X1543Y184D02*
X1551Y184D01*
X64Y183D02*
X73Y183D01*
X1542Y183D02*
X1551Y183D01*
X65Y182D02*
X73Y182D01*
X1542Y182D02*
X1550Y182D01*
X66Y181D02*
X74Y181D01*
X1541Y181D02*
X1549Y181D01*
X66Y180D02*
X75Y180D01*
X1540Y180D02*
X1549Y180D01*
X67Y179D02*
X75Y179D01*
X1540Y179D02*
X1548Y179D01*
X67Y178D02*
X76Y178D01*
X1539Y178D02*
X1548Y178D01*
X68Y177D02*
X77Y177D01*
X1538Y177D02*
X1547Y177D01*
X69Y176D02*
X77Y176D01*
X1538Y176D02*
X1546Y176D01*
X69Y175D02*
X78Y175D01*
X1537Y175D02*
X1546Y175D01*
X70Y174D02*
X79Y174D01*
X1536Y174D02*
X1545Y174D01*
X71Y173D02*
X80Y173D01*
X1535Y173D02*
X1544Y173D01*
X72Y172D02*
X80Y172D01*
X1535Y172D02*
X1543Y172D01*
X72Y171D02*
X81Y171D01*
X1534Y171D02*
X1543Y171D01*
X73Y170D02*
X82Y170D01*
X1533Y170D02*
X1542Y170D01*
X74Y169D02*
X82Y169D01*
X1533Y169D02*
X1541Y169D01*
X74Y168D02*
X83Y168D01*
X1532Y168D02*
X1541Y168D01*
X75Y167D02*
X84Y167D01*
X1531Y167D02*
X1540Y167D01*
X76Y166D02*
X85Y166D01*
X1530Y166D02*
X1539Y166D01*
X77Y165D02*
X85Y165D01*
X1530Y165D02*
X1538Y165D01*
X77Y164D02*
X86Y164D01*
X1529Y164D02*
X1538Y164D01*
X78Y163D02*
X87Y163D01*
X1528Y163D02*
X1537Y163D01*
X79Y162D02*
X88Y162D01*
X1527Y162D02*
X1536Y162D01*
X79Y161D02*
X88Y161D01*
X1527Y161D02*
X1536Y161D01*
X80Y160D02*
X89Y160D01*
X1526Y160D02*
X1535Y160D01*
X81Y159D02*
X90Y159D01*
X1525Y159D02*
X1534Y159D01*
X82Y158D02*
X91Y158D01*
X1524Y158D02*
X1533Y158D01*
X82Y157D02*
X92Y157D01*
X1523Y157D02*
X1533Y157D01*
X83Y156D02*
X92Y156D01*
X1523Y156D02*
X1532Y156D01*
X84Y155D02*
X93Y155D01*
X1522Y155D02*
X1531Y155D01*
X85Y154D02*
X94Y154D01*
X1521Y154D02*
X1530Y154D01*
X86Y153D02*
X95Y153D01*
X1520Y153D02*
X1529Y153D01*
X86Y152D02*
X96Y152D01*
X1519Y152D02*
X1529Y152D01*
X87Y151D02*
X96Y151D01*
X1519Y151D02*
X1528Y151D01*
X88Y150D02*
X97Y150D01*
X1518Y150D02*
X1527Y150D01*
X89Y149D02*
X98Y149D01*
X1517Y149D02*
X1526Y149D01*
X90Y148D02*
X99Y148D01*
X1516Y148D02*
X1525Y148D01*
X90Y147D02*
X100Y147D01*
X1515Y147D02*
X1525Y147D01*
X91Y146D02*
X101Y146D01*
X1514Y146D02*
X1524Y146D01*
X92Y145D02*
X101Y145D01*
X1514Y145D02*
X1523Y145D01*
X93Y144D02*
X102Y144D01*
X1513Y144D02*
X1522Y144D01*
X94Y143D02*
X103Y143D01*
X1512Y143D02*
X1521Y143D01*
X94Y142D02*
X104Y142D01*
X1511Y142D02*
X1520Y142D01*
X95Y141D02*
X105Y141D01*
X1510Y141D02*
X1520Y141D01*
X96Y140D02*
X106Y140D01*
X1509Y140D02*
X1519Y140D01*
X97Y139D02*
X107Y139D01*
X1508Y139D02*
X1518Y139D01*
X98Y138D02*
X108Y138D01*
X1507Y138D02*
X1517Y138D01*
X99Y137D02*
X108Y137D01*
X1507Y137D02*
X1516Y137D01*
X100Y136D02*
X109Y136D01*
X1506Y136D02*
X1515Y136D01*
X101Y135D02*
X110Y135D01*
X1505Y135D02*
X1514Y135D01*
X101Y134D02*
X111Y134D01*
X1504Y134D02*
X1514Y134D01*
X102Y133D02*
X112Y133D01*
X1503Y133D02*
X1513Y133D01*
X103Y132D02*
X113Y132D01*
X1502Y132D02*
X1512Y132D01*
X104Y131D02*
X114Y131D01*
X1501Y131D02*
X1511Y131D01*
X105Y130D02*
X115Y130D01*
X1500Y130D02*
X1510Y130D01*
X106Y129D02*
X116Y129D01*
X1499Y129D02*
X1509Y129D01*
X107Y128D02*
X117Y128D01*
X1498Y128D02*
X1508Y128D01*
X108Y127D02*
X118Y127D01*
X1497Y127D02*
X1507Y127D01*
X109Y126D02*
X119Y126D01*
X1496Y126D02*
X1506Y126D01*
X110Y125D02*
X120Y125D01*
X1495Y125D02*
X1505Y125D01*
X111Y124D02*
X121Y124D01*
X1494Y124D02*
X1504Y124D01*
X112Y123D02*
X122Y123D01*
X1493Y123D02*
X1503Y123D01*
X113Y122D02*
X123Y122D01*
X1492Y122D02*
X1502Y122D01*
X114Y121D02*
X124Y121D01*
X1491Y121D02*
X1501Y121D01*
X114Y120D02*
X125Y120D01*
X1490Y120D02*
X1501Y120D01*
X115Y119D02*
X126Y119D01*
X1489Y119D02*
X1500Y119D01*
X116Y118D02*
X127Y118D01*
X1488Y118D02*
X1499Y118D01*
X117Y117D02*
X128Y117D01*
X1487Y117D02*
X1498Y117D01*
X118Y116D02*
X129Y116D01*
X1486Y116D02*
X1497Y116D01*
X119Y115D02*
X130Y115D01*
X1485Y115D02*
X1496Y115D01*
X120Y114D02*
X131Y114D01*
X1484Y114D02*
X1495Y114D01*
X122Y113D02*
X132Y113D01*
X1483Y113D02*
X1493Y113D01*
X123Y112D02*
X133Y112D01*
X1482Y112D02*
X1492Y112D01*
X124Y111D02*
X134Y111D01*
X1481Y111D02*
X1491Y111D01*
X125Y110D02*
X135Y110D01*
X1480Y110D02*
X1490Y110D01*
X126Y109D02*
X136Y109D01*
X1479Y109D02*
X1489Y109D01*
X127Y108D02*
X138Y108D01*
X1477Y108D02*
X1488Y108D01*
X128Y107D02*
X139Y107D01*
X1476Y107D02*
X1487Y107D01*
X129Y106D02*
X140Y106D01*
X1475Y106D02*
X1486Y106D01*
X130Y105D02*
X141Y105D01*
X1474Y105D02*
X1485Y105D01*
X131Y104D02*
X142Y104D01*
X1473Y104D02*
X1484Y104D01*
X132Y103D02*
X143Y103D01*
X1472Y103D02*
X1483Y103D01*
X133Y102D02*
X144Y102D01*
X1471Y102D02*
X1482Y102D01*
X134Y101D02*
X146Y101D01*
X1469Y101D02*
X1481Y101D01*
X136Y100D02*
X147Y100D01*
X1468Y100D02*
X1479Y100D01*
X137Y99D02*
X148Y99D01*
X1467Y99D02*
X1478Y99D01*
X138Y98D02*
X149Y98D01*
X1466Y98D02*
X1477Y98D01*
X139Y97D02*
X150Y97D01*
X1465Y97D02*
X1476Y97D01*
X140Y96D02*
X152Y96D01*
X1463Y96D02*
X1475Y96D01*
X141Y95D02*
X153Y95D01*
X1462Y95D02*
X1474Y95D01*
X142Y94D02*
X154Y94D01*
X1461Y94D02*
X1472Y94D01*
X144Y93D02*
X155Y93D01*
X1460Y93D02*
X1471Y93D01*
X145Y92D02*
X157Y92D01*
X1458Y92D02*
X1470Y92D01*
X146Y91D02*
X158Y91D01*
X1457Y91D02*
X1469Y91D01*
X147Y90D02*
X159Y90D01*
X1456Y90D02*
X1468Y90D01*
X149Y89D02*
X160Y89D01*
X1455Y89D02*
X1466Y89D01*
X150Y88D02*
X162Y88D01*
X1453Y88D02*
X1465Y88D01*
X151Y87D02*
X163Y87D01*
X1452Y87D02*
X1464Y87D01*
X152Y86D02*
X164Y86D01*
X1451Y86D02*
X1463Y86D01*
X154Y85D02*
X166Y85D01*
X1449Y85D02*
X1461Y85D01*
X155Y84D02*
X167Y84D01*
X1448Y84D02*
X1460Y84D01*
X156Y83D02*
X168Y83D01*
X1447Y83D02*
X1459Y83D01*
X157Y82D02*
X170Y82D01*
X1445Y82D02*
X1458Y82D01*
X159Y81D02*
X171Y81D01*
X1444Y81D02*
X1456Y81D01*
X160Y80D02*
X173Y80D01*
X1442Y80D02*
X1455Y80D01*
X161Y79D02*
X174Y79D01*
X1441Y79D02*
X1454Y79D01*
X163Y78D02*
X175Y78D01*
X1440Y78D02*
X1452Y78D01*
X164Y77D02*
X177Y77D01*
X1438Y77D02*
X1451Y77D01*
X166Y76D02*
X178Y76D01*
X1437Y76D02*
X1449Y76D01*
X167Y75D02*
X180Y75D01*
X1435Y75D02*
X1448Y75D01*
X168Y74D02*
X181Y74D01*
X1434Y74D02*
X1447Y74D01*
X170Y73D02*
X183Y73D01*
X1432Y73D02*
X1445Y73D01*
X171Y72D02*
X184Y72D01*
X1431Y72D02*
X1444Y72D01*
X173Y71D02*
X186Y71D01*
X1429Y71D02*
X1442Y71D01*
X174Y70D02*
X187Y70D01*
X1428Y70D02*
X1441Y70D01*
X175Y69D02*
X189Y69D01*
X1426Y69D02*
X1440Y69D01*
X177Y68D02*
X191Y68D01*
X1424Y68D02*
X1438Y68D01*
X178Y67D02*
X192Y67D01*
X1423Y67D02*
X1437Y67D01*
X180Y66D02*
X194Y66D01*
X1421Y66D02*
X1435Y66D01*
X182Y65D02*
X195Y65D01*
X1420Y65D02*
X1433Y65D01*
X183Y64D02*
X197Y64D01*
X1418Y64D02*
X1432Y64D01*
X185Y63D02*
X199Y63D01*
X1416Y63D02*
X1430Y63D01*
X186Y62D02*
X200Y62D01*
X1415Y62D02*
X1429Y62D01*
X188Y61D02*
X202Y61D01*
X1413Y61D02*
X1427Y61D01*
X189Y60D02*
X204Y60D01*
X1411Y60D02*
X1426Y60D01*
X191Y59D02*
X206Y59D01*
X1409Y59D02*
X1424Y59D01*
X193Y58D02*
X207Y58D01*
X1408Y58D02*
X1422Y58D01*
X194Y57D02*
X209Y57D01*
X1406Y57D02*
X1421Y57D01*
X196Y56D02*
X211Y56D01*
X1404Y56D02*
X1419Y56D01*
X198Y55D02*
X213Y55D01*
X1402Y55D02*
X1417Y55D01*
X200Y54D02*
X215Y54D01*
X1400Y54D02*
X1415Y54D01*
X201Y53D02*
X217Y53D01*
X1398Y53D02*
X1414Y53D01*
X203Y52D02*
X219Y52D01*
X1396Y52D02*
X1412Y52D01*
X205Y51D02*
X220Y51D01*
X1395Y51D02*
X1410Y51D01*
X206Y50D02*
X222Y50D01*
X1393Y50D02*
X1409Y50D01*
X208Y49D02*
X224Y49D01*
X1391Y49D02*
X1407Y49D01*
X210Y48D02*
X226Y48D01*
X1389Y48D02*
X1405Y48D01*
X212Y47D02*
X228Y47D01*
X1387Y47D02*
X1403Y47D01*
X214Y46D02*
X230Y46D01*
X1385Y46D02*
X1401Y46D01*
X216Y45D02*
X233Y45D01*
X1382Y45D02*
X1399Y45D01*
X218Y44D02*
X235Y44D01*
X1380Y44D02*
X1397Y44D01*
X220Y43D02*
X237Y43D01*
X1378Y43D02*
X1395Y43D01*
X222Y42D02*
X239Y42D01*
X1376Y42D02*
X1393Y42D01*
X224Y41D02*
X242Y41D01*
X1373Y41D02*
X1391Y41D01*
X226Y40D02*
X244Y40D01*
X1371Y40D02*
X1389Y40D01*
X228Y39D02*
X246Y39D01*
X1369Y39D02*
X1387Y39D01*
X230Y38D02*
X248Y38D01*
X1367Y38D02*
X1385Y38D01*
X232Y37D02*
X251Y37D01*
X1364Y37D02*
X1383Y37D01*
X235Y36D02*
X254Y36D01*
X1361Y36D02*
X1380Y36D01*
X237Y35D02*
X256Y35D01*
X1359Y35D02*
X1378Y35D01*
X239Y34D02*
X259Y34D01*
X1356Y34D02*
X1376Y34D01*
X241Y33D02*
X261Y33D01*
X1354Y33D02*
X1374Y33D01*
X243Y32D02*
X264Y32D01*
X1351Y32D02*
X1372Y32D01*
X246Y31D02*
X267Y31D01*
X1348Y31D02*
X1369Y31D01*
X248Y30D02*
X270Y30D01*
X1345Y30D02*
X1367Y30D01*
X251Y29D02*
X273Y29D01*
X1342Y29D02*
X1364Y29D01*
X253Y28D02*
X276Y28D01*
X1339Y28D02*
X1362Y28D01*
X256Y27D02*
X279Y27D01*
X1336Y27D02*
X1359Y27D01*
X259Y26D02*
X281Y26D01*
X1334Y26D02*
X1356Y26D01*
X261Y25D02*
X285Y25D01*
X1330Y25D02*
X1354Y25D01*
X264Y24D02*
X288Y24D01*
X1327Y24D02*
X1351Y24D01*
X267Y23D02*
X292Y23D01*
X1323Y23D02*
X1348Y23D01*
X269Y22D02*
X295Y22D01*
X1320Y22D02*
X1346Y22D01*
X272Y21D02*
X299Y21D01*
X1316Y21D02*
X1343Y21D01*
X275Y20D02*
X303Y20D01*
X1312Y20D02*
X1340Y20D01*
X279Y19D02*
X307Y19D01*
X1308Y19D02*
X1336Y19D01*
X282Y18D02*
X311Y18D01*
X1304Y18D02*
X1333Y18D01*
X285Y17D02*
X316Y17D01*
X1299Y17D02*
X1330Y17D01*
X288Y16D02*
X321Y16D01*
X1294Y16D02*
X1327Y16D01*
X292Y15D02*
X326Y15D01*
X1289Y15D02*
X1323Y15D01*
X296Y14D02*
X332Y14D01*
X1283Y14D02*
X1319Y14D01*
X299Y13D02*
X338Y13D01*
X1277Y13D02*
X1316Y13D01*
X304Y12D02*
X345Y12D01*
X1270Y12D02*
X1311Y12D01*
X308Y11D02*
X353Y11D01*
X1262Y11D02*
X1307Y11D01*
X312Y10D02*
X363Y10D01*
X1252Y10D02*
X1303Y10D01*
X317Y9D02*
X378Y9D01*
X1237Y9D02*
X1298Y9D01*
X322Y8D02*
X1293Y8D01*
X327Y7D02*
X1288Y7D01*
X333Y6D02*
X1282Y6D01*
X339Y5D02*
X1276Y5D01*
X346Y4D02*
X1269Y4D01*
X354Y3D02*
X1261Y3D01*
X364Y2D02*
X1251Y2D01*
X378Y1D02*
X1237Y1D01*
D02*
G04 End of Silk0*
M02*