G04 MADE WITH FRITZING*
G04 WWW.FRITZING.ORG*
G04 DOUBLE SIDED*
G04 HOLES PLATED*
G04 CONTOUR ON CENTER OF CONTOUR VECTOR*
%ASAXBY*%
%FSLAX23Y23*%
%MOIN*%
%OFA0B0*%
%SFA1.0B1.0*%
%ADD10C,0.049370*%
%ADD11C,0.088000*%
%ADD12C,0.085000*%
%ADD13C,0.080000*%
%ADD14R,0.085000X0.085000*%
%LNMASK1*%
G90*
G70*
G54D10*
X778Y635D03*
X778Y1104D03*
X781Y1206D03*
X781Y1304D03*
G54D11*
X297Y1400D03*
X297Y1300D03*
X297Y1200D03*
X297Y1100D03*
X297Y1000D03*
X297Y900D03*
X297Y800D03*
X297Y700D03*
X297Y600D03*
X297Y500D03*
X297Y400D03*
X297Y300D03*
X892Y1401D03*
X892Y1301D03*
X892Y1201D03*
X892Y1101D03*
X892Y1001D03*
X892Y901D03*
X892Y801D03*
X892Y701D03*
X892Y601D03*
X892Y501D03*
X892Y401D03*
X892Y301D03*
X1400Y1401D03*
X1400Y1301D03*
X1400Y1201D03*
X1400Y1101D03*
X1400Y1001D03*
X1400Y901D03*
X1400Y801D03*
X1400Y701D03*
X1400Y601D03*
X1400Y501D03*
X1400Y401D03*
G54D12*
X593Y1404D03*
X1193Y1404D03*
X593Y1304D03*
X1193Y1304D03*
X593Y1204D03*
X1193Y1204D03*
X593Y1104D03*
X1193Y1104D03*
X593Y1004D03*
X1193Y1004D03*
X593Y904D03*
X1193Y904D03*
X593Y804D03*
X1193Y804D03*
X593Y704D03*
X1193Y704D03*
X593Y604D03*
X1193Y604D03*
X593Y504D03*
X1193Y504D03*
X593Y404D03*
X1193Y404D03*
X593Y304D03*
X1193Y304D03*
X593Y204D03*
X1193Y204D03*
X593Y104D03*
X1193Y104D03*
G54D10*
X715Y1407D03*
X982Y1351D03*
X983Y1205D03*
X1045Y1304D03*
X1045Y1202D03*
X711Y1202D03*
X711Y1100D03*
X1269Y654D03*
X982Y1095D03*
X982Y784D03*
X1049Y749D03*
X1049Y824D03*
X1045Y1095D03*
G54D13*
X1293Y1406D03*
X1293Y1507D03*
G54D11*
X1301Y300D03*
X1301Y200D03*
X1301Y300D03*
X1301Y200D03*
X1401Y200D03*
X1401Y300D03*
G54D10*
X825Y206D03*
X758Y300D03*
X1104Y206D03*
G54D14*
X593Y1404D03*
G04 End of Mask1*
M02*