G04 MADE WITH FRITZING*
G04 WWW.FRITZING.ORG*
G04 DOUBLE SIDED*
G04 HOLES PLATED*
G04 CONTOUR ON CENTER OF CONTOUR VECTOR*
%ASAXBY*%
%FSLAX23Y23*%
%MOIN*%
%OFA0B0*%
%SFA1.0B1.0*%
%ADD10C,0.039370*%
%ADD11C,0.078000*%
%ADD12C,0.075000*%
%ADD13C,0.070000*%
%ADD14R,0.075000X0.075000*%
%ADD15C,0.008000*%
%ADD16C,0.048000*%
%ADD17C,0.024000*%
%LNCOPPER0*%
G90*
G70*
G54D10*
X778Y635D03*
X778Y1104D03*
X781Y1206D03*
X781Y1304D03*
G54D11*
X297Y1400D03*
X297Y1300D03*
X297Y1200D03*
X297Y1100D03*
X297Y1000D03*
X297Y900D03*
X297Y800D03*
X297Y700D03*
X297Y600D03*
X297Y500D03*
X297Y400D03*
X297Y300D03*
X892Y1401D03*
X892Y1301D03*
X892Y1201D03*
X892Y1101D03*
X892Y1001D03*
X892Y901D03*
X892Y801D03*
X892Y701D03*
X892Y601D03*
X892Y501D03*
X892Y401D03*
X892Y301D03*
X1400Y1401D03*
X1400Y1301D03*
X1400Y1201D03*
X1400Y1101D03*
X1400Y1001D03*
X1400Y901D03*
X1400Y801D03*
X1400Y701D03*
X1400Y601D03*
X1400Y501D03*
X1400Y401D03*
G54D12*
X593Y1404D03*
X1193Y1404D03*
X593Y1304D03*
X1193Y1304D03*
X593Y1204D03*
X1193Y1204D03*
X593Y1104D03*
X1193Y1104D03*
X593Y1004D03*
X1193Y1004D03*
X593Y904D03*
X1193Y904D03*
X593Y804D03*
X1193Y804D03*
X593Y704D03*
X1193Y704D03*
X593Y604D03*
X1193Y604D03*
X593Y504D03*
X1193Y504D03*
X593Y404D03*
X1193Y404D03*
X593Y304D03*
X1193Y304D03*
X593Y204D03*
X1193Y204D03*
X593Y104D03*
X1193Y104D03*
G54D10*
X715Y1407D03*
X982Y1351D03*
X983Y1205D03*
X1045Y1304D03*
X1045Y1202D03*
X711Y1202D03*
X711Y1100D03*
X1269Y654D03*
X982Y1095D03*
X982Y784D03*
X1049Y749D03*
X1049Y824D03*
X1045Y1095D03*
G54D13*
X1293Y1406D03*
X1293Y1507D03*
G54D11*
X1301Y300D03*
X1301Y200D03*
X1301Y300D03*
X1301Y200D03*
X1401Y200D03*
X1401Y300D03*
G54D10*
X825Y206D03*
X758Y300D03*
X1104Y206D03*
G54D14*
X593Y1404D03*
G54D15*
X778Y1096D02*
X778Y643D01*
D02*
X781Y1296D02*
X781Y1213D01*
D02*
X1119Y1150D02*
X514Y1155D01*
D02*
X514Y1155D02*
X313Y1290D01*
D02*
X1127Y1037D02*
X1119Y1150D01*
D02*
X1177Y1012D02*
X1127Y1037D01*
D02*
X711Y1210D02*
X715Y1399D01*
D02*
X706Y324D02*
X711Y1092D01*
D02*
X751Y303D02*
X706Y324D01*
D02*
X983Y1213D02*
X982Y1343D01*
D02*
X1045Y1296D02*
X1045Y1210D01*
D02*
X1269Y1162D02*
X1269Y662D01*
D02*
X1208Y1196D02*
X1269Y1162D01*
D02*
X1081Y702D02*
X911Y701D01*
D02*
X1184Y889D02*
X1081Y702D01*
D02*
X982Y792D02*
X982Y1087D01*
D02*
X1049Y816D02*
X1049Y757D01*
D02*
X1045Y1088D02*
X1049Y832D01*
D02*
X1273Y453D02*
X1451Y453D01*
D02*
X1451Y560D02*
X1414Y589D01*
D02*
X1451Y453D02*
X1451Y560D01*
D02*
X1207Y413D02*
X1273Y453D01*
G54D16*
D02*
X214Y1513D02*
X1278Y1507D01*
D02*
X208Y302D02*
X214Y1513D01*
D02*
X207Y107D02*
X208Y302D01*
D02*
X575Y104D02*
X207Y107D01*
G54D17*
D02*
X1046Y584D02*
X1175Y602D01*
D02*
X1041Y107D02*
X1046Y584D01*
D02*
X610Y104D02*
X1041Y107D01*
D02*
X825Y214D02*
X828Y745D01*
D02*
X828Y745D02*
X877Y788D01*
G54D15*
D02*
X1399Y146D02*
X1136Y155D01*
D02*
X1136Y155D02*
X1108Y199D01*
D02*
X1400Y181D02*
X1399Y146D01*
D02*
X1136Y281D02*
X1140Y552D01*
D02*
X1140Y552D02*
X1278Y559D01*
D02*
X1182Y218D02*
X1136Y281D01*
D02*
X1357Y757D02*
X1386Y787D01*
D02*
X1278Y559D02*
X1357Y757D01*
D02*
X1230Y355D02*
X1470Y348D01*
D02*
X1203Y318D02*
X1230Y355D01*
D02*
X1470Y348D02*
X1470Y654D01*
D02*
X1470Y654D02*
X1415Y690D01*
D02*
X1210Y504D02*
X1381Y501D01*
G54D16*
D02*
X208Y302D02*
X278Y300D01*
G04 End of Copper0*
M02*