G04 MADE WITH FRITZING*
G04 WWW.FRITZING.ORG*
G04 DOUBLE SIDED*
G04 HOLES PLATED*
G04 CONTOUR ON CENTER OF CONTOUR VECTOR*
%ASAXBY*%
%FSLAX23Y23*%
%MOIN*%
%OFA0B0*%
%SFA1.0B1.0*%
%ADD10C,0.039370*%
%ADD11C,0.078000*%
%ADD12C,0.075000*%
%ADD13C,0.070000*%
%ADD14R,0.075000X0.075000*%
%ADD15C,0.008000*%
%ADD16C,0.048000*%
%ADD17C,0.024000*%
%LNCOPPER1*%
G90*
G70*
G54D10*
X778Y635D03*
X778Y1104D03*
X781Y1206D03*
X781Y1304D03*
G54D11*
X297Y1400D03*
X297Y1300D03*
X297Y1200D03*
X297Y1100D03*
X297Y1000D03*
X297Y900D03*
X297Y800D03*
X297Y700D03*
X297Y600D03*
X297Y500D03*
X297Y400D03*
X297Y300D03*
X892Y1401D03*
X892Y1301D03*
X892Y1201D03*
X892Y1101D03*
X892Y1001D03*
X892Y901D03*
X892Y801D03*
X892Y701D03*
X892Y601D03*
X892Y501D03*
X892Y401D03*
X892Y301D03*
X1400Y1401D03*
X1400Y1301D03*
X1400Y1201D03*
X1400Y1101D03*
X1400Y1001D03*
X1400Y901D03*
X1400Y801D03*
X1400Y701D03*
X1400Y601D03*
X1400Y501D03*
X1400Y401D03*
G54D12*
X593Y1404D03*
X1193Y1404D03*
X593Y1304D03*
X1193Y1304D03*
X593Y1204D03*
X1193Y1204D03*
X593Y1104D03*
X1193Y1104D03*
X593Y1004D03*
X1193Y1004D03*
X593Y904D03*
X1193Y904D03*
X593Y804D03*
X1193Y804D03*
X593Y704D03*
X1193Y704D03*
X593Y604D03*
X1193Y604D03*
X593Y504D03*
X1193Y504D03*
X593Y404D03*
X1193Y404D03*
X593Y304D03*
X1193Y304D03*
X593Y204D03*
X1193Y204D03*
X593Y104D03*
X1193Y104D03*
G54D10*
X715Y1407D03*
X982Y1351D03*
X983Y1205D03*
X1045Y1304D03*
X1045Y1202D03*
X711Y1202D03*
X711Y1100D03*
X1269Y654D03*
X982Y1095D03*
X982Y784D03*
X1049Y749D03*
X1049Y824D03*
X1045Y1095D03*
G54D13*
X1293Y1406D03*
X1293Y1507D03*
G54D11*
X1301Y300D03*
X1301Y200D03*
X1301Y300D03*
X1301Y200D03*
X1401Y200D03*
X1401Y300D03*
G54D10*
X825Y206D03*
X758Y300D03*
X1104Y206D03*
G54D14*
X593Y1404D03*
G54D15*
X1101Y784D02*
X990Y784D01*
D02*
X982Y1103D02*
X983Y1197D01*
D02*
X1120Y1142D02*
X1120Y1246D01*
D02*
X1120Y1246D02*
X470Y1257D01*
D02*
X470Y1257D02*
X315Y1206D01*
D02*
X396Y1355D02*
X315Y1392D01*
D02*
X974Y1351D02*
X396Y1355D01*
D02*
X576Y898D02*
X315Y806D01*
D02*
X576Y998D02*
X315Y906D01*
D02*
X576Y1098D02*
X315Y1006D01*
D02*
X576Y1198D02*
X315Y1106D01*
D02*
X1177Y1112D02*
X1120Y1142D01*
D02*
X1179Y716D02*
X1101Y784D01*
D02*
X576Y498D02*
X315Y406D01*
D02*
X576Y598D02*
X315Y506D01*
D02*
X576Y698D02*
X315Y606D01*
D02*
X576Y798D02*
X315Y706D01*
D02*
X967Y1052D02*
X1285Y1055D01*
D02*
X1475Y813D02*
X1412Y886D01*
D02*
X1467Y142D02*
X1475Y813D01*
D02*
X651Y439D02*
X651Y1052D01*
D02*
X684Y348D02*
X680Y945D01*
D02*
X711Y257D02*
X707Y852D01*
D02*
X1124Y855D02*
X1297Y855D01*
D02*
X1097Y875D02*
X1124Y855D01*
D02*
X1026Y875D02*
X1097Y875D01*
D02*
X959Y852D02*
X1026Y875D01*
D02*
X707Y852D02*
X959Y852D01*
D02*
X1297Y855D02*
X1389Y985D01*
D02*
X1290Y957D02*
X1388Y1086D01*
D02*
X680Y945D02*
X1290Y957D01*
D02*
X1285Y1055D02*
X1388Y1186D01*
D02*
X651Y1052D02*
X967Y1052D01*
D02*
X1258Y146D02*
X1467Y142D01*
D02*
X1207Y114D02*
X1258Y146D01*
D02*
X608Y211D02*
X711Y257D01*
D02*
X608Y312D02*
X684Y348D01*
D02*
X608Y413D02*
X651Y439D01*
D02*
X1049Y741D02*
X1050Y403D01*
D02*
X793Y478D02*
X873Y497D01*
D02*
X793Y351D02*
X793Y478D01*
D02*
X1104Y351D02*
X793Y351D01*
D02*
X1262Y654D02*
X1115Y651D01*
D02*
X1115Y651D02*
X1104Y351D01*
D02*
X711Y1108D02*
X711Y1194D01*
D02*
X1045Y1194D02*
X1045Y1103D01*
D02*
X785Y633D02*
X874Y606D01*
D02*
X781Y1198D02*
X778Y1112D01*
D02*
X610Y1304D02*
X773Y1304D01*
D02*
X1050Y403D02*
X911Y401D01*
D02*
X1175Y1304D02*
X1053Y1304D01*
D02*
X707Y1407D02*
X610Y1404D01*
G54D16*
D02*
X1278Y1406D02*
X1210Y1404D01*
D02*
X1304Y1396D02*
X1386Y1314D01*
D02*
X1304Y1496D02*
X1386Y1414D01*
G54D17*
D02*
X1321Y399D02*
X1321Y753D01*
D02*
X1321Y753D02*
X1209Y798D01*
D02*
X1305Y319D02*
X1321Y399D01*
D02*
X1301Y281D02*
X1301Y219D01*
D02*
X1401Y319D02*
X1400Y382D01*
D02*
X1096Y206D02*
X833Y206D01*
G54D15*
D02*
X873Y301D02*
X766Y300D01*
G04 End of Copper1*
M02*