; NON-PLATED HOLES START AT T1
; THROUGH (PLATED) HOLES START AT T100
M48
INCH
T100C0.030000
T101C0.038000
T102C0.015748
T103C0.035433
T104C0.035000
T105C0.040000
T106C0.043307
%
T100
X027942Y008899
X001249Y011870
X001564Y021025
X027942Y009901
X001289Y009368
X021013Y023051
X022015Y023051
X001249Y016397
X001249Y012871
X001249Y017399
X001289Y008366
X029242Y023641
X030243Y023641
X001564Y022027
T101
X031879Y021090
X026801Y022090
X029399Y008885
X026801Y021090
X020856Y020082
X020856Y016082
X020856Y010082
X020856Y011082
X026801Y014090
X029399Y010885
X026801Y015090
X026801Y019090
X020856Y018082
X029399Y009885
X020856Y006082
X031879Y015090
X031879Y020090
X020856Y017082
X020856Y003082
X020856Y012082
X031879Y017090
X030399Y009885
X031879Y014090
X031879Y022090
X020856Y022082
X020856Y007082
X030399Y008885
X020856Y013082
X020856Y004082
X031879Y018090
X026801Y012090
X026801Y013090
X020856Y014082
X020856Y005082
X030399Y011885
X020856Y009082
X031879Y012090
X020856Y021082
X030399Y010885
X029399Y011885
X031879Y016090
X026801Y011090
X031879Y013090
X026801Y020090
X026801Y018090
X020856Y015082
X026801Y017090
X020856Y008082
X026801Y016090
X031879Y019090
X020856Y019082
T102
X010075Y003243
X015078Y006599
X006761Y006476
X001564Y007381
X010075Y006002
X001092Y006751
T103
X015223Y023558
T104
X022785Y019077
X008748Y012893
X005753Y005366
X006748Y012893
X030816Y022074
X008753Y005366
X007748Y012893
X022785Y011077
X025785Y013077
X008740Y017413
X003753Y005366
X007753Y005366
X004744Y021830
X007753Y008366
X030816Y019074
X023612Y009177
X008753Y008366
X027816Y020074
X004748Y009893
X027816Y013074
X022785Y013077
X006744Y021830
X022785Y014077
X008744Y021830
X006740Y017413
X027816Y017074
X025785Y019077
X005748Y009893
X023612Y008177
X025785Y012077
X025785Y014077
X022785Y015077
X006740Y014413
X003740Y017413
X027816Y016074
X005748Y012893
X025785Y020077
X030816Y018074
X003748Y009893
X022785Y018077
X003740Y014413
X026612Y008177
X008744Y018830
X006748Y009893
X004753Y005366
X022785Y020077
X006744Y018830
X027816Y018074
X030816Y016074
X025785Y016077
X007744Y021830
X004744Y018830
X004740Y014413
X030816Y021074
X022785Y021077
X030816Y015074
X023612Y006177
X002748Y009893
X023612Y005177
X025785Y018077
X005744Y021830
X002753Y008366
X007748Y009893
X022785Y022077
X003744Y021830
X004740Y017413
X030816Y020074
X008740Y014413
X006753Y008366
X026612Y003177
X026612Y006177
X025785Y017077
X002744Y021830
X027816Y015074
X026612Y005177
X027816Y022074
X022785Y016077
X007740Y014413
X002740Y017413
X002740Y014413
X007740Y017413
X022785Y012077
X026612Y004177
X008748Y009893
X005753Y008366
X005744Y018830
X003753Y008366
X023612Y004177
X002748Y012893
X023612Y003177
X007744Y018830
X002753Y005366
X027816Y014074
X025785Y021077
X027816Y021074
X025785Y022077
X030816Y014074
X005740Y017413
X003748Y012893
X003744Y018830
X006753Y005366
X026612Y009177
X022785Y017077
X023612Y007177
X004753Y008366
X027816Y019074
X025785Y015077
X002744Y018830
X005740Y014413
X026612Y007177
X030816Y013074
X030816Y017074
X004748Y012893
X025785Y011077
T105
X018782Y005074
X012982Y017074
X014005Y005074
X014005Y013074
X019805Y004074
X012982Y014074
X012982Y021074
X018782Y007074
X014005Y010074
X012982Y015074
X018782Y008074
X014005Y008074
X014005Y014074
X014005Y015074
X012982Y009074
X014005Y016074
X012982Y016074
X014005Y019074
X019805Y007074
X012982Y012074
X019805Y010074
X012982Y011074
X019805Y005074
X014005Y017074
X012982Y006074
X014005Y009074
X014005Y007074
X012982Y003074
X012982Y007074
X012982Y022074
X014005Y022074
X018782Y006074
X012982Y010074
X014005Y011074
X012982Y018074
X019805Y009074
X012982Y008074
X018782Y010074
X019805Y003074
X014005Y006074
X012982Y019074
X018782Y003074
X014005Y018074
X018782Y004074
X014005Y012074
X014005Y020074
X012982Y013074
X012982Y004074
X014005Y003074
X012982Y020074
X019805Y008074
X014005Y021074
X018782Y009074
X014005Y004074
X012982Y005074
X019805Y006074
T106
X018782Y017074
X019805Y022074
X019805Y011074
X018782Y018074
X018782Y016074
X018782Y015074
X018782Y012074
X019805Y013074
X019805Y018074
X019805Y019074
X018782Y014074
X018782Y021074
X018782Y022074
X019805Y014074
X019805Y016074
X019805Y015074
X019805Y020074
X019805Y021074
X019805Y012074
X019805Y017074
X018782Y011074
X018782Y019074
X018782Y020074
X018782Y013074
T00
M30
