G04 MADE WITH FRITZING*
G04 WWW.FRITZING.ORG*
G04 DOUBLE SIDED*
G04 HOLES PLATED*
G04 CONTOUR ON CENTER OF CONTOUR VECTOR*
%ASAXBY*%
%FSLAX23Y23*%
%MOIN*%
%OFA0B0*%
%SFA1.0B1.0*%
%ADD10R,0.001000X0.001000*%
%LNSILK0*%
G90*
G70*
G54D10*
X374Y2421D02*
X3012Y2421D01*
X359Y2420D02*
X3027Y2420D01*
X349Y2419D02*
X3037Y2419D01*
X341Y2418D02*
X3045Y2418D01*
X334Y2417D02*
X3052Y2417D01*
X328Y2416D02*
X3058Y2416D01*
X322Y2415D02*
X3064Y2415D01*
X317Y2414D02*
X3069Y2414D01*
X312Y2413D02*
X373Y2413D01*
X3013Y2413D02*
X3074Y2413D01*
X307Y2412D02*
X358Y2412D01*
X3028Y2412D02*
X3079Y2412D01*
X303Y2411D02*
X348Y2411D01*
X3038Y2411D02*
X3083Y2411D01*
X299Y2410D02*
X340Y2410D01*
X3046Y2410D02*
X3087Y2410D01*
X295Y2409D02*
X333Y2409D01*
X3053Y2409D02*
X3091Y2409D01*
X291Y2408D02*
X327Y2408D01*
X3059Y2408D02*
X3095Y2408D01*
X287Y2407D02*
X321Y2407D01*
X3065Y2407D02*
X3099Y2407D01*
X284Y2406D02*
X316Y2406D01*
X3070Y2406D02*
X3102Y2406D01*
X280Y2405D02*
X311Y2405D01*
X3075Y2405D02*
X3106Y2405D01*
X277Y2404D02*
X307Y2404D01*
X3079Y2404D02*
X3109Y2404D01*
X274Y2403D02*
X302Y2403D01*
X3084Y2403D02*
X3112Y2403D01*
X271Y2402D02*
X298Y2402D01*
X3088Y2402D02*
X3115Y2402D01*
X268Y2401D02*
X294Y2401D01*
X3092Y2401D02*
X3118Y2401D01*
X265Y2400D02*
X291Y2400D01*
X3095Y2400D02*
X3121Y2400D01*
X262Y2399D02*
X287Y2399D01*
X3099Y2399D02*
X3124Y2399D01*
X259Y2398D02*
X284Y2398D01*
X3102Y2398D02*
X3127Y2398D01*
X257Y2397D02*
X280Y2397D01*
X3106Y2397D02*
X3129Y2397D01*
X254Y2396D02*
X277Y2396D01*
X3109Y2396D02*
X3132Y2396D01*
X251Y2395D02*
X274Y2395D01*
X3112Y2395D02*
X3135Y2395D01*
X249Y2394D02*
X271Y2394D01*
X3115Y2394D02*
X3137Y2394D01*
X246Y2393D02*
X268Y2393D01*
X3118Y2393D02*
X3140Y2393D01*
X244Y2392D02*
X265Y2392D01*
X3121Y2392D02*
X3142Y2392D01*
X241Y2391D02*
X262Y2391D01*
X3124Y2391D02*
X3145Y2391D01*
X239Y2390D02*
X259Y2390D01*
X3127Y2390D02*
X3147Y2390D01*
X237Y2389D02*
X257Y2389D01*
X3129Y2389D02*
X3149Y2389D01*
X234Y2388D02*
X254Y2388D01*
X3132Y2388D02*
X3152Y2388D01*
X232Y2387D02*
X252Y2387D01*
X3134Y2387D02*
X3154Y2387D01*
X230Y2386D02*
X249Y2386D01*
X3137Y2386D02*
X3156Y2386D01*
X228Y2385D02*
X246Y2385D01*
X3140Y2385D02*
X3158Y2385D01*
X226Y2384D02*
X244Y2384D01*
X3142Y2384D02*
X3160Y2384D01*
X223Y2383D02*
X242Y2383D01*
X3144Y2383D02*
X3163Y2383D01*
X221Y2382D02*
X239Y2382D01*
X3147Y2382D02*
X3165Y2382D01*
X219Y2381D02*
X237Y2381D01*
X3149Y2381D02*
X3167Y2381D01*
X217Y2380D02*
X235Y2380D01*
X3151Y2380D02*
X3169Y2380D01*
X215Y2379D02*
X233Y2379D01*
X3153Y2379D02*
X3171Y2379D01*
X214Y2378D02*
X230Y2378D01*
X3156Y2378D02*
X3172Y2378D01*
X212Y2377D02*
X228Y2377D01*
X3158Y2377D02*
X3174Y2377D01*
X210Y2376D02*
X226Y2376D01*
X3160Y2376D02*
X3176Y2376D01*
X208Y2375D02*
X224Y2375D01*
X3162Y2375D02*
X3178Y2375D01*
X206Y2374D02*
X222Y2374D01*
X3164Y2374D02*
X3180Y2374D01*
X204Y2373D02*
X220Y2373D01*
X3166Y2373D02*
X3182Y2373D01*
X202Y2372D02*
X218Y2372D01*
X3168Y2372D02*
X3184Y2372D01*
X200Y2371D02*
X216Y2371D01*
X3170Y2371D02*
X3186Y2371D01*
X199Y2370D02*
X214Y2370D01*
X3172Y2370D02*
X3187Y2370D01*
X197Y2369D02*
X212Y2369D01*
X3174Y2369D02*
X3189Y2369D01*
X195Y2368D02*
X210Y2368D01*
X3176Y2368D02*
X3191Y2368D01*
X193Y2367D02*
X208Y2367D01*
X3178Y2367D02*
X3193Y2367D01*
X192Y2366D02*
X207Y2366D01*
X3179Y2366D02*
X3194Y2366D01*
X190Y2365D02*
X205Y2365D01*
X3181Y2365D02*
X3196Y2365D01*
X188Y2364D02*
X203Y2364D01*
X3183Y2364D02*
X3198Y2364D01*
X187Y2363D02*
X201Y2363D01*
X3185Y2363D02*
X3199Y2363D01*
X185Y2362D02*
X200Y2362D01*
X3186Y2362D02*
X3201Y2362D01*
X184Y2361D02*
X198Y2361D01*
X3188Y2361D02*
X3202Y2361D01*
X182Y2360D02*
X196Y2360D01*
X3190Y2360D02*
X3204Y2360D01*
X181Y2359D02*
X194Y2359D01*
X3192Y2359D02*
X3205Y2359D01*
X179Y2358D02*
X193Y2358D01*
X3193Y2358D02*
X3207Y2358D01*
X177Y2357D02*
X191Y2357D01*
X3195Y2357D02*
X3209Y2357D01*
X176Y2356D02*
X190Y2356D01*
X3196Y2356D02*
X3210Y2356D01*
X174Y2355D02*
X188Y2355D01*
X3198Y2355D02*
X3212Y2355D01*
X173Y2354D02*
X186Y2354D01*
X3200Y2354D02*
X3213Y2354D01*
X171Y2353D02*
X185Y2353D01*
X3201Y2353D02*
X3215Y2353D01*
X170Y2352D02*
X183Y2352D01*
X3203Y2352D02*
X3216Y2352D01*
X169Y2351D02*
X182Y2351D01*
X3204Y2351D02*
X3217Y2351D01*
X167Y2350D02*
X180Y2350D01*
X3206Y2350D02*
X3219Y2350D01*
X166Y2349D02*
X179Y2349D01*
X3207Y2349D02*
X3220Y2349D01*
X164Y2348D02*
X177Y2348D01*
X3209Y2348D02*
X3222Y2348D01*
X163Y2347D02*
X176Y2347D01*
X3210Y2347D02*
X3223Y2347D01*
X161Y2346D02*
X174Y2346D01*
X3212Y2346D02*
X3225Y2346D01*
X160Y2345D02*
X173Y2345D01*
X3213Y2345D02*
X3226Y2345D01*
X159Y2344D02*
X171Y2344D01*
X3215Y2344D02*
X3227Y2344D01*
X157Y2343D02*
X170Y2343D01*
X3216Y2343D02*
X3229Y2343D01*
X156Y2342D02*
X169Y2342D01*
X3217Y2342D02*
X3230Y2342D01*
X155Y2341D02*
X167Y2341D01*
X3219Y2341D02*
X3231Y2341D01*
X154Y2340D02*
X166Y2340D01*
X3220Y2340D02*
X3232Y2340D01*
X152Y2339D02*
X164Y2339D01*
X3222Y2339D02*
X3234Y2339D01*
X151Y2338D02*
X163Y2338D01*
X3223Y2338D02*
X3235Y2338D01*
X150Y2337D02*
X162Y2337D01*
X3224Y2337D02*
X3236Y2337D01*
X148Y2336D02*
X160Y2336D01*
X3226Y2336D02*
X3238Y2336D01*
X147Y2335D02*
X159Y2335D01*
X3227Y2335D02*
X3239Y2335D01*
X146Y2334D02*
X158Y2334D01*
X3228Y2334D02*
X3240Y2334D01*
X145Y2333D02*
X156Y2333D01*
X3230Y2333D02*
X3241Y2333D01*
X143Y2332D02*
X155Y2332D01*
X3231Y2332D02*
X3243Y2332D01*
X142Y2331D02*
X154Y2331D01*
X3232Y2331D02*
X3244Y2331D01*
X141Y2330D02*
X153Y2330D01*
X3233Y2330D02*
X3245Y2330D01*
X140Y2329D02*
X151Y2329D01*
X3235Y2329D02*
X3246Y2329D01*
X139Y2328D02*
X150Y2328D01*
X3236Y2328D02*
X3247Y2328D01*
X137Y2327D02*
X149Y2327D01*
X3237Y2327D02*
X3249Y2327D01*
X136Y2326D02*
X148Y2326D01*
X3238Y2326D02*
X3250Y2326D01*
X135Y2325D02*
X146Y2325D01*
X3240Y2325D02*
X3251Y2325D01*
X134Y2324D02*
X145Y2324D01*
X3241Y2324D02*
X3252Y2324D01*
X133Y2323D02*
X144Y2323D01*
X3242Y2323D02*
X3253Y2323D01*
X132Y2322D02*
X143Y2322D01*
X3243Y2322D02*
X3254Y2322D01*
X131Y2321D02*
X142Y2321D01*
X3244Y2321D02*
X3255Y2321D01*
X129Y2320D02*
X141Y2320D01*
X3245Y2320D02*
X3257Y2320D01*
X128Y2319D02*
X139Y2319D01*
X3247Y2319D02*
X3258Y2319D01*
X127Y2318D02*
X138Y2318D01*
X3248Y2318D02*
X3259Y2318D01*
X126Y2317D02*
X137Y2317D01*
X3249Y2317D02*
X3260Y2317D01*
X125Y2316D02*
X136Y2316D01*
X3250Y2316D02*
X3261Y2316D01*
X124Y2315D02*
X135Y2315D01*
X3251Y2315D02*
X3262Y2315D01*
X123Y2314D02*
X134Y2314D01*
X3252Y2314D02*
X3263Y2314D01*
X122Y2313D02*
X133Y2313D01*
X3253Y2313D02*
X3264Y2313D01*
X121Y2312D02*
X132Y2312D01*
X3254Y2312D02*
X3265Y2312D01*
X120Y2311D02*
X130Y2311D01*
X3256Y2311D02*
X3266Y2311D01*
X119Y2310D02*
X129Y2310D01*
X3257Y2310D02*
X3267Y2310D01*
X118Y2309D02*
X128Y2309D01*
X3258Y2309D02*
X3268Y2309D01*
X117Y2308D02*
X127Y2308D01*
X3259Y2308D02*
X3269Y2308D01*
X116Y2307D02*
X126Y2307D01*
X3260Y2307D02*
X3270Y2307D01*
X115Y2306D02*
X125Y2306D01*
X3261Y2306D02*
X3271Y2306D01*
X114Y2305D02*
X124Y2305D01*
X3262Y2305D02*
X3272Y2305D01*
X113Y2304D02*
X123Y2304D01*
X3263Y2304D02*
X3273Y2304D01*
X112Y2303D02*
X122Y2303D01*
X3264Y2303D02*
X3274Y2303D01*
X111Y2302D02*
X121Y2302D01*
X3265Y2302D02*
X3275Y2302D01*
X110Y2301D02*
X120Y2301D01*
X3266Y2301D02*
X3276Y2301D01*
X109Y2300D02*
X119Y2300D01*
X3267Y2300D02*
X3277Y2300D01*
X108Y2299D02*
X118Y2299D01*
X3268Y2299D02*
X3278Y2299D01*
X107Y2298D02*
X117Y2298D01*
X3269Y2298D02*
X3279Y2298D01*
X106Y2297D02*
X116Y2297D01*
X3270Y2297D02*
X3280Y2297D01*
X105Y2296D02*
X115Y2296D01*
X3271Y2296D02*
X3281Y2296D01*
X104Y2295D02*
X114Y2295D01*
X3272Y2295D02*
X3282Y2295D01*
X103Y2294D02*
X113Y2294D01*
X3273Y2294D02*
X3283Y2294D01*
X102Y2293D02*
X112Y2293D01*
X3274Y2293D02*
X3284Y2293D01*
X101Y2292D02*
X111Y2292D01*
X3275Y2292D02*
X3285Y2292D01*
X101Y2291D02*
X110Y2291D01*
X3276Y2291D02*
X3285Y2291D01*
X100Y2290D02*
X109Y2290D01*
X3277Y2290D02*
X3286Y2290D01*
X99Y2289D02*
X109Y2289D01*
X3277Y2289D02*
X3287Y2289D01*
X98Y2288D02*
X108Y2288D01*
X3278Y2288D02*
X3288Y2288D01*
X97Y2287D02*
X107Y2287D01*
X3279Y2287D02*
X3289Y2287D01*
X96Y2286D02*
X106Y2286D01*
X3280Y2286D02*
X3290Y2286D01*
X95Y2285D02*
X105Y2285D01*
X3281Y2285D02*
X3291Y2285D01*
X94Y2284D02*
X104Y2284D01*
X3282Y2284D02*
X3292Y2284D01*
X94Y2283D02*
X103Y2283D01*
X3283Y2283D02*
X3292Y2283D01*
X93Y2282D02*
X102Y2282D01*
X3284Y2282D02*
X3293Y2282D01*
X92Y2281D02*
X101Y2281D01*
X3285Y2281D02*
X3294Y2281D01*
X91Y2280D02*
X101Y2280D01*
X3285Y2280D02*
X3295Y2280D01*
X90Y2279D02*
X100Y2279D01*
X3286Y2279D02*
X3296Y2279D01*
X89Y2278D02*
X99Y2278D01*
X3287Y2278D02*
X3297Y2278D01*
X89Y2277D02*
X98Y2277D01*
X3288Y2277D02*
X3297Y2277D01*
X88Y2276D02*
X97Y2276D01*
X3289Y2276D02*
X3298Y2276D01*
X87Y2275D02*
X96Y2275D01*
X3290Y2275D02*
X3299Y2275D01*
X86Y2274D02*
X95Y2274D01*
X3291Y2274D02*
X3300Y2274D01*
X85Y2273D02*
X95Y2273D01*
X3291Y2273D02*
X3301Y2273D01*
X85Y2272D02*
X94Y2272D01*
X3292Y2272D02*
X3301Y2272D01*
X84Y2271D02*
X93Y2271D01*
X3293Y2271D02*
X3302Y2271D01*
X83Y2270D02*
X92Y2270D01*
X3294Y2270D02*
X3303Y2270D01*
X82Y2269D02*
X91Y2269D01*
X3295Y2269D02*
X3304Y2269D01*
X81Y2268D02*
X91Y2268D01*
X3295Y2268D02*
X3305Y2268D01*
X81Y2267D02*
X90Y2267D01*
X3296Y2267D02*
X3305Y2267D01*
X80Y2266D02*
X89Y2266D01*
X3297Y2266D02*
X3306Y2266D01*
X79Y2265D02*
X88Y2265D01*
X3298Y2265D02*
X3307Y2265D01*
X78Y2264D02*
X87Y2264D01*
X3299Y2264D02*
X3308Y2264D01*
X78Y2263D02*
X87Y2263D01*
X3299Y2263D02*
X3308Y2263D01*
X77Y2262D02*
X86Y2262D01*
X3300Y2262D02*
X3309Y2262D01*
X76Y2261D02*
X85Y2261D01*
X3301Y2261D02*
X3310Y2261D01*
X76Y2260D02*
X84Y2260D01*
X3302Y2260D02*
X3310Y2260D01*
X75Y2259D02*
X84Y2259D01*
X3302Y2259D02*
X3311Y2259D01*
X74Y2258D02*
X83Y2258D01*
X3303Y2258D02*
X3312Y2258D01*
X73Y2257D02*
X82Y2257D01*
X3304Y2257D02*
X3313Y2257D01*
X73Y2256D02*
X81Y2256D01*
X3305Y2256D02*
X3313Y2256D01*
X72Y2255D02*
X81Y2255D01*
X3305Y2255D02*
X3314Y2255D01*
X71Y2254D02*
X80Y2254D01*
X3306Y2254D02*
X3315Y2254D01*
X71Y2253D02*
X79Y2253D01*
X3307Y2253D02*
X3315Y2253D01*
X70Y2252D02*
X79Y2252D01*
X3307Y2252D02*
X3316Y2252D01*
X69Y2251D02*
X78Y2251D01*
X3308Y2251D02*
X3317Y2251D01*
X68Y2250D02*
X77Y2250D01*
X3309Y2250D02*
X3318Y2250D01*
X68Y2249D02*
X76Y2249D01*
X3310Y2249D02*
X3318Y2249D01*
X67Y2248D02*
X76Y2248D01*
X3310Y2248D02*
X3319Y2248D01*
X66Y2247D02*
X75Y2247D01*
X3311Y2247D02*
X3320Y2247D01*
X66Y2246D02*
X74Y2246D01*
X3312Y2246D02*
X3320Y2246D01*
X65Y2245D02*
X74Y2245D01*
X3312Y2245D02*
X3321Y2245D01*
X64Y2244D02*
X73Y2244D01*
X3313Y2244D02*
X3322Y2244D01*
X64Y2243D02*
X72Y2243D01*
X3314Y2243D02*
X3322Y2243D01*
X63Y2242D02*
X72Y2242D01*
X3314Y2242D02*
X3323Y2242D01*
X63Y2241D02*
X71Y2241D01*
X3315Y2241D02*
X3323Y2241D01*
X62Y2240D02*
X70Y2240D01*
X3316Y2240D02*
X3324Y2240D01*
X61Y2239D02*
X70Y2239D01*
X3316Y2239D02*
X3325Y2239D01*
X61Y2238D02*
X69Y2238D01*
X3317Y2238D02*
X3325Y2238D01*
X60Y2237D02*
X68Y2237D01*
X3318Y2237D02*
X3326Y2237D01*
X59Y2236D02*
X68Y2236D01*
X3318Y2236D02*
X3327Y2236D01*
X59Y2235D02*
X67Y2235D01*
X3319Y2235D02*
X3327Y2235D01*
X58Y2234D02*
X66Y2234D01*
X3320Y2234D02*
X3328Y2234D01*
X57Y2233D02*
X66Y2233D01*
X3320Y2233D02*
X3329Y2233D01*
X57Y2232D02*
X65Y2232D01*
X3321Y2232D02*
X3329Y2232D01*
X56Y2231D02*
X65Y2231D01*
X3321Y2231D02*
X3330Y2231D01*
X56Y2230D02*
X64Y2230D01*
X3322Y2230D02*
X3330Y2230D01*
X55Y2229D02*
X63Y2229D01*
X3323Y2229D02*
X3331Y2229D01*
X55Y2228D02*
X63Y2228D01*
X3323Y2228D02*
X3331Y2228D01*
X54Y2227D02*
X62Y2227D01*
X3324Y2227D02*
X3332Y2227D01*
X53Y2226D02*
X62Y2226D01*
X3324Y2226D02*
X3333Y2226D01*
X53Y2225D02*
X61Y2225D01*
X3325Y2225D02*
X3333Y2225D01*
X52Y2224D02*
X60Y2224D01*
X3326Y2224D02*
X3334Y2224D01*
X52Y2223D02*
X60Y2223D01*
X3326Y2223D02*
X3334Y2223D01*
X51Y2222D02*
X59Y2222D01*
X3327Y2222D02*
X3335Y2222D01*
X51Y2221D02*
X59Y2221D01*
X3327Y2221D02*
X3335Y2221D01*
X50Y2220D02*
X58Y2220D01*
X3328Y2220D02*
X3336Y2220D01*
X49Y2219D02*
X57Y2219D01*
X3329Y2219D02*
X3337Y2219D01*
X49Y2218D02*
X57Y2218D01*
X3329Y2218D02*
X3337Y2218D01*
X48Y2217D02*
X56Y2217D01*
X3330Y2217D02*
X3338Y2217D01*
X48Y2216D02*
X56Y2216D01*
X3330Y2216D02*
X3338Y2216D01*
X47Y2215D02*
X55Y2215D01*
X3331Y2215D02*
X3339Y2215D01*
X47Y2214D02*
X55Y2214D01*
X3331Y2214D02*
X3339Y2214D01*
X46Y2213D02*
X54Y2213D01*
X3332Y2213D02*
X3340Y2213D01*
X46Y2212D02*
X54Y2212D01*
X3332Y2212D02*
X3340Y2212D01*
X45Y2211D02*
X53Y2211D01*
X3333Y2211D02*
X3341Y2211D01*
X45Y2210D02*
X52Y2210D01*
X3334Y2210D02*
X3341Y2210D01*
X44Y2209D02*
X52Y2209D01*
X3334Y2209D02*
X3342Y2209D01*
X44Y2208D02*
X51Y2208D01*
X3335Y2208D02*
X3342Y2208D01*
X43Y2207D02*
X51Y2207D01*
X3335Y2207D02*
X3343Y2207D01*
X43Y2206D02*
X50Y2206D01*
X3336Y2206D02*
X3343Y2206D01*
X42Y2205D02*
X50Y2205D01*
X3336Y2205D02*
X3344Y2205D01*
X42Y2204D02*
X49Y2204D01*
X3337Y2204D02*
X3344Y2204D01*
X41Y2203D02*
X49Y2203D01*
X3337Y2203D02*
X3345Y2203D01*
X41Y2202D02*
X48Y2202D01*
X3338Y2202D02*
X3345Y2202D01*
X40Y2201D02*
X48Y2201D01*
X3338Y2201D02*
X3346Y2201D01*
X40Y2200D02*
X47Y2200D01*
X3339Y2200D02*
X3346Y2200D01*
X39Y2199D02*
X47Y2199D01*
X3339Y2199D02*
X3347Y2199D01*
X39Y2198D02*
X46Y2198D01*
X3340Y2198D02*
X3347Y2198D01*
X38Y2197D02*
X46Y2197D01*
X3340Y2197D02*
X3348Y2197D01*
X38Y2196D02*
X45Y2196D01*
X3341Y2196D02*
X3348Y2196D01*
X37Y2195D02*
X45Y2195D01*
X3341Y2195D02*
X3349Y2195D01*
X37Y2194D02*
X44Y2194D01*
X3342Y2194D02*
X3349Y2194D01*
X36Y2193D02*
X44Y2193D01*
X3342Y2193D02*
X3350Y2193D01*
X36Y2192D02*
X44Y2192D01*
X3342Y2192D02*
X3350Y2192D01*
X35Y2191D02*
X43Y2191D01*
X3343Y2191D02*
X3351Y2191D01*
X35Y2190D02*
X43Y2190D01*
X3343Y2190D02*
X3351Y2190D01*
X35Y2189D02*
X42Y2189D01*
X3344Y2189D02*
X3351Y2189D01*
X34Y2188D02*
X42Y2188D01*
X3344Y2188D02*
X3352Y2188D01*
X34Y2187D02*
X41Y2187D01*
X3345Y2187D02*
X3352Y2187D01*
X33Y2186D02*
X41Y2186D01*
X3345Y2186D02*
X3353Y2186D01*
X33Y2185D02*
X40Y2185D01*
X3346Y2185D02*
X3353Y2185D01*
X32Y2184D02*
X40Y2184D01*
X3346Y2184D02*
X3354Y2184D01*
X32Y2183D02*
X39Y2183D01*
X3347Y2183D02*
X3354Y2183D01*
X31Y2182D02*
X39Y2182D01*
X3347Y2182D02*
X3355Y2182D01*
X31Y2181D02*
X39Y2181D01*
X3347Y2181D02*
X3355Y2181D01*
X31Y2180D02*
X38Y2180D01*
X3348Y2180D02*
X3355Y2180D01*
X30Y2179D02*
X38Y2179D01*
X3348Y2179D02*
X3356Y2179D01*
X30Y2178D02*
X37Y2178D01*
X3349Y2178D02*
X3356Y2178D01*
X29Y2177D02*
X37Y2177D01*
X3349Y2177D02*
X3357Y2177D01*
X29Y2176D02*
X36Y2176D01*
X3350Y2176D02*
X3357Y2176D01*
X29Y2175D02*
X36Y2175D01*
X3350Y2175D02*
X3357Y2175D01*
X28Y2174D02*
X36Y2174D01*
X3350Y2174D02*
X3358Y2174D01*
X28Y2173D02*
X35Y2173D01*
X3351Y2173D02*
X3358Y2173D01*
X27Y2172D02*
X35Y2172D01*
X3351Y2172D02*
X3359Y2172D01*
X27Y2171D02*
X34Y2171D01*
X3352Y2171D02*
X3359Y2171D01*
X27Y2170D02*
X34Y2170D01*
X3352Y2170D02*
X3359Y2170D01*
X26Y2169D02*
X34Y2169D01*
X3352Y2169D02*
X3360Y2169D01*
X26Y2168D02*
X33Y2168D01*
X3353Y2168D02*
X3360Y2168D01*
X25Y2167D02*
X33Y2167D01*
X3353Y2167D02*
X3361Y2167D01*
X25Y2166D02*
X33Y2166D01*
X3353Y2166D02*
X3361Y2166D01*
X25Y2165D02*
X32Y2165D01*
X3354Y2165D02*
X3361Y2165D01*
X24Y2164D02*
X32Y2164D01*
X3354Y2164D02*
X3362Y2164D01*
X24Y2163D02*
X31Y2163D01*
X3355Y2163D02*
X3362Y2163D01*
X24Y2162D02*
X31Y2162D01*
X3355Y2162D02*
X3362Y2162D01*
X23Y2161D02*
X31Y2161D01*
X3355Y2161D02*
X3363Y2161D01*
X23Y2160D02*
X30Y2160D01*
X3356Y2160D02*
X3363Y2160D01*
X23Y2159D02*
X30Y2159D01*
X3356Y2159D02*
X3363Y2159D01*
X22Y2158D02*
X30Y2158D01*
X3356Y2158D02*
X3364Y2158D01*
X22Y2157D02*
X29Y2157D01*
X3357Y2157D02*
X3364Y2157D01*
X22Y2156D02*
X29Y2156D01*
X3357Y2156D02*
X3364Y2156D01*
X21Y2155D02*
X29Y2155D01*
X3357Y2155D02*
X3365Y2155D01*
X21Y2154D02*
X28Y2154D01*
X3358Y2154D02*
X3365Y2154D01*
X21Y2153D02*
X28Y2153D01*
X3358Y2153D02*
X3365Y2153D01*
X20Y2152D02*
X28Y2152D01*
X3358Y2152D02*
X3366Y2152D01*
X20Y2151D02*
X27Y2151D01*
X3359Y2151D02*
X3366Y2151D01*
X20Y2150D02*
X27Y2150D01*
X3359Y2150D02*
X3366Y2150D01*
X19Y2149D02*
X27Y2149D01*
X3359Y2149D02*
X3367Y2149D01*
X19Y2148D02*
X26Y2148D01*
X3360Y2148D02*
X3367Y2148D01*
X19Y2147D02*
X26Y2147D01*
X3360Y2147D02*
X3367Y2147D01*
X18Y2146D02*
X26Y2146D01*
X3360Y2146D02*
X3368Y2146D01*
X18Y2145D02*
X25Y2145D01*
X3361Y2145D02*
X3368Y2145D01*
X18Y2144D02*
X25Y2144D01*
X3361Y2144D02*
X3368Y2144D01*
X17Y2143D02*
X25Y2143D01*
X3361Y2143D02*
X3369Y2143D01*
X17Y2142D02*
X24Y2142D01*
X3362Y2142D02*
X3369Y2142D01*
X17Y2141D02*
X24Y2141D01*
X3362Y2141D02*
X3369Y2141D01*
X16Y2140D02*
X24Y2140D01*
X3362Y2140D02*
X3370Y2140D01*
X16Y2139D02*
X23Y2139D01*
X3363Y2139D02*
X3370Y2139D01*
X16Y2138D02*
X23Y2138D01*
X3363Y2138D02*
X3370Y2138D01*
X16Y2137D02*
X23Y2137D01*
X3363Y2137D02*
X3370Y2137D01*
X15Y2136D02*
X23Y2136D01*
X3363Y2136D02*
X3371Y2136D01*
X15Y2135D02*
X22Y2135D01*
X3364Y2135D02*
X3371Y2135D01*
X15Y2134D02*
X22Y2134D01*
X3364Y2134D02*
X3371Y2134D01*
X15Y2133D02*
X22Y2133D01*
X3364Y2133D02*
X3371Y2133D01*
X14Y2132D02*
X21Y2132D01*
X3365Y2132D02*
X3372Y2132D01*
X14Y2131D02*
X21Y2131D01*
X3365Y2131D02*
X3372Y2131D01*
X14Y2130D02*
X21Y2130D01*
X3365Y2130D02*
X3372Y2130D01*
X13Y2129D02*
X21Y2129D01*
X3365Y2129D02*
X3373Y2129D01*
X13Y2128D02*
X20Y2128D01*
X3366Y2128D02*
X3373Y2128D01*
X13Y2127D02*
X20Y2127D01*
X3366Y2127D02*
X3373Y2127D01*
X13Y2126D02*
X20Y2126D01*
X3366Y2126D02*
X3373Y2126D01*
X12Y2125D02*
X20Y2125D01*
X3366Y2125D02*
X3374Y2125D01*
X12Y2124D02*
X19Y2124D01*
X3367Y2124D02*
X3374Y2124D01*
X12Y2123D02*
X19Y2123D01*
X3367Y2123D02*
X3374Y2123D01*
X12Y2122D02*
X19Y2122D01*
X3367Y2122D02*
X3374Y2122D01*
X11Y2121D02*
X19Y2121D01*
X3367Y2121D02*
X3375Y2121D01*
X11Y2120D02*
X18Y2120D01*
X3368Y2120D02*
X3375Y2120D01*
X11Y2119D02*
X18Y2119D01*
X3368Y2119D02*
X3375Y2119D01*
X11Y2118D02*
X18Y2118D01*
X3368Y2118D02*
X3375Y2118D01*
X11Y2117D02*
X18Y2117D01*
X3368Y2117D02*
X3375Y2117D01*
X10Y2116D02*
X17Y2116D01*
X3369Y2116D02*
X3376Y2116D01*
X10Y2115D02*
X17Y2115D01*
X3369Y2115D02*
X3376Y2115D01*
X10Y2114D02*
X17Y2114D01*
X3369Y2114D02*
X3376Y2114D01*
X10Y2113D02*
X17Y2113D01*
X3369Y2113D02*
X3376Y2113D01*
X9Y2112D02*
X17Y2112D01*
X3369Y2112D02*
X3377Y2112D01*
X9Y2111D02*
X16Y2111D01*
X3370Y2111D02*
X3377Y2111D01*
X9Y2110D02*
X16Y2110D01*
X3370Y2110D02*
X3377Y2110D01*
X9Y2109D02*
X16Y2109D01*
X3370Y2109D02*
X3377Y2109D01*
X9Y2108D02*
X16Y2108D01*
X3370Y2108D02*
X3377Y2108D01*
X8Y2107D02*
X15Y2107D01*
X3371Y2107D02*
X3378Y2107D01*
X8Y2106D02*
X15Y2106D01*
X3371Y2106D02*
X3378Y2106D01*
X8Y2105D02*
X15Y2105D01*
X3371Y2105D02*
X3378Y2105D01*
X8Y2104D02*
X15Y2104D01*
X3371Y2104D02*
X3378Y2104D01*
X8Y2103D02*
X15Y2103D01*
X3371Y2103D02*
X3378Y2103D01*
X7Y2102D02*
X15Y2102D01*
X3371Y2102D02*
X3379Y2102D01*
X7Y2101D02*
X14Y2101D01*
X3372Y2101D02*
X3379Y2101D01*
X7Y2100D02*
X14Y2100D01*
X3372Y2100D02*
X3379Y2100D01*
X7Y2099D02*
X14Y2099D01*
X3372Y2099D02*
X3379Y2099D01*
X7Y2098D02*
X14Y2098D01*
X3372Y2098D02*
X3379Y2098D01*
X7Y2097D02*
X14Y2097D01*
X3372Y2097D02*
X3379Y2097D01*
X6Y2096D02*
X13Y2096D01*
X3373Y2096D02*
X3380Y2096D01*
X6Y2095D02*
X13Y2095D01*
X3373Y2095D02*
X3380Y2095D01*
X6Y2094D02*
X13Y2094D01*
X3373Y2094D02*
X3380Y2094D01*
X6Y2093D02*
X13Y2093D01*
X3373Y2093D02*
X3380Y2093D01*
X6Y2092D02*
X13Y2092D01*
X3373Y2092D02*
X3380Y2092D01*
X6Y2091D02*
X13Y2091D01*
X3373Y2091D02*
X3380Y2091D01*
X5Y2090D02*
X12Y2090D01*
X3374Y2090D02*
X3381Y2090D01*
X5Y2089D02*
X12Y2089D01*
X3374Y2089D02*
X3381Y2089D01*
X5Y2088D02*
X12Y2088D01*
X3374Y2088D02*
X3381Y2088D01*
X5Y2087D02*
X12Y2087D01*
X3374Y2087D02*
X3381Y2087D01*
X5Y2086D02*
X12Y2086D01*
X3374Y2086D02*
X3381Y2086D01*
X5Y2085D02*
X12Y2085D01*
X3374Y2085D02*
X3381Y2085D01*
X5Y2084D02*
X12Y2084D01*
X3374Y2084D02*
X3381Y2084D01*
X4Y2083D02*
X11Y2083D01*
X3375Y2083D02*
X3382Y2083D01*
X4Y2082D02*
X11Y2082D01*
X3375Y2082D02*
X3382Y2082D01*
X4Y2081D02*
X11Y2081D01*
X3375Y2081D02*
X3382Y2081D01*
X4Y2080D02*
X11Y2080D01*
X3375Y2080D02*
X3382Y2080D01*
X4Y2079D02*
X11Y2079D01*
X3375Y2079D02*
X3382Y2079D01*
X4Y2078D02*
X11Y2078D01*
X3375Y2078D02*
X3382Y2078D01*
X4Y2077D02*
X11Y2077D01*
X3375Y2077D02*
X3382Y2077D01*
X4Y2076D02*
X11Y2076D01*
X3375Y2076D02*
X3382Y2076D01*
X3Y2075D02*
X10Y2075D01*
X3376Y2075D02*
X3383Y2075D01*
X3Y2074D02*
X10Y2074D01*
X3376Y2074D02*
X3383Y2074D01*
X3Y2073D02*
X10Y2073D01*
X3376Y2073D02*
X3383Y2073D01*
X3Y2072D02*
X10Y2072D01*
X3376Y2072D02*
X3383Y2072D01*
X3Y2071D02*
X10Y2071D01*
X3376Y2071D02*
X3383Y2071D01*
X3Y2070D02*
X10Y2070D01*
X3376Y2070D02*
X3383Y2070D01*
X3Y2069D02*
X10Y2069D01*
X3376Y2069D02*
X3383Y2069D01*
X3Y2068D02*
X10Y2068D01*
X3376Y2068D02*
X3383Y2068D01*
X3Y2067D02*
X10Y2067D01*
X3376Y2067D02*
X3383Y2067D01*
X3Y2066D02*
X10Y2066D01*
X3376Y2066D02*
X3383Y2066D01*
X2Y2065D02*
X9Y2065D01*
X3377Y2065D02*
X3384Y2065D01*
X2Y2064D02*
X9Y2064D01*
X3377Y2064D02*
X3384Y2064D01*
X2Y2063D02*
X9Y2063D01*
X3377Y2063D02*
X3384Y2063D01*
X2Y2062D02*
X9Y2062D01*
X3377Y2062D02*
X3384Y2062D01*
X2Y2061D02*
X9Y2061D01*
X3377Y2061D02*
X3384Y2061D01*
X2Y2060D02*
X9Y2060D01*
X3377Y2060D02*
X3384Y2060D01*
X2Y2059D02*
X9Y2059D01*
X3377Y2059D02*
X3384Y2059D01*
X2Y2058D02*
X9Y2058D01*
X3377Y2058D02*
X3384Y2058D01*
X2Y2057D02*
X9Y2057D01*
X3377Y2057D02*
X3384Y2057D01*
X2Y2056D02*
X9Y2056D01*
X3377Y2056D02*
X3384Y2056D01*
X2Y2055D02*
X9Y2055D01*
X3377Y2055D02*
X3384Y2055D01*
X2Y2054D02*
X9Y2054D01*
X3377Y2054D02*
X3384Y2054D01*
X2Y2053D02*
X9Y2053D01*
X3377Y2053D02*
X3384Y2053D01*
X2Y2052D02*
X9Y2052D01*
X3377Y2052D02*
X3384Y2052D01*
X1Y2051D02*
X8Y2051D01*
X3377Y2051D02*
X3385Y2051D01*
X1Y2050D02*
X8Y2050D01*
X3378Y2050D02*
X3385Y2050D01*
X1Y2049D02*
X8Y2049D01*
X3378Y2049D02*
X3385Y2049D01*
X1Y2048D02*
X8Y2048D01*
X3378Y2048D02*
X3385Y2048D01*
X1Y2047D02*
X8Y2047D01*
X3378Y2047D02*
X3385Y2047D01*
X1Y2046D02*
X8Y2046D01*
X3378Y2046D02*
X3385Y2046D01*
X1Y2045D02*
X8Y2045D01*
X3378Y2045D02*
X3385Y2045D01*
X1Y2044D02*
X8Y2044D01*
X3378Y2044D02*
X3385Y2044D01*
X1Y2043D02*
X8Y2043D01*
X3378Y2043D02*
X3385Y2043D01*
X1Y2042D02*
X8Y2042D01*
X3378Y2042D02*
X3385Y2042D01*
X1Y2041D02*
X8Y2041D01*
X3378Y2041D02*
X3385Y2041D01*
X1Y2040D02*
X8Y2040D01*
X3378Y2040D02*
X3385Y2040D01*
X1Y2039D02*
X8Y2039D01*
X3378Y2039D02*
X3385Y2039D01*
X1Y2038D02*
X8Y2038D01*
X3378Y2038D02*
X3385Y2038D01*
X1Y2037D02*
X8Y2037D01*
X3378Y2037D02*
X3385Y2037D01*
X1Y2036D02*
X8Y2036D01*
X3378Y2036D02*
X3385Y2036D01*
X1Y2035D02*
X8Y2035D01*
X3378Y2035D02*
X3385Y2035D01*
X1Y2034D02*
X8Y2034D01*
X3378Y2034D02*
X3385Y2034D01*
X1Y2033D02*
X8Y2033D01*
X3378Y2033D02*
X3385Y2033D01*
X1Y2032D02*
X8Y2032D01*
X3378Y2032D02*
X3385Y2032D01*
X1Y2031D02*
X8Y2031D01*
X3378Y2031D02*
X3385Y2031D01*
X1Y2030D02*
X8Y2030D01*
X3378Y2030D02*
X3385Y2030D01*
X1Y2029D02*
X8Y2029D01*
X3378Y2029D02*
X3385Y2029D01*
X1Y2028D02*
X8Y2028D01*
X3378Y2028D02*
X3385Y2028D01*
X1Y2027D02*
X8Y2027D01*
X3378Y2027D02*
X3385Y2027D01*
X1Y2026D02*
X8Y2026D01*
X3378Y2026D02*
X3385Y2026D01*
X1Y2025D02*
X8Y2025D01*
X3378Y2025D02*
X3385Y2025D01*
X1Y2024D02*
X8Y2024D01*
X3378Y2024D02*
X3385Y2024D01*
X1Y2023D02*
X8Y2023D01*
X3378Y2023D02*
X3385Y2023D01*
X1Y2022D02*
X8Y2022D01*
X3378Y2022D02*
X3385Y2022D01*
X1Y2021D02*
X8Y2021D01*
X3378Y2021D02*
X3385Y2021D01*
X1Y2020D02*
X8Y2020D01*
X3378Y2020D02*
X3385Y2020D01*
X1Y2019D02*
X8Y2019D01*
X3378Y2019D02*
X3385Y2019D01*
X1Y2018D02*
X8Y2018D01*
X3378Y2018D02*
X3385Y2018D01*
X1Y2017D02*
X8Y2017D01*
X3378Y2017D02*
X3385Y2017D01*
X1Y2016D02*
X8Y2016D01*
X3378Y2016D02*
X3385Y2016D01*
X1Y2015D02*
X8Y2015D01*
X3378Y2015D02*
X3385Y2015D01*
X1Y2014D02*
X8Y2014D01*
X3378Y2014D02*
X3385Y2014D01*
X1Y2013D02*
X8Y2013D01*
X3378Y2013D02*
X3385Y2013D01*
X1Y2012D02*
X8Y2012D01*
X3378Y2012D02*
X3385Y2012D01*
X1Y2011D02*
X8Y2011D01*
X3378Y2011D02*
X3385Y2011D01*
X1Y2010D02*
X8Y2010D01*
X3378Y2010D02*
X3385Y2010D01*
X1Y2009D02*
X8Y2009D01*
X3378Y2009D02*
X3385Y2009D01*
X1Y2008D02*
X8Y2008D01*
X3378Y2008D02*
X3385Y2008D01*
X1Y2007D02*
X8Y2007D01*
X3378Y2007D02*
X3385Y2007D01*
X1Y2006D02*
X8Y2006D01*
X3378Y2006D02*
X3385Y2006D01*
X1Y2005D02*
X8Y2005D01*
X3378Y2005D02*
X3385Y2005D01*
X1Y2004D02*
X8Y2004D01*
X3378Y2004D02*
X3385Y2004D01*
X1Y2003D02*
X8Y2003D01*
X3378Y2003D02*
X3385Y2003D01*
X1Y2002D02*
X8Y2002D01*
X3378Y2002D02*
X3385Y2002D01*
X1Y2001D02*
X8Y2001D01*
X3378Y2001D02*
X3385Y2001D01*
X1Y2000D02*
X8Y2000D01*
X3378Y2000D02*
X3385Y2000D01*
X1Y1999D02*
X8Y1999D01*
X3378Y1999D02*
X3385Y1999D01*
X1Y1998D02*
X8Y1998D01*
X3378Y1998D02*
X3385Y1998D01*
X1Y1997D02*
X8Y1997D01*
X3378Y1997D02*
X3385Y1997D01*
X1Y1996D02*
X8Y1996D01*
X3378Y1996D02*
X3385Y1996D01*
X1Y1995D02*
X8Y1995D01*
X3378Y1995D02*
X3385Y1995D01*
X1Y1994D02*
X8Y1994D01*
X3378Y1994D02*
X3385Y1994D01*
X1Y1993D02*
X8Y1993D01*
X3378Y1993D02*
X3385Y1993D01*
X1Y1992D02*
X8Y1992D01*
X3378Y1992D02*
X3385Y1992D01*
X1Y1991D02*
X8Y1991D01*
X3378Y1991D02*
X3385Y1991D01*
X1Y1990D02*
X8Y1990D01*
X3378Y1990D02*
X3385Y1990D01*
X1Y1989D02*
X8Y1989D01*
X3378Y1989D02*
X3385Y1989D01*
X1Y1988D02*
X8Y1988D01*
X3378Y1988D02*
X3385Y1988D01*
X1Y1987D02*
X8Y1987D01*
X3378Y1987D02*
X3385Y1987D01*
X1Y1986D02*
X8Y1986D01*
X3378Y1986D02*
X3385Y1986D01*
X1Y1985D02*
X8Y1985D01*
X3378Y1985D02*
X3385Y1985D01*
X1Y1984D02*
X8Y1984D01*
X3378Y1984D02*
X3385Y1984D01*
X1Y1983D02*
X8Y1983D01*
X3378Y1983D02*
X3385Y1983D01*
X1Y1982D02*
X8Y1982D01*
X3378Y1982D02*
X3385Y1982D01*
X1Y1981D02*
X8Y1981D01*
X3378Y1981D02*
X3385Y1981D01*
X1Y1980D02*
X8Y1980D01*
X3378Y1980D02*
X3385Y1980D01*
X1Y1979D02*
X8Y1979D01*
X3378Y1979D02*
X3385Y1979D01*
X1Y1978D02*
X8Y1978D01*
X3378Y1978D02*
X3385Y1978D01*
X1Y1977D02*
X8Y1977D01*
X3378Y1977D02*
X3385Y1977D01*
X1Y1976D02*
X8Y1976D01*
X3378Y1976D02*
X3385Y1976D01*
X1Y1975D02*
X8Y1975D01*
X3378Y1975D02*
X3385Y1975D01*
X1Y1974D02*
X8Y1974D01*
X3378Y1974D02*
X3385Y1974D01*
X1Y1973D02*
X8Y1973D01*
X3378Y1973D02*
X3385Y1973D01*
X1Y1972D02*
X8Y1972D01*
X3378Y1972D02*
X3385Y1972D01*
X1Y1971D02*
X8Y1971D01*
X3378Y1971D02*
X3385Y1971D01*
X1Y1970D02*
X8Y1970D01*
X3378Y1970D02*
X3385Y1970D01*
X1Y1969D02*
X8Y1969D01*
X3378Y1969D02*
X3385Y1969D01*
X1Y1968D02*
X8Y1968D01*
X3378Y1968D02*
X3385Y1968D01*
X1Y1967D02*
X8Y1967D01*
X3378Y1967D02*
X3385Y1967D01*
X1Y1966D02*
X8Y1966D01*
X3378Y1966D02*
X3385Y1966D01*
X1Y1965D02*
X8Y1965D01*
X3378Y1965D02*
X3385Y1965D01*
X1Y1964D02*
X8Y1964D01*
X3378Y1964D02*
X3385Y1964D01*
X1Y1963D02*
X8Y1963D01*
X3378Y1963D02*
X3385Y1963D01*
X1Y1962D02*
X8Y1962D01*
X3378Y1962D02*
X3385Y1962D01*
X1Y1961D02*
X8Y1961D01*
X3378Y1961D02*
X3385Y1961D01*
X1Y1960D02*
X8Y1960D01*
X3378Y1960D02*
X3385Y1960D01*
X1Y1959D02*
X8Y1959D01*
X3378Y1959D02*
X3385Y1959D01*
X1Y1958D02*
X8Y1958D01*
X3378Y1958D02*
X3385Y1958D01*
X1Y1957D02*
X8Y1957D01*
X3378Y1957D02*
X3385Y1957D01*
X1Y1956D02*
X8Y1956D01*
X3378Y1956D02*
X3385Y1956D01*
X1Y1955D02*
X8Y1955D01*
X3378Y1955D02*
X3385Y1955D01*
X1Y1954D02*
X8Y1954D01*
X3378Y1954D02*
X3385Y1954D01*
X1Y1953D02*
X8Y1953D01*
X3378Y1953D02*
X3385Y1953D01*
X1Y1952D02*
X8Y1952D01*
X3378Y1952D02*
X3385Y1952D01*
X1Y1951D02*
X8Y1951D01*
X3378Y1951D02*
X3385Y1951D01*
X1Y1950D02*
X8Y1950D01*
X3378Y1950D02*
X3385Y1950D01*
X1Y1949D02*
X8Y1949D01*
X3378Y1949D02*
X3385Y1949D01*
X1Y1948D02*
X8Y1948D01*
X3378Y1948D02*
X3385Y1948D01*
X1Y1947D02*
X8Y1947D01*
X3378Y1947D02*
X3385Y1947D01*
X1Y1946D02*
X8Y1946D01*
X3378Y1946D02*
X3385Y1946D01*
X1Y1945D02*
X8Y1945D01*
X3378Y1945D02*
X3385Y1945D01*
X1Y1944D02*
X8Y1944D01*
X3378Y1944D02*
X3385Y1944D01*
X1Y1943D02*
X8Y1943D01*
X3378Y1943D02*
X3385Y1943D01*
X1Y1942D02*
X8Y1942D01*
X3378Y1942D02*
X3385Y1942D01*
X1Y1941D02*
X8Y1941D01*
X3378Y1941D02*
X3385Y1941D01*
X1Y1940D02*
X8Y1940D01*
X3378Y1940D02*
X3385Y1940D01*
X1Y1939D02*
X8Y1939D01*
X3378Y1939D02*
X3385Y1939D01*
X1Y1938D02*
X8Y1938D01*
X3378Y1938D02*
X3385Y1938D01*
X1Y1937D02*
X8Y1937D01*
X3378Y1937D02*
X3385Y1937D01*
X1Y1936D02*
X8Y1936D01*
X3378Y1936D02*
X3385Y1936D01*
X1Y1935D02*
X8Y1935D01*
X3378Y1935D02*
X3385Y1935D01*
X1Y1934D02*
X8Y1934D01*
X3378Y1934D02*
X3385Y1934D01*
X1Y1933D02*
X8Y1933D01*
X3378Y1933D02*
X3385Y1933D01*
X1Y1932D02*
X8Y1932D01*
X3378Y1932D02*
X3385Y1932D01*
X1Y1931D02*
X8Y1931D01*
X3378Y1931D02*
X3385Y1931D01*
X1Y1930D02*
X8Y1930D01*
X3378Y1930D02*
X3385Y1930D01*
X1Y1929D02*
X8Y1929D01*
X3378Y1929D02*
X3385Y1929D01*
X1Y1928D02*
X8Y1928D01*
X3378Y1928D02*
X3385Y1928D01*
X1Y1927D02*
X8Y1927D01*
X3378Y1927D02*
X3385Y1927D01*
X1Y1926D02*
X8Y1926D01*
X3378Y1926D02*
X3385Y1926D01*
X1Y1925D02*
X8Y1925D01*
X3378Y1925D02*
X3385Y1925D01*
X1Y1924D02*
X8Y1924D01*
X3378Y1924D02*
X3385Y1924D01*
X1Y1923D02*
X8Y1923D01*
X3378Y1923D02*
X3385Y1923D01*
X1Y1922D02*
X8Y1922D01*
X3378Y1922D02*
X3385Y1922D01*
X1Y1921D02*
X8Y1921D01*
X3378Y1921D02*
X3385Y1921D01*
X1Y1920D02*
X8Y1920D01*
X3378Y1920D02*
X3385Y1920D01*
X1Y1919D02*
X8Y1919D01*
X3378Y1919D02*
X3385Y1919D01*
X1Y1918D02*
X8Y1918D01*
X3378Y1918D02*
X3385Y1918D01*
X1Y1917D02*
X8Y1917D01*
X3378Y1917D02*
X3385Y1917D01*
X1Y1916D02*
X8Y1916D01*
X3378Y1916D02*
X3385Y1916D01*
X1Y1915D02*
X8Y1915D01*
X3378Y1915D02*
X3385Y1915D01*
X1Y1914D02*
X8Y1914D01*
X3378Y1914D02*
X3385Y1914D01*
X1Y1913D02*
X8Y1913D01*
X3378Y1913D02*
X3385Y1913D01*
X1Y1912D02*
X8Y1912D01*
X3378Y1912D02*
X3385Y1912D01*
X1Y1911D02*
X8Y1911D01*
X3378Y1911D02*
X3385Y1911D01*
X1Y1910D02*
X8Y1910D01*
X3378Y1910D02*
X3385Y1910D01*
X1Y1909D02*
X8Y1909D01*
X3378Y1909D02*
X3385Y1909D01*
X1Y1908D02*
X8Y1908D01*
X3378Y1908D02*
X3385Y1908D01*
X1Y1907D02*
X8Y1907D01*
X3378Y1907D02*
X3385Y1907D01*
X1Y1906D02*
X8Y1906D01*
X3378Y1906D02*
X3385Y1906D01*
X1Y1905D02*
X8Y1905D01*
X3378Y1905D02*
X3385Y1905D01*
X1Y1904D02*
X8Y1904D01*
X3378Y1904D02*
X3385Y1904D01*
X1Y1903D02*
X8Y1903D01*
X3378Y1903D02*
X3385Y1903D01*
X1Y1902D02*
X8Y1902D01*
X3378Y1902D02*
X3385Y1902D01*
X1Y1901D02*
X8Y1901D01*
X3378Y1901D02*
X3385Y1901D01*
X1Y1900D02*
X8Y1900D01*
X3378Y1900D02*
X3385Y1900D01*
X1Y1899D02*
X8Y1899D01*
X3378Y1899D02*
X3385Y1899D01*
X1Y1898D02*
X8Y1898D01*
X3378Y1898D02*
X3385Y1898D01*
X1Y1897D02*
X8Y1897D01*
X3378Y1897D02*
X3385Y1897D01*
X1Y1896D02*
X8Y1896D01*
X3378Y1896D02*
X3385Y1896D01*
X1Y1895D02*
X8Y1895D01*
X3378Y1895D02*
X3385Y1895D01*
X1Y1894D02*
X8Y1894D01*
X3378Y1894D02*
X3385Y1894D01*
X1Y1893D02*
X8Y1893D01*
X3378Y1893D02*
X3385Y1893D01*
X1Y1892D02*
X8Y1892D01*
X3378Y1892D02*
X3385Y1892D01*
X1Y1891D02*
X8Y1891D01*
X3378Y1891D02*
X3385Y1891D01*
X1Y1890D02*
X8Y1890D01*
X3378Y1890D02*
X3385Y1890D01*
X1Y1889D02*
X8Y1889D01*
X3378Y1889D02*
X3385Y1889D01*
X1Y1888D02*
X8Y1888D01*
X3378Y1888D02*
X3385Y1888D01*
X1Y1887D02*
X8Y1887D01*
X3378Y1887D02*
X3385Y1887D01*
X1Y1886D02*
X8Y1886D01*
X3378Y1886D02*
X3385Y1886D01*
X1Y1885D02*
X8Y1885D01*
X3378Y1885D02*
X3385Y1885D01*
X1Y1884D02*
X8Y1884D01*
X3378Y1884D02*
X3385Y1884D01*
X1Y1883D02*
X8Y1883D01*
X3378Y1883D02*
X3385Y1883D01*
X1Y1882D02*
X8Y1882D01*
X3378Y1882D02*
X3385Y1882D01*
X1Y1881D02*
X8Y1881D01*
X3378Y1881D02*
X3385Y1881D01*
X1Y1880D02*
X8Y1880D01*
X3378Y1880D02*
X3385Y1880D01*
X1Y1879D02*
X8Y1879D01*
X3378Y1879D02*
X3385Y1879D01*
X1Y1878D02*
X8Y1878D01*
X3378Y1878D02*
X3385Y1878D01*
X1Y1877D02*
X8Y1877D01*
X3378Y1877D02*
X3385Y1877D01*
X1Y1876D02*
X8Y1876D01*
X3378Y1876D02*
X3385Y1876D01*
X1Y1875D02*
X8Y1875D01*
X3378Y1875D02*
X3385Y1875D01*
X1Y1874D02*
X8Y1874D01*
X3378Y1874D02*
X3385Y1874D01*
X1Y1873D02*
X8Y1873D01*
X3378Y1873D02*
X3385Y1873D01*
X1Y1872D02*
X8Y1872D01*
X3378Y1872D02*
X3385Y1872D01*
X1Y1871D02*
X8Y1871D01*
X3378Y1871D02*
X3385Y1871D01*
X1Y1870D02*
X8Y1870D01*
X3378Y1870D02*
X3385Y1870D01*
X1Y1869D02*
X8Y1869D01*
X3378Y1869D02*
X3385Y1869D01*
X1Y1868D02*
X8Y1868D01*
X3378Y1868D02*
X3385Y1868D01*
X1Y1867D02*
X8Y1867D01*
X3378Y1867D02*
X3385Y1867D01*
X1Y1866D02*
X8Y1866D01*
X3378Y1866D02*
X3385Y1866D01*
X1Y1865D02*
X8Y1865D01*
X3378Y1865D02*
X3385Y1865D01*
X1Y1864D02*
X8Y1864D01*
X3378Y1864D02*
X3385Y1864D01*
X1Y1863D02*
X8Y1863D01*
X3378Y1863D02*
X3385Y1863D01*
X1Y1862D02*
X8Y1862D01*
X3378Y1862D02*
X3385Y1862D01*
X1Y1861D02*
X8Y1861D01*
X3378Y1861D02*
X3385Y1861D01*
X1Y1860D02*
X8Y1860D01*
X3378Y1860D02*
X3385Y1860D01*
X1Y1859D02*
X8Y1859D01*
X3378Y1859D02*
X3385Y1859D01*
X1Y1858D02*
X8Y1858D01*
X3378Y1858D02*
X3385Y1858D01*
X1Y1857D02*
X8Y1857D01*
X3378Y1857D02*
X3385Y1857D01*
X1Y1856D02*
X8Y1856D01*
X3378Y1856D02*
X3385Y1856D01*
X1Y1855D02*
X8Y1855D01*
X3378Y1855D02*
X3385Y1855D01*
X1Y1854D02*
X8Y1854D01*
X3378Y1854D02*
X3385Y1854D01*
X1Y1853D02*
X8Y1853D01*
X3378Y1853D02*
X3385Y1853D01*
X1Y1852D02*
X8Y1852D01*
X3378Y1852D02*
X3385Y1852D01*
X1Y1851D02*
X8Y1851D01*
X3378Y1851D02*
X3385Y1851D01*
X1Y1850D02*
X8Y1850D01*
X3378Y1850D02*
X3385Y1850D01*
X1Y1849D02*
X8Y1849D01*
X3378Y1849D02*
X3385Y1849D01*
X1Y1848D02*
X8Y1848D01*
X3378Y1848D02*
X3385Y1848D01*
X1Y1847D02*
X8Y1847D01*
X3378Y1847D02*
X3385Y1847D01*
X1Y1846D02*
X8Y1846D01*
X3378Y1846D02*
X3385Y1846D01*
X1Y1845D02*
X8Y1845D01*
X3378Y1845D02*
X3385Y1845D01*
X1Y1844D02*
X8Y1844D01*
X3378Y1844D02*
X3385Y1844D01*
X1Y1843D02*
X8Y1843D01*
X3378Y1843D02*
X3385Y1843D01*
X1Y1842D02*
X8Y1842D01*
X3378Y1842D02*
X3385Y1842D01*
X1Y1841D02*
X8Y1841D01*
X3378Y1841D02*
X3385Y1841D01*
X1Y1840D02*
X8Y1840D01*
X3378Y1840D02*
X3385Y1840D01*
X1Y1839D02*
X8Y1839D01*
X3378Y1839D02*
X3385Y1839D01*
X1Y1838D02*
X8Y1838D01*
X3378Y1838D02*
X3385Y1838D01*
X1Y1837D02*
X8Y1837D01*
X3378Y1837D02*
X3385Y1837D01*
X1Y1836D02*
X8Y1836D01*
X3378Y1836D02*
X3385Y1836D01*
X1Y1835D02*
X8Y1835D01*
X3378Y1835D02*
X3385Y1835D01*
X1Y1834D02*
X8Y1834D01*
X3378Y1834D02*
X3385Y1834D01*
X1Y1833D02*
X8Y1833D01*
X3378Y1833D02*
X3385Y1833D01*
X1Y1832D02*
X8Y1832D01*
X3378Y1832D02*
X3385Y1832D01*
X1Y1831D02*
X8Y1831D01*
X3378Y1831D02*
X3385Y1831D01*
X1Y1830D02*
X8Y1830D01*
X3378Y1830D02*
X3385Y1830D01*
X1Y1829D02*
X8Y1829D01*
X3378Y1829D02*
X3385Y1829D01*
X1Y1828D02*
X8Y1828D01*
X3378Y1828D02*
X3385Y1828D01*
X1Y1827D02*
X8Y1827D01*
X3378Y1827D02*
X3385Y1827D01*
X1Y1826D02*
X8Y1826D01*
X3378Y1826D02*
X3385Y1826D01*
X1Y1825D02*
X8Y1825D01*
X3378Y1825D02*
X3385Y1825D01*
X1Y1824D02*
X8Y1824D01*
X3378Y1824D02*
X3385Y1824D01*
X1Y1823D02*
X8Y1823D01*
X3378Y1823D02*
X3385Y1823D01*
X1Y1822D02*
X8Y1822D01*
X3378Y1822D02*
X3385Y1822D01*
X1Y1821D02*
X8Y1821D01*
X3378Y1821D02*
X3385Y1821D01*
X1Y1820D02*
X8Y1820D01*
X3378Y1820D02*
X3385Y1820D01*
X1Y1819D02*
X8Y1819D01*
X3378Y1819D02*
X3385Y1819D01*
X1Y1818D02*
X8Y1818D01*
X3378Y1818D02*
X3385Y1818D01*
X1Y1817D02*
X8Y1817D01*
X3378Y1817D02*
X3385Y1817D01*
X1Y1816D02*
X8Y1816D01*
X3378Y1816D02*
X3385Y1816D01*
X1Y1815D02*
X8Y1815D01*
X3378Y1815D02*
X3385Y1815D01*
X1Y1814D02*
X8Y1814D01*
X3378Y1814D02*
X3385Y1814D01*
X1Y1813D02*
X8Y1813D01*
X3378Y1813D02*
X3385Y1813D01*
X1Y1812D02*
X8Y1812D01*
X3378Y1812D02*
X3385Y1812D01*
X1Y1811D02*
X8Y1811D01*
X3378Y1811D02*
X3385Y1811D01*
X1Y1810D02*
X8Y1810D01*
X3378Y1810D02*
X3385Y1810D01*
X1Y1809D02*
X8Y1809D01*
X3378Y1809D02*
X3385Y1809D01*
X1Y1808D02*
X8Y1808D01*
X3378Y1808D02*
X3385Y1808D01*
X1Y1807D02*
X8Y1807D01*
X3378Y1807D02*
X3385Y1807D01*
X1Y1806D02*
X8Y1806D01*
X3378Y1806D02*
X3385Y1806D01*
X1Y1805D02*
X8Y1805D01*
X3378Y1805D02*
X3385Y1805D01*
X1Y1804D02*
X8Y1804D01*
X3378Y1804D02*
X3385Y1804D01*
X1Y1803D02*
X8Y1803D01*
X3378Y1803D02*
X3385Y1803D01*
X1Y1802D02*
X8Y1802D01*
X3378Y1802D02*
X3385Y1802D01*
X1Y1801D02*
X8Y1801D01*
X3378Y1801D02*
X3385Y1801D01*
X1Y1800D02*
X8Y1800D01*
X3378Y1800D02*
X3385Y1800D01*
X1Y1799D02*
X8Y1799D01*
X3378Y1799D02*
X3385Y1799D01*
X1Y1798D02*
X8Y1798D01*
X3378Y1798D02*
X3385Y1798D01*
X1Y1797D02*
X8Y1797D01*
X3378Y1797D02*
X3385Y1797D01*
X1Y1796D02*
X8Y1796D01*
X3378Y1796D02*
X3385Y1796D01*
X1Y1795D02*
X8Y1795D01*
X3378Y1795D02*
X3385Y1795D01*
X1Y1794D02*
X8Y1794D01*
X3378Y1794D02*
X3385Y1794D01*
X1Y1793D02*
X8Y1793D01*
X3378Y1793D02*
X3385Y1793D01*
X1Y1792D02*
X8Y1792D01*
X3378Y1792D02*
X3385Y1792D01*
X1Y1791D02*
X8Y1791D01*
X3378Y1791D02*
X3385Y1791D01*
X1Y1790D02*
X8Y1790D01*
X3378Y1790D02*
X3385Y1790D01*
X1Y1789D02*
X8Y1789D01*
X3378Y1789D02*
X3385Y1789D01*
X1Y1788D02*
X8Y1788D01*
X3378Y1788D02*
X3385Y1788D01*
X1Y1787D02*
X8Y1787D01*
X3378Y1787D02*
X3385Y1787D01*
X1Y1786D02*
X8Y1786D01*
X3378Y1786D02*
X3385Y1786D01*
X1Y1785D02*
X8Y1785D01*
X3378Y1785D02*
X3385Y1785D01*
X1Y1784D02*
X8Y1784D01*
X3378Y1784D02*
X3385Y1784D01*
X1Y1783D02*
X8Y1783D01*
X3378Y1783D02*
X3385Y1783D01*
X1Y1782D02*
X8Y1782D01*
X3378Y1782D02*
X3385Y1782D01*
X1Y1781D02*
X8Y1781D01*
X3378Y1781D02*
X3385Y1781D01*
X1Y1780D02*
X8Y1780D01*
X3378Y1780D02*
X3385Y1780D01*
X1Y1779D02*
X8Y1779D01*
X3378Y1779D02*
X3385Y1779D01*
X1Y1778D02*
X8Y1778D01*
X3378Y1778D02*
X3385Y1778D01*
X1Y1777D02*
X8Y1777D01*
X3378Y1777D02*
X3385Y1777D01*
X1Y1776D02*
X8Y1776D01*
X3378Y1776D02*
X3385Y1776D01*
X1Y1775D02*
X8Y1775D01*
X3378Y1775D02*
X3385Y1775D01*
X1Y1774D02*
X8Y1774D01*
X3378Y1774D02*
X3385Y1774D01*
X1Y1773D02*
X8Y1773D01*
X3378Y1773D02*
X3385Y1773D01*
X1Y1772D02*
X8Y1772D01*
X3378Y1772D02*
X3385Y1772D01*
X1Y1771D02*
X8Y1771D01*
X3378Y1771D02*
X3385Y1771D01*
X1Y1770D02*
X8Y1770D01*
X3378Y1770D02*
X3385Y1770D01*
X1Y1769D02*
X8Y1769D01*
X3378Y1769D02*
X3385Y1769D01*
X1Y1768D02*
X8Y1768D01*
X3378Y1768D02*
X3385Y1768D01*
X1Y1767D02*
X8Y1767D01*
X3378Y1767D02*
X3385Y1767D01*
X1Y1766D02*
X8Y1766D01*
X3378Y1766D02*
X3385Y1766D01*
X1Y1765D02*
X8Y1765D01*
X3378Y1765D02*
X3385Y1765D01*
X1Y1764D02*
X8Y1764D01*
X3378Y1764D02*
X3385Y1764D01*
X1Y1763D02*
X8Y1763D01*
X3378Y1763D02*
X3385Y1763D01*
X1Y1762D02*
X8Y1762D01*
X3378Y1762D02*
X3385Y1762D01*
X1Y1761D02*
X8Y1761D01*
X3378Y1761D02*
X3385Y1761D01*
X1Y1760D02*
X8Y1760D01*
X3378Y1760D02*
X3385Y1760D01*
X1Y1759D02*
X8Y1759D01*
X3378Y1759D02*
X3385Y1759D01*
X1Y1758D02*
X8Y1758D01*
X3378Y1758D02*
X3385Y1758D01*
X1Y1757D02*
X8Y1757D01*
X3378Y1757D02*
X3385Y1757D01*
X1Y1756D02*
X8Y1756D01*
X3378Y1756D02*
X3385Y1756D01*
X1Y1755D02*
X8Y1755D01*
X3378Y1755D02*
X3385Y1755D01*
X1Y1754D02*
X8Y1754D01*
X3378Y1754D02*
X3385Y1754D01*
X1Y1753D02*
X8Y1753D01*
X3378Y1753D02*
X3385Y1753D01*
X1Y1752D02*
X8Y1752D01*
X3378Y1752D02*
X3385Y1752D01*
X1Y1751D02*
X8Y1751D01*
X3378Y1751D02*
X3385Y1751D01*
X1Y1750D02*
X8Y1750D01*
X3378Y1750D02*
X3385Y1750D01*
X1Y1749D02*
X8Y1749D01*
X3378Y1749D02*
X3385Y1749D01*
X1Y1748D02*
X8Y1748D01*
X3378Y1748D02*
X3385Y1748D01*
X1Y1747D02*
X8Y1747D01*
X3378Y1747D02*
X3385Y1747D01*
X1Y1746D02*
X8Y1746D01*
X3378Y1746D02*
X3385Y1746D01*
X1Y1745D02*
X8Y1745D01*
X3378Y1745D02*
X3385Y1745D01*
X1Y1744D02*
X8Y1744D01*
X3378Y1744D02*
X3385Y1744D01*
X1Y1743D02*
X8Y1743D01*
X3378Y1743D02*
X3385Y1743D01*
X1Y1742D02*
X8Y1742D01*
X3378Y1742D02*
X3385Y1742D01*
X1Y1741D02*
X8Y1741D01*
X3378Y1741D02*
X3385Y1741D01*
X1Y1740D02*
X8Y1740D01*
X3378Y1740D02*
X3385Y1740D01*
X1Y1739D02*
X8Y1739D01*
X3378Y1739D02*
X3385Y1739D01*
X1Y1738D02*
X8Y1738D01*
X3378Y1738D02*
X3385Y1738D01*
X1Y1737D02*
X8Y1737D01*
X3378Y1737D02*
X3385Y1737D01*
X1Y1736D02*
X8Y1736D01*
X3378Y1736D02*
X3385Y1736D01*
X1Y1735D02*
X8Y1735D01*
X3378Y1735D02*
X3385Y1735D01*
X1Y1734D02*
X8Y1734D01*
X3378Y1734D02*
X3385Y1734D01*
X1Y1733D02*
X8Y1733D01*
X3378Y1733D02*
X3385Y1733D01*
X1Y1732D02*
X8Y1732D01*
X3378Y1732D02*
X3385Y1732D01*
X1Y1731D02*
X8Y1731D01*
X3378Y1731D02*
X3385Y1731D01*
X1Y1730D02*
X8Y1730D01*
X3378Y1730D02*
X3385Y1730D01*
X1Y1729D02*
X8Y1729D01*
X3378Y1729D02*
X3385Y1729D01*
X1Y1728D02*
X8Y1728D01*
X3378Y1728D02*
X3385Y1728D01*
X1Y1727D02*
X8Y1727D01*
X3378Y1727D02*
X3385Y1727D01*
X1Y1726D02*
X8Y1726D01*
X3378Y1726D02*
X3385Y1726D01*
X1Y1725D02*
X8Y1725D01*
X3378Y1725D02*
X3385Y1725D01*
X1Y1724D02*
X8Y1724D01*
X3378Y1724D02*
X3385Y1724D01*
X1Y1723D02*
X8Y1723D01*
X3378Y1723D02*
X3385Y1723D01*
X1Y1722D02*
X8Y1722D01*
X3378Y1722D02*
X3385Y1722D01*
X1Y1721D02*
X8Y1721D01*
X3378Y1721D02*
X3385Y1721D01*
X1Y1720D02*
X8Y1720D01*
X3378Y1720D02*
X3385Y1720D01*
X1Y1719D02*
X8Y1719D01*
X3378Y1719D02*
X3385Y1719D01*
X1Y1718D02*
X8Y1718D01*
X3378Y1718D02*
X3385Y1718D01*
X1Y1717D02*
X8Y1717D01*
X3378Y1717D02*
X3385Y1717D01*
X1Y1716D02*
X8Y1716D01*
X3378Y1716D02*
X3385Y1716D01*
X1Y1715D02*
X8Y1715D01*
X3378Y1715D02*
X3385Y1715D01*
X1Y1714D02*
X8Y1714D01*
X3378Y1714D02*
X3385Y1714D01*
X1Y1713D02*
X8Y1713D01*
X3378Y1713D02*
X3385Y1713D01*
X1Y1712D02*
X8Y1712D01*
X3378Y1712D02*
X3385Y1712D01*
X1Y1711D02*
X8Y1711D01*
X3378Y1711D02*
X3385Y1711D01*
X1Y1710D02*
X8Y1710D01*
X3378Y1710D02*
X3385Y1710D01*
X1Y1709D02*
X8Y1709D01*
X3378Y1709D02*
X3385Y1709D01*
X1Y1708D02*
X8Y1708D01*
X3378Y1708D02*
X3385Y1708D01*
X1Y1707D02*
X8Y1707D01*
X3378Y1707D02*
X3385Y1707D01*
X1Y1706D02*
X8Y1706D01*
X3378Y1706D02*
X3385Y1706D01*
X1Y1705D02*
X8Y1705D01*
X3378Y1705D02*
X3385Y1705D01*
X1Y1704D02*
X8Y1704D01*
X3378Y1704D02*
X3385Y1704D01*
X1Y1703D02*
X8Y1703D01*
X3378Y1703D02*
X3385Y1703D01*
X1Y1702D02*
X8Y1702D01*
X3378Y1702D02*
X3385Y1702D01*
X1Y1701D02*
X8Y1701D01*
X3378Y1701D02*
X3385Y1701D01*
X1Y1700D02*
X8Y1700D01*
X3378Y1700D02*
X3385Y1700D01*
X1Y1699D02*
X8Y1699D01*
X3378Y1699D02*
X3385Y1699D01*
X1Y1698D02*
X8Y1698D01*
X3378Y1698D02*
X3385Y1698D01*
X1Y1697D02*
X8Y1697D01*
X3378Y1697D02*
X3385Y1697D01*
X1Y1696D02*
X8Y1696D01*
X3378Y1696D02*
X3385Y1696D01*
X1Y1695D02*
X8Y1695D01*
X3378Y1695D02*
X3385Y1695D01*
X1Y1694D02*
X8Y1694D01*
X3378Y1694D02*
X3385Y1694D01*
X1Y1693D02*
X8Y1693D01*
X3378Y1693D02*
X3385Y1693D01*
X1Y1692D02*
X8Y1692D01*
X3378Y1692D02*
X3385Y1692D01*
X1Y1691D02*
X8Y1691D01*
X3378Y1691D02*
X3385Y1691D01*
X1Y1690D02*
X8Y1690D01*
X3378Y1690D02*
X3385Y1690D01*
X1Y1689D02*
X8Y1689D01*
X3378Y1689D02*
X3385Y1689D01*
X1Y1688D02*
X8Y1688D01*
X3378Y1688D02*
X3385Y1688D01*
X1Y1687D02*
X8Y1687D01*
X3378Y1687D02*
X3385Y1687D01*
X1Y1686D02*
X8Y1686D01*
X3378Y1686D02*
X3385Y1686D01*
X1Y1685D02*
X8Y1685D01*
X3378Y1685D02*
X3385Y1685D01*
X1Y1684D02*
X8Y1684D01*
X3378Y1684D02*
X3385Y1684D01*
X1Y1683D02*
X8Y1683D01*
X3378Y1683D02*
X3385Y1683D01*
X1Y1682D02*
X8Y1682D01*
X3378Y1682D02*
X3385Y1682D01*
X1Y1681D02*
X8Y1681D01*
X3378Y1681D02*
X3385Y1681D01*
X1Y1680D02*
X8Y1680D01*
X3378Y1680D02*
X3385Y1680D01*
X1Y1679D02*
X8Y1679D01*
X3378Y1679D02*
X3385Y1679D01*
X1Y1678D02*
X8Y1678D01*
X3378Y1678D02*
X3385Y1678D01*
X1Y1677D02*
X8Y1677D01*
X3378Y1677D02*
X3385Y1677D01*
X1Y1676D02*
X8Y1676D01*
X3378Y1676D02*
X3385Y1676D01*
X1Y1675D02*
X8Y1675D01*
X3378Y1675D02*
X3385Y1675D01*
X1Y1674D02*
X8Y1674D01*
X3378Y1674D02*
X3385Y1674D01*
X1Y1673D02*
X8Y1673D01*
X3378Y1673D02*
X3385Y1673D01*
X1Y1672D02*
X8Y1672D01*
X3378Y1672D02*
X3385Y1672D01*
X1Y1671D02*
X8Y1671D01*
X3378Y1671D02*
X3385Y1671D01*
X1Y1670D02*
X8Y1670D01*
X3378Y1670D02*
X3385Y1670D01*
X1Y1669D02*
X8Y1669D01*
X3378Y1669D02*
X3385Y1669D01*
X1Y1668D02*
X8Y1668D01*
X3378Y1668D02*
X3385Y1668D01*
X1Y1667D02*
X8Y1667D01*
X3378Y1667D02*
X3385Y1667D01*
X1Y1666D02*
X8Y1666D01*
X3378Y1666D02*
X3385Y1666D01*
X1Y1665D02*
X8Y1665D01*
X3378Y1665D02*
X3385Y1665D01*
X1Y1664D02*
X8Y1664D01*
X3378Y1664D02*
X3385Y1664D01*
X1Y1663D02*
X8Y1663D01*
X3378Y1663D02*
X3385Y1663D01*
X1Y1662D02*
X8Y1662D01*
X3378Y1662D02*
X3385Y1662D01*
X1Y1661D02*
X8Y1661D01*
X3378Y1661D02*
X3385Y1661D01*
X1Y1660D02*
X8Y1660D01*
X3378Y1660D02*
X3385Y1660D01*
X1Y1659D02*
X8Y1659D01*
X3378Y1659D02*
X3385Y1659D01*
X1Y1658D02*
X8Y1658D01*
X3378Y1658D02*
X3385Y1658D01*
X1Y1657D02*
X8Y1657D01*
X3378Y1657D02*
X3385Y1657D01*
X1Y1656D02*
X8Y1656D01*
X3378Y1656D02*
X3385Y1656D01*
X1Y1655D02*
X8Y1655D01*
X3378Y1655D02*
X3385Y1655D01*
X1Y1654D02*
X8Y1654D01*
X3378Y1654D02*
X3385Y1654D01*
X1Y1653D02*
X8Y1653D01*
X3378Y1653D02*
X3385Y1653D01*
X1Y1652D02*
X8Y1652D01*
X3378Y1652D02*
X3385Y1652D01*
X1Y1651D02*
X8Y1651D01*
X3378Y1651D02*
X3385Y1651D01*
X1Y1650D02*
X8Y1650D01*
X3378Y1650D02*
X3385Y1650D01*
X1Y1649D02*
X8Y1649D01*
X3378Y1649D02*
X3385Y1649D01*
X1Y1648D02*
X8Y1648D01*
X3378Y1648D02*
X3385Y1648D01*
X1Y1647D02*
X8Y1647D01*
X3378Y1647D02*
X3385Y1647D01*
X1Y1646D02*
X8Y1646D01*
X3378Y1646D02*
X3385Y1646D01*
X1Y1645D02*
X8Y1645D01*
X3378Y1645D02*
X3385Y1645D01*
X1Y1644D02*
X8Y1644D01*
X3378Y1644D02*
X3385Y1644D01*
X1Y1643D02*
X8Y1643D01*
X3378Y1643D02*
X3385Y1643D01*
X1Y1642D02*
X8Y1642D01*
X3378Y1642D02*
X3385Y1642D01*
X1Y1641D02*
X8Y1641D01*
X3378Y1641D02*
X3385Y1641D01*
X1Y1640D02*
X8Y1640D01*
X3378Y1640D02*
X3385Y1640D01*
X1Y1639D02*
X8Y1639D01*
X3378Y1639D02*
X3385Y1639D01*
X1Y1638D02*
X8Y1638D01*
X3378Y1638D02*
X3385Y1638D01*
X1Y1637D02*
X8Y1637D01*
X3378Y1637D02*
X3385Y1637D01*
X1Y1636D02*
X8Y1636D01*
X3378Y1636D02*
X3385Y1636D01*
X1Y1635D02*
X8Y1635D01*
X3378Y1635D02*
X3385Y1635D01*
X1Y1634D02*
X8Y1634D01*
X3378Y1634D02*
X3385Y1634D01*
X1Y1633D02*
X8Y1633D01*
X3378Y1633D02*
X3385Y1633D01*
X1Y1632D02*
X8Y1632D01*
X3378Y1632D02*
X3385Y1632D01*
X1Y1631D02*
X8Y1631D01*
X3378Y1631D02*
X3385Y1631D01*
X1Y1630D02*
X8Y1630D01*
X3378Y1630D02*
X3385Y1630D01*
X1Y1629D02*
X8Y1629D01*
X3378Y1629D02*
X3385Y1629D01*
X1Y1628D02*
X8Y1628D01*
X3378Y1628D02*
X3385Y1628D01*
X1Y1627D02*
X8Y1627D01*
X3378Y1627D02*
X3385Y1627D01*
X1Y1626D02*
X8Y1626D01*
X3378Y1626D02*
X3385Y1626D01*
X1Y1625D02*
X8Y1625D01*
X3378Y1625D02*
X3385Y1625D01*
X1Y1624D02*
X8Y1624D01*
X3378Y1624D02*
X3385Y1624D01*
X1Y1623D02*
X8Y1623D01*
X3378Y1623D02*
X3385Y1623D01*
X1Y1622D02*
X8Y1622D01*
X3378Y1622D02*
X3385Y1622D01*
X1Y1621D02*
X8Y1621D01*
X3378Y1621D02*
X3385Y1621D01*
X1Y1620D02*
X8Y1620D01*
X3378Y1620D02*
X3385Y1620D01*
X1Y1619D02*
X8Y1619D01*
X3378Y1619D02*
X3385Y1619D01*
X1Y1618D02*
X8Y1618D01*
X3378Y1618D02*
X3385Y1618D01*
X1Y1617D02*
X8Y1617D01*
X3378Y1617D02*
X3385Y1617D01*
X1Y1616D02*
X8Y1616D01*
X3378Y1616D02*
X3385Y1616D01*
X1Y1615D02*
X8Y1615D01*
X3378Y1615D02*
X3385Y1615D01*
X1Y1614D02*
X8Y1614D01*
X3378Y1614D02*
X3385Y1614D01*
X1Y1613D02*
X8Y1613D01*
X3378Y1613D02*
X3385Y1613D01*
X1Y1612D02*
X8Y1612D01*
X3378Y1612D02*
X3385Y1612D01*
X1Y1611D02*
X8Y1611D01*
X3378Y1611D02*
X3385Y1611D01*
X1Y1610D02*
X8Y1610D01*
X3378Y1610D02*
X3385Y1610D01*
X1Y1609D02*
X8Y1609D01*
X3378Y1609D02*
X3385Y1609D01*
X1Y1608D02*
X8Y1608D01*
X3378Y1608D02*
X3385Y1608D01*
X1Y1607D02*
X8Y1607D01*
X3378Y1607D02*
X3385Y1607D01*
X1Y1606D02*
X8Y1606D01*
X3378Y1606D02*
X3385Y1606D01*
X1Y1605D02*
X8Y1605D01*
X3378Y1605D02*
X3385Y1605D01*
X1Y1604D02*
X8Y1604D01*
X3378Y1604D02*
X3385Y1604D01*
X1Y1603D02*
X8Y1603D01*
X3378Y1603D02*
X3385Y1603D01*
X1Y1602D02*
X8Y1602D01*
X3378Y1602D02*
X3385Y1602D01*
X1Y1601D02*
X8Y1601D01*
X3378Y1601D02*
X3385Y1601D01*
X1Y1600D02*
X8Y1600D01*
X3378Y1600D02*
X3385Y1600D01*
X1Y1599D02*
X8Y1599D01*
X3378Y1599D02*
X3385Y1599D01*
X1Y1598D02*
X8Y1598D01*
X3378Y1598D02*
X3385Y1598D01*
X1Y1597D02*
X8Y1597D01*
X3378Y1597D02*
X3385Y1597D01*
X1Y1596D02*
X8Y1596D01*
X3378Y1596D02*
X3385Y1596D01*
X1Y1595D02*
X8Y1595D01*
X3378Y1595D02*
X3385Y1595D01*
X1Y1594D02*
X8Y1594D01*
X3378Y1594D02*
X3385Y1594D01*
X1Y1593D02*
X8Y1593D01*
X3378Y1593D02*
X3385Y1593D01*
X1Y1592D02*
X8Y1592D01*
X3378Y1592D02*
X3385Y1592D01*
X1Y1591D02*
X8Y1591D01*
X3378Y1591D02*
X3385Y1591D01*
X1Y1590D02*
X8Y1590D01*
X3378Y1590D02*
X3385Y1590D01*
X1Y1589D02*
X8Y1589D01*
X3378Y1589D02*
X3385Y1589D01*
X1Y1588D02*
X8Y1588D01*
X3378Y1588D02*
X3385Y1588D01*
X1Y1587D02*
X8Y1587D01*
X3378Y1587D02*
X3385Y1587D01*
X1Y1586D02*
X8Y1586D01*
X3378Y1586D02*
X3385Y1586D01*
X1Y1585D02*
X8Y1585D01*
X3378Y1585D02*
X3385Y1585D01*
X1Y1584D02*
X8Y1584D01*
X3378Y1584D02*
X3385Y1584D01*
X1Y1583D02*
X8Y1583D01*
X3378Y1583D02*
X3385Y1583D01*
X1Y1582D02*
X8Y1582D01*
X3378Y1582D02*
X3385Y1582D01*
X1Y1581D02*
X8Y1581D01*
X3378Y1581D02*
X3385Y1581D01*
X1Y1580D02*
X8Y1580D01*
X3378Y1580D02*
X3385Y1580D01*
X1Y1579D02*
X8Y1579D01*
X3378Y1579D02*
X3385Y1579D01*
X1Y1578D02*
X8Y1578D01*
X3378Y1578D02*
X3385Y1578D01*
X1Y1577D02*
X8Y1577D01*
X3378Y1577D02*
X3385Y1577D01*
X1Y1576D02*
X8Y1576D01*
X3378Y1576D02*
X3385Y1576D01*
X1Y1575D02*
X8Y1575D01*
X3378Y1575D02*
X3385Y1575D01*
X1Y1574D02*
X8Y1574D01*
X3378Y1574D02*
X3385Y1574D01*
X1Y1573D02*
X8Y1573D01*
X3378Y1573D02*
X3385Y1573D01*
X1Y1572D02*
X8Y1572D01*
X3378Y1572D02*
X3385Y1572D01*
X1Y1571D02*
X8Y1571D01*
X3378Y1571D02*
X3385Y1571D01*
X1Y1570D02*
X8Y1570D01*
X3378Y1570D02*
X3385Y1570D01*
X1Y1569D02*
X8Y1569D01*
X3378Y1569D02*
X3385Y1569D01*
X1Y1568D02*
X8Y1568D01*
X3378Y1568D02*
X3385Y1568D01*
X1Y1567D02*
X8Y1567D01*
X3378Y1567D02*
X3385Y1567D01*
X1Y1566D02*
X8Y1566D01*
X3378Y1566D02*
X3385Y1566D01*
X1Y1565D02*
X8Y1565D01*
X3378Y1565D02*
X3385Y1565D01*
X1Y1564D02*
X8Y1564D01*
X3378Y1564D02*
X3385Y1564D01*
X1Y1563D02*
X8Y1563D01*
X3378Y1563D02*
X3385Y1563D01*
X1Y1562D02*
X8Y1562D01*
X3378Y1562D02*
X3385Y1562D01*
X1Y1561D02*
X8Y1561D01*
X3378Y1561D02*
X3385Y1561D01*
X1Y1560D02*
X8Y1560D01*
X3378Y1560D02*
X3385Y1560D01*
X1Y1559D02*
X8Y1559D01*
X3378Y1559D02*
X3385Y1559D01*
X1Y1558D02*
X8Y1558D01*
X3378Y1558D02*
X3385Y1558D01*
X1Y1557D02*
X8Y1557D01*
X3378Y1557D02*
X3385Y1557D01*
X1Y1556D02*
X8Y1556D01*
X3378Y1556D02*
X3385Y1556D01*
X1Y1555D02*
X8Y1555D01*
X3378Y1555D02*
X3385Y1555D01*
X1Y1554D02*
X8Y1554D01*
X3378Y1554D02*
X3385Y1554D01*
X1Y1553D02*
X8Y1553D01*
X3378Y1553D02*
X3385Y1553D01*
X1Y1552D02*
X8Y1552D01*
X3378Y1552D02*
X3385Y1552D01*
X1Y1551D02*
X8Y1551D01*
X3378Y1551D02*
X3385Y1551D01*
X1Y1550D02*
X8Y1550D01*
X3378Y1550D02*
X3385Y1550D01*
X1Y1549D02*
X8Y1549D01*
X3378Y1549D02*
X3385Y1549D01*
X1Y1548D02*
X8Y1548D01*
X3378Y1548D02*
X3385Y1548D01*
X1Y1547D02*
X8Y1547D01*
X3378Y1547D02*
X3385Y1547D01*
X1Y1546D02*
X8Y1546D01*
X3378Y1546D02*
X3385Y1546D01*
X1Y1545D02*
X8Y1545D01*
X3378Y1545D02*
X3385Y1545D01*
X1Y1544D02*
X8Y1544D01*
X3378Y1544D02*
X3385Y1544D01*
X1Y1543D02*
X8Y1543D01*
X3378Y1543D02*
X3385Y1543D01*
X1Y1542D02*
X8Y1542D01*
X3378Y1542D02*
X3385Y1542D01*
X1Y1541D02*
X8Y1541D01*
X3378Y1541D02*
X3385Y1541D01*
X1Y1540D02*
X8Y1540D01*
X3378Y1540D02*
X3385Y1540D01*
X1Y1539D02*
X8Y1539D01*
X3378Y1539D02*
X3385Y1539D01*
X1Y1538D02*
X8Y1538D01*
X3378Y1538D02*
X3385Y1538D01*
X1Y1537D02*
X8Y1537D01*
X3378Y1537D02*
X3385Y1537D01*
X1Y1536D02*
X8Y1536D01*
X3378Y1536D02*
X3385Y1536D01*
X1Y1535D02*
X8Y1535D01*
X3378Y1535D02*
X3385Y1535D01*
X1Y1534D02*
X8Y1534D01*
X3378Y1534D02*
X3385Y1534D01*
X1Y1533D02*
X8Y1533D01*
X3378Y1533D02*
X3385Y1533D01*
X1Y1532D02*
X8Y1532D01*
X3378Y1532D02*
X3385Y1532D01*
X1Y1531D02*
X8Y1531D01*
X3378Y1531D02*
X3385Y1531D01*
X1Y1530D02*
X8Y1530D01*
X3378Y1530D02*
X3385Y1530D01*
X1Y1529D02*
X8Y1529D01*
X3378Y1529D02*
X3385Y1529D01*
X1Y1528D02*
X8Y1528D01*
X3378Y1528D02*
X3385Y1528D01*
X1Y1527D02*
X8Y1527D01*
X3378Y1527D02*
X3385Y1527D01*
X1Y1526D02*
X8Y1526D01*
X3378Y1526D02*
X3385Y1526D01*
X1Y1525D02*
X8Y1525D01*
X3378Y1525D02*
X3385Y1525D01*
X1Y1524D02*
X8Y1524D01*
X3378Y1524D02*
X3385Y1524D01*
X1Y1523D02*
X8Y1523D01*
X3378Y1523D02*
X3385Y1523D01*
X1Y1522D02*
X8Y1522D01*
X3378Y1522D02*
X3385Y1522D01*
X1Y1521D02*
X8Y1521D01*
X3378Y1521D02*
X3385Y1521D01*
X1Y1520D02*
X8Y1520D01*
X3378Y1520D02*
X3385Y1520D01*
X1Y1519D02*
X8Y1519D01*
X3378Y1519D02*
X3385Y1519D01*
X1Y1518D02*
X8Y1518D01*
X3378Y1518D02*
X3385Y1518D01*
X1Y1517D02*
X8Y1517D01*
X3378Y1517D02*
X3385Y1517D01*
X1Y1516D02*
X8Y1516D01*
X3378Y1516D02*
X3385Y1516D01*
X1Y1515D02*
X8Y1515D01*
X3378Y1515D02*
X3385Y1515D01*
X1Y1514D02*
X8Y1514D01*
X3378Y1514D02*
X3385Y1514D01*
X1Y1513D02*
X8Y1513D01*
X3378Y1513D02*
X3385Y1513D01*
X1Y1512D02*
X8Y1512D01*
X3378Y1512D02*
X3385Y1512D01*
X1Y1511D02*
X8Y1511D01*
X3378Y1511D02*
X3385Y1511D01*
X1Y1510D02*
X8Y1510D01*
X3378Y1510D02*
X3385Y1510D01*
X1Y1509D02*
X8Y1509D01*
X3378Y1509D02*
X3385Y1509D01*
X1Y1508D02*
X8Y1508D01*
X3378Y1508D02*
X3385Y1508D01*
X1Y1507D02*
X8Y1507D01*
X3378Y1507D02*
X3385Y1507D01*
X1Y1506D02*
X8Y1506D01*
X3378Y1506D02*
X3385Y1506D01*
X1Y1505D02*
X8Y1505D01*
X3378Y1505D02*
X3385Y1505D01*
X1Y1504D02*
X8Y1504D01*
X3378Y1504D02*
X3385Y1504D01*
X1Y1503D02*
X8Y1503D01*
X3378Y1503D02*
X3385Y1503D01*
X1Y1502D02*
X8Y1502D01*
X3378Y1502D02*
X3385Y1502D01*
X1Y1501D02*
X8Y1501D01*
X3378Y1501D02*
X3385Y1501D01*
X1Y1500D02*
X8Y1500D01*
X3378Y1500D02*
X3385Y1500D01*
X1Y1499D02*
X8Y1499D01*
X3378Y1499D02*
X3385Y1499D01*
X1Y1498D02*
X8Y1498D01*
X3378Y1498D02*
X3385Y1498D01*
X1Y1497D02*
X8Y1497D01*
X3378Y1497D02*
X3385Y1497D01*
X1Y1496D02*
X8Y1496D01*
X3378Y1496D02*
X3385Y1496D01*
X1Y1495D02*
X8Y1495D01*
X3378Y1495D02*
X3385Y1495D01*
X1Y1494D02*
X8Y1494D01*
X3378Y1494D02*
X3385Y1494D01*
X1Y1493D02*
X8Y1493D01*
X3378Y1493D02*
X3385Y1493D01*
X1Y1492D02*
X8Y1492D01*
X3378Y1492D02*
X3385Y1492D01*
X1Y1491D02*
X8Y1491D01*
X3378Y1491D02*
X3385Y1491D01*
X1Y1490D02*
X8Y1490D01*
X3378Y1490D02*
X3385Y1490D01*
X1Y1489D02*
X8Y1489D01*
X3378Y1489D02*
X3385Y1489D01*
X1Y1488D02*
X8Y1488D01*
X3378Y1488D02*
X3385Y1488D01*
X1Y1487D02*
X8Y1487D01*
X3378Y1487D02*
X3385Y1487D01*
X1Y1486D02*
X8Y1486D01*
X3378Y1486D02*
X3385Y1486D01*
X1Y1485D02*
X8Y1485D01*
X3378Y1485D02*
X3385Y1485D01*
X1Y1484D02*
X8Y1484D01*
X3378Y1484D02*
X3385Y1484D01*
X1Y1483D02*
X8Y1483D01*
X3378Y1483D02*
X3385Y1483D01*
X1Y1482D02*
X8Y1482D01*
X3378Y1482D02*
X3385Y1482D01*
X1Y1481D02*
X8Y1481D01*
X3378Y1481D02*
X3385Y1481D01*
X1Y1480D02*
X8Y1480D01*
X3378Y1480D02*
X3385Y1480D01*
X1Y1479D02*
X8Y1479D01*
X3378Y1479D02*
X3385Y1479D01*
X1Y1478D02*
X8Y1478D01*
X3378Y1478D02*
X3385Y1478D01*
X1Y1477D02*
X8Y1477D01*
X3378Y1477D02*
X3385Y1477D01*
X1Y1476D02*
X8Y1476D01*
X3378Y1476D02*
X3385Y1476D01*
X1Y1475D02*
X8Y1475D01*
X3378Y1475D02*
X3385Y1475D01*
X1Y1474D02*
X8Y1474D01*
X3378Y1474D02*
X3385Y1474D01*
X1Y1473D02*
X8Y1473D01*
X3378Y1473D02*
X3385Y1473D01*
X1Y1472D02*
X8Y1472D01*
X3378Y1472D02*
X3385Y1472D01*
X1Y1471D02*
X8Y1471D01*
X3378Y1471D02*
X3385Y1471D01*
X1Y1470D02*
X8Y1470D01*
X3378Y1470D02*
X3385Y1470D01*
X1Y1469D02*
X8Y1469D01*
X3378Y1469D02*
X3385Y1469D01*
X1Y1468D02*
X8Y1468D01*
X3378Y1468D02*
X3385Y1468D01*
X1Y1467D02*
X8Y1467D01*
X3378Y1467D02*
X3385Y1467D01*
X1Y1466D02*
X8Y1466D01*
X3378Y1466D02*
X3385Y1466D01*
X1Y1465D02*
X8Y1465D01*
X3378Y1465D02*
X3385Y1465D01*
X1Y1464D02*
X8Y1464D01*
X3378Y1464D02*
X3385Y1464D01*
X1Y1463D02*
X8Y1463D01*
X3378Y1463D02*
X3385Y1463D01*
X1Y1462D02*
X8Y1462D01*
X3378Y1462D02*
X3385Y1462D01*
X1Y1461D02*
X8Y1461D01*
X3378Y1461D02*
X3385Y1461D01*
X1Y1460D02*
X8Y1460D01*
X3378Y1460D02*
X3385Y1460D01*
X1Y1459D02*
X8Y1459D01*
X3378Y1459D02*
X3385Y1459D01*
X1Y1458D02*
X8Y1458D01*
X3378Y1458D02*
X3385Y1458D01*
X1Y1457D02*
X8Y1457D01*
X3378Y1457D02*
X3385Y1457D01*
X1Y1456D02*
X8Y1456D01*
X3378Y1456D02*
X3385Y1456D01*
X1Y1455D02*
X8Y1455D01*
X3378Y1455D02*
X3385Y1455D01*
X1Y1454D02*
X8Y1454D01*
X3378Y1454D02*
X3385Y1454D01*
X1Y1453D02*
X8Y1453D01*
X3378Y1453D02*
X3385Y1453D01*
X1Y1452D02*
X8Y1452D01*
X3378Y1452D02*
X3385Y1452D01*
X1Y1451D02*
X8Y1451D01*
X3378Y1451D02*
X3385Y1451D01*
X1Y1450D02*
X8Y1450D01*
X3378Y1450D02*
X3385Y1450D01*
X1Y1449D02*
X8Y1449D01*
X3378Y1449D02*
X3385Y1449D01*
X1Y1448D02*
X8Y1448D01*
X3378Y1448D02*
X3385Y1448D01*
X1Y1447D02*
X8Y1447D01*
X3378Y1447D02*
X3385Y1447D01*
X1Y1446D02*
X8Y1446D01*
X3378Y1446D02*
X3385Y1446D01*
X1Y1445D02*
X8Y1445D01*
X3378Y1445D02*
X3385Y1445D01*
X1Y1444D02*
X8Y1444D01*
X3378Y1444D02*
X3385Y1444D01*
X1Y1443D02*
X8Y1443D01*
X3378Y1443D02*
X3385Y1443D01*
X1Y1442D02*
X8Y1442D01*
X3378Y1442D02*
X3385Y1442D01*
X1Y1441D02*
X8Y1441D01*
X3378Y1441D02*
X3385Y1441D01*
X1Y1440D02*
X8Y1440D01*
X3378Y1440D02*
X3385Y1440D01*
X1Y1439D02*
X8Y1439D01*
X3378Y1439D02*
X3385Y1439D01*
X1Y1438D02*
X8Y1438D01*
X3378Y1438D02*
X3385Y1438D01*
X1Y1437D02*
X8Y1437D01*
X3378Y1437D02*
X3385Y1437D01*
X1Y1436D02*
X8Y1436D01*
X3378Y1436D02*
X3385Y1436D01*
X1Y1435D02*
X8Y1435D01*
X3378Y1435D02*
X3385Y1435D01*
X1Y1434D02*
X8Y1434D01*
X3378Y1434D02*
X3385Y1434D01*
X1Y1433D02*
X8Y1433D01*
X3378Y1433D02*
X3385Y1433D01*
X1Y1432D02*
X8Y1432D01*
X3378Y1432D02*
X3385Y1432D01*
X1Y1431D02*
X8Y1431D01*
X3378Y1431D02*
X3385Y1431D01*
X1Y1430D02*
X8Y1430D01*
X3378Y1430D02*
X3385Y1430D01*
X1Y1429D02*
X8Y1429D01*
X3378Y1429D02*
X3385Y1429D01*
X1Y1428D02*
X8Y1428D01*
X3378Y1428D02*
X3385Y1428D01*
X1Y1427D02*
X8Y1427D01*
X3378Y1427D02*
X3385Y1427D01*
X1Y1426D02*
X8Y1426D01*
X3378Y1426D02*
X3385Y1426D01*
X1Y1425D02*
X8Y1425D01*
X3378Y1425D02*
X3385Y1425D01*
X1Y1424D02*
X8Y1424D01*
X3378Y1424D02*
X3385Y1424D01*
X1Y1423D02*
X8Y1423D01*
X3378Y1423D02*
X3385Y1423D01*
X1Y1422D02*
X8Y1422D01*
X3378Y1422D02*
X3385Y1422D01*
X1Y1421D02*
X8Y1421D01*
X3378Y1421D02*
X3385Y1421D01*
X1Y1420D02*
X8Y1420D01*
X3378Y1420D02*
X3385Y1420D01*
X1Y1419D02*
X8Y1419D01*
X3378Y1419D02*
X3385Y1419D01*
X1Y1418D02*
X8Y1418D01*
X3378Y1418D02*
X3385Y1418D01*
X1Y1417D02*
X8Y1417D01*
X3378Y1417D02*
X3385Y1417D01*
X1Y1416D02*
X8Y1416D01*
X3378Y1416D02*
X3385Y1416D01*
X1Y1415D02*
X8Y1415D01*
X3378Y1415D02*
X3385Y1415D01*
X1Y1414D02*
X8Y1414D01*
X3378Y1414D02*
X3385Y1414D01*
X1Y1413D02*
X8Y1413D01*
X3378Y1413D02*
X3385Y1413D01*
X1Y1412D02*
X8Y1412D01*
X3378Y1412D02*
X3385Y1412D01*
X1Y1411D02*
X8Y1411D01*
X3378Y1411D02*
X3385Y1411D01*
X1Y1410D02*
X8Y1410D01*
X3378Y1410D02*
X3385Y1410D01*
X1Y1409D02*
X8Y1409D01*
X3378Y1409D02*
X3385Y1409D01*
X1Y1408D02*
X8Y1408D01*
X3378Y1408D02*
X3385Y1408D01*
X1Y1407D02*
X8Y1407D01*
X3378Y1407D02*
X3385Y1407D01*
X1Y1406D02*
X8Y1406D01*
X3378Y1406D02*
X3385Y1406D01*
X1Y1405D02*
X8Y1405D01*
X3378Y1405D02*
X3385Y1405D01*
X1Y1404D02*
X8Y1404D01*
X3378Y1404D02*
X3385Y1404D01*
X1Y1403D02*
X8Y1403D01*
X3378Y1403D02*
X3385Y1403D01*
X1Y1402D02*
X8Y1402D01*
X3378Y1402D02*
X3385Y1402D01*
X1Y1401D02*
X8Y1401D01*
X3378Y1401D02*
X3385Y1401D01*
X1Y1400D02*
X8Y1400D01*
X3378Y1400D02*
X3385Y1400D01*
X1Y1399D02*
X8Y1399D01*
X3378Y1399D02*
X3385Y1399D01*
X1Y1398D02*
X8Y1398D01*
X3378Y1398D02*
X3385Y1398D01*
X1Y1397D02*
X8Y1397D01*
X3378Y1397D02*
X3385Y1397D01*
X1Y1396D02*
X8Y1396D01*
X3378Y1396D02*
X3385Y1396D01*
X1Y1395D02*
X8Y1395D01*
X3378Y1395D02*
X3385Y1395D01*
X1Y1394D02*
X8Y1394D01*
X3378Y1394D02*
X3385Y1394D01*
X1Y1393D02*
X8Y1393D01*
X3378Y1393D02*
X3385Y1393D01*
X1Y1392D02*
X8Y1392D01*
X3378Y1392D02*
X3385Y1392D01*
X1Y1391D02*
X8Y1391D01*
X3378Y1391D02*
X3385Y1391D01*
X1Y1390D02*
X8Y1390D01*
X3378Y1390D02*
X3385Y1390D01*
X1Y1389D02*
X8Y1389D01*
X3378Y1389D02*
X3385Y1389D01*
X1Y1388D02*
X8Y1388D01*
X3378Y1388D02*
X3385Y1388D01*
X1Y1387D02*
X8Y1387D01*
X3378Y1387D02*
X3385Y1387D01*
X1Y1386D02*
X8Y1386D01*
X3378Y1386D02*
X3385Y1386D01*
X1Y1385D02*
X8Y1385D01*
X3378Y1385D02*
X3385Y1385D01*
X1Y1384D02*
X8Y1384D01*
X3378Y1384D02*
X3385Y1384D01*
X1Y1383D02*
X8Y1383D01*
X3378Y1383D02*
X3385Y1383D01*
X1Y1382D02*
X8Y1382D01*
X3378Y1382D02*
X3385Y1382D01*
X1Y1381D02*
X8Y1381D01*
X3378Y1381D02*
X3385Y1381D01*
X1Y1380D02*
X8Y1380D01*
X3378Y1380D02*
X3385Y1380D01*
X1Y1379D02*
X8Y1379D01*
X3378Y1379D02*
X3385Y1379D01*
X1Y1378D02*
X8Y1378D01*
X3378Y1378D02*
X3385Y1378D01*
X1Y1377D02*
X8Y1377D01*
X3378Y1377D02*
X3385Y1377D01*
X1Y1376D02*
X8Y1376D01*
X3378Y1376D02*
X3385Y1376D01*
X1Y1375D02*
X8Y1375D01*
X3378Y1375D02*
X3385Y1375D01*
X1Y1374D02*
X8Y1374D01*
X3378Y1374D02*
X3385Y1374D01*
X1Y1373D02*
X8Y1373D01*
X3378Y1373D02*
X3385Y1373D01*
X1Y1372D02*
X8Y1372D01*
X3378Y1372D02*
X3385Y1372D01*
X1Y1371D02*
X8Y1371D01*
X3378Y1371D02*
X3385Y1371D01*
X1Y1370D02*
X8Y1370D01*
X3378Y1370D02*
X3385Y1370D01*
X1Y1369D02*
X8Y1369D01*
X3378Y1369D02*
X3385Y1369D01*
X1Y1368D02*
X8Y1368D01*
X3378Y1368D02*
X3385Y1368D01*
X1Y1367D02*
X8Y1367D01*
X3378Y1367D02*
X3385Y1367D01*
X1Y1366D02*
X8Y1366D01*
X3378Y1366D02*
X3385Y1366D01*
X1Y1365D02*
X8Y1365D01*
X3378Y1365D02*
X3385Y1365D01*
X1Y1364D02*
X8Y1364D01*
X3378Y1364D02*
X3385Y1364D01*
X1Y1363D02*
X8Y1363D01*
X3378Y1363D02*
X3385Y1363D01*
X1Y1362D02*
X8Y1362D01*
X3378Y1362D02*
X3385Y1362D01*
X1Y1361D02*
X8Y1361D01*
X3378Y1361D02*
X3385Y1361D01*
X1Y1360D02*
X8Y1360D01*
X3378Y1360D02*
X3385Y1360D01*
X1Y1359D02*
X8Y1359D01*
X3378Y1359D02*
X3385Y1359D01*
X1Y1358D02*
X8Y1358D01*
X3378Y1358D02*
X3385Y1358D01*
X1Y1357D02*
X8Y1357D01*
X3378Y1357D02*
X3385Y1357D01*
X1Y1356D02*
X8Y1356D01*
X3378Y1356D02*
X3385Y1356D01*
X1Y1355D02*
X8Y1355D01*
X3378Y1355D02*
X3385Y1355D01*
X1Y1354D02*
X8Y1354D01*
X3378Y1354D02*
X3385Y1354D01*
X1Y1353D02*
X8Y1353D01*
X3378Y1353D02*
X3385Y1353D01*
X1Y1352D02*
X8Y1352D01*
X3378Y1352D02*
X3385Y1352D01*
X1Y1351D02*
X8Y1351D01*
X3378Y1351D02*
X3385Y1351D01*
X1Y1350D02*
X8Y1350D01*
X3378Y1350D02*
X3385Y1350D01*
X1Y1349D02*
X8Y1349D01*
X3378Y1349D02*
X3385Y1349D01*
X1Y1348D02*
X8Y1348D01*
X3378Y1348D02*
X3385Y1348D01*
X1Y1347D02*
X8Y1347D01*
X3378Y1347D02*
X3385Y1347D01*
X1Y1346D02*
X8Y1346D01*
X3378Y1346D02*
X3385Y1346D01*
X1Y1345D02*
X8Y1345D01*
X3378Y1345D02*
X3385Y1345D01*
X1Y1344D02*
X8Y1344D01*
X3378Y1344D02*
X3385Y1344D01*
X1Y1343D02*
X8Y1343D01*
X3378Y1343D02*
X3385Y1343D01*
X1Y1342D02*
X8Y1342D01*
X3378Y1342D02*
X3385Y1342D01*
X1Y1341D02*
X8Y1341D01*
X3378Y1341D02*
X3385Y1341D01*
X1Y1340D02*
X8Y1340D01*
X3378Y1340D02*
X3385Y1340D01*
X1Y1339D02*
X8Y1339D01*
X3378Y1339D02*
X3385Y1339D01*
X1Y1338D02*
X8Y1338D01*
X3378Y1338D02*
X3385Y1338D01*
X1Y1337D02*
X8Y1337D01*
X3378Y1337D02*
X3385Y1337D01*
X1Y1336D02*
X8Y1336D01*
X3378Y1336D02*
X3385Y1336D01*
X1Y1335D02*
X8Y1335D01*
X3378Y1335D02*
X3385Y1335D01*
X1Y1334D02*
X8Y1334D01*
X3378Y1334D02*
X3385Y1334D01*
X1Y1333D02*
X8Y1333D01*
X3378Y1333D02*
X3385Y1333D01*
X1Y1332D02*
X8Y1332D01*
X3378Y1332D02*
X3385Y1332D01*
X1Y1331D02*
X8Y1331D01*
X3378Y1331D02*
X3385Y1331D01*
X1Y1330D02*
X8Y1330D01*
X3378Y1330D02*
X3385Y1330D01*
X1Y1329D02*
X8Y1329D01*
X3378Y1329D02*
X3385Y1329D01*
X1Y1328D02*
X8Y1328D01*
X3378Y1328D02*
X3385Y1328D01*
X1Y1327D02*
X8Y1327D01*
X3378Y1327D02*
X3385Y1327D01*
X1Y1326D02*
X8Y1326D01*
X3378Y1326D02*
X3385Y1326D01*
X1Y1325D02*
X8Y1325D01*
X3378Y1325D02*
X3385Y1325D01*
X1Y1324D02*
X8Y1324D01*
X3378Y1324D02*
X3385Y1324D01*
X1Y1323D02*
X8Y1323D01*
X3378Y1323D02*
X3385Y1323D01*
X1Y1322D02*
X8Y1322D01*
X3378Y1322D02*
X3385Y1322D01*
X1Y1321D02*
X8Y1321D01*
X3378Y1321D02*
X3385Y1321D01*
X1Y1320D02*
X8Y1320D01*
X3378Y1320D02*
X3385Y1320D01*
X1Y1319D02*
X8Y1319D01*
X3378Y1319D02*
X3385Y1319D01*
X1Y1318D02*
X8Y1318D01*
X3378Y1318D02*
X3385Y1318D01*
X1Y1317D02*
X8Y1317D01*
X3378Y1317D02*
X3385Y1317D01*
X1Y1316D02*
X8Y1316D01*
X3378Y1316D02*
X3385Y1316D01*
X1Y1315D02*
X8Y1315D01*
X3378Y1315D02*
X3385Y1315D01*
X1Y1314D02*
X8Y1314D01*
X3378Y1314D02*
X3385Y1314D01*
X1Y1313D02*
X8Y1313D01*
X3378Y1313D02*
X3385Y1313D01*
X1Y1312D02*
X8Y1312D01*
X3378Y1312D02*
X3385Y1312D01*
X1Y1311D02*
X8Y1311D01*
X3378Y1311D02*
X3385Y1311D01*
X1Y1310D02*
X8Y1310D01*
X3378Y1310D02*
X3385Y1310D01*
X1Y1309D02*
X8Y1309D01*
X3378Y1309D02*
X3385Y1309D01*
X1Y1308D02*
X8Y1308D01*
X3378Y1308D02*
X3385Y1308D01*
X1Y1307D02*
X8Y1307D01*
X3378Y1307D02*
X3385Y1307D01*
X1Y1306D02*
X8Y1306D01*
X3378Y1306D02*
X3385Y1306D01*
X1Y1305D02*
X8Y1305D01*
X3378Y1305D02*
X3385Y1305D01*
X1Y1304D02*
X8Y1304D01*
X3378Y1304D02*
X3385Y1304D01*
X1Y1303D02*
X8Y1303D01*
X3378Y1303D02*
X3385Y1303D01*
X1Y1302D02*
X8Y1302D01*
X3378Y1302D02*
X3385Y1302D01*
X1Y1301D02*
X8Y1301D01*
X3378Y1301D02*
X3385Y1301D01*
X1Y1300D02*
X8Y1300D01*
X3378Y1300D02*
X3385Y1300D01*
X1Y1299D02*
X8Y1299D01*
X3378Y1299D02*
X3385Y1299D01*
X1Y1298D02*
X8Y1298D01*
X3378Y1298D02*
X3385Y1298D01*
X1Y1297D02*
X8Y1297D01*
X3378Y1297D02*
X3385Y1297D01*
X1Y1296D02*
X8Y1296D01*
X3378Y1296D02*
X3385Y1296D01*
X1Y1295D02*
X8Y1295D01*
X3378Y1295D02*
X3385Y1295D01*
X1Y1294D02*
X8Y1294D01*
X3378Y1294D02*
X3385Y1294D01*
X1Y1293D02*
X8Y1293D01*
X3378Y1293D02*
X3385Y1293D01*
X1Y1292D02*
X8Y1292D01*
X3378Y1292D02*
X3385Y1292D01*
X1Y1291D02*
X8Y1291D01*
X3378Y1291D02*
X3385Y1291D01*
X1Y1290D02*
X8Y1290D01*
X3378Y1290D02*
X3385Y1290D01*
X1Y1289D02*
X8Y1289D01*
X3378Y1289D02*
X3385Y1289D01*
X1Y1288D02*
X8Y1288D01*
X3378Y1288D02*
X3385Y1288D01*
X1Y1287D02*
X8Y1287D01*
X3378Y1287D02*
X3385Y1287D01*
X1Y1286D02*
X8Y1286D01*
X3378Y1286D02*
X3385Y1286D01*
X1Y1285D02*
X8Y1285D01*
X3378Y1285D02*
X3385Y1285D01*
X1Y1284D02*
X8Y1284D01*
X3378Y1284D02*
X3385Y1284D01*
X1Y1283D02*
X8Y1283D01*
X3378Y1283D02*
X3385Y1283D01*
X1Y1282D02*
X8Y1282D01*
X3378Y1282D02*
X3385Y1282D01*
X1Y1281D02*
X8Y1281D01*
X3378Y1281D02*
X3385Y1281D01*
X1Y1280D02*
X8Y1280D01*
X3378Y1280D02*
X3385Y1280D01*
X1Y1279D02*
X8Y1279D01*
X3378Y1279D02*
X3385Y1279D01*
X1Y1278D02*
X8Y1278D01*
X3378Y1278D02*
X3385Y1278D01*
X1Y1277D02*
X8Y1277D01*
X3378Y1277D02*
X3385Y1277D01*
X1Y1276D02*
X8Y1276D01*
X3378Y1276D02*
X3385Y1276D01*
X1Y1275D02*
X8Y1275D01*
X3378Y1275D02*
X3385Y1275D01*
X1Y1274D02*
X8Y1274D01*
X3378Y1274D02*
X3385Y1274D01*
X1Y1273D02*
X8Y1273D01*
X3378Y1273D02*
X3385Y1273D01*
X1Y1272D02*
X8Y1272D01*
X3378Y1272D02*
X3385Y1272D01*
X1Y1271D02*
X8Y1271D01*
X3378Y1271D02*
X3385Y1271D01*
X1Y1270D02*
X8Y1270D01*
X3378Y1270D02*
X3385Y1270D01*
X1Y1269D02*
X8Y1269D01*
X3378Y1269D02*
X3385Y1269D01*
X1Y1268D02*
X8Y1268D01*
X3378Y1268D02*
X3385Y1268D01*
X1Y1267D02*
X8Y1267D01*
X3378Y1267D02*
X3385Y1267D01*
X1Y1266D02*
X8Y1266D01*
X3378Y1266D02*
X3385Y1266D01*
X1Y1265D02*
X8Y1265D01*
X3378Y1265D02*
X3385Y1265D01*
X1Y1264D02*
X8Y1264D01*
X3378Y1264D02*
X3385Y1264D01*
X1Y1263D02*
X8Y1263D01*
X3378Y1263D02*
X3385Y1263D01*
X1Y1262D02*
X8Y1262D01*
X3378Y1262D02*
X3385Y1262D01*
X1Y1261D02*
X8Y1261D01*
X3378Y1261D02*
X3385Y1261D01*
X1Y1260D02*
X8Y1260D01*
X3378Y1260D02*
X3385Y1260D01*
X1Y1259D02*
X8Y1259D01*
X3378Y1259D02*
X3385Y1259D01*
X1Y1258D02*
X8Y1258D01*
X3378Y1258D02*
X3385Y1258D01*
X1Y1257D02*
X8Y1257D01*
X3378Y1257D02*
X3385Y1257D01*
X1Y1256D02*
X8Y1256D01*
X3378Y1256D02*
X3385Y1256D01*
X1Y1255D02*
X8Y1255D01*
X3378Y1255D02*
X3385Y1255D01*
X1Y1254D02*
X8Y1254D01*
X3378Y1254D02*
X3385Y1254D01*
X1Y1253D02*
X8Y1253D01*
X3378Y1253D02*
X3385Y1253D01*
X1Y1252D02*
X8Y1252D01*
X3378Y1252D02*
X3385Y1252D01*
X1Y1251D02*
X8Y1251D01*
X3378Y1251D02*
X3385Y1251D01*
X1Y1250D02*
X8Y1250D01*
X3378Y1250D02*
X3385Y1250D01*
X1Y1249D02*
X8Y1249D01*
X3378Y1249D02*
X3385Y1249D01*
X1Y1248D02*
X8Y1248D01*
X3378Y1248D02*
X3385Y1248D01*
X1Y1247D02*
X8Y1247D01*
X3378Y1247D02*
X3385Y1247D01*
X1Y1246D02*
X8Y1246D01*
X3378Y1246D02*
X3385Y1246D01*
X1Y1245D02*
X8Y1245D01*
X3378Y1245D02*
X3385Y1245D01*
X1Y1244D02*
X8Y1244D01*
X3378Y1244D02*
X3385Y1244D01*
X1Y1243D02*
X8Y1243D01*
X3378Y1243D02*
X3385Y1243D01*
X1Y1242D02*
X8Y1242D01*
X3378Y1242D02*
X3385Y1242D01*
X1Y1241D02*
X8Y1241D01*
X3378Y1241D02*
X3385Y1241D01*
X1Y1240D02*
X8Y1240D01*
X3378Y1240D02*
X3385Y1240D01*
X1Y1239D02*
X8Y1239D01*
X3378Y1239D02*
X3385Y1239D01*
X1Y1238D02*
X8Y1238D01*
X3378Y1238D02*
X3385Y1238D01*
X1Y1237D02*
X8Y1237D01*
X3378Y1237D02*
X3385Y1237D01*
X1Y1236D02*
X8Y1236D01*
X3378Y1236D02*
X3385Y1236D01*
X1Y1235D02*
X8Y1235D01*
X3378Y1235D02*
X3385Y1235D01*
X1Y1234D02*
X8Y1234D01*
X3378Y1234D02*
X3385Y1234D01*
X1Y1233D02*
X8Y1233D01*
X3378Y1233D02*
X3385Y1233D01*
X1Y1232D02*
X8Y1232D01*
X3378Y1232D02*
X3385Y1232D01*
X1Y1231D02*
X8Y1231D01*
X3378Y1231D02*
X3385Y1231D01*
X1Y1230D02*
X8Y1230D01*
X3378Y1230D02*
X3385Y1230D01*
X1Y1229D02*
X8Y1229D01*
X3378Y1229D02*
X3385Y1229D01*
X1Y1228D02*
X8Y1228D01*
X3378Y1228D02*
X3385Y1228D01*
X1Y1227D02*
X8Y1227D01*
X3378Y1227D02*
X3385Y1227D01*
X1Y1226D02*
X8Y1226D01*
X3378Y1226D02*
X3385Y1226D01*
X1Y1225D02*
X8Y1225D01*
X3378Y1225D02*
X3385Y1225D01*
X1Y1224D02*
X8Y1224D01*
X3378Y1224D02*
X3385Y1224D01*
X1Y1223D02*
X8Y1223D01*
X3378Y1223D02*
X3385Y1223D01*
X1Y1222D02*
X8Y1222D01*
X3378Y1222D02*
X3385Y1222D01*
X1Y1221D02*
X8Y1221D01*
X3378Y1221D02*
X3385Y1221D01*
X1Y1220D02*
X8Y1220D01*
X3378Y1220D02*
X3385Y1220D01*
X1Y1219D02*
X8Y1219D01*
X3378Y1219D02*
X3385Y1219D01*
X1Y1218D02*
X8Y1218D01*
X3378Y1218D02*
X3385Y1218D01*
X1Y1217D02*
X8Y1217D01*
X3378Y1217D02*
X3385Y1217D01*
X1Y1216D02*
X8Y1216D01*
X3378Y1216D02*
X3385Y1216D01*
X1Y1215D02*
X8Y1215D01*
X3378Y1215D02*
X3385Y1215D01*
X1Y1214D02*
X8Y1214D01*
X3378Y1214D02*
X3385Y1214D01*
X1Y1213D02*
X8Y1213D01*
X3378Y1213D02*
X3385Y1213D01*
X1Y1212D02*
X8Y1212D01*
X3378Y1212D02*
X3385Y1212D01*
X1Y1211D02*
X8Y1211D01*
X3378Y1211D02*
X3385Y1211D01*
X1Y1210D02*
X8Y1210D01*
X3378Y1210D02*
X3385Y1210D01*
X1Y1209D02*
X8Y1209D01*
X3378Y1209D02*
X3385Y1209D01*
X1Y1208D02*
X8Y1208D01*
X3378Y1208D02*
X3385Y1208D01*
X1Y1207D02*
X8Y1207D01*
X3378Y1207D02*
X3385Y1207D01*
X1Y1206D02*
X8Y1206D01*
X3378Y1206D02*
X3385Y1206D01*
X1Y1205D02*
X8Y1205D01*
X3378Y1205D02*
X3385Y1205D01*
X1Y1204D02*
X8Y1204D01*
X3378Y1204D02*
X3385Y1204D01*
X1Y1203D02*
X8Y1203D01*
X3378Y1203D02*
X3385Y1203D01*
X1Y1202D02*
X8Y1202D01*
X3378Y1202D02*
X3385Y1202D01*
X1Y1201D02*
X8Y1201D01*
X3378Y1201D02*
X3385Y1201D01*
X1Y1200D02*
X8Y1200D01*
X3378Y1200D02*
X3385Y1200D01*
X1Y1199D02*
X8Y1199D01*
X3378Y1199D02*
X3385Y1199D01*
X1Y1198D02*
X8Y1198D01*
X3378Y1198D02*
X3385Y1198D01*
X1Y1197D02*
X8Y1197D01*
X3378Y1197D02*
X3385Y1197D01*
X1Y1196D02*
X8Y1196D01*
X3378Y1196D02*
X3385Y1196D01*
X1Y1195D02*
X8Y1195D01*
X3378Y1195D02*
X3385Y1195D01*
X1Y1194D02*
X8Y1194D01*
X3378Y1194D02*
X3385Y1194D01*
X1Y1193D02*
X8Y1193D01*
X3378Y1193D02*
X3385Y1193D01*
X1Y1192D02*
X8Y1192D01*
X3378Y1192D02*
X3385Y1192D01*
X1Y1191D02*
X8Y1191D01*
X3378Y1191D02*
X3385Y1191D01*
X1Y1190D02*
X8Y1190D01*
X3378Y1190D02*
X3385Y1190D01*
X1Y1189D02*
X8Y1189D01*
X3378Y1189D02*
X3385Y1189D01*
X1Y1188D02*
X8Y1188D01*
X3378Y1188D02*
X3385Y1188D01*
X1Y1187D02*
X8Y1187D01*
X3378Y1187D02*
X3385Y1187D01*
X1Y1186D02*
X8Y1186D01*
X3378Y1186D02*
X3385Y1186D01*
X1Y1185D02*
X8Y1185D01*
X3378Y1185D02*
X3385Y1185D01*
X1Y1184D02*
X8Y1184D01*
X3378Y1184D02*
X3385Y1184D01*
X1Y1183D02*
X8Y1183D01*
X3378Y1183D02*
X3385Y1183D01*
X1Y1182D02*
X8Y1182D01*
X3378Y1182D02*
X3385Y1182D01*
X1Y1181D02*
X8Y1181D01*
X3378Y1181D02*
X3385Y1181D01*
X1Y1180D02*
X8Y1180D01*
X3378Y1180D02*
X3385Y1180D01*
X1Y1179D02*
X8Y1179D01*
X3378Y1179D02*
X3385Y1179D01*
X1Y1178D02*
X8Y1178D01*
X3378Y1178D02*
X3385Y1178D01*
X1Y1177D02*
X8Y1177D01*
X3378Y1177D02*
X3385Y1177D01*
X1Y1176D02*
X8Y1176D01*
X3378Y1176D02*
X3385Y1176D01*
X1Y1175D02*
X8Y1175D01*
X3378Y1175D02*
X3385Y1175D01*
X1Y1174D02*
X8Y1174D01*
X3378Y1174D02*
X3385Y1174D01*
X1Y1173D02*
X8Y1173D01*
X3378Y1173D02*
X3385Y1173D01*
X1Y1172D02*
X8Y1172D01*
X3378Y1172D02*
X3385Y1172D01*
X1Y1171D02*
X8Y1171D01*
X3378Y1171D02*
X3385Y1171D01*
X1Y1170D02*
X8Y1170D01*
X3378Y1170D02*
X3385Y1170D01*
X1Y1169D02*
X8Y1169D01*
X3378Y1169D02*
X3385Y1169D01*
X1Y1168D02*
X8Y1168D01*
X3378Y1168D02*
X3385Y1168D01*
X1Y1167D02*
X8Y1167D01*
X3378Y1167D02*
X3385Y1167D01*
X1Y1166D02*
X8Y1166D01*
X3378Y1166D02*
X3385Y1166D01*
X1Y1165D02*
X8Y1165D01*
X3378Y1165D02*
X3385Y1165D01*
X1Y1164D02*
X8Y1164D01*
X3378Y1164D02*
X3385Y1164D01*
X1Y1163D02*
X8Y1163D01*
X3378Y1163D02*
X3385Y1163D01*
X1Y1162D02*
X8Y1162D01*
X3378Y1162D02*
X3385Y1162D01*
X1Y1161D02*
X8Y1161D01*
X3378Y1161D02*
X3385Y1161D01*
X1Y1160D02*
X8Y1160D01*
X3378Y1160D02*
X3385Y1160D01*
X1Y1159D02*
X8Y1159D01*
X3378Y1159D02*
X3385Y1159D01*
X1Y1158D02*
X8Y1158D01*
X3378Y1158D02*
X3385Y1158D01*
X1Y1157D02*
X8Y1157D01*
X3378Y1157D02*
X3385Y1157D01*
X1Y1156D02*
X8Y1156D01*
X3378Y1156D02*
X3385Y1156D01*
X1Y1155D02*
X8Y1155D01*
X3378Y1155D02*
X3385Y1155D01*
X1Y1154D02*
X8Y1154D01*
X3378Y1154D02*
X3385Y1154D01*
X1Y1153D02*
X8Y1153D01*
X3378Y1153D02*
X3385Y1153D01*
X1Y1152D02*
X8Y1152D01*
X3378Y1152D02*
X3385Y1152D01*
X1Y1151D02*
X8Y1151D01*
X3378Y1151D02*
X3385Y1151D01*
X1Y1150D02*
X8Y1150D01*
X3378Y1150D02*
X3385Y1150D01*
X1Y1149D02*
X8Y1149D01*
X3378Y1149D02*
X3385Y1149D01*
X1Y1148D02*
X8Y1148D01*
X3378Y1148D02*
X3385Y1148D01*
X1Y1147D02*
X8Y1147D01*
X3378Y1147D02*
X3385Y1147D01*
X1Y1146D02*
X8Y1146D01*
X3378Y1146D02*
X3385Y1146D01*
X1Y1145D02*
X8Y1145D01*
X3378Y1145D02*
X3385Y1145D01*
X1Y1144D02*
X8Y1144D01*
X3378Y1144D02*
X3385Y1144D01*
X1Y1143D02*
X8Y1143D01*
X3378Y1143D02*
X3385Y1143D01*
X1Y1142D02*
X8Y1142D01*
X3378Y1142D02*
X3385Y1142D01*
X1Y1141D02*
X8Y1141D01*
X3378Y1141D02*
X3385Y1141D01*
X1Y1140D02*
X8Y1140D01*
X3378Y1140D02*
X3385Y1140D01*
X1Y1139D02*
X8Y1139D01*
X3378Y1139D02*
X3385Y1139D01*
X1Y1138D02*
X8Y1138D01*
X3378Y1138D02*
X3385Y1138D01*
X1Y1137D02*
X8Y1137D01*
X3378Y1137D02*
X3385Y1137D01*
X1Y1136D02*
X8Y1136D01*
X3378Y1136D02*
X3385Y1136D01*
X1Y1135D02*
X8Y1135D01*
X3378Y1135D02*
X3385Y1135D01*
X1Y1134D02*
X8Y1134D01*
X3378Y1134D02*
X3385Y1134D01*
X1Y1133D02*
X8Y1133D01*
X3378Y1133D02*
X3385Y1133D01*
X1Y1132D02*
X8Y1132D01*
X3378Y1132D02*
X3385Y1132D01*
X1Y1131D02*
X8Y1131D01*
X3378Y1131D02*
X3385Y1131D01*
X1Y1130D02*
X8Y1130D01*
X3378Y1130D02*
X3385Y1130D01*
X1Y1129D02*
X8Y1129D01*
X3378Y1129D02*
X3385Y1129D01*
X1Y1128D02*
X8Y1128D01*
X3378Y1128D02*
X3385Y1128D01*
X1Y1127D02*
X8Y1127D01*
X3378Y1127D02*
X3385Y1127D01*
X1Y1126D02*
X8Y1126D01*
X3378Y1126D02*
X3385Y1126D01*
X1Y1125D02*
X8Y1125D01*
X3378Y1125D02*
X3385Y1125D01*
X1Y1124D02*
X8Y1124D01*
X3378Y1124D02*
X3385Y1124D01*
X1Y1123D02*
X8Y1123D01*
X3378Y1123D02*
X3385Y1123D01*
X1Y1122D02*
X8Y1122D01*
X3378Y1122D02*
X3385Y1122D01*
X1Y1121D02*
X8Y1121D01*
X3378Y1121D02*
X3385Y1121D01*
X1Y1120D02*
X8Y1120D01*
X3378Y1120D02*
X3385Y1120D01*
X1Y1119D02*
X8Y1119D01*
X3378Y1119D02*
X3385Y1119D01*
X1Y1118D02*
X8Y1118D01*
X3378Y1118D02*
X3385Y1118D01*
X1Y1117D02*
X8Y1117D01*
X3378Y1117D02*
X3385Y1117D01*
X1Y1116D02*
X8Y1116D01*
X3378Y1116D02*
X3385Y1116D01*
X1Y1115D02*
X8Y1115D01*
X3378Y1115D02*
X3385Y1115D01*
X1Y1114D02*
X8Y1114D01*
X3378Y1114D02*
X3385Y1114D01*
X1Y1113D02*
X8Y1113D01*
X3378Y1113D02*
X3385Y1113D01*
X1Y1112D02*
X8Y1112D01*
X3378Y1112D02*
X3385Y1112D01*
X1Y1111D02*
X8Y1111D01*
X3378Y1111D02*
X3385Y1111D01*
X1Y1110D02*
X8Y1110D01*
X3378Y1110D02*
X3385Y1110D01*
X1Y1109D02*
X8Y1109D01*
X3378Y1109D02*
X3385Y1109D01*
X1Y1108D02*
X8Y1108D01*
X3378Y1108D02*
X3385Y1108D01*
X1Y1107D02*
X8Y1107D01*
X3378Y1107D02*
X3385Y1107D01*
X1Y1106D02*
X8Y1106D01*
X3378Y1106D02*
X3385Y1106D01*
X1Y1105D02*
X8Y1105D01*
X3378Y1105D02*
X3385Y1105D01*
X1Y1104D02*
X8Y1104D01*
X3378Y1104D02*
X3385Y1104D01*
X1Y1103D02*
X8Y1103D01*
X3378Y1103D02*
X3385Y1103D01*
X1Y1102D02*
X8Y1102D01*
X3378Y1102D02*
X3385Y1102D01*
X1Y1101D02*
X8Y1101D01*
X3378Y1101D02*
X3385Y1101D01*
X1Y1100D02*
X8Y1100D01*
X3378Y1100D02*
X3385Y1100D01*
X1Y1099D02*
X8Y1099D01*
X3378Y1099D02*
X3385Y1099D01*
X1Y1098D02*
X8Y1098D01*
X3378Y1098D02*
X3385Y1098D01*
X1Y1097D02*
X8Y1097D01*
X3378Y1097D02*
X3385Y1097D01*
X1Y1096D02*
X8Y1096D01*
X3378Y1096D02*
X3385Y1096D01*
X1Y1095D02*
X8Y1095D01*
X3378Y1095D02*
X3385Y1095D01*
X1Y1094D02*
X8Y1094D01*
X3378Y1094D02*
X3385Y1094D01*
X1Y1093D02*
X8Y1093D01*
X3378Y1093D02*
X3385Y1093D01*
X1Y1092D02*
X8Y1092D01*
X3378Y1092D02*
X3385Y1092D01*
X1Y1091D02*
X8Y1091D01*
X3378Y1091D02*
X3385Y1091D01*
X1Y1090D02*
X8Y1090D01*
X3378Y1090D02*
X3385Y1090D01*
X1Y1089D02*
X8Y1089D01*
X3378Y1089D02*
X3385Y1089D01*
X1Y1088D02*
X8Y1088D01*
X3378Y1088D02*
X3385Y1088D01*
X1Y1087D02*
X8Y1087D01*
X3378Y1087D02*
X3385Y1087D01*
X1Y1086D02*
X8Y1086D01*
X3378Y1086D02*
X3385Y1086D01*
X1Y1085D02*
X8Y1085D01*
X3378Y1085D02*
X3385Y1085D01*
X1Y1084D02*
X8Y1084D01*
X3378Y1084D02*
X3385Y1084D01*
X1Y1083D02*
X8Y1083D01*
X3378Y1083D02*
X3385Y1083D01*
X1Y1082D02*
X8Y1082D01*
X3378Y1082D02*
X3385Y1082D01*
X1Y1081D02*
X8Y1081D01*
X3378Y1081D02*
X3385Y1081D01*
X1Y1080D02*
X8Y1080D01*
X3378Y1080D02*
X3385Y1080D01*
X1Y1079D02*
X8Y1079D01*
X3378Y1079D02*
X3385Y1079D01*
X1Y1078D02*
X8Y1078D01*
X3378Y1078D02*
X3385Y1078D01*
X1Y1077D02*
X8Y1077D01*
X3378Y1077D02*
X3385Y1077D01*
X1Y1076D02*
X8Y1076D01*
X3378Y1076D02*
X3385Y1076D01*
X1Y1075D02*
X8Y1075D01*
X3378Y1075D02*
X3385Y1075D01*
X1Y1074D02*
X8Y1074D01*
X3378Y1074D02*
X3385Y1074D01*
X1Y1073D02*
X8Y1073D01*
X3378Y1073D02*
X3385Y1073D01*
X1Y1072D02*
X8Y1072D01*
X3378Y1072D02*
X3385Y1072D01*
X1Y1071D02*
X8Y1071D01*
X3378Y1071D02*
X3385Y1071D01*
X1Y1070D02*
X8Y1070D01*
X3378Y1070D02*
X3385Y1070D01*
X1Y1069D02*
X8Y1069D01*
X3378Y1069D02*
X3385Y1069D01*
X1Y1068D02*
X8Y1068D01*
X3378Y1068D02*
X3385Y1068D01*
X1Y1067D02*
X8Y1067D01*
X3378Y1067D02*
X3385Y1067D01*
X1Y1066D02*
X8Y1066D01*
X3378Y1066D02*
X3385Y1066D01*
X1Y1065D02*
X8Y1065D01*
X3378Y1065D02*
X3385Y1065D01*
X1Y1064D02*
X8Y1064D01*
X3378Y1064D02*
X3385Y1064D01*
X1Y1063D02*
X8Y1063D01*
X3378Y1063D02*
X3385Y1063D01*
X1Y1062D02*
X8Y1062D01*
X3378Y1062D02*
X3385Y1062D01*
X1Y1061D02*
X8Y1061D01*
X3378Y1061D02*
X3385Y1061D01*
X1Y1060D02*
X8Y1060D01*
X3378Y1060D02*
X3385Y1060D01*
X1Y1059D02*
X8Y1059D01*
X3378Y1059D02*
X3385Y1059D01*
X1Y1058D02*
X8Y1058D01*
X3378Y1058D02*
X3385Y1058D01*
X1Y1057D02*
X8Y1057D01*
X3378Y1057D02*
X3385Y1057D01*
X1Y1056D02*
X8Y1056D01*
X3378Y1056D02*
X3385Y1056D01*
X1Y1055D02*
X8Y1055D01*
X3378Y1055D02*
X3385Y1055D01*
X1Y1054D02*
X8Y1054D01*
X3378Y1054D02*
X3385Y1054D01*
X1Y1053D02*
X8Y1053D01*
X3378Y1053D02*
X3385Y1053D01*
X1Y1052D02*
X8Y1052D01*
X3378Y1052D02*
X3385Y1052D01*
X1Y1051D02*
X8Y1051D01*
X3378Y1051D02*
X3385Y1051D01*
X1Y1050D02*
X8Y1050D01*
X3378Y1050D02*
X3385Y1050D01*
X1Y1049D02*
X8Y1049D01*
X3378Y1049D02*
X3385Y1049D01*
X1Y1048D02*
X8Y1048D01*
X3378Y1048D02*
X3385Y1048D01*
X1Y1047D02*
X8Y1047D01*
X3378Y1047D02*
X3385Y1047D01*
X1Y1046D02*
X8Y1046D01*
X3378Y1046D02*
X3385Y1046D01*
X1Y1045D02*
X8Y1045D01*
X3378Y1045D02*
X3385Y1045D01*
X1Y1044D02*
X8Y1044D01*
X3378Y1044D02*
X3385Y1044D01*
X1Y1043D02*
X8Y1043D01*
X3378Y1043D02*
X3385Y1043D01*
X1Y1042D02*
X8Y1042D01*
X3378Y1042D02*
X3385Y1042D01*
X1Y1041D02*
X8Y1041D01*
X3378Y1041D02*
X3385Y1041D01*
X1Y1040D02*
X8Y1040D01*
X3378Y1040D02*
X3385Y1040D01*
X1Y1039D02*
X8Y1039D01*
X3378Y1039D02*
X3385Y1039D01*
X1Y1038D02*
X8Y1038D01*
X3378Y1038D02*
X3385Y1038D01*
X1Y1037D02*
X8Y1037D01*
X3378Y1037D02*
X3385Y1037D01*
X1Y1036D02*
X8Y1036D01*
X3378Y1036D02*
X3385Y1036D01*
X1Y1035D02*
X8Y1035D01*
X3378Y1035D02*
X3385Y1035D01*
X1Y1034D02*
X8Y1034D01*
X3378Y1034D02*
X3385Y1034D01*
X1Y1033D02*
X8Y1033D01*
X3378Y1033D02*
X3385Y1033D01*
X1Y1032D02*
X8Y1032D01*
X3378Y1032D02*
X3385Y1032D01*
X1Y1031D02*
X8Y1031D01*
X3378Y1031D02*
X3385Y1031D01*
X1Y1030D02*
X8Y1030D01*
X3378Y1030D02*
X3385Y1030D01*
X1Y1029D02*
X8Y1029D01*
X3378Y1029D02*
X3385Y1029D01*
X1Y1028D02*
X8Y1028D01*
X3378Y1028D02*
X3385Y1028D01*
X1Y1027D02*
X8Y1027D01*
X3378Y1027D02*
X3385Y1027D01*
X1Y1026D02*
X8Y1026D01*
X3378Y1026D02*
X3385Y1026D01*
X1Y1025D02*
X8Y1025D01*
X3378Y1025D02*
X3385Y1025D01*
X1Y1024D02*
X8Y1024D01*
X3378Y1024D02*
X3385Y1024D01*
X1Y1023D02*
X8Y1023D01*
X3378Y1023D02*
X3385Y1023D01*
X1Y1022D02*
X8Y1022D01*
X3378Y1022D02*
X3385Y1022D01*
X1Y1021D02*
X8Y1021D01*
X3378Y1021D02*
X3385Y1021D01*
X1Y1020D02*
X8Y1020D01*
X3378Y1020D02*
X3385Y1020D01*
X1Y1019D02*
X8Y1019D01*
X3378Y1019D02*
X3385Y1019D01*
X1Y1018D02*
X8Y1018D01*
X3378Y1018D02*
X3385Y1018D01*
X1Y1017D02*
X8Y1017D01*
X3378Y1017D02*
X3385Y1017D01*
X1Y1016D02*
X8Y1016D01*
X3378Y1016D02*
X3385Y1016D01*
X1Y1015D02*
X8Y1015D01*
X3378Y1015D02*
X3385Y1015D01*
X1Y1014D02*
X8Y1014D01*
X3378Y1014D02*
X3385Y1014D01*
X1Y1013D02*
X8Y1013D01*
X3378Y1013D02*
X3385Y1013D01*
X1Y1012D02*
X8Y1012D01*
X3378Y1012D02*
X3385Y1012D01*
X1Y1011D02*
X8Y1011D01*
X3378Y1011D02*
X3385Y1011D01*
X1Y1010D02*
X8Y1010D01*
X3378Y1010D02*
X3385Y1010D01*
X1Y1009D02*
X8Y1009D01*
X3378Y1009D02*
X3385Y1009D01*
X1Y1008D02*
X8Y1008D01*
X3378Y1008D02*
X3385Y1008D01*
X1Y1007D02*
X8Y1007D01*
X3378Y1007D02*
X3385Y1007D01*
X1Y1006D02*
X8Y1006D01*
X3378Y1006D02*
X3385Y1006D01*
X1Y1005D02*
X8Y1005D01*
X3378Y1005D02*
X3385Y1005D01*
X1Y1004D02*
X8Y1004D01*
X3378Y1004D02*
X3385Y1004D01*
X1Y1003D02*
X8Y1003D01*
X3378Y1003D02*
X3385Y1003D01*
X1Y1002D02*
X8Y1002D01*
X3378Y1002D02*
X3385Y1002D01*
X1Y1001D02*
X8Y1001D01*
X3378Y1001D02*
X3385Y1001D01*
X1Y1000D02*
X8Y1000D01*
X3378Y1000D02*
X3385Y1000D01*
X1Y999D02*
X8Y999D01*
X3378Y999D02*
X3385Y999D01*
X1Y998D02*
X8Y998D01*
X3378Y998D02*
X3385Y998D01*
X1Y997D02*
X8Y997D01*
X3378Y997D02*
X3385Y997D01*
X1Y996D02*
X8Y996D01*
X3378Y996D02*
X3385Y996D01*
X1Y995D02*
X8Y995D01*
X3378Y995D02*
X3385Y995D01*
X1Y994D02*
X8Y994D01*
X3378Y994D02*
X3385Y994D01*
X1Y993D02*
X8Y993D01*
X3378Y993D02*
X3385Y993D01*
X1Y992D02*
X8Y992D01*
X3378Y992D02*
X3385Y992D01*
X1Y991D02*
X8Y991D01*
X3378Y991D02*
X3385Y991D01*
X1Y990D02*
X8Y990D01*
X3378Y990D02*
X3385Y990D01*
X1Y989D02*
X8Y989D01*
X3378Y989D02*
X3385Y989D01*
X1Y988D02*
X8Y988D01*
X3378Y988D02*
X3385Y988D01*
X1Y987D02*
X8Y987D01*
X3378Y987D02*
X3385Y987D01*
X1Y986D02*
X8Y986D01*
X3378Y986D02*
X3385Y986D01*
X1Y985D02*
X8Y985D01*
X3378Y985D02*
X3385Y985D01*
X1Y984D02*
X8Y984D01*
X3378Y984D02*
X3385Y984D01*
X1Y983D02*
X8Y983D01*
X3378Y983D02*
X3385Y983D01*
X1Y982D02*
X8Y982D01*
X3378Y982D02*
X3385Y982D01*
X1Y981D02*
X8Y981D01*
X3378Y981D02*
X3385Y981D01*
X1Y980D02*
X8Y980D01*
X3378Y980D02*
X3385Y980D01*
X1Y979D02*
X8Y979D01*
X3378Y979D02*
X3385Y979D01*
X1Y978D02*
X8Y978D01*
X3378Y978D02*
X3385Y978D01*
X1Y977D02*
X8Y977D01*
X3378Y977D02*
X3385Y977D01*
X1Y976D02*
X8Y976D01*
X3378Y976D02*
X3385Y976D01*
X1Y975D02*
X8Y975D01*
X3378Y975D02*
X3385Y975D01*
X1Y974D02*
X8Y974D01*
X3378Y974D02*
X3385Y974D01*
X1Y973D02*
X8Y973D01*
X3378Y973D02*
X3385Y973D01*
X1Y972D02*
X8Y972D01*
X3378Y972D02*
X3385Y972D01*
X1Y971D02*
X8Y971D01*
X3378Y971D02*
X3385Y971D01*
X1Y970D02*
X8Y970D01*
X3378Y970D02*
X3385Y970D01*
X1Y969D02*
X8Y969D01*
X3378Y969D02*
X3385Y969D01*
X1Y968D02*
X8Y968D01*
X3378Y968D02*
X3385Y968D01*
X1Y967D02*
X8Y967D01*
X3378Y967D02*
X3385Y967D01*
X1Y966D02*
X8Y966D01*
X3378Y966D02*
X3385Y966D01*
X1Y965D02*
X8Y965D01*
X3378Y965D02*
X3385Y965D01*
X1Y964D02*
X8Y964D01*
X3378Y964D02*
X3385Y964D01*
X1Y963D02*
X8Y963D01*
X3378Y963D02*
X3385Y963D01*
X1Y962D02*
X8Y962D01*
X3378Y962D02*
X3385Y962D01*
X1Y961D02*
X8Y961D01*
X3378Y961D02*
X3385Y961D01*
X1Y960D02*
X8Y960D01*
X3378Y960D02*
X3385Y960D01*
X1Y959D02*
X8Y959D01*
X3378Y959D02*
X3385Y959D01*
X1Y958D02*
X8Y958D01*
X3378Y958D02*
X3385Y958D01*
X1Y957D02*
X8Y957D01*
X3378Y957D02*
X3385Y957D01*
X1Y956D02*
X8Y956D01*
X3378Y956D02*
X3385Y956D01*
X1Y955D02*
X8Y955D01*
X3378Y955D02*
X3385Y955D01*
X1Y954D02*
X8Y954D01*
X3378Y954D02*
X3385Y954D01*
X1Y953D02*
X8Y953D01*
X3378Y953D02*
X3385Y953D01*
X1Y952D02*
X8Y952D01*
X3378Y952D02*
X3385Y952D01*
X1Y951D02*
X8Y951D01*
X3378Y951D02*
X3385Y951D01*
X1Y950D02*
X8Y950D01*
X3378Y950D02*
X3385Y950D01*
X1Y949D02*
X8Y949D01*
X3378Y949D02*
X3385Y949D01*
X1Y948D02*
X8Y948D01*
X3378Y948D02*
X3385Y948D01*
X1Y947D02*
X8Y947D01*
X3378Y947D02*
X3385Y947D01*
X1Y946D02*
X8Y946D01*
X3378Y946D02*
X3385Y946D01*
X1Y945D02*
X8Y945D01*
X3378Y945D02*
X3385Y945D01*
X1Y944D02*
X8Y944D01*
X3378Y944D02*
X3385Y944D01*
X1Y943D02*
X8Y943D01*
X3378Y943D02*
X3385Y943D01*
X1Y942D02*
X8Y942D01*
X3378Y942D02*
X3385Y942D01*
X1Y941D02*
X8Y941D01*
X3378Y941D02*
X3385Y941D01*
X1Y940D02*
X8Y940D01*
X3378Y940D02*
X3385Y940D01*
X1Y939D02*
X8Y939D01*
X3378Y939D02*
X3385Y939D01*
X1Y938D02*
X8Y938D01*
X3378Y938D02*
X3385Y938D01*
X1Y937D02*
X8Y937D01*
X3378Y937D02*
X3385Y937D01*
X1Y936D02*
X8Y936D01*
X3378Y936D02*
X3385Y936D01*
X1Y935D02*
X8Y935D01*
X3378Y935D02*
X3385Y935D01*
X1Y934D02*
X8Y934D01*
X3378Y934D02*
X3385Y934D01*
X1Y933D02*
X8Y933D01*
X3378Y933D02*
X3385Y933D01*
X1Y932D02*
X8Y932D01*
X3378Y932D02*
X3385Y932D01*
X1Y931D02*
X8Y931D01*
X3378Y931D02*
X3385Y931D01*
X1Y930D02*
X8Y930D01*
X3378Y930D02*
X3385Y930D01*
X1Y929D02*
X8Y929D01*
X3378Y929D02*
X3385Y929D01*
X1Y928D02*
X8Y928D01*
X3378Y928D02*
X3385Y928D01*
X1Y927D02*
X8Y927D01*
X3378Y927D02*
X3385Y927D01*
X1Y926D02*
X8Y926D01*
X3378Y926D02*
X3385Y926D01*
X1Y925D02*
X8Y925D01*
X3378Y925D02*
X3385Y925D01*
X1Y924D02*
X8Y924D01*
X3378Y924D02*
X3385Y924D01*
X1Y923D02*
X8Y923D01*
X3378Y923D02*
X3385Y923D01*
X1Y922D02*
X8Y922D01*
X3378Y922D02*
X3385Y922D01*
X1Y921D02*
X8Y921D01*
X3378Y921D02*
X3385Y921D01*
X1Y920D02*
X8Y920D01*
X3378Y920D02*
X3385Y920D01*
X1Y919D02*
X8Y919D01*
X3378Y919D02*
X3385Y919D01*
X1Y918D02*
X8Y918D01*
X3378Y918D02*
X3385Y918D01*
X1Y917D02*
X8Y917D01*
X3378Y917D02*
X3385Y917D01*
X1Y916D02*
X8Y916D01*
X3378Y916D02*
X3385Y916D01*
X1Y915D02*
X8Y915D01*
X3378Y915D02*
X3385Y915D01*
X1Y914D02*
X8Y914D01*
X3378Y914D02*
X3385Y914D01*
X1Y913D02*
X8Y913D01*
X3378Y913D02*
X3385Y913D01*
X1Y912D02*
X8Y912D01*
X3378Y912D02*
X3385Y912D01*
X1Y911D02*
X8Y911D01*
X3378Y911D02*
X3385Y911D01*
X1Y910D02*
X8Y910D01*
X3378Y910D02*
X3385Y910D01*
X1Y909D02*
X8Y909D01*
X3378Y909D02*
X3385Y909D01*
X1Y908D02*
X8Y908D01*
X3378Y908D02*
X3385Y908D01*
X1Y907D02*
X8Y907D01*
X3378Y907D02*
X3385Y907D01*
X1Y906D02*
X8Y906D01*
X3378Y906D02*
X3385Y906D01*
X1Y905D02*
X8Y905D01*
X3378Y905D02*
X3385Y905D01*
X1Y904D02*
X8Y904D01*
X3378Y904D02*
X3385Y904D01*
X1Y903D02*
X8Y903D01*
X3378Y903D02*
X3385Y903D01*
X1Y902D02*
X8Y902D01*
X3378Y902D02*
X3385Y902D01*
X1Y901D02*
X8Y901D01*
X3378Y901D02*
X3385Y901D01*
X1Y900D02*
X8Y900D01*
X3378Y900D02*
X3385Y900D01*
X1Y899D02*
X8Y899D01*
X3378Y899D02*
X3385Y899D01*
X1Y898D02*
X8Y898D01*
X3378Y898D02*
X3385Y898D01*
X1Y897D02*
X8Y897D01*
X3378Y897D02*
X3385Y897D01*
X1Y896D02*
X8Y896D01*
X3378Y896D02*
X3385Y896D01*
X1Y895D02*
X8Y895D01*
X3378Y895D02*
X3385Y895D01*
X1Y894D02*
X8Y894D01*
X3378Y894D02*
X3385Y894D01*
X1Y893D02*
X8Y893D01*
X3378Y893D02*
X3385Y893D01*
X1Y892D02*
X8Y892D01*
X3378Y892D02*
X3385Y892D01*
X1Y891D02*
X8Y891D01*
X3378Y891D02*
X3385Y891D01*
X1Y890D02*
X8Y890D01*
X3378Y890D02*
X3385Y890D01*
X1Y889D02*
X8Y889D01*
X3378Y889D02*
X3385Y889D01*
X1Y888D02*
X8Y888D01*
X3378Y888D02*
X3385Y888D01*
X1Y887D02*
X8Y887D01*
X3378Y887D02*
X3385Y887D01*
X1Y886D02*
X8Y886D01*
X3378Y886D02*
X3385Y886D01*
X1Y885D02*
X8Y885D01*
X3378Y885D02*
X3385Y885D01*
X1Y884D02*
X8Y884D01*
X3378Y884D02*
X3385Y884D01*
X1Y883D02*
X8Y883D01*
X3378Y883D02*
X3385Y883D01*
X1Y882D02*
X8Y882D01*
X3378Y882D02*
X3385Y882D01*
X1Y881D02*
X8Y881D01*
X3378Y881D02*
X3385Y881D01*
X1Y880D02*
X8Y880D01*
X3378Y880D02*
X3385Y880D01*
X1Y879D02*
X8Y879D01*
X3378Y879D02*
X3385Y879D01*
X1Y878D02*
X8Y878D01*
X3378Y878D02*
X3385Y878D01*
X1Y877D02*
X8Y877D01*
X3378Y877D02*
X3385Y877D01*
X1Y876D02*
X8Y876D01*
X3378Y876D02*
X3385Y876D01*
X1Y875D02*
X8Y875D01*
X3378Y875D02*
X3385Y875D01*
X1Y874D02*
X8Y874D01*
X3378Y874D02*
X3385Y874D01*
X1Y873D02*
X8Y873D01*
X3378Y873D02*
X3385Y873D01*
X1Y872D02*
X8Y872D01*
X3378Y872D02*
X3385Y872D01*
X1Y871D02*
X8Y871D01*
X3378Y871D02*
X3385Y871D01*
X1Y870D02*
X8Y870D01*
X3378Y870D02*
X3385Y870D01*
X1Y869D02*
X8Y869D01*
X3378Y869D02*
X3385Y869D01*
X1Y868D02*
X8Y868D01*
X3378Y868D02*
X3385Y868D01*
X1Y867D02*
X8Y867D01*
X3378Y867D02*
X3385Y867D01*
X1Y866D02*
X8Y866D01*
X3378Y866D02*
X3385Y866D01*
X1Y865D02*
X8Y865D01*
X3378Y865D02*
X3385Y865D01*
X1Y864D02*
X8Y864D01*
X3378Y864D02*
X3385Y864D01*
X1Y863D02*
X8Y863D01*
X3378Y863D02*
X3385Y863D01*
X1Y862D02*
X8Y862D01*
X3378Y862D02*
X3385Y862D01*
X1Y861D02*
X8Y861D01*
X3378Y861D02*
X3385Y861D01*
X1Y860D02*
X8Y860D01*
X3378Y860D02*
X3385Y860D01*
X1Y859D02*
X8Y859D01*
X3378Y859D02*
X3385Y859D01*
X1Y858D02*
X8Y858D01*
X3378Y858D02*
X3385Y858D01*
X1Y857D02*
X8Y857D01*
X3378Y857D02*
X3385Y857D01*
X1Y856D02*
X8Y856D01*
X3378Y856D02*
X3385Y856D01*
X1Y855D02*
X8Y855D01*
X3378Y855D02*
X3385Y855D01*
X1Y854D02*
X8Y854D01*
X3378Y854D02*
X3385Y854D01*
X1Y853D02*
X8Y853D01*
X3378Y853D02*
X3385Y853D01*
X1Y852D02*
X8Y852D01*
X3378Y852D02*
X3385Y852D01*
X1Y851D02*
X8Y851D01*
X3378Y851D02*
X3385Y851D01*
X1Y850D02*
X8Y850D01*
X3378Y850D02*
X3385Y850D01*
X1Y849D02*
X8Y849D01*
X3378Y849D02*
X3385Y849D01*
X1Y848D02*
X8Y848D01*
X3378Y848D02*
X3385Y848D01*
X1Y847D02*
X8Y847D01*
X3378Y847D02*
X3385Y847D01*
X1Y846D02*
X8Y846D01*
X3378Y846D02*
X3385Y846D01*
X1Y845D02*
X8Y845D01*
X3378Y845D02*
X3385Y845D01*
X1Y844D02*
X8Y844D01*
X3378Y844D02*
X3385Y844D01*
X1Y843D02*
X8Y843D01*
X3378Y843D02*
X3385Y843D01*
X1Y842D02*
X8Y842D01*
X3378Y842D02*
X3385Y842D01*
X1Y841D02*
X8Y841D01*
X3378Y841D02*
X3385Y841D01*
X1Y840D02*
X8Y840D01*
X3378Y840D02*
X3385Y840D01*
X1Y839D02*
X8Y839D01*
X3378Y839D02*
X3385Y839D01*
X1Y838D02*
X8Y838D01*
X3378Y838D02*
X3385Y838D01*
X1Y837D02*
X8Y837D01*
X3378Y837D02*
X3385Y837D01*
X1Y836D02*
X8Y836D01*
X3378Y836D02*
X3385Y836D01*
X1Y835D02*
X8Y835D01*
X3378Y835D02*
X3385Y835D01*
X1Y834D02*
X8Y834D01*
X3378Y834D02*
X3385Y834D01*
X1Y833D02*
X8Y833D01*
X3378Y833D02*
X3385Y833D01*
X1Y832D02*
X8Y832D01*
X3378Y832D02*
X3385Y832D01*
X1Y831D02*
X8Y831D01*
X3378Y831D02*
X3385Y831D01*
X1Y830D02*
X8Y830D01*
X3378Y830D02*
X3385Y830D01*
X1Y829D02*
X8Y829D01*
X3378Y829D02*
X3385Y829D01*
X1Y828D02*
X8Y828D01*
X3378Y828D02*
X3385Y828D01*
X1Y827D02*
X8Y827D01*
X3378Y827D02*
X3385Y827D01*
X1Y826D02*
X8Y826D01*
X3378Y826D02*
X3385Y826D01*
X1Y825D02*
X8Y825D01*
X3378Y825D02*
X3385Y825D01*
X1Y824D02*
X8Y824D01*
X3378Y824D02*
X3385Y824D01*
X1Y823D02*
X8Y823D01*
X3378Y823D02*
X3385Y823D01*
X1Y822D02*
X8Y822D01*
X3378Y822D02*
X3385Y822D01*
X1Y821D02*
X8Y821D01*
X3378Y821D02*
X3385Y821D01*
X1Y820D02*
X8Y820D01*
X3378Y820D02*
X3385Y820D01*
X1Y819D02*
X8Y819D01*
X3378Y819D02*
X3385Y819D01*
X1Y818D02*
X8Y818D01*
X3378Y818D02*
X3385Y818D01*
X1Y817D02*
X8Y817D01*
X3378Y817D02*
X3385Y817D01*
X1Y816D02*
X8Y816D01*
X3378Y816D02*
X3385Y816D01*
X1Y815D02*
X8Y815D01*
X3378Y815D02*
X3385Y815D01*
X1Y814D02*
X8Y814D01*
X3378Y814D02*
X3385Y814D01*
X1Y813D02*
X8Y813D01*
X3378Y813D02*
X3385Y813D01*
X1Y812D02*
X8Y812D01*
X3378Y812D02*
X3385Y812D01*
X1Y811D02*
X8Y811D01*
X3378Y811D02*
X3385Y811D01*
X1Y810D02*
X8Y810D01*
X3378Y810D02*
X3385Y810D01*
X1Y809D02*
X8Y809D01*
X3378Y809D02*
X3385Y809D01*
X1Y808D02*
X8Y808D01*
X3378Y808D02*
X3385Y808D01*
X1Y807D02*
X8Y807D01*
X3378Y807D02*
X3385Y807D01*
X1Y806D02*
X8Y806D01*
X3378Y806D02*
X3385Y806D01*
X1Y805D02*
X8Y805D01*
X3378Y805D02*
X3385Y805D01*
X1Y804D02*
X8Y804D01*
X3378Y804D02*
X3385Y804D01*
X1Y803D02*
X8Y803D01*
X3378Y803D02*
X3385Y803D01*
X1Y802D02*
X8Y802D01*
X3378Y802D02*
X3385Y802D01*
X1Y801D02*
X8Y801D01*
X3378Y801D02*
X3385Y801D01*
X1Y800D02*
X8Y800D01*
X3378Y800D02*
X3385Y800D01*
X1Y799D02*
X8Y799D01*
X3378Y799D02*
X3385Y799D01*
X1Y798D02*
X8Y798D01*
X3378Y798D02*
X3385Y798D01*
X1Y797D02*
X8Y797D01*
X3378Y797D02*
X3385Y797D01*
X1Y796D02*
X8Y796D01*
X3378Y796D02*
X3385Y796D01*
X1Y795D02*
X8Y795D01*
X3378Y795D02*
X3385Y795D01*
X1Y794D02*
X8Y794D01*
X3378Y794D02*
X3385Y794D01*
X1Y793D02*
X8Y793D01*
X3378Y793D02*
X3385Y793D01*
X1Y792D02*
X8Y792D01*
X3378Y792D02*
X3385Y792D01*
X1Y791D02*
X8Y791D01*
X3378Y791D02*
X3385Y791D01*
X1Y790D02*
X8Y790D01*
X3378Y790D02*
X3385Y790D01*
X1Y789D02*
X8Y789D01*
X3378Y789D02*
X3385Y789D01*
X1Y788D02*
X8Y788D01*
X3378Y788D02*
X3385Y788D01*
X1Y787D02*
X8Y787D01*
X3378Y787D02*
X3385Y787D01*
X1Y786D02*
X8Y786D01*
X3378Y786D02*
X3385Y786D01*
X1Y785D02*
X8Y785D01*
X3378Y785D02*
X3385Y785D01*
X1Y784D02*
X8Y784D01*
X3378Y784D02*
X3385Y784D01*
X1Y783D02*
X8Y783D01*
X3378Y783D02*
X3385Y783D01*
X1Y782D02*
X8Y782D01*
X3378Y782D02*
X3385Y782D01*
X1Y781D02*
X8Y781D01*
X3378Y781D02*
X3385Y781D01*
X1Y780D02*
X8Y780D01*
X3378Y780D02*
X3385Y780D01*
X1Y779D02*
X8Y779D01*
X3378Y779D02*
X3385Y779D01*
X1Y778D02*
X8Y778D01*
X3378Y778D02*
X3385Y778D01*
X1Y777D02*
X8Y777D01*
X3378Y777D02*
X3385Y777D01*
X1Y776D02*
X8Y776D01*
X3378Y776D02*
X3385Y776D01*
X1Y775D02*
X8Y775D01*
X3378Y775D02*
X3385Y775D01*
X1Y774D02*
X8Y774D01*
X3378Y774D02*
X3385Y774D01*
X1Y773D02*
X8Y773D01*
X3378Y773D02*
X3385Y773D01*
X1Y772D02*
X8Y772D01*
X3378Y772D02*
X3385Y772D01*
X1Y771D02*
X8Y771D01*
X3378Y771D02*
X3385Y771D01*
X1Y770D02*
X8Y770D01*
X3378Y770D02*
X3385Y770D01*
X1Y769D02*
X8Y769D01*
X3378Y769D02*
X3385Y769D01*
X1Y768D02*
X8Y768D01*
X3378Y768D02*
X3385Y768D01*
X1Y767D02*
X8Y767D01*
X3378Y767D02*
X3385Y767D01*
X1Y766D02*
X8Y766D01*
X3378Y766D02*
X3385Y766D01*
X1Y765D02*
X8Y765D01*
X3378Y765D02*
X3385Y765D01*
X1Y764D02*
X8Y764D01*
X3378Y764D02*
X3385Y764D01*
X1Y763D02*
X8Y763D01*
X3378Y763D02*
X3385Y763D01*
X1Y762D02*
X8Y762D01*
X3378Y762D02*
X3385Y762D01*
X1Y761D02*
X8Y761D01*
X3378Y761D02*
X3385Y761D01*
X1Y760D02*
X8Y760D01*
X3378Y760D02*
X3385Y760D01*
X1Y759D02*
X8Y759D01*
X3378Y759D02*
X3385Y759D01*
X1Y758D02*
X8Y758D01*
X3378Y758D02*
X3385Y758D01*
X1Y757D02*
X8Y757D01*
X3378Y757D02*
X3385Y757D01*
X1Y756D02*
X8Y756D01*
X3378Y756D02*
X3385Y756D01*
X1Y755D02*
X8Y755D01*
X3378Y755D02*
X3385Y755D01*
X1Y754D02*
X8Y754D01*
X3378Y754D02*
X3385Y754D01*
X1Y753D02*
X8Y753D01*
X3378Y753D02*
X3385Y753D01*
X1Y752D02*
X8Y752D01*
X3378Y752D02*
X3385Y752D01*
X1Y751D02*
X8Y751D01*
X3378Y751D02*
X3385Y751D01*
X1Y750D02*
X8Y750D01*
X3378Y750D02*
X3385Y750D01*
X1Y749D02*
X8Y749D01*
X3378Y749D02*
X3385Y749D01*
X1Y748D02*
X8Y748D01*
X3378Y748D02*
X3385Y748D01*
X1Y747D02*
X8Y747D01*
X3378Y747D02*
X3385Y747D01*
X1Y746D02*
X8Y746D01*
X3378Y746D02*
X3385Y746D01*
X1Y745D02*
X8Y745D01*
X3378Y745D02*
X3385Y745D01*
X1Y744D02*
X8Y744D01*
X3378Y744D02*
X3385Y744D01*
X1Y743D02*
X8Y743D01*
X3378Y743D02*
X3385Y743D01*
X1Y742D02*
X8Y742D01*
X3378Y742D02*
X3385Y742D01*
X1Y741D02*
X8Y741D01*
X3378Y741D02*
X3385Y741D01*
X1Y740D02*
X8Y740D01*
X3378Y740D02*
X3385Y740D01*
X1Y739D02*
X8Y739D01*
X3378Y739D02*
X3385Y739D01*
X1Y738D02*
X8Y738D01*
X3378Y738D02*
X3385Y738D01*
X1Y737D02*
X8Y737D01*
X3378Y737D02*
X3385Y737D01*
X1Y736D02*
X8Y736D01*
X3378Y736D02*
X3385Y736D01*
X1Y735D02*
X8Y735D01*
X3378Y735D02*
X3385Y735D01*
X1Y734D02*
X8Y734D01*
X3378Y734D02*
X3385Y734D01*
X1Y733D02*
X8Y733D01*
X3378Y733D02*
X3385Y733D01*
X1Y732D02*
X8Y732D01*
X3378Y732D02*
X3385Y732D01*
X1Y731D02*
X8Y731D01*
X3378Y731D02*
X3385Y731D01*
X1Y730D02*
X8Y730D01*
X3378Y730D02*
X3385Y730D01*
X1Y729D02*
X8Y729D01*
X3378Y729D02*
X3385Y729D01*
X1Y728D02*
X8Y728D01*
X3378Y728D02*
X3385Y728D01*
X1Y727D02*
X8Y727D01*
X3378Y727D02*
X3385Y727D01*
X1Y726D02*
X8Y726D01*
X3378Y726D02*
X3385Y726D01*
X1Y725D02*
X8Y725D01*
X3378Y725D02*
X3385Y725D01*
X1Y724D02*
X8Y724D01*
X3378Y724D02*
X3385Y724D01*
X1Y723D02*
X8Y723D01*
X3378Y723D02*
X3385Y723D01*
X1Y722D02*
X8Y722D01*
X3378Y722D02*
X3385Y722D01*
X1Y721D02*
X8Y721D01*
X3378Y721D02*
X3385Y721D01*
X1Y720D02*
X8Y720D01*
X3378Y720D02*
X3385Y720D01*
X1Y719D02*
X8Y719D01*
X3378Y719D02*
X3385Y719D01*
X1Y718D02*
X8Y718D01*
X3378Y718D02*
X3385Y718D01*
X1Y717D02*
X8Y717D01*
X3378Y717D02*
X3385Y717D01*
X1Y716D02*
X8Y716D01*
X3378Y716D02*
X3385Y716D01*
X1Y715D02*
X8Y715D01*
X3378Y715D02*
X3385Y715D01*
X1Y714D02*
X8Y714D01*
X3378Y714D02*
X3385Y714D01*
X1Y713D02*
X8Y713D01*
X3378Y713D02*
X3385Y713D01*
X1Y712D02*
X8Y712D01*
X3378Y712D02*
X3385Y712D01*
X1Y711D02*
X8Y711D01*
X3378Y711D02*
X3385Y711D01*
X1Y710D02*
X8Y710D01*
X3378Y710D02*
X3385Y710D01*
X1Y709D02*
X8Y709D01*
X3378Y709D02*
X3385Y709D01*
X1Y708D02*
X8Y708D01*
X3378Y708D02*
X3385Y708D01*
X1Y707D02*
X8Y707D01*
X3378Y707D02*
X3385Y707D01*
X1Y706D02*
X8Y706D01*
X3378Y706D02*
X3385Y706D01*
X1Y705D02*
X8Y705D01*
X3378Y705D02*
X3385Y705D01*
X1Y704D02*
X8Y704D01*
X3378Y704D02*
X3385Y704D01*
X1Y703D02*
X8Y703D01*
X3378Y703D02*
X3385Y703D01*
X1Y702D02*
X8Y702D01*
X3378Y702D02*
X3385Y702D01*
X1Y701D02*
X8Y701D01*
X3378Y701D02*
X3385Y701D01*
X1Y700D02*
X8Y700D01*
X3378Y700D02*
X3385Y700D01*
X1Y699D02*
X8Y699D01*
X3378Y699D02*
X3385Y699D01*
X1Y698D02*
X8Y698D01*
X3378Y698D02*
X3385Y698D01*
X1Y697D02*
X8Y697D01*
X3378Y697D02*
X3385Y697D01*
X1Y696D02*
X8Y696D01*
X3378Y696D02*
X3385Y696D01*
X1Y695D02*
X8Y695D01*
X3378Y695D02*
X3385Y695D01*
X1Y694D02*
X8Y694D01*
X3378Y694D02*
X3385Y694D01*
X1Y693D02*
X8Y693D01*
X3378Y693D02*
X3385Y693D01*
X1Y692D02*
X8Y692D01*
X3378Y692D02*
X3385Y692D01*
X1Y691D02*
X8Y691D01*
X3378Y691D02*
X3385Y691D01*
X1Y690D02*
X8Y690D01*
X3378Y690D02*
X3385Y690D01*
X1Y689D02*
X8Y689D01*
X3378Y689D02*
X3385Y689D01*
X1Y688D02*
X8Y688D01*
X3378Y688D02*
X3385Y688D01*
X1Y687D02*
X8Y687D01*
X3378Y687D02*
X3385Y687D01*
X1Y686D02*
X8Y686D01*
X3378Y686D02*
X3385Y686D01*
X1Y685D02*
X8Y685D01*
X3378Y685D02*
X3385Y685D01*
X1Y684D02*
X8Y684D01*
X3378Y684D02*
X3385Y684D01*
X1Y683D02*
X8Y683D01*
X3378Y683D02*
X3385Y683D01*
X1Y682D02*
X8Y682D01*
X3378Y682D02*
X3385Y682D01*
X1Y681D02*
X8Y681D01*
X3378Y681D02*
X3385Y681D01*
X1Y680D02*
X8Y680D01*
X3378Y680D02*
X3385Y680D01*
X1Y679D02*
X8Y679D01*
X3378Y679D02*
X3385Y679D01*
X1Y678D02*
X8Y678D01*
X3378Y678D02*
X3385Y678D01*
X1Y677D02*
X8Y677D01*
X3378Y677D02*
X3385Y677D01*
X1Y676D02*
X8Y676D01*
X3378Y676D02*
X3385Y676D01*
X1Y675D02*
X8Y675D01*
X3378Y675D02*
X3385Y675D01*
X1Y674D02*
X8Y674D01*
X3378Y674D02*
X3385Y674D01*
X1Y673D02*
X8Y673D01*
X3378Y673D02*
X3385Y673D01*
X1Y672D02*
X8Y672D01*
X3378Y672D02*
X3385Y672D01*
X1Y671D02*
X8Y671D01*
X3378Y671D02*
X3385Y671D01*
X1Y670D02*
X8Y670D01*
X3378Y670D02*
X3385Y670D01*
X1Y669D02*
X8Y669D01*
X3378Y669D02*
X3385Y669D01*
X1Y668D02*
X8Y668D01*
X3378Y668D02*
X3385Y668D01*
X1Y667D02*
X8Y667D01*
X3378Y667D02*
X3385Y667D01*
X1Y666D02*
X8Y666D01*
X3378Y666D02*
X3385Y666D01*
X1Y665D02*
X8Y665D01*
X3378Y665D02*
X3385Y665D01*
X1Y664D02*
X8Y664D01*
X3378Y664D02*
X3385Y664D01*
X1Y663D02*
X8Y663D01*
X3378Y663D02*
X3385Y663D01*
X1Y662D02*
X8Y662D01*
X3378Y662D02*
X3385Y662D01*
X1Y661D02*
X8Y661D01*
X3378Y661D02*
X3385Y661D01*
X1Y660D02*
X8Y660D01*
X3378Y660D02*
X3385Y660D01*
X1Y659D02*
X8Y659D01*
X3378Y659D02*
X3385Y659D01*
X1Y658D02*
X8Y658D01*
X3378Y658D02*
X3385Y658D01*
X1Y657D02*
X8Y657D01*
X3378Y657D02*
X3385Y657D01*
X1Y656D02*
X8Y656D01*
X3378Y656D02*
X3385Y656D01*
X1Y655D02*
X8Y655D01*
X3378Y655D02*
X3385Y655D01*
X1Y654D02*
X8Y654D01*
X3378Y654D02*
X3385Y654D01*
X1Y653D02*
X8Y653D01*
X3378Y653D02*
X3385Y653D01*
X1Y652D02*
X8Y652D01*
X3378Y652D02*
X3385Y652D01*
X1Y651D02*
X8Y651D01*
X3378Y651D02*
X3385Y651D01*
X1Y650D02*
X8Y650D01*
X3378Y650D02*
X3385Y650D01*
X1Y649D02*
X8Y649D01*
X3378Y649D02*
X3385Y649D01*
X1Y648D02*
X8Y648D01*
X3378Y648D02*
X3385Y648D01*
X1Y647D02*
X8Y647D01*
X3378Y647D02*
X3385Y647D01*
X1Y646D02*
X8Y646D01*
X3378Y646D02*
X3385Y646D01*
X1Y645D02*
X8Y645D01*
X3378Y645D02*
X3385Y645D01*
X1Y644D02*
X8Y644D01*
X3378Y644D02*
X3385Y644D01*
X1Y643D02*
X8Y643D01*
X3378Y643D02*
X3385Y643D01*
X1Y642D02*
X8Y642D01*
X3378Y642D02*
X3385Y642D01*
X1Y641D02*
X8Y641D01*
X3378Y641D02*
X3385Y641D01*
X1Y640D02*
X8Y640D01*
X3378Y640D02*
X3385Y640D01*
X1Y639D02*
X8Y639D01*
X3378Y639D02*
X3385Y639D01*
X1Y638D02*
X8Y638D01*
X3378Y638D02*
X3385Y638D01*
X1Y637D02*
X8Y637D01*
X3378Y637D02*
X3385Y637D01*
X1Y636D02*
X8Y636D01*
X3378Y636D02*
X3385Y636D01*
X1Y635D02*
X8Y635D01*
X3378Y635D02*
X3385Y635D01*
X1Y634D02*
X8Y634D01*
X3378Y634D02*
X3385Y634D01*
X1Y633D02*
X8Y633D01*
X3378Y633D02*
X3385Y633D01*
X1Y632D02*
X8Y632D01*
X3378Y632D02*
X3385Y632D01*
X1Y631D02*
X8Y631D01*
X3378Y631D02*
X3385Y631D01*
X1Y630D02*
X8Y630D01*
X3378Y630D02*
X3385Y630D01*
X1Y629D02*
X8Y629D01*
X3378Y629D02*
X3385Y629D01*
X1Y628D02*
X8Y628D01*
X3378Y628D02*
X3385Y628D01*
X1Y627D02*
X8Y627D01*
X3378Y627D02*
X3385Y627D01*
X1Y626D02*
X8Y626D01*
X3378Y626D02*
X3385Y626D01*
X1Y625D02*
X8Y625D01*
X3378Y625D02*
X3385Y625D01*
X1Y624D02*
X8Y624D01*
X3378Y624D02*
X3385Y624D01*
X1Y623D02*
X8Y623D01*
X3378Y623D02*
X3385Y623D01*
X1Y622D02*
X8Y622D01*
X3378Y622D02*
X3385Y622D01*
X1Y621D02*
X8Y621D01*
X3378Y621D02*
X3385Y621D01*
X1Y620D02*
X8Y620D01*
X3378Y620D02*
X3385Y620D01*
X1Y619D02*
X8Y619D01*
X3378Y619D02*
X3385Y619D01*
X1Y618D02*
X8Y618D01*
X3378Y618D02*
X3385Y618D01*
X1Y617D02*
X8Y617D01*
X3378Y617D02*
X3385Y617D01*
X1Y616D02*
X8Y616D01*
X3378Y616D02*
X3385Y616D01*
X1Y615D02*
X8Y615D01*
X3378Y615D02*
X3385Y615D01*
X1Y614D02*
X8Y614D01*
X3378Y614D02*
X3385Y614D01*
X1Y613D02*
X8Y613D01*
X3378Y613D02*
X3385Y613D01*
X1Y612D02*
X8Y612D01*
X3378Y612D02*
X3385Y612D01*
X1Y611D02*
X8Y611D01*
X3378Y611D02*
X3385Y611D01*
X1Y610D02*
X8Y610D01*
X3378Y610D02*
X3385Y610D01*
X1Y609D02*
X8Y609D01*
X3378Y609D02*
X3385Y609D01*
X1Y608D02*
X8Y608D01*
X3378Y608D02*
X3385Y608D01*
X1Y607D02*
X8Y607D01*
X3378Y607D02*
X3385Y607D01*
X1Y606D02*
X8Y606D01*
X3378Y606D02*
X3385Y606D01*
X1Y605D02*
X8Y605D01*
X3378Y605D02*
X3385Y605D01*
X1Y604D02*
X8Y604D01*
X3378Y604D02*
X3385Y604D01*
X1Y603D02*
X8Y603D01*
X3378Y603D02*
X3385Y603D01*
X1Y602D02*
X8Y602D01*
X3378Y602D02*
X3385Y602D01*
X1Y601D02*
X8Y601D01*
X3378Y601D02*
X3385Y601D01*
X1Y600D02*
X8Y600D01*
X3378Y600D02*
X3385Y600D01*
X1Y599D02*
X8Y599D01*
X3378Y599D02*
X3385Y599D01*
X1Y598D02*
X8Y598D01*
X3378Y598D02*
X3385Y598D01*
X1Y597D02*
X8Y597D01*
X3378Y597D02*
X3385Y597D01*
X1Y596D02*
X8Y596D01*
X3378Y596D02*
X3385Y596D01*
X1Y595D02*
X8Y595D01*
X3378Y595D02*
X3385Y595D01*
X1Y594D02*
X8Y594D01*
X3378Y594D02*
X3385Y594D01*
X1Y593D02*
X8Y593D01*
X3378Y593D02*
X3385Y593D01*
X1Y592D02*
X8Y592D01*
X3378Y592D02*
X3385Y592D01*
X1Y591D02*
X8Y591D01*
X3378Y591D02*
X3385Y591D01*
X1Y590D02*
X8Y590D01*
X3378Y590D02*
X3385Y590D01*
X1Y589D02*
X8Y589D01*
X3378Y589D02*
X3385Y589D01*
X1Y588D02*
X8Y588D01*
X3378Y588D02*
X3385Y588D01*
X1Y587D02*
X8Y587D01*
X3378Y587D02*
X3385Y587D01*
X1Y586D02*
X8Y586D01*
X3378Y586D02*
X3385Y586D01*
X1Y585D02*
X8Y585D01*
X3378Y585D02*
X3385Y585D01*
X1Y584D02*
X8Y584D01*
X3378Y584D02*
X3385Y584D01*
X1Y583D02*
X8Y583D01*
X3378Y583D02*
X3385Y583D01*
X1Y582D02*
X8Y582D01*
X3378Y582D02*
X3385Y582D01*
X1Y581D02*
X8Y581D01*
X3378Y581D02*
X3385Y581D01*
X1Y580D02*
X8Y580D01*
X3378Y580D02*
X3385Y580D01*
X1Y579D02*
X8Y579D01*
X3378Y579D02*
X3385Y579D01*
X1Y578D02*
X8Y578D01*
X3378Y578D02*
X3385Y578D01*
X1Y577D02*
X8Y577D01*
X3378Y577D02*
X3385Y577D01*
X1Y576D02*
X8Y576D01*
X3378Y576D02*
X3385Y576D01*
X1Y575D02*
X8Y575D01*
X3378Y575D02*
X3385Y575D01*
X1Y574D02*
X8Y574D01*
X3378Y574D02*
X3385Y574D01*
X1Y573D02*
X8Y573D01*
X3378Y573D02*
X3385Y573D01*
X1Y572D02*
X8Y572D01*
X3378Y572D02*
X3385Y572D01*
X1Y571D02*
X8Y571D01*
X3378Y571D02*
X3385Y571D01*
X1Y570D02*
X8Y570D01*
X3378Y570D02*
X3385Y570D01*
X1Y569D02*
X8Y569D01*
X3378Y569D02*
X3385Y569D01*
X1Y568D02*
X8Y568D01*
X3378Y568D02*
X3385Y568D01*
X1Y567D02*
X8Y567D01*
X3378Y567D02*
X3385Y567D01*
X1Y566D02*
X8Y566D01*
X3378Y566D02*
X3385Y566D01*
X1Y565D02*
X8Y565D01*
X3378Y565D02*
X3385Y565D01*
X1Y564D02*
X8Y564D01*
X3378Y564D02*
X3385Y564D01*
X1Y563D02*
X8Y563D01*
X3378Y563D02*
X3385Y563D01*
X1Y562D02*
X8Y562D01*
X3378Y562D02*
X3385Y562D01*
X1Y561D02*
X8Y561D01*
X3378Y561D02*
X3385Y561D01*
X1Y560D02*
X8Y560D01*
X3378Y560D02*
X3385Y560D01*
X1Y559D02*
X8Y559D01*
X3378Y559D02*
X3385Y559D01*
X1Y558D02*
X8Y558D01*
X3378Y558D02*
X3385Y558D01*
X1Y557D02*
X8Y557D01*
X3378Y557D02*
X3385Y557D01*
X1Y556D02*
X8Y556D01*
X3378Y556D02*
X3385Y556D01*
X1Y555D02*
X8Y555D01*
X3378Y555D02*
X3385Y555D01*
X1Y554D02*
X8Y554D01*
X3378Y554D02*
X3385Y554D01*
X1Y553D02*
X8Y553D01*
X3378Y553D02*
X3385Y553D01*
X1Y552D02*
X8Y552D01*
X3378Y552D02*
X3385Y552D01*
X1Y551D02*
X8Y551D01*
X3378Y551D02*
X3385Y551D01*
X1Y550D02*
X8Y550D01*
X3378Y550D02*
X3385Y550D01*
X1Y549D02*
X8Y549D01*
X3378Y549D02*
X3385Y549D01*
X1Y548D02*
X8Y548D01*
X3378Y548D02*
X3385Y548D01*
X1Y547D02*
X8Y547D01*
X3378Y547D02*
X3385Y547D01*
X1Y546D02*
X8Y546D01*
X3378Y546D02*
X3385Y546D01*
X1Y545D02*
X8Y545D01*
X3378Y545D02*
X3385Y545D01*
X1Y544D02*
X8Y544D01*
X3378Y544D02*
X3385Y544D01*
X1Y543D02*
X8Y543D01*
X3378Y543D02*
X3385Y543D01*
X1Y542D02*
X8Y542D01*
X3378Y542D02*
X3385Y542D01*
X1Y541D02*
X8Y541D01*
X3378Y541D02*
X3385Y541D01*
X1Y540D02*
X8Y540D01*
X3378Y540D02*
X3385Y540D01*
X1Y539D02*
X8Y539D01*
X3378Y539D02*
X3385Y539D01*
X1Y538D02*
X8Y538D01*
X3378Y538D02*
X3385Y538D01*
X1Y537D02*
X8Y537D01*
X3378Y537D02*
X3385Y537D01*
X1Y536D02*
X8Y536D01*
X3378Y536D02*
X3385Y536D01*
X1Y535D02*
X8Y535D01*
X3378Y535D02*
X3385Y535D01*
X1Y534D02*
X8Y534D01*
X3378Y534D02*
X3385Y534D01*
X1Y533D02*
X8Y533D01*
X3378Y533D02*
X3385Y533D01*
X1Y532D02*
X8Y532D01*
X3378Y532D02*
X3385Y532D01*
X1Y531D02*
X8Y531D01*
X3378Y531D02*
X3385Y531D01*
X1Y530D02*
X8Y530D01*
X3378Y530D02*
X3385Y530D01*
X1Y529D02*
X8Y529D01*
X3378Y529D02*
X3385Y529D01*
X1Y528D02*
X8Y528D01*
X3378Y528D02*
X3385Y528D01*
X1Y527D02*
X8Y527D01*
X3378Y527D02*
X3385Y527D01*
X1Y526D02*
X8Y526D01*
X3378Y526D02*
X3385Y526D01*
X1Y525D02*
X8Y525D01*
X3378Y525D02*
X3385Y525D01*
X1Y524D02*
X8Y524D01*
X3378Y524D02*
X3385Y524D01*
X1Y523D02*
X8Y523D01*
X3378Y523D02*
X3385Y523D01*
X1Y522D02*
X8Y522D01*
X3378Y522D02*
X3385Y522D01*
X1Y521D02*
X8Y521D01*
X3378Y521D02*
X3385Y521D01*
X1Y520D02*
X8Y520D01*
X3378Y520D02*
X3385Y520D01*
X1Y519D02*
X8Y519D01*
X3378Y519D02*
X3385Y519D01*
X1Y518D02*
X8Y518D01*
X3378Y518D02*
X3385Y518D01*
X1Y517D02*
X8Y517D01*
X3378Y517D02*
X3385Y517D01*
X1Y516D02*
X8Y516D01*
X3378Y516D02*
X3385Y516D01*
X1Y515D02*
X8Y515D01*
X3378Y515D02*
X3385Y515D01*
X1Y514D02*
X8Y514D01*
X3378Y514D02*
X3385Y514D01*
X1Y513D02*
X8Y513D01*
X3378Y513D02*
X3385Y513D01*
X1Y512D02*
X8Y512D01*
X3378Y512D02*
X3385Y512D01*
X1Y511D02*
X8Y511D01*
X3378Y511D02*
X3385Y511D01*
X1Y510D02*
X8Y510D01*
X3378Y510D02*
X3385Y510D01*
X1Y509D02*
X8Y509D01*
X3378Y509D02*
X3385Y509D01*
X1Y508D02*
X8Y508D01*
X3378Y508D02*
X3385Y508D01*
X1Y507D02*
X8Y507D01*
X3378Y507D02*
X3385Y507D01*
X1Y506D02*
X8Y506D01*
X3378Y506D02*
X3385Y506D01*
X1Y505D02*
X8Y505D01*
X3378Y505D02*
X3385Y505D01*
X1Y504D02*
X8Y504D01*
X3378Y504D02*
X3385Y504D01*
X1Y503D02*
X8Y503D01*
X3378Y503D02*
X3385Y503D01*
X1Y502D02*
X8Y502D01*
X3378Y502D02*
X3385Y502D01*
X1Y501D02*
X8Y501D01*
X3378Y501D02*
X3385Y501D01*
X1Y500D02*
X8Y500D01*
X3378Y500D02*
X3385Y500D01*
X1Y499D02*
X8Y499D01*
X3378Y499D02*
X3385Y499D01*
X1Y498D02*
X8Y498D01*
X3378Y498D02*
X3385Y498D01*
X1Y497D02*
X8Y497D01*
X3378Y497D02*
X3385Y497D01*
X1Y496D02*
X8Y496D01*
X3378Y496D02*
X3385Y496D01*
X1Y495D02*
X8Y495D01*
X3378Y495D02*
X3385Y495D01*
X1Y494D02*
X8Y494D01*
X3378Y494D02*
X3385Y494D01*
X1Y493D02*
X8Y493D01*
X3378Y493D02*
X3385Y493D01*
X1Y492D02*
X8Y492D01*
X3378Y492D02*
X3385Y492D01*
X1Y491D02*
X8Y491D01*
X3378Y491D02*
X3385Y491D01*
X1Y490D02*
X8Y490D01*
X3378Y490D02*
X3385Y490D01*
X1Y489D02*
X8Y489D01*
X3378Y489D02*
X3385Y489D01*
X1Y488D02*
X8Y488D01*
X3378Y488D02*
X3385Y488D01*
X1Y487D02*
X8Y487D01*
X3378Y487D02*
X3385Y487D01*
X1Y486D02*
X8Y486D01*
X3378Y486D02*
X3385Y486D01*
X1Y485D02*
X8Y485D01*
X3378Y485D02*
X3385Y485D01*
X1Y484D02*
X8Y484D01*
X3378Y484D02*
X3385Y484D01*
X1Y483D02*
X8Y483D01*
X3378Y483D02*
X3385Y483D01*
X1Y482D02*
X8Y482D01*
X3378Y482D02*
X3385Y482D01*
X1Y481D02*
X8Y481D01*
X3378Y481D02*
X3385Y481D01*
X1Y480D02*
X8Y480D01*
X3378Y480D02*
X3385Y480D01*
X1Y479D02*
X8Y479D01*
X3378Y479D02*
X3385Y479D01*
X1Y478D02*
X8Y478D01*
X3378Y478D02*
X3385Y478D01*
X1Y477D02*
X8Y477D01*
X3378Y477D02*
X3385Y477D01*
X1Y476D02*
X8Y476D01*
X3378Y476D02*
X3385Y476D01*
X1Y475D02*
X8Y475D01*
X3378Y475D02*
X3385Y475D01*
X1Y474D02*
X8Y474D01*
X3378Y474D02*
X3385Y474D01*
X1Y473D02*
X8Y473D01*
X3378Y473D02*
X3385Y473D01*
X1Y472D02*
X8Y472D01*
X3378Y472D02*
X3385Y472D01*
X1Y471D02*
X8Y471D01*
X3378Y471D02*
X3385Y471D01*
X1Y470D02*
X8Y470D01*
X3378Y470D02*
X3385Y470D01*
X1Y469D02*
X8Y469D01*
X3378Y469D02*
X3385Y469D01*
X1Y468D02*
X8Y468D01*
X3378Y468D02*
X3385Y468D01*
X1Y467D02*
X8Y467D01*
X3378Y467D02*
X3385Y467D01*
X1Y466D02*
X8Y466D01*
X3378Y466D02*
X3385Y466D01*
X1Y465D02*
X8Y465D01*
X3378Y465D02*
X3385Y465D01*
X1Y464D02*
X8Y464D01*
X3378Y464D02*
X3385Y464D01*
X1Y463D02*
X8Y463D01*
X3378Y463D02*
X3385Y463D01*
X1Y462D02*
X8Y462D01*
X3378Y462D02*
X3385Y462D01*
X1Y461D02*
X8Y461D01*
X3378Y461D02*
X3385Y461D01*
X1Y460D02*
X8Y460D01*
X3378Y460D02*
X3385Y460D01*
X1Y459D02*
X8Y459D01*
X3378Y459D02*
X3385Y459D01*
X1Y458D02*
X8Y458D01*
X3378Y458D02*
X3385Y458D01*
X1Y457D02*
X8Y457D01*
X3378Y457D02*
X3385Y457D01*
X1Y456D02*
X8Y456D01*
X3378Y456D02*
X3385Y456D01*
X1Y455D02*
X8Y455D01*
X3378Y455D02*
X3385Y455D01*
X1Y454D02*
X8Y454D01*
X3378Y454D02*
X3385Y454D01*
X1Y453D02*
X8Y453D01*
X3378Y453D02*
X3385Y453D01*
X1Y452D02*
X8Y452D01*
X3378Y452D02*
X3385Y452D01*
X1Y451D02*
X8Y451D01*
X3378Y451D02*
X3385Y451D01*
X1Y450D02*
X8Y450D01*
X3378Y450D02*
X3385Y450D01*
X1Y449D02*
X8Y449D01*
X3378Y449D02*
X3385Y449D01*
X1Y448D02*
X8Y448D01*
X3378Y448D02*
X3385Y448D01*
X1Y447D02*
X8Y447D01*
X3378Y447D02*
X3385Y447D01*
X1Y446D02*
X8Y446D01*
X3378Y446D02*
X3385Y446D01*
X1Y445D02*
X8Y445D01*
X3378Y445D02*
X3385Y445D01*
X1Y444D02*
X8Y444D01*
X3378Y444D02*
X3385Y444D01*
X1Y443D02*
X8Y443D01*
X3378Y443D02*
X3385Y443D01*
X1Y442D02*
X8Y442D01*
X3378Y442D02*
X3385Y442D01*
X1Y441D02*
X8Y441D01*
X3378Y441D02*
X3385Y441D01*
X1Y440D02*
X8Y440D01*
X3378Y440D02*
X3385Y440D01*
X1Y439D02*
X8Y439D01*
X3378Y439D02*
X3385Y439D01*
X1Y438D02*
X8Y438D01*
X3378Y438D02*
X3385Y438D01*
X1Y437D02*
X8Y437D01*
X3378Y437D02*
X3385Y437D01*
X1Y436D02*
X8Y436D01*
X3378Y436D02*
X3385Y436D01*
X1Y435D02*
X8Y435D01*
X3378Y435D02*
X3385Y435D01*
X1Y434D02*
X8Y434D01*
X3378Y434D02*
X3385Y434D01*
X1Y433D02*
X8Y433D01*
X3378Y433D02*
X3385Y433D01*
X1Y432D02*
X8Y432D01*
X3378Y432D02*
X3385Y432D01*
X1Y431D02*
X8Y431D01*
X3378Y431D02*
X3385Y431D01*
X1Y430D02*
X8Y430D01*
X3378Y430D02*
X3385Y430D01*
X1Y429D02*
X8Y429D01*
X3378Y429D02*
X3385Y429D01*
X1Y428D02*
X8Y428D01*
X3378Y428D02*
X3385Y428D01*
X1Y427D02*
X8Y427D01*
X3378Y427D02*
X3385Y427D01*
X1Y426D02*
X8Y426D01*
X3378Y426D02*
X3385Y426D01*
X1Y425D02*
X8Y425D01*
X3378Y425D02*
X3385Y425D01*
X1Y424D02*
X8Y424D01*
X3378Y424D02*
X3385Y424D01*
X1Y423D02*
X8Y423D01*
X3378Y423D02*
X3385Y423D01*
X1Y422D02*
X8Y422D01*
X3378Y422D02*
X3385Y422D01*
X1Y421D02*
X8Y421D01*
X3378Y421D02*
X3385Y421D01*
X1Y420D02*
X8Y420D01*
X3378Y420D02*
X3385Y420D01*
X1Y419D02*
X8Y419D01*
X3378Y419D02*
X3385Y419D01*
X1Y418D02*
X8Y418D01*
X3378Y418D02*
X3385Y418D01*
X1Y417D02*
X8Y417D01*
X3378Y417D02*
X3385Y417D01*
X1Y416D02*
X8Y416D01*
X3378Y416D02*
X3385Y416D01*
X1Y415D02*
X8Y415D01*
X3378Y415D02*
X3385Y415D01*
X1Y414D02*
X8Y414D01*
X3378Y414D02*
X3385Y414D01*
X1Y413D02*
X8Y413D01*
X3378Y413D02*
X3385Y413D01*
X1Y412D02*
X8Y412D01*
X3378Y412D02*
X3385Y412D01*
X1Y411D02*
X8Y411D01*
X3378Y411D02*
X3385Y411D01*
X1Y410D02*
X8Y410D01*
X3378Y410D02*
X3385Y410D01*
X1Y409D02*
X8Y409D01*
X3378Y409D02*
X3385Y409D01*
X1Y408D02*
X8Y408D01*
X3378Y408D02*
X3385Y408D01*
X1Y407D02*
X8Y407D01*
X3378Y407D02*
X3385Y407D01*
X1Y406D02*
X8Y406D01*
X3378Y406D02*
X3385Y406D01*
X1Y405D02*
X8Y405D01*
X3378Y405D02*
X3385Y405D01*
X1Y404D02*
X8Y404D01*
X3378Y404D02*
X3385Y404D01*
X1Y403D02*
X8Y403D01*
X3378Y403D02*
X3385Y403D01*
X1Y402D02*
X8Y402D01*
X3378Y402D02*
X3385Y402D01*
X1Y401D02*
X8Y401D01*
X3378Y401D02*
X3385Y401D01*
X1Y400D02*
X8Y400D01*
X3378Y400D02*
X3385Y400D01*
X1Y399D02*
X8Y399D01*
X3378Y399D02*
X3385Y399D01*
X1Y398D02*
X8Y398D01*
X3378Y398D02*
X3385Y398D01*
X1Y397D02*
X8Y397D01*
X3378Y397D02*
X3385Y397D01*
X1Y396D02*
X8Y396D01*
X3378Y396D02*
X3385Y396D01*
X1Y395D02*
X8Y395D01*
X3378Y395D02*
X3385Y395D01*
X1Y394D02*
X8Y394D01*
X3378Y394D02*
X3385Y394D01*
X1Y393D02*
X8Y393D01*
X3378Y393D02*
X3385Y393D01*
X1Y392D02*
X8Y392D01*
X3378Y392D02*
X3385Y392D01*
X1Y391D02*
X8Y391D01*
X3378Y391D02*
X3385Y391D01*
X1Y390D02*
X8Y390D01*
X3378Y390D02*
X3385Y390D01*
X1Y389D02*
X8Y389D01*
X3378Y389D02*
X3385Y389D01*
X1Y388D02*
X8Y388D01*
X3378Y388D02*
X3385Y388D01*
X1Y387D02*
X8Y387D01*
X3378Y387D02*
X3385Y387D01*
X1Y386D02*
X8Y386D01*
X3378Y386D02*
X3385Y386D01*
X1Y385D02*
X8Y385D01*
X3378Y385D02*
X3385Y385D01*
X1Y384D02*
X8Y384D01*
X3378Y384D02*
X3385Y384D01*
X1Y383D02*
X8Y383D01*
X3378Y383D02*
X3385Y383D01*
X1Y382D02*
X8Y382D01*
X3378Y382D02*
X3385Y382D01*
X1Y381D02*
X8Y381D01*
X3378Y381D02*
X3385Y381D01*
X1Y380D02*
X8Y380D01*
X3378Y380D02*
X3385Y380D01*
X1Y379D02*
X8Y379D01*
X3378Y379D02*
X3385Y379D01*
X1Y378D02*
X8Y378D01*
X3378Y378D02*
X3385Y378D01*
X1Y377D02*
X8Y377D01*
X3378Y377D02*
X3385Y377D01*
X1Y376D02*
X8Y376D01*
X3378Y376D02*
X3385Y376D01*
X1Y375D02*
X8Y375D01*
X3378Y375D02*
X3385Y375D01*
X1Y374D02*
X8Y374D01*
X3378Y374D02*
X3385Y374D01*
X1Y373D02*
X8Y373D01*
X3378Y373D02*
X3385Y373D01*
X1Y372D02*
X8Y372D01*
X3378Y372D02*
X3385Y372D01*
X1Y371D02*
X8Y371D01*
X3377Y371D02*
X3385Y371D01*
X2Y370D02*
X9Y370D01*
X3377Y370D02*
X3384Y370D01*
X2Y369D02*
X9Y369D01*
X3377Y369D02*
X3384Y369D01*
X2Y368D02*
X9Y368D01*
X3377Y368D02*
X3384Y368D01*
X2Y367D02*
X9Y367D01*
X3377Y367D02*
X3384Y367D01*
X2Y366D02*
X9Y366D01*
X3377Y366D02*
X3384Y366D01*
X2Y365D02*
X9Y365D01*
X3377Y365D02*
X3384Y365D01*
X2Y364D02*
X9Y364D01*
X3377Y364D02*
X3384Y364D01*
X2Y363D02*
X9Y363D01*
X3377Y363D02*
X3384Y363D01*
X2Y362D02*
X9Y362D01*
X3377Y362D02*
X3384Y362D01*
X2Y361D02*
X9Y361D01*
X3377Y361D02*
X3384Y361D01*
X2Y360D02*
X9Y360D01*
X3377Y360D02*
X3384Y360D01*
X2Y359D02*
X9Y359D01*
X3377Y359D02*
X3384Y359D01*
X2Y358D02*
X9Y358D01*
X3377Y358D02*
X3384Y358D01*
X2Y357D02*
X9Y357D01*
X3377Y357D02*
X3384Y357D01*
X3Y356D02*
X10Y356D01*
X3376Y356D02*
X3383Y356D01*
X3Y355D02*
X10Y355D01*
X3376Y355D02*
X3383Y355D01*
X3Y354D02*
X10Y354D01*
X3376Y354D02*
X3383Y354D01*
X3Y353D02*
X10Y353D01*
X3376Y353D02*
X3383Y353D01*
X3Y352D02*
X10Y352D01*
X3376Y352D02*
X3383Y352D01*
X3Y351D02*
X10Y351D01*
X3376Y351D02*
X3383Y351D01*
X3Y350D02*
X10Y350D01*
X3376Y350D02*
X3383Y350D01*
X3Y349D02*
X10Y349D01*
X3376Y349D02*
X3383Y349D01*
X3Y348D02*
X10Y348D01*
X3376Y348D02*
X3383Y348D01*
X3Y347D02*
X10Y347D01*
X3376Y347D02*
X3383Y347D01*
X4Y346D02*
X11Y346D01*
X3375Y346D02*
X3382Y346D01*
X4Y345D02*
X11Y345D01*
X3375Y345D02*
X3382Y345D01*
X4Y344D02*
X11Y344D01*
X3375Y344D02*
X3382Y344D01*
X4Y343D02*
X11Y343D01*
X3375Y343D02*
X3382Y343D01*
X4Y342D02*
X11Y342D01*
X3375Y342D02*
X3382Y342D01*
X4Y341D02*
X11Y341D01*
X3375Y341D02*
X3382Y341D01*
X4Y340D02*
X11Y340D01*
X3375Y340D02*
X3382Y340D01*
X4Y339D02*
X11Y339D01*
X3375Y339D02*
X3382Y339D01*
X5Y338D02*
X12Y338D01*
X3374Y338D02*
X3381Y338D01*
X5Y337D02*
X12Y337D01*
X3374Y337D02*
X3381Y337D01*
X5Y336D02*
X12Y336D01*
X3374Y336D02*
X3381Y336D01*
X5Y335D02*
X12Y335D01*
X3374Y335D02*
X3381Y335D01*
X5Y334D02*
X12Y334D01*
X3374Y334D02*
X3381Y334D01*
X5Y333D02*
X12Y333D01*
X3374Y333D02*
X3381Y333D01*
X5Y332D02*
X12Y332D01*
X3374Y332D02*
X3381Y332D01*
X6Y331D02*
X13Y331D01*
X3373Y331D02*
X3380Y331D01*
X6Y330D02*
X13Y330D01*
X3373Y330D02*
X3380Y330D01*
X6Y329D02*
X13Y329D01*
X3373Y329D02*
X3380Y329D01*
X6Y328D02*
X13Y328D01*
X3373Y328D02*
X3380Y328D01*
X6Y327D02*
X13Y327D01*
X3373Y327D02*
X3380Y327D01*
X6Y326D02*
X13Y326D01*
X3373Y326D02*
X3380Y326D01*
X7Y325D02*
X14Y325D01*
X3372Y325D02*
X3379Y325D01*
X7Y324D02*
X14Y324D01*
X3372Y324D02*
X3379Y324D01*
X7Y323D02*
X14Y323D01*
X3372Y323D02*
X3379Y323D01*
X7Y322D02*
X14Y322D01*
X3372Y322D02*
X3379Y322D01*
X7Y321D02*
X14Y321D01*
X3372Y321D02*
X3379Y321D01*
X7Y320D02*
X15Y320D01*
X3371Y320D02*
X3379Y320D01*
X8Y319D02*
X15Y319D01*
X3371Y319D02*
X3378Y319D01*
X8Y318D02*
X15Y318D01*
X3371Y318D02*
X3378Y318D01*
X8Y317D02*
X15Y317D01*
X3371Y317D02*
X3378Y317D01*
X8Y316D02*
X15Y316D01*
X3371Y316D02*
X3378Y316D01*
X8Y315D02*
X15Y315D01*
X3371Y315D02*
X3378Y315D01*
X9Y314D02*
X16Y314D01*
X3370Y314D02*
X3377Y314D01*
X9Y313D02*
X16Y313D01*
X3370Y313D02*
X3377Y313D01*
X9Y312D02*
X16Y312D01*
X3370Y312D02*
X3377Y312D01*
X9Y311D02*
X16Y311D01*
X3370Y311D02*
X3377Y311D01*
X9Y310D02*
X17Y310D01*
X3369Y310D02*
X3377Y310D01*
X10Y309D02*
X17Y309D01*
X3369Y309D02*
X3376Y309D01*
X10Y308D02*
X17Y308D01*
X3369Y308D02*
X3376Y308D01*
X10Y307D02*
X17Y307D01*
X3369Y307D02*
X3376Y307D01*
X10Y306D02*
X17Y306D01*
X3369Y306D02*
X3376Y306D01*
X11Y305D02*
X18Y305D01*
X3368Y305D02*
X3375Y305D01*
X11Y304D02*
X18Y304D01*
X3368Y304D02*
X3375Y304D01*
X11Y303D02*
X18Y303D01*
X3368Y303D02*
X3375Y303D01*
X11Y302D02*
X18Y302D01*
X3368Y302D02*
X3375Y302D01*
X11Y301D02*
X19Y301D01*
X3367Y301D02*
X3375Y301D01*
X12Y300D02*
X19Y300D01*
X3367Y300D02*
X3374Y300D01*
X12Y299D02*
X19Y299D01*
X3367Y299D02*
X3374Y299D01*
X12Y298D02*
X19Y298D01*
X3367Y298D02*
X3374Y298D01*
X12Y297D02*
X20Y297D01*
X3366Y297D02*
X3374Y297D01*
X13Y296D02*
X20Y296D01*
X3366Y296D02*
X3373Y296D01*
X13Y295D02*
X20Y295D01*
X3366Y295D02*
X3373Y295D01*
X13Y294D02*
X20Y294D01*
X3366Y294D02*
X3373Y294D01*
X13Y293D02*
X21Y293D01*
X3365Y293D02*
X3373Y293D01*
X14Y292D02*
X21Y292D01*
X3365Y292D02*
X3372Y292D01*
X14Y291D02*
X21Y291D01*
X3365Y291D02*
X3372Y291D01*
X14Y290D02*
X21Y290D01*
X3365Y290D02*
X3372Y290D01*
X15Y289D02*
X22Y289D01*
X3364Y289D02*
X3371Y289D01*
X15Y288D02*
X22Y288D01*
X3364Y288D02*
X3371Y288D01*
X15Y287D02*
X22Y287D01*
X3364Y287D02*
X3371Y287D01*
X15Y286D02*
X23Y286D01*
X3363Y286D02*
X3371Y286D01*
X16Y285D02*
X23Y285D01*
X3363Y285D02*
X3370Y285D01*
X16Y284D02*
X23Y284D01*
X3363Y284D02*
X3370Y284D01*
X16Y283D02*
X23Y283D01*
X3363Y283D02*
X3370Y283D01*
X16Y282D02*
X24Y282D01*
X3362Y282D02*
X3370Y282D01*
X17Y281D02*
X24Y281D01*
X3362Y281D02*
X3369Y281D01*
X17Y280D02*
X24Y280D01*
X3362Y280D02*
X3369Y280D01*
X17Y279D02*
X25Y279D01*
X3361Y279D02*
X3369Y279D01*
X18Y278D02*
X25Y278D01*
X3361Y278D02*
X3368Y278D01*
X18Y277D02*
X25Y277D01*
X3361Y277D02*
X3368Y277D01*
X18Y276D02*
X26Y276D01*
X3360Y276D02*
X3368Y276D01*
X19Y275D02*
X26Y275D01*
X3360Y275D02*
X3367Y275D01*
X19Y274D02*
X26Y274D01*
X3360Y274D02*
X3367Y274D01*
X19Y273D02*
X27Y273D01*
X3359Y273D02*
X3367Y273D01*
X20Y272D02*
X27Y272D01*
X3359Y272D02*
X3366Y272D01*
X20Y271D02*
X27Y271D01*
X3359Y271D02*
X3366Y271D01*
X20Y270D02*
X28Y270D01*
X3358Y270D02*
X3366Y270D01*
X21Y269D02*
X28Y269D01*
X3358Y269D02*
X3365Y269D01*
X21Y268D02*
X28Y268D01*
X3358Y268D02*
X3365Y268D01*
X21Y267D02*
X29Y267D01*
X3357Y267D02*
X3365Y267D01*
X22Y266D02*
X29Y266D01*
X3357Y266D02*
X3364Y266D01*
X22Y265D02*
X29Y265D01*
X3357Y265D02*
X3364Y265D01*
X22Y264D02*
X30Y264D01*
X3356Y264D02*
X3364Y264D01*
X23Y263D02*
X30Y263D01*
X3356Y263D02*
X3363Y263D01*
X23Y262D02*
X30Y262D01*
X3356Y262D02*
X3363Y262D01*
X23Y261D02*
X31Y261D01*
X3355Y261D02*
X3363Y261D01*
X24Y260D02*
X31Y260D01*
X3355Y260D02*
X3362Y260D01*
X24Y259D02*
X31Y259D01*
X3355Y259D02*
X3362Y259D01*
X24Y258D02*
X32Y258D01*
X3354Y258D02*
X3362Y258D01*
X25Y257D02*
X32Y257D01*
X3354Y257D02*
X3361Y257D01*
X25Y256D02*
X33Y256D01*
X3353Y256D02*
X3361Y256D01*
X25Y255D02*
X33Y255D01*
X3353Y255D02*
X3361Y255D01*
X26Y254D02*
X33Y254D01*
X3353Y254D02*
X3360Y254D01*
X26Y253D02*
X34Y253D01*
X3352Y253D02*
X3360Y253D01*
X27Y252D02*
X34Y252D01*
X3352Y252D02*
X3359Y252D01*
X27Y251D02*
X34Y251D01*
X3352Y251D02*
X3359Y251D01*
X27Y250D02*
X35Y250D01*
X3351Y250D02*
X3359Y250D01*
X28Y249D02*
X35Y249D01*
X3351Y249D02*
X3358Y249D01*
X28Y248D02*
X36Y248D01*
X3350Y248D02*
X3358Y248D01*
X29Y247D02*
X36Y247D01*
X3350Y247D02*
X3357Y247D01*
X29Y246D02*
X36Y246D01*
X3350Y246D02*
X3357Y246D01*
X29Y245D02*
X37Y245D01*
X3349Y245D02*
X3357Y245D01*
X30Y244D02*
X37Y244D01*
X3349Y244D02*
X3356Y244D01*
X30Y243D02*
X38Y243D01*
X3348Y243D02*
X3356Y243D01*
X31Y242D02*
X38Y242D01*
X3348Y242D02*
X3355Y242D01*
X31Y241D02*
X39Y241D01*
X3347Y241D02*
X3355Y241D01*
X31Y240D02*
X39Y240D01*
X3347Y240D02*
X3355Y240D01*
X32Y239D02*
X39Y239D01*
X3347Y239D02*
X3354Y239D01*
X32Y238D02*
X40Y238D01*
X3346Y238D02*
X3354Y238D01*
X33Y237D02*
X40Y237D01*
X3346Y237D02*
X3353Y237D01*
X33Y236D02*
X41Y236D01*
X3345Y236D02*
X3353Y236D01*
X34Y235D02*
X41Y235D01*
X3345Y235D02*
X3352Y235D01*
X34Y234D02*
X42Y234D01*
X3344Y234D02*
X3352Y234D01*
X35Y233D02*
X42Y233D01*
X3344Y233D02*
X3351Y233D01*
X35Y232D02*
X43Y232D01*
X3343Y232D02*
X3351Y232D01*
X35Y231D02*
X43Y231D01*
X3343Y231D02*
X3351Y231D01*
X36Y230D02*
X44Y230D01*
X3342Y230D02*
X3350Y230D01*
X36Y229D02*
X44Y229D01*
X3342Y229D02*
X3350Y229D01*
X37Y228D02*
X44Y228D01*
X3342Y228D02*
X3349Y228D01*
X37Y227D02*
X45Y227D01*
X3341Y227D02*
X3349Y227D01*
X38Y226D02*
X45Y226D01*
X3341Y226D02*
X3348Y226D01*
X38Y225D02*
X46Y225D01*
X3340Y225D02*
X3348Y225D01*
X39Y224D02*
X46Y224D01*
X3340Y224D02*
X3347Y224D01*
X39Y223D02*
X47Y223D01*
X3339Y223D02*
X3347Y223D01*
X40Y222D02*
X47Y222D01*
X3339Y222D02*
X3346Y222D01*
X40Y221D02*
X48Y221D01*
X3338Y221D02*
X3346Y221D01*
X41Y220D02*
X48Y220D01*
X3338Y220D02*
X3345Y220D01*
X41Y219D02*
X49Y219D01*
X3337Y219D02*
X3345Y219D01*
X42Y218D02*
X49Y218D01*
X3337Y218D02*
X3344Y218D01*
X42Y217D02*
X50Y217D01*
X3336Y217D02*
X3344Y217D01*
X43Y216D02*
X50Y216D01*
X3336Y216D02*
X3343Y216D01*
X43Y215D02*
X51Y215D01*
X3335Y215D02*
X3343Y215D01*
X44Y214D02*
X51Y214D01*
X3335Y214D02*
X3342Y214D01*
X44Y213D02*
X52Y213D01*
X3334Y213D02*
X3342Y213D01*
X45Y212D02*
X52Y212D01*
X3334Y212D02*
X3341Y212D01*
X45Y211D02*
X53Y211D01*
X3333Y211D02*
X3341Y211D01*
X46Y210D02*
X54Y210D01*
X3332Y210D02*
X3340Y210D01*
X46Y209D02*
X54Y209D01*
X3332Y209D02*
X3340Y209D01*
X47Y208D02*
X55Y208D01*
X3331Y208D02*
X3339Y208D01*
X47Y207D02*
X55Y207D01*
X3331Y207D02*
X3339Y207D01*
X48Y206D02*
X56Y206D01*
X3330Y206D02*
X3338Y206D01*
X48Y205D02*
X56Y205D01*
X3330Y205D02*
X3338Y205D01*
X49Y204D02*
X57Y204D01*
X3329Y204D02*
X3337Y204D01*
X49Y203D02*
X57Y203D01*
X3329Y203D02*
X3337Y203D01*
X50Y202D02*
X58Y202D01*
X3328Y202D02*
X3336Y202D01*
X51Y201D02*
X59Y201D01*
X3327Y201D02*
X3335Y201D01*
X51Y200D02*
X59Y200D01*
X3327Y200D02*
X3335Y200D01*
X52Y199D02*
X60Y199D01*
X3326Y199D02*
X3334Y199D01*
X52Y198D02*
X60Y198D01*
X3326Y198D02*
X3334Y198D01*
X53Y197D02*
X61Y197D01*
X3325Y197D02*
X3333Y197D01*
X53Y196D02*
X62Y196D01*
X3324Y196D02*
X3333Y196D01*
X54Y195D02*
X62Y195D01*
X3324Y195D02*
X3332Y195D01*
X55Y194D02*
X63Y194D01*
X3323Y194D02*
X3331Y194D01*
X55Y193D02*
X63Y193D01*
X3323Y193D02*
X3331Y193D01*
X56Y192D02*
X64Y192D01*
X3322Y192D02*
X3330Y192D01*
X56Y191D02*
X65Y191D01*
X3321Y191D02*
X3330Y191D01*
X57Y190D02*
X65Y190D01*
X3321Y190D02*
X3329Y190D01*
X57Y189D02*
X66Y189D01*
X3320Y189D02*
X3329Y189D01*
X58Y188D02*
X66Y188D01*
X3320Y188D02*
X3328Y188D01*
X59Y187D02*
X67Y187D01*
X3319Y187D02*
X3327Y187D01*
X59Y186D02*
X68Y186D01*
X3318Y186D02*
X3327Y186D01*
X60Y185D02*
X68Y185D01*
X3318Y185D02*
X3326Y185D01*
X61Y184D02*
X69Y184D01*
X3317Y184D02*
X3325Y184D01*
X61Y183D02*
X70Y183D01*
X3316Y183D02*
X3325Y183D01*
X62Y182D02*
X70Y182D01*
X3316Y182D02*
X3324Y182D01*
X63Y181D02*
X71Y181D01*
X3315Y181D02*
X3323Y181D01*
X63Y180D02*
X72Y180D01*
X3314Y180D02*
X3323Y180D01*
X64Y179D02*
X72Y179D01*
X3314Y179D02*
X3322Y179D01*
X64Y178D02*
X73Y178D01*
X3313Y178D02*
X3322Y178D01*
X65Y177D02*
X74Y177D01*
X3312Y177D02*
X3321Y177D01*
X66Y176D02*
X74Y176D01*
X3312Y176D02*
X3320Y176D01*
X66Y175D02*
X75Y175D01*
X3311Y175D02*
X3320Y175D01*
X67Y174D02*
X76Y174D01*
X3310Y174D02*
X3319Y174D01*
X68Y173D02*
X76Y173D01*
X3310Y173D02*
X3318Y173D01*
X68Y172D02*
X77Y172D01*
X3309Y172D02*
X3318Y172D01*
X69Y171D02*
X78Y171D01*
X3308Y171D02*
X3317Y171D01*
X70Y170D02*
X79Y170D01*
X3307Y170D02*
X3316Y170D01*
X71Y169D02*
X79Y169D01*
X3307Y169D02*
X3315Y169D01*
X71Y168D02*
X80Y168D01*
X3306Y168D02*
X3315Y168D01*
X72Y167D02*
X81Y167D01*
X3305Y167D02*
X3314Y167D01*
X73Y166D02*
X81Y166D01*
X3305Y166D02*
X3313Y166D01*
X73Y165D02*
X82Y165D01*
X3304Y165D02*
X3313Y165D01*
X74Y164D02*
X83Y164D01*
X3303Y164D02*
X3312Y164D01*
X75Y163D02*
X84Y163D01*
X3302Y163D02*
X3311Y163D01*
X76Y162D02*
X84Y162D01*
X3302Y162D02*
X3310Y162D01*
X76Y161D02*
X85Y161D01*
X3301Y161D02*
X3310Y161D01*
X77Y160D02*
X86Y160D01*
X3300Y160D02*
X3309Y160D01*
X78Y159D02*
X87Y159D01*
X3299Y159D02*
X3308Y159D01*
X78Y158D02*
X87Y158D01*
X3299Y158D02*
X3308Y158D01*
X79Y157D02*
X88Y157D01*
X3298Y157D02*
X3307Y157D01*
X80Y156D02*
X89Y156D01*
X3297Y156D02*
X3306Y156D01*
X81Y155D02*
X90Y155D01*
X3296Y155D02*
X3305Y155D01*
X81Y154D02*
X91Y154D01*
X3295Y154D02*
X3305Y154D01*
X82Y153D02*
X91Y153D01*
X3295Y153D02*
X3304Y153D01*
X83Y152D02*
X92Y152D01*
X3294Y152D02*
X3303Y152D01*
X84Y151D02*
X93Y151D01*
X3293Y151D02*
X3302Y151D01*
X85Y150D02*
X94Y150D01*
X3292Y150D02*
X3301Y150D01*
X85Y149D02*
X95Y149D01*
X3291Y149D02*
X3301Y149D01*
X86Y148D02*
X95Y148D01*
X3291Y148D02*
X3300Y148D01*
X87Y147D02*
X96Y147D01*
X3290Y147D02*
X3299Y147D01*
X88Y146D02*
X97Y146D01*
X3289Y146D02*
X3298Y146D01*
X89Y145D02*
X98Y145D01*
X3288Y145D02*
X3297Y145D01*
X89Y144D02*
X99Y144D01*
X3287Y144D02*
X3297Y144D01*
X90Y143D02*
X100Y143D01*
X3286Y143D02*
X3296Y143D01*
X91Y142D02*
X101Y142D01*
X3285Y142D02*
X3295Y142D01*
X92Y141D02*
X101Y141D01*
X3285Y141D02*
X3294Y141D01*
X93Y140D02*
X102Y140D01*
X3284Y140D02*
X3293Y140D01*
X94Y139D02*
X103Y139D01*
X3283Y139D02*
X3292Y139D01*
X94Y138D02*
X104Y138D01*
X3282Y138D02*
X3292Y138D01*
X95Y137D02*
X105Y137D01*
X3281Y137D02*
X3291Y137D01*
X96Y136D02*
X106Y136D01*
X3280Y136D02*
X3290Y136D01*
X97Y135D02*
X107Y135D01*
X3279Y135D02*
X3289Y135D01*
X98Y134D02*
X108Y134D01*
X3278Y134D02*
X3288Y134D01*
X99Y133D02*
X109Y133D01*
X3277Y133D02*
X3287Y133D01*
X100Y132D02*
X109Y132D01*
X3277Y132D02*
X3286Y132D01*
X101Y131D02*
X110Y131D01*
X3276Y131D02*
X3285Y131D01*
X101Y130D02*
X111Y130D01*
X3275Y130D02*
X3285Y130D01*
X102Y129D02*
X112Y129D01*
X3274Y129D02*
X3284Y129D01*
X103Y128D02*
X113Y128D01*
X3273Y128D02*
X3283Y128D01*
X104Y127D02*
X114Y127D01*
X3272Y127D02*
X3282Y127D01*
X105Y126D02*
X115Y126D01*
X3271Y126D02*
X3281Y126D01*
X106Y125D02*
X116Y125D01*
X3270Y125D02*
X3280Y125D01*
X107Y124D02*
X117Y124D01*
X3269Y124D02*
X3279Y124D01*
X108Y123D02*
X118Y123D01*
X3268Y123D02*
X3278Y123D01*
X109Y122D02*
X119Y122D01*
X3267Y122D02*
X3277Y122D01*
X110Y121D02*
X120Y121D01*
X3266Y121D02*
X3276Y121D01*
X111Y120D02*
X121Y120D01*
X3265Y120D02*
X3275Y120D01*
X112Y119D02*
X122Y119D01*
X3264Y119D02*
X3274Y119D01*
X113Y118D02*
X123Y118D01*
X3263Y118D02*
X3273Y118D01*
X114Y117D02*
X124Y117D01*
X3262Y117D02*
X3272Y117D01*
X115Y116D02*
X125Y116D01*
X3261Y116D02*
X3271Y116D01*
X116Y115D02*
X126Y115D01*
X3260Y115D02*
X3270Y115D01*
X117Y114D02*
X127Y114D01*
X3259Y114D02*
X3269Y114D01*
X118Y113D02*
X128Y113D01*
X3258Y113D02*
X3268Y113D01*
X119Y112D02*
X129Y112D01*
X3257Y112D02*
X3267Y112D01*
X120Y111D02*
X130Y111D01*
X3255Y111D02*
X3266Y111D01*
X121Y110D02*
X132Y110D01*
X3254Y110D02*
X3265Y110D01*
X122Y109D02*
X133Y109D01*
X3253Y109D02*
X3264Y109D01*
X123Y108D02*
X134Y108D01*
X3252Y108D02*
X3263Y108D01*
X124Y107D02*
X135Y107D01*
X3251Y107D02*
X3262Y107D01*
X125Y106D02*
X136Y106D01*
X3250Y106D02*
X3261Y106D01*
X126Y105D02*
X137Y105D01*
X3249Y105D02*
X3260Y105D01*
X127Y104D02*
X138Y104D01*
X3248Y104D02*
X3259Y104D01*
X128Y103D02*
X139Y103D01*
X3247Y103D02*
X3258Y103D01*
X129Y102D02*
X141Y102D01*
X3245Y102D02*
X3257Y102D01*
X131Y101D02*
X142Y101D01*
X3244Y101D02*
X3255Y101D01*
X132Y100D02*
X143Y100D01*
X3243Y100D02*
X3254Y100D01*
X133Y99D02*
X144Y99D01*
X3242Y99D02*
X3253Y99D01*
X134Y98D02*
X145Y98D01*
X3241Y98D02*
X3252Y98D01*
X135Y97D02*
X146Y97D01*
X3240Y97D02*
X3251Y97D01*
X136Y96D02*
X148Y96D01*
X3238Y96D02*
X3250Y96D01*
X137Y95D02*
X149Y95D01*
X3237Y95D02*
X3249Y95D01*
X139Y94D02*
X150Y94D01*
X3236Y94D02*
X3247Y94D01*
X140Y93D02*
X151Y93D01*
X3235Y93D02*
X3246Y93D01*
X141Y92D02*
X153Y92D01*
X3233Y92D02*
X3245Y92D01*
X142Y91D02*
X154Y91D01*
X3232Y91D02*
X3244Y91D01*
X143Y90D02*
X155Y90D01*
X3231Y90D02*
X3243Y90D01*
X145Y89D02*
X156Y89D01*
X3230Y89D02*
X3241Y89D01*
X146Y88D02*
X158Y88D01*
X3228Y88D02*
X3240Y88D01*
X147Y87D02*
X159Y87D01*
X3227Y87D02*
X3239Y87D01*
X148Y86D02*
X160Y86D01*
X3226Y86D02*
X3238Y86D01*
X150Y85D02*
X162Y85D01*
X3224Y85D02*
X3236Y85D01*
X151Y84D02*
X163Y84D01*
X3223Y84D02*
X3235Y84D01*
X152Y83D02*
X164Y83D01*
X3222Y83D02*
X3234Y83D01*
X154Y82D02*
X166Y82D01*
X3220Y82D02*
X3232Y82D01*
X155Y81D02*
X167Y81D01*
X3219Y81D02*
X3231Y81D01*
X156Y80D02*
X169Y80D01*
X3217Y80D02*
X3230Y80D01*
X157Y79D02*
X170Y79D01*
X3216Y79D02*
X3229Y79D01*
X159Y78D02*
X171Y78D01*
X3215Y78D02*
X3227Y78D01*
X160Y77D02*
X173Y77D01*
X3213Y77D02*
X3226Y77D01*
X161Y76D02*
X174Y76D01*
X3212Y76D02*
X3225Y76D01*
X163Y75D02*
X176Y75D01*
X3210Y75D02*
X3223Y75D01*
X164Y74D02*
X177Y74D01*
X3209Y74D02*
X3222Y74D01*
X166Y73D02*
X179Y73D01*
X3207Y73D02*
X3220Y73D01*
X167Y72D02*
X180Y72D01*
X3206Y72D02*
X3219Y72D01*
X169Y71D02*
X182Y71D01*
X3204Y71D02*
X3217Y71D01*
X170Y70D02*
X183Y70D01*
X3203Y70D02*
X3216Y70D01*
X171Y69D02*
X185Y69D01*
X3201Y69D02*
X3215Y69D01*
X173Y68D02*
X186Y68D01*
X3200Y68D02*
X3213Y68D01*
X174Y67D02*
X188Y67D01*
X3198Y67D02*
X3212Y67D01*
X176Y66D02*
X190Y66D01*
X3196Y66D02*
X3210Y66D01*
X177Y65D02*
X191Y65D01*
X3195Y65D02*
X3209Y65D01*
X179Y64D02*
X193Y64D01*
X3193Y64D02*
X3207Y64D01*
X181Y63D02*
X194Y63D01*
X3192Y63D02*
X3205Y63D01*
X182Y62D02*
X196Y62D01*
X3190Y62D02*
X3204Y62D01*
X184Y61D02*
X198Y61D01*
X3188Y61D02*
X3202Y61D01*
X185Y60D02*
X200Y60D01*
X3186Y60D02*
X3201Y60D01*
X187Y59D02*
X201Y59D01*
X3185Y59D02*
X3199Y59D01*
X188Y58D02*
X203Y58D01*
X3183Y58D02*
X3198Y58D01*
X190Y57D02*
X205Y57D01*
X3181Y57D02*
X3196Y57D01*
X192Y56D02*
X207Y56D01*
X3179Y56D02*
X3194Y56D01*
X193Y55D02*
X208Y55D01*
X3178Y55D02*
X3193Y55D01*
X195Y54D02*
X210Y54D01*
X3176Y54D02*
X3191Y54D01*
X197Y53D02*
X212Y53D01*
X3174Y53D02*
X3189Y53D01*
X199Y52D02*
X214Y52D01*
X3172Y52D02*
X3187Y52D01*
X200Y51D02*
X216Y51D01*
X3170Y51D02*
X3186Y51D01*
X202Y50D02*
X218Y50D01*
X3168Y50D02*
X3184Y50D01*
X204Y49D02*
X220Y49D01*
X3166Y49D02*
X3182Y49D01*
X206Y48D02*
X222Y48D01*
X3164Y48D02*
X3180Y48D01*
X208Y47D02*
X224Y47D01*
X3162Y47D02*
X3178Y47D01*
X210Y46D02*
X226Y46D01*
X3160Y46D02*
X3176Y46D01*
X212Y45D02*
X228Y45D01*
X3158Y45D02*
X3174Y45D01*
X214Y44D02*
X230Y44D01*
X3156Y44D02*
X3172Y44D01*
X215Y43D02*
X233Y43D01*
X3153Y43D02*
X3171Y43D01*
X217Y42D02*
X235Y42D01*
X3151Y42D02*
X3169Y42D01*
X219Y41D02*
X237Y41D01*
X3149Y41D02*
X3167Y41D01*
X221Y40D02*
X239Y40D01*
X3147Y40D02*
X3165Y40D01*
X223Y39D02*
X242Y39D01*
X3144Y39D02*
X3163Y39D01*
X226Y38D02*
X244Y38D01*
X3142Y38D02*
X3160Y38D01*
X228Y37D02*
X246Y37D01*
X3140Y37D02*
X3158Y37D01*
X230Y36D02*
X249Y36D01*
X3137Y36D02*
X3156Y36D01*
X232Y35D02*
X252Y35D01*
X3134Y35D02*
X3154Y35D01*
X234Y34D02*
X254Y34D01*
X3132Y34D02*
X3152Y34D01*
X237Y33D02*
X257Y33D01*
X3129Y33D02*
X3149Y33D01*
X239Y32D02*
X259Y32D01*
X3127Y32D02*
X3147Y32D01*
X241Y31D02*
X262Y31D01*
X3124Y31D02*
X3145Y31D01*
X244Y30D02*
X265Y30D01*
X3121Y30D02*
X3142Y30D01*
X246Y29D02*
X268Y29D01*
X3118Y29D02*
X3140Y29D01*
X249Y28D02*
X271Y28D01*
X3115Y28D02*
X3137Y28D01*
X251Y27D02*
X274Y27D01*
X3112Y27D02*
X3135Y27D01*
X254Y26D02*
X277Y26D01*
X3109Y26D02*
X3132Y26D01*
X257Y25D02*
X280Y25D01*
X3106Y25D02*
X3129Y25D01*
X259Y24D02*
X284Y24D01*
X3102Y24D02*
X3127Y24D01*
X262Y23D02*
X287Y23D01*
X3099Y23D02*
X3124Y23D01*
X265Y22D02*
X291Y22D01*
X3095Y22D02*
X3121Y22D01*
X268Y21D02*
X294Y21D01*
X3092Y21D02*
X3118Y21D01*
X271Y20D02*
X298Y20D01*
X3088Y20D02*
X3115Y20D01*
X274Y19D02*
X302Y19D01*
X3084Y19D02*
X3112Y19D01*
X277Y18D02*
X307Y18D01*
X3079Y18D02*
X3109Y18D01*
X280Y17D02*
X311Y17D01*
X3075Y17D02*
X3106Y17D01*
X284Y16D02*
X316Y16D01*
X3070Y16D02*
X3102Y16D01*
X287Y15D02*
X321Y15D01*
X3065Y15D02*
X3099Y15D01*
X291Y14D02*
X327Y14D01*
X3059Y14D02*
X3095Y14D01*
X295Y13D02*
X333Y13D01*
X3053Y13D02*
X3091Y13D01*
X299Y12D02*
X340Y12D01*
X3046Y12D02*
X3087Y12D01*
X303Y11D02*
X348Y11D01*
X3038Y11D02*
X3083Y11D01*
X307Y10D02*
X358Y10D01*
X3028Y10D02*
X3079Y10D01*
X312Y9D02*
X373Y9D01*
X3013Y9D02*
X3074Y9D01*
X317Y8D02*
X3069Y8D01*
X322Y7D02*
X3064Y7D01*
X328Y6D02*
X3058Y6D01*
X334Y5D02*
X3052Y5D01*
X341Y4D02*
X3045Y4D01*
X349Y3D02*
X3037Y3D01*
X359Y2D02*
X3027Y2D01*
X374Y1D02*
X3012Y1D01*
D02*
G04 End of Silk0*
M02*